<?xml version="1.0" encoding="UTF-8"?><svg id="_레이어_1" xmlns="http://www.w3.org/2000/svg" viewBox="0 0 400 560"><defs><style>.cls-1{fill:#6c1c49;}.cls-2{fill:#506c23;}</style></defs><g><path class="cls-1" d="m190.957,427.995c-.56-.953-2.098-1.868-3.216-1.555-.886.248-1.785,1.349-1.932,2.237-.325,1.96.919,3.597,2.751,4.062,1.338.34,3.461-.211,3.611-1.884.086-.957-.515-1.842-1.214-2.86Z"/><path class="cls-1" d="m192.104,434.011c.939-.631,1.781-2.258,1.391-3.382-.308-.89-1.488-1.741-2.404-1.837-2.023-.212-3.619,1.16-3.982,3.06-.265,1.388.428,3.523,2.147,3.575.983.029,1.85-.64,2.848-1.416Z"/><path class="cls-1" d="m192.082,437.502c1.391-.017,3.351-1.125,3.707-2.543.282-1.123-.36-2.792-1.237-3.507-1.938-1.579-4.503-1.242-6.155.468-1.207,1.249-1.93,3.913-.197,5.121.991.692,2.334.587,3.882.46Z"/><path class="cls-1" d="m196.212,435.556c.006-1.348-1.036-3.267-2.404-3.635-1.084-.292-2.712.303-3.42,1.142-1.562,1.853-1.278,4.344.353,5.974,1.191,1.19,3.761,1.935,4.961.275.687-.95.607-2.253.51-3.756Z"/><path class="cls-1" d="m196.99,438.355c.241-1.087-.263-2.817-1.303-3.354-.823-.425-2.242-.231-2.96.322-1.585,1.221-1.792,3.282-.762,4.883.753,1.169,2.696,2.22,3.955,1.091.72-.646.885-1.711,1.069-2.941Z"/><path class="cls-1" d="m198.438,441.127c.508-1.086.383-3.022-.584-3.83-.766-.64-2.302-.767-3.185-.354-1.952.912-2.652,3.029-1.943,4.952.517,1.405,2.313,2.964,3.901,2.072.908-.51,1.33-1.591,1.812-2.84Z"/><path class="cls-1" d="m199.684,442.624c.238-1.223-.377-3.144-1.556-3.715-.934-.452-2.515-.193-3.302.447-1.737,1.413-1.909,3.724-.709,5.485.876,1.286,3.081,2.405,4.457,1.105.787-.744.94-1.94,1.11-3.322Z"/><path class="cls-1" d="m200.118,443.686c-.297-1.269-1.707-2.839-3.076-2.879-1.085-.031-2.483.893-2.96,1.841-1.053,2.093-.227,4.372,1.672,5.538,1.387.852,3.971.976,4.727-.855.433-1.047.066-2.254-.363-3.646Z"/><path class="cls-1" d="m198.652,450.304c1.192-.232,2.704-1.489,2.788-2.763.067-1.009-.745-2.343-1.61-2.82-1.912-1.054-4.063-.365-5.215,1.363-.842,1.262-1.048,3.663.63,4.431.96.439,2.097.14,3.407-.21Z"/><path class="cls-1" d="m198.578,446.03c-1.434-.418-3.794.104-4.605,1.448-.642,1.065-.507,2.98.17,3.99,1.495,2.229,4.235,2.688,6.468,1.45,1.631-.904,3.209-3.412,1.809-5.198-.801-1.021-2.213-1.335-3.843-1.69Z"/><path class="cls-1" d="m201.02,449.187c-1.034-1.107-3.363-1.874-4.766-1.121-1.111.596-1.985,2.337-1.917,3.568.15,2.718,2.301,4.537,4.89,4.614,1.891.056,4.566-1.314,4.269-3.596-.17-1.306-1.238-2.31-2.476-3.464Z"/><path class="cls-1" d="m199.349,451.778c-1.111-.245-2.879.273-3.426,1.336-.434.842-.233,2.291.333,3.024,1.25,1.618,3.356,1.828,4.99.772,1.194-.771,2.266-2.758,1.11-4.043-.661-.735-1.75-.902-3.007-1.089Z"/><path class="cls-1" d="m201.739,455.147c-.632-.9-2.231-1.686-3.316-1.285-.859.317-1.663,1.482-1.738,2.374-.165,1.971,1.2,3.495,3.055,3.81,1.355.23,3.417-.487,3.432-2.159.009-.956-.659-1.786-1.433-2.741Z"/><path class="cls-1" d="m202.979,460.43c.512-.991.467-2.798-.403-3.584-.689-.623-2.113-.798-2.95-.446-1.849.777-2.578,2.721-1.989,4.536.43,1.326,2.043,2.842,3.553,2.071.864-.441,1.296-1.432,1.79-2.576Z"/><path class="cls-1" d="m204.179,460.539c-.342-1.401-1.918-3.123-3.434-3.152-1.2-.023-2.737,1.015-3.255,2.068-1.143,2.326-.205,4.839,1.909,6.109,1.543.928,4.403,1.037,5.22-.995.467-1.163.049-2.495-.441-4.03Z"/><path class="cls-1" d="m203.048,462.087c-.785-.958-2.646-1.706-3.83-1.165-.938.428-1.743,1.803-1.752,2.811-.021,2.226,1.639,3.823,3.748,4.022,1.54.145,3.795-.833,3.673-2.711-.07-1.074-.889-1.95-1.839-2.957Z"/><path class="cls-1" d="m201.829,470.649c1.472-.039,3.531-1.24,3.888-2.746.282-1.193-.422-2.951-1.361-3.695-2.075-1.643-4.785-1.249-6.51.586-1.259,1.34-1.986,4.17-.134,5.425,1.06.718,2.479.587,4.117.43Z"/><path class="cls-1" d="m205.131,469.89c.418-1.451-.118-3.838-1.481-4.653-1.079-.645-3.016-.502-4.035.186-2.25,1.52-2.704,4.293-1.444,6.548.92,1.647,3.463,3.235,5.264,1.812,1.03-.814,1.343-2.243,1.697-3.893Z"/><path class="cls-1" d="m202.369,474.736c1.145-.171,2.636-1.306,2.769-2.515.106-.958-.612-2.262-1.416-2.752-1.776-1.083-3.853-.516-5.022,1.081-.854,1.166-1.15,3.444.416,4.245.896.458,1.991.22,3.253-.059Z"/><path class="cls-1" d="m204.396,473.481c-.181-1.124-1.313-2.577-2.503-2.695-.943-.093-2.217.626-2.69,1.422-1.045,1.758-.465,3.794,1.118,4.926,1.156.827,3.398,1.093,4.169-.455.441-.885.195-1.959-.093-3.198Z"/><path class="cls-1" d="m205.28,475.519c-.308-1.427-1.856-3.212-3.389-3.283-1.214-.056-2.797.952-3.349,2.004-1.22,2.323-.338,4.891,1.766,6.234,1.537.981,4.427,1.169,5.309-.866.505-1.164.117-2.523-.337-4.09Z"/><path class="cls-1" d="m204.888,476.571c-.896-1.3-3.18-2.448-4.743-1.887-1.237.444-2.406,2.105-2.525,3.385-.263,2.826,1.677,5.032,4.335,5.508,1.941.348,4.91-.655,4.954-3.054.025-1.372-.923-2.572-2.022-3.952Z"/><path class="cls-1" d="m203.302,484.176c.969-.3,2.111-1.48,2.067-2.546-.035-.844-.83-1.879-1.591-2.197-1.682-.703-3.407.063-4.208,1.602-.585,1.123-.54,3.136.922,3.623.837.279,1.754-.072,2.811-.482Z"/><path class="cls-1" d="m204.546,486.234c.872-.741,1.533-2.472,1.015-3.558-.411-.86-1.694-1.581-2.625-1.573-2.057.017-3.506,1.577-3.655,3.528-.109,1.425.831,3.493,2.564,3.349.991-.082,1.787-.853,2.702-1.747Z"/><path class="cls-1" d="m204.9,484.838c-.606-1.114-2.333-2.222-3.627-1.906-1.025.251-2.098,1.478-2.3,2.49-.448,2.234.915,4.158,2.997,4.762,1.52.441,3.975-.109,4.212-2.02.136-1.093-.52-2.131-1.281-3.325Z"/><path class="cls-1" d="m203.506,491.997c1.109-.291,2.457-1.569,2.459-2.775.002-.955-.845-2.163-1.69-2.56-1.866-.877-3.851-.096-4.832,1.603-.716,1.24-.764,3.516.864,4.138.931.356,1.985.004,3.199-.406Z"/><path class="cls-1" d="m205.386,492.114c.314-1.177-.157-3.092-1.268-3.727-.88-.503-2.44-.357-3.25.214-1.789,1.261-2.112,3.503-1.06,5.301.768,1.313,2.843,2.552,4.272,1.377.818-.673,1.047-1.829,1.306-3.165Z"/><path class="cls-1" d="m205.12,494.638c.312-1.082-.087-2.861-1.102-3.469-.804-.482-2.248-.375-3.008.137-1.678,1.132-2.018,3.199-1.079,4.88.685,1.228,2.58,2.412,3.923,1.352.768-.606,1.002-1.671,1.266-2.901Z"/><path class="cls-1" d="m205.869,496.04c-.059-1.45-1.271-3.462-2.76-3.792-1.179-.261-2.901.457-3.621,1.393-1.59,2.067-1.164,4.732.668,6.405,1.338,1.222,4.136,1.898,5.346.056.692-1.054.544-2.451.366-4.062Z"/><path class="cls-1" d="m205.297,500.052c.494-1.143.306-3.15-.723-3.959-.815-.641-2.414-.727-3.319-.271-1.999,1.007-2.661,3.226-1.867,5.202.58,1.443,2.492,3.008,4.114,2.033.928-.557,1.333-1.693,1.795-3.005Z"/><path class="cls-1" d="m203.565,498.852c-1.037-.718-3.067-.929-4.075-.068-.798.682-1.201,2.252-.928,3.242.603,2.185,2.675,3.283,4.795,2.887,1.548-.289,3.482-1.877,2.836-3.681-.369-1.032-1.416-1.66-2.627-2.38Z"/><path class="cls-1" d="m203.308,506.61c.981-.296,2.143-1.482,2.105-2.558-.03-.853-.825-1.904-1.593-2.23-1.695-.722-3.442.041-4.263,1.59-.599,1.131-.567,3.165.907,3.667.843.287,1.772-.061,2.843-.468Z"/><path class="cls-1" d="m204.4,504.424c-.752-1.024-2.618-1.891-3.86-1.401-.984.388-1.883,1.752-1.947,2.784-.142,2.279,1.472,4.005,3.621,4.323,1.57.232,3.933-.647,3.909-2.577-.014-1.104-.805-2.046-1.723-3.129Z"/><path class="cls-1" d="m205.193,509.079c.144-1.249-.625-3.134-1.856-3.616-.975-.381-2.545.003-3.287.708-1.638,1.557-1.63,3.896-.285,5.574.982,1.225,3.288,2.179,4.571.763.734-.81.794-2.026.857-3.429Z"/><path class="cls-1" d="m203.604,514.443c1.164-.511,2.417-2.142,2.211-3.461-.163-1.045-1.299-2.22-2.292-2.509-2.193-.636-4.231.562-5.01,2.59-.569,1.481-.228,3.979,1.662,4.378,1.081.228,2.172-.339,3.43-.998Z"/><path class="cls-1" d="m204.27,517.128c1.292-.811,2.493-2.969,2.016-4.499-.378-1.212-1.933-2.408-3.163-2.575-2.716-.369-4.924,1.412-5.493,3.957-.415,1.859.43,4.765,2.744,4.906,1.323.08,2.52-.785,3.897-1.789Z"/><path class="cls-1" d="m203.393,513.736c-1.023-.9-3.175-1.38-4.364-.583-.942.632-1.57,2.266-1.401,3.362.374,2.419,2.46,3.857,4.783,3.697,1.697-.117,3.97-1.579,3.503-3.595-.267-1.153-1.312-1.958-2.521-2.881Z"/><path class="cls-1" d="m204.077,517.312c-.549-1.151-2.226-2.356-3.543-2.107-1.043.197-2.186,1.374-2.443,2.379-.568,2.221.699,4.226,2.758,4.943,1.504.524,3.999.101,4.338-1.807.194-1.091-.409-2.168-1.111-3.408Z"/><path class="cls-1" d="m202.008,518.305c-1.247-.503-3.408-.246-4.254.886-.67.896-.72,2.625-.204,3.589,1.14,2.131,3.553,2.786,5.665,1.877,1.542-.664,3.18-2.77,2.085-4.495-.627-.986-1.863-1.393-3.291-1.858Z"/><path class="cls-1" d="m203.326,525.549c.685-.783,1.047-2.427.436-3.334-.484-.718-1.734-1.194-2.57-1.063-1.847.291-2.94,1.886-2.813,3.661.093,1.296,1.214,3.028,2.753,2.667.88-.207,1.492-1.006,2.195-1.932Z"/><path class="cls-1" d="m202.097,523.939c-.957-.651-2.822-.831-3.741-.033-.728.631-1.086,2.076-.829,2.982.569,2.001,2.479,2.995,4.422,2.616,1.419-.277,3.182-1.748,2.577-3.4-.346-.945-1.312-1.513-2.429-2.165Z"/><path class="cls-1" d="m203.121,527.492c-.465-1.064-1.953-2.211-3.158-2.025-.955.148-2.03,1.183-2.295,2.09-.585,2.003.506,3.865,2.358,4.58,1.352.522,3.634.214,4.001-1.511.21-.987-.306-1.985-.906-3.134Z"/></g><g><path class="cls-2" d="m205.87,481.698s7.84,6.915,19.432-.14c8.593-5.23,8.125-14.229,8.125-14.229,0,0-6.677-5.181-17.098-.576-11.053,4.884-10.46,14.945-10.46,14.945Z"/><g><path class="cls-2" d="m207.036,479.001c-.482-.494-1.551-.821-2.182-.464-.5.283-.881,1.084-.838,1.644.095,1.237,1.093,2.044,2.273,2.054.862.007,2.067-.644,1.909-1.681-.09-.593-.587-1.04-1.162-1.554Z"/><path class="cls-2" d="m207.77,478.458c-.058-.655-.65-1.54-1.331-1.657-.539-.093-1.304.269-1.609.709-.675.97-.425,2.167.441,2.885.632.524,1.914.77,2.422-.09.291-.492.193-1.121.078-1.847Z"/><path class="cls-2" d="m207.913,475.508c-.672-.572-2.072-.861-2.834-.332-.604.419-.994,1.485-.873,2.194.268,1.564,1.634,2.474,3.139,2.346,1.099-.093,2.556-1.065,2.232-2.367-.185-.745-.871-1.255-1.664-1.841Z"/><path class="cls-2" d="m209.305,475.152c-.207-.808-1.129-1.794-2.006-1.801-.694-.005-1.576.604-1.869,1.217-.646,1.353-.087,2.8,1.143,3.521.899.527,2.553.572,3.012-.609.263-.675.012-1.443-.281-2.327Z"/><path class="cls-2" d="m207.932,472.495c-.804-.122-2.039.332-2.379,1.116-.269.621-.057,1.644.382,2.14.968,1.094,2.479,1.143,3.594.313.814-.606,1.483-2.074.598-2.935-.506-.493-1.29-.559-2.195-.633Z"/><path class="cls-2" d="m209.968,474.274c.526-.471.906-1.549.569-2.211-.267-.524-1.07-.948-1.644-.928-1.268.043-2.137,1.029-2.198,2.235-.044.881.568,2.141,1.635,2.025.61-.067,1.089-.555,1.639-1.12Z"/><path class="cls-2" d="m210.929,470.296c-.6-.61-1.926-1.01-2.707-.564-.619.353-1.087,1.348-1.031,2.042.124,1.533,1.365,2.529,2.828,2.535,1.068.004,2.559-.808,2.359-2.092-.115-.735-.733-1.287-1.448-1.92Z"/><path class="cls-2" d="m213.013,471.468c.28-.809.047-2.176-.7-2.678-.592-.397-1.692-.374-2.29-.014-1.319.794-1.658,2.349-1.012,3.663.472.959,1.864,1.934,2.926,1.182.607-.43.827-1.23,1.076-2.153Z"/><path class="cls-2" d="m213.535,469.342c-.211-.613-.988-1.319-1.668-1.269-.538.039-1.184.567-1.372,1.061-.415,1.089.108,2.175,1.107,2.656.729.352,2.014.282,2.296-.662.161-.54-.081-1.119-.364-1.786Z"/><path class="cls-2" d="m215.153,468.765c-.036-.742-.665-1.768-1.429-1.932-.605-.129-1.485.245-1.85.728-.806,1.065-.578,2.429.367,3.279.69.621,2.126.956,2.739.008.351-.543.269-1.258.172-2.082Z"/><path class="cls-2" d="m216.321,467.157c-.286-.763-1.287-1.623-2.139-1.537-.675.068-1.467.754-1.687,1.38-.484,1.382.212,2.729,1.483,3.299.929.416,2.54.285,2.862-.911.184-.684-.141-1.403-.519-2.231Z"/><path class="cls-2" d="m216.339,465.323c-.696-.354-1.961-.315-2.508.298-.433.485-.55,1.483-.3,2.068.552,1.291,1.916,1.793,3.185,1.373.926-.307,1.981-1.443,1.435-2.497-.313-.603-1.008-.901-1.812-1.242Z"/><path class="cls-2" d="m218.594,468.296c.752-.466,1.455-1.714,1.183-2.603-.215-.704-1.113-1.403-1.826-1.504-1.574-.223-2.861.803-3.198,2.278-.247,1.077.235,2.765,1.576,2.854.767.051,1.464-.447,2.266-1.025Z"/><path class="cls-2" d="m218.841,468.094c.716.033,1.759-.478,1.986-1.197.179-.57-.1-1.448-.531-1.843-.95-.872-2.281-.776-3.183.054-.659.607-1.112,1.956-.257,2.631.489.386,1.184.373,1.985.355Z"/><path class="cls-2" d="m221.318,463.902c-.718-.579-2.187-.841-2.968-.267-.618.455-.996,1.578-.849,2.314.323,1.625,1.776,2.537,3.342,2.361,1.144-.128,2.639-1.183,2.264-2.533-.214-.772-.944-1.286-1.789-1.875Z"/><path class="cls-2" d="m223.306,464.022c-.519-.73-1.825-1.363-2.707-1.031-.698.263-1.347,1.215-1.404,1.942-.125,1.606.994,2.841,2.506,3.089,1.104.181,2.781-.413,2.785-1.774.003-.779-.545-1.452-1.18-2.226Z"/><path class="cls-2" d="m224.371,463.747c-.531-.551-1.714-.919-2.417-.528-.556.31-.984,1.197-.94,1.818.098,1.372,1.2,2.274,2.508,2.291.956.013,2.296-.701,2.128-1.852-.096-.658-.644-1.157-1.279-1.73Z"/><path class="cls-2" d="m225.222,463.024c-.729-.317-2.012-.199-2.53.457-.41.52-.467,1.541-.177,2.12.641,1.278,2.058,1.704,3.321,1.199.922-.369,1.924-1.588,1.304-2.625-.355-.593-1.08-.853-1.917-1.15Z"/><path class="cls-2" d="m226.608,467.009c.781-.016,1.878-.649,2.071-1.447.153-.632-.216-1.568-.712-1.965-1.097-.878-2.537-.676-3.457.293-.672.708-1.066,2.208-.086,2.879.561.384,1.314.319,2.184.24Z"/><path class="cls-2" d="m229.917,464.041c-.38-.915-1.631-1.917-2.663-1.777-.817.111-1.751.977-1.991,1.747-.53,1.699.372,3.306,1.94,3.945,1.145.467,3.098.24,3.438-1.226.195-.839-.23-1.698-.724-2.688Z"/><path class="cls-2" d="m231.18,466.568c.45-.677.561-1.99-.006-2.629-.449-.506-1.467-.747-2.102-.559-1.402.416-2.085,1.766-1.803,3.128.206.995,1.254,2.222,2.409,1.784.661-.251,1.053-.934,1.502-1.724Z"/><path class="cls-2" d="m231.429,463.875c-.798-.378-2.225-.293-2.823.416-.474.562-.573,1.693-.272,2.345.665,1.441,2.221,1.964,3.641,1.449,1.036-.376,2.192-1.693,1.54-2.866-.373-.671-1.167-.985-2.086-1.345Z"/><path class="cls-2" d="m232.778,464.893c-.646-.327-1.818-.289-2.325.28-.401.45-.508,1.376-.275,1.917.514,1.196,1.779,1.66,2.954,1.269.858-.286,1.835-1.34,1.326-2.317-.291-.558-.936-.834-1.681-1.149Z"/><path class="cls-2" d="m233.937,469.289c.722-.089,1.678-.778,1.782-1.536.082-.6-.348-1.432-.845-1.753-1.099-.71-2.413-.387-3.175.597-.556.719-.779,2.146.192,2.675.555.303,1.248.171,2.046.016Z"/><path class="cls-2" d="m233.719,467.172c-.699-.283-1.912-.14-2.388.495-.376.503-.405,1.472-.116,2.014.639,1.196,1.992,1.565,3.177,1.056.866-.372,1.786-1.553,1.172-2.521-.351-.554-1.044-.783-1.846-1.044Z"/><path class="cls-2" d="m233.546,468.372c-.81-.356-2.238-.23-2.818.498-.459.577-.527,1.713-.206,2.358.708,1.425,2.283,1.905,3.691,1.349,1.028-.406,2.149-1.759,1.462-2.916-.392-.662-1.198-.955-2.129-1.289Z"/><path class="cls-2" d="m233.677,474.181c.905-.332,1.931-1.509,1.836-2.518-.075-.799-.879-1.742-1.618-2.007-1.631-.585-3.23.227-3.915,1.727-.501,1.095-.359,3.003,1.053,3.393.808.223,1.661-.155,2.644-.595Z"/><path class="cls-2" d="m233.519,474.833c.613-.522,1.076-1.741.71-2.504-.29-.604-1.193-1.11-1.849-1.104-1.447.014-2.465,1.113-2.568,2.486-.075,1.003.588,2.457,1.807,2.354.697-.059,1.257-.602,1.899-1.232Z"/><path class="cls-2" d="m233.607,476.066c.56-.77.756-2.301.123-3.077-.501-.615-1.68-.947-2.432-.758-1.661.417-2.527,1.963-2.265,3.571.191,1.174,1.357,2.663,2.731,2.207.786-.261,1.279-1.04,1.844-1.942Z"/><path class="cls-2" d="m232.546,476.404c.196-.753-.111-1.975-.824-2.377-.564-.318-1.56-.219-2.076.149-1.139.812-1.337,2.246-.658,3.391.496.836,1.826,1.621,2.735.864.52-.433.662-1.173.823-2.027Z"/><path class="cls-2" d="m231.555,475.979c-.389-.889-1.633-1.848-2.641-1.691-.798.124-1.696.99-1.917,1.748-.488,1.674.425,3.231,1.973,3.828,1.13.436,3.038.177,3.344-1.265.175-.825-.257-1.659-.759-2.62Z"/><path class="cls-2" d="m229.657,476.952c-.492-.586-1.647-1.036-2.375-.693-.577.271-1.064,1.126-1.063,1.749.003,1.376,1.04,2.351,2.345,2.459.953.079,2.34-.541,2.251-1.701-.051-.663-.563-1.199-1.157-1.814Z"/><path class="cls-2" d="m228.419,477.893c-.566-.541-1.789-.867-2.491-.438-.555.34-.955,1.263-.884,1.896.157,1.397,1.32,2.272,2.657,2.235.977-.027,2.316-.812,2.096-1.98-.126-.668-.706-1.155-1.379-1.714Z"/><path class="cls-2" d="m227.639,479.349c-.412-.639-1.494-1.226-2.254-.979-.602.195-1.189.977-1.266,1.591-.169,1.356.732,2.447,2.004,2.716.929.196,2.373-.242,2.43-1.396.033-.66-.406-1.252-.914-1.932Z"/><path class="cls-2" d="m227.433,481.899c.25-.911-.104-2.398-.962-2.898-.68-.395-1.89-.291-2.521.147-1.395.968-1.658,2.705-.853,4.105.588,1.022,2.19,1.996,3.305,1.092.638-.517.822-1.412,1.031-2.447Z"/><path class="cls-2" d="m224.629,483.393c.565-.337,1.105-1.256.914-1.921-.151-.527-.81-1.058-1.339-1.142-1.168-.186-2.138.56-2.409,1.653-.198.798.138,2.06,1.135,2.144.57.048,1.095-.314,1.699-.733Z"/><path class="cls-2" d="m223.254,484.293c.741-.352,1.518-1.43,1.359-2.277-.126-.671-.882-1.407-1.528-1.574-1.428-.368-2.719.446-3.182,1.77-.338.967-.069,2.572,1.158,2.793.702.126,1.395-.261,2.194-.711Z"/><path class="cls-2" d="m221.846,481.928c-.345-.561-1.272-1.088-1.934-.888-.525.158-1.047.825-1.124,1.355-.17,1.171.59,2.131,1.686,2.386.801.187,2.058-.167,2.128-1.165.04-.571-.329-1.091-.757-1.689Z"/><path class="cls-2" d="m221.225,484.83c.65-.741.997-2.298.419-3.158-.458-.681-1.641-1.135-2.434-1.012-1.751.272-2.79,1.782-2.673,3.464.086,1.228,1.145,2.872,2.604,2.533.834-.194,1.416-.951,2.084-1.826Z"/><path class="cls-2" d="m218.371,485.876c.789-.176,1.773-1.04,1.806-1.89.026-.673-.538-1.546-1.123-1.849-1.292-.667-2.711-.169-3.448,1.001-.538.855-.631,2.457.499,2.939.647.275,1.398.056,2.265-.202Z"/><path class="cls-2" d="m218.28,485.262c.462-.782.509-2.252-.162-2.932-.531-.538-1.681-.746-2.377-.499-1.539.546-2.221,2.092-1.826,3.595.288,1.097,1.529,2.405,2.792,1.847.722-.319,1.119-1.104,1.574-2.011Z"/><path class="cls-2" d="m215.379,482.517c-.764-.426-2.18-.437-2.819.225-.506.524-.679,1.635-.424,2.3.562,1.468,2.066,2.089,3.504,1.674,1.05-.303,2.279-1.529,1.712-2.731-.324-.688-1.089-1.052-1.973-1.468Z"/><path class="cls-2" d="m214.325,482.682c-.541-.574-1.757-.967-2.485-.571-.577.313-1.028,1.223-.989,1.864.085,1.416,1.211,2.357,2.559,2.39.985.024,2.375-.697,2.214-1.885-.092-.68-.651-1.2-1.299-1.798Z"/><path class="cls-2" d="m213.552,483.714c.034-.776-.522-1.904-1.302-2.147-.617-.192-1.568.113-1.994.58-.941,1.031-.834,2.472.068,3.447.659.712,2.121,1.199,2.849.27.417-.531.4-1.283.378-2.15Z"/><path class="cls-2" d="m211.875,483.601c.11-.701-.279-1.782-.962-2.083-.541-.238-1.436-.058-1.87.322-.96.84-1.01,2.159-.291,3.137.525.714,1.803,1.306,2.56.537.433-.44.495-1.124.564-1.914Z"/><path class="cls-2" d="m210.17,483.258c.096-.63-.259-1.599-.873-1.866-.487-.211-1.289-.046-1.678.298-.858.759-.898,1.943-.248,2.818.475.639,1.625,1.165,2.301.471.387-.397.44-1.012.498-1.721Z"/><path class="cls-2" d="m209.303,482.92c.287-.79.081-2.134-.645-2.638-.574-.399-1.655-.394-2.246-.05-1.306.758-1.664,2.279-1.051,3.578.448.949,1.798,1.927,2.852,1.206.603-.412.831-1.193,1.09-2.096Z"/><path class="cls-2" d="m206.465,479.884c-.663-.344-1.871-.316-2.398.266-.418.46-.536,1.413-.302,1.973.518,1.238,1.817,1.727,3.032,1.336.887-.286,1.904-1.364,1.389-2.374-.294-.578-.956-.868-1.721-1.2Z"/></g></g><g><path class="cls-2" d="m160.339,438.616s-1.571,12.688,14.448,20.813c11.875,6.024,21.081-.018,21.081-.018,0,0,.586-10.37-11.97-18.743-13.317-8.881-23.559-2.052-23.559-2.052Z"/><g><path class="cls-2" d="m163.539,437.309c-.177-.859-1.098-1.94-2.018-1.991-.729-.04-1.685.557-2.023,1.186-.745,1.389-.23,2.936,1.027,3.754.918.597,2.653.727,3.194-.491.309-.696.084-1.515-.18-2.458Z"/><path class="cls-2" d="m163.225,439.898c.963.013,2.339-.719,2.611-1.694.215-.772-.2-1.939-.794-2.449-1.314-1.127-3.094-.939-4.268.216-.857.843-1.405,2.674-.227,3.541.674.496,1.605.447,2.679.387Z"/><path class="cls-2" d="m166.272,437.12c.139-.74-.24-1.898-.954-2.238-.566-.269-1.52-.107-1.993.282-1.044.86-1.139,2.257-.408,3.316.534.773,1.87,1.441,2.696.651.473-.452.56-1.176.658-2.011Z"/><path class="cls-2" d="m165.987,435.152c-.665-.146-1.724.165-2.051.802-.259.504-.138,1.372.201,1.811.75.968,2.011,1.092,2.989.459.714-.462,1.355-1.653.662-2.422-.396-.44-1.048-.539-1.801-.65Z"/><path class="cls-2" d="m168.825,437.579c.422-.48.648-1.491.273-2.049-.297-.442-1.064-.737-1.579-.658-1.136.176-1.811,1.155-1.736,2.247.055.797.742,1.864,1.689,1.645.542-.126.919-.616,1.353-1.184Z"/><path class="cls-2" d="m171.46,436.244c.046-.973-.646-2.391-1.622-2.699-.773-.244-1.968.134-2.505.718-1.186,1.289-1.058,3.097.068,4.324.823.896,2.655,1.514,3.573.353.525-.664.509-1.607.485-2.696Z"/><path class="cls-2" d="m170.994,437.957c.65-.078,1.513-.695,1.608-1.377.076-.54-.309-1.289-.756-1.58-.987-.642-2.171-.355-2.859.529-.502.646-.707,1.929.165,2.408.499.274,1.122.158,1.841.02Z"/><path class="cls-2" d="m173.741,434.852c-.438-.736-1.632-1.44-2.498-1.193-.685.196-1.378,1.052-1.488,1.74-.244,1.52.725,2.783,2.146,3.137,1.038.258,2.68-.177,2.791-1.473.063-.742-.406-1.425-.951-2.211Z"/><path class="cls-2" d="m175.262,437.831c.506-.607.752-1.862.272-2.539-.38-.536-1.338-.876-1.971-.761-1.397.253-2.199,1.485-2.071,2.829.093.982.976,2.278,2.138,1.977.665-.172,1.115-.79,1.633-1.506Z"/><path class="cls-2" d="m176.697,436.283c-.302-.729-1.299-1.53-2.122-1.419-.651.088-1.396.778-1.588,1.391-.424,1.354.294,2.636,1.544,3.146.913.373,2.469.193,2.741-.975.156-.668-.182-1.354-.575-2.144Z"/><path class="cls-2" d="m176.901,440.323c.968-.025,2.322-.814,2.556-1.804.186-.784-.276-1.94-.894-2.429-1.364-1.08-3.145-.822-4.279.384-.828.881-1.307,2.741-.089,3.566.696.472,1.63.387,2.706.284Z"/><path class="cls-2" d="m178.501,436.65c-.65-.346-1.842-.33-2.368.238-.416.45-.543,1.388-.317,1.943.499,1.226,1.775,1.722,2.977,1.347.878-.273,1.891-1.326,1.393-2.328-.285-.573-.934-.866-1.686-1.201Z"/><path class="cls-2" d="m179.686,436.757c-.836-.267-2.23.004-2.726.781-.393.616-.342,1.743.04,2.346.845,1.332,2.446,1.643,3.777.949.972-.507,1.936-1.956,1.141-3.025-.455-.612-1.279-.817-2.231-1.051Z"/><path class="cls-2" d="m183.122,439.152c.004-.914-.702-2.213-1.63-2.463-.734-.197-1.838.206-2.317.774-1.058,1.256-.865,2.944.241,4.048.807.806,2.549,1.31,3.362.185.465-.644.411-1.526.345-2.545Z"/><path class="cls-2" d="m183.321,438.643c-.482-.494-1.551-.821-2.182-.464-.5.283-.881,1.084-.838,1.644.095,1.237,1.093,2.044,2.273,2.054.862.007,2.067-.644,1.909-1.681-.09-.593-.587-1.04-1.162-1.554Z"/><path class="cls-2" d="m185.36,440.19c-.058-.655-.65-1.54-1.331-1.657-.539-.093-1.304.269-1.609.709-.675.97-.425,2.167.441,2.885.632.524,1.914.77,2.422-.09.291-.492.193-1.121.078-1.847Z"/><path class="cls-2" d="m186.046,439.704c-.672-.572-2.072-.861-2.834-.332-.604.419-.994,1.485-.873,2.194.268,1.564,1.634,2.474,3.139,2.346,1.099-.093,2.556-1.065,2.232-2.367-.185-.745-.871-1.255-1.664-1.841Z"/><path class="cls-2" d="m187.939,441.875c-.207-.808-1.129-1.794-2.006-1.801-.694-.005-1.576.604-1.869,1.217-.646,1.353-.087,2.8,1.143,3.521.899.527,2.553.572,3.012-.609.263-.675.012-1.443-.281-2.327Z"/><path class="cls-2" d="m187.068,441.746c-.804-.122-2.039.332-2.379,1.116-.269.621-.057,1.644.382,2.14.968,1.094,2.479,1.143,3.594.313.814-.606,1.483-2.074.598-2.935-.506-.493-1.29-.559-2.195-.633Z"/><path class="cls-2" d="m189.605,446.052c.526-.471.906-1.549.569-2.211-.267-.524-1.07-.948-1.644-.928-1.268.043-2.137,1.029-2.198,2.235-.044.881.568,2.141,1.635,2.025.61-.067,1.089-.555,1.639-1.12Z"/><path class="cls-2" d="m190.599,444.247c-.6-.61-1.926-1.01-2.707-.564-.619.353-1.087,1.348-1.031,2.042.124,1.533,1.365,2.529,2.828,2.535,1.068.004,2.559-.808,2.359-2.092-.115-.735-.733-1.287-1.448-1.92Z"/><path class="cls-2" d="m192.571,447.479c.28-.809.047-2.176-.7-2.678-.592-.397-1.692-.374-2.29-.014-1.319.794-1.658,2.349-1.012,3.663.472.959,1.864,1.934,2.926,1.182.607-.43.827-1.23,1.076-2.153Z"/><path class="cls-2" d="m192.981,447.414c-.211-.613-.988-1.319-1.668-1.269-.538.039-1.184.567-1.372,1.061-.415,1.089.108,2.175,1.107,2.656.729.352,2.014.282,2.296-.662.161-.54-.081-1.119-.364-1.786Z"/><path class="cls-2" d="m194.466,448.911c-.036-.742-.665-1.768-1.429-1.932-.605-.129-1.485.245-1.85.728-.806,1.065-.578,2.429.367,3.279.69.621,2.126.956,2.739.008.351-.543.269-1.258.172-2.082Z"/><path class="cls-2" d="m195.011,449.708c-.286-.763-1.287-1.623-2.139-1.537-.675.068-1.467.754-1.687,1.38-.484,1.382.212,2.729,1.483,3.299.929.416,2.54.285,2.862-.911.184-.684-.141-1.403-.519-2.231Z"/><path class="cls-2" d="m194.406,450.278c-.696-.354-1.961-.315-2.508.298-.433.485-.55,1.483-.3,2.068.552,1.291,1.916,1.793,3.185,1.373.926-.307,1.981-1.443,1.435-2.497-.313-.603-1.008-.901-1.812-1.242Z"/><path class="cls-2" d="m195.883,455.325c.752-.466,1.455-1.714,1.183-2.603-.215-.704-1.113-1.403-1.826-1.504-1.574-.223-2.861.803-3.198,2.278-.247,1.077.235,2.765,1.576,2.854.767.051,1.464-.447,2.266-1.025Z"/><path class="cls-2" d="m195.204,456.88c.716.033,1.759-.478,1.986-1.197.179-.57-.1-1.448-.531-1.843-.95-.872-2.281-.776-3.183.054-.659.607-1.112,1.956-.257,2.631.489.386,1.184.373,1.985.355Z"/><path class="cls-2" d="m196.729,454.45c-.718-.579-2.187-.841-2.968-.267-.618.455-.996,1.578-.849,2.314.323,1.625,1.776,2.537,3.342,2.361,1.144-.128,2.639-1.183,2.264-2.533-.214-.772-.944-1.286-1.789-1.875Z"/><path class="cls-2" d="m197.355,456.436c-.519-.73-1.825-1.363-2.707-1.031-.698.263-1.347,1.215-1.404,1.942-.125,1.606.994,2.841,2.506,3.089,1.104.181,2.781-.413,2.785-1.774.003-.779-.545-1.452-1.18-2.226Z"/><path class="cls-2" d="m196.872,457.923c-.531-.551-1.714-.919-2.417-.528-.556.31-.984,1.197-.94,1.818.098,1.372,1.2,2.274,2.508,2.291.956.013,2.296-.701,2.128-1.852-.096-.658-.644-1.157-1.279-1.73Z"/><path class="cls-2" d="m194.794,458.187c-.729-.317-2.012-.199-2.53.457-.41.52-.467,1.541-.177,2.12.641,1.278,2.058,1.704,3.321,1.199.922-.369,1.924-1.588,1.304-2.625-.355-.593-1.08-.853-1.917-1.15Z"/><path class="cls-2" d="m193.24,462.751c.781-.016,1.878-.649,2.071-1.447.153-.632-.216-1.568-.712-1.965-1.097-.878-2.537-.676-3.457.293-.672.708-1.066,2.208-.086,2.879.561.384,1.314.319,2.184.24Z"/><path class="cls-2" d="m193.496,459.723c-.38-.915-1.631-1.917-2.663-1.777-.817.111-1.751.977-1.991,1.747-.53,1.699.372,3.306,1.94,3.945,1.145.467,3.098.24,3.438-1.226.195-.839-.23-1.698-.724-2.688Z"/><path class="cls-2" d="m191.708,462.191c.45-.677.561-1.99-.006-2.629-.449-.506-1.467-.747-2.102-.559-1.402.416-2.085,1.766-1.803,3.128.206.995,1.254,2.222,2.409,1.784.661-.251,1.053-.934,1.502-1.724Z"/><path class="cls-2" d="m188.905,459.439c-.798-.378-2.225-.293-2.823.416-.474.562-.573,1.693-.272,2.345.665,1.441,2.221,1.964,3.641,1.449,1.036-.376,2.192-1.693,1.54-2.866-.373-.671-1.167-.985-2.086-1.345Z"/><path class="cls-2" d="m187.308,460.118c-.646-.327-1.818-.289-2.325.28-.401.45-.508,1.376-.275,1.917.514,1.196,1.779,1.66,2.954,1.269.858-.286,1.835-1.34,1.326-2.317-.291-.558-.936-.834-1.681-1.149Z"/><path class="cls-2" d="m185.743,463.812c.722-.089,1.678-.778,1.782-1.536.082-.6-.348-1.432-.845-1.753-1.099-.71-2.413-.387-3.175.597-.556.719-.779,2.146.192,2.675.555.303,1.248.171,2.046.016Z"/><path class="cls-2" d="m184.136,459.768c-.699-.283-1.912-.14-2.388.495-.376.503-.405,1.472-.116,2.014.639,1.196,1.992,1.565,3.177,1.056.866-.372,1.786-1.553,1.172-2.521-.351-.554-1.044-.783-1.846-1.044Z"/><path class="cls-2" d="m182.765,459.081c-.81-.356-2.238-.23-2.818.498-.459.577-.527,1.713-.206,2.358.708,1.425,2.283,1.905,3.691,1.349,1.028-.406,2.149-1.759,1.462-2.916-.392-.662-1.198-.955-2.129-1.289Z"/><path class="cls-2" d="m181.902,463.046c.905-.332,1.931-1.509,1.836-2.518-.075-.799-.879-1.742-1.618-2.007-1.631-.585-3.23.227-3.915,1.727-.501,1.095-.359,3.003,1.053,3.393.808.223,1.661-.155,2.644-.595Z"/><path class="cls-2" d="m180.751,461.854c.613-.522,1.076-1.741.71-2.504-.29-.604-1.193-1.11-1.849-1.104-1.447.014-2.465,1.113-2.568,2.486-.075,1.003.588,2.457,1.807,2.354.697-.059,1.257-.602,1.899-1.232Z"/><path class="cls-2" d="m179.846,461.244c.56-.77.756-2.301.123-3.077-.501-.615-1.68-.947-2.432-.758-1.661.417-2.527,1.963-2.265,3.571.191,1.174,1.357,2.663,2.731,2.207.786-.261,1.279-1.04,1.844-1.942Z"/><path class="cls-2" d="m178.142,459.956c.196-.753-.111-1.975-.824-2.377-.564-.318-1.56-.219-2.076.149-1.139.812-1.337,2.246-.658,3.391.496.836,1.826,1.621,2.735.864.52-.433.662-1.173.823-2.027Z"/><path class="cls-2" d="m176.761,457.991c-.389-.889-1.633-1.848-2.641-1.691-.798.124-1.696.99-1.917,1.748-.488,1.674.425,3.231,1.973,3.828,1.13.436,3.038.177,3.344-1.265.175-.825-.257-1.659-.759-2.62Z"/><path class="cls-2" d="m174.757,456.862c-.492-.586-1.647-1.036-2.375-.693-.577.271-1.064,1.126-1.063,1.749.003,1.376,1.04,2.351,2.345,2.459.953.079,2.34-.541,2.251-1.701-.051-.663-.563-1.199-1.157-1.814Z"/><path class="cls-2" d="m173.413,455.702c-.566-.541-1.789-.867-2.491-.438-.555.34-.955,1.263-.884,1.896.157,1.397,1.32,2.272,2.657,2.235.977-.027,2.316-.812,2.096-1.98-.126-.668-.706-1.155-1.379-1.714Z"/><path class="cls-2" d="m172.527,455.056c-.412-.639-1.494-1.226-2.254-.979-.602.195-1.189.977-1.266,1.591-.169,1.356.732,2.447,2.004,2.716.929.196,2.373-.242,2.43-1.396.033-.66-.406-1.252-.914-1.932Z"/><path class="cls-2" d="m172.288,455.622c.25-.911-.104-2.398-.962-2.898-.68-.395-1.89-.291-2.521.147-1.395.968-1.658,2.705-.853,4.105.588,1.022,2.19,1.996,3.305,1.092.638-.517.822-1.412,1.031-2.447Z"/><path class="cls-2" d="m169.771,455.661c.565-.337,1.105-1.256.914-1.921-.151-.527-.81-1.058-1.339-1.142-1.168-.186-2.138.56-2.409,1.653-.198.798.138,2.06,1.135,2.144.57.048,1.095-.314,1.699-.733Z"/><path class="cls-2" d="m168.684,455.104c.741-.352,1.518-1.43,1.359-2.277-.126-.671-.882-1.407-1.528-1.574-1.428-.368-2.719.446-3.182,1.77-.338.967-.069,2.572,1.158,2.793.702.126,1.395-.261,2.194-.711Z"/><path class="cls-2" d="m167.564,451.284c-.345-.561-1.272-1.088-1.934-.888-.525.158-1.047.825-1.124,1.355-.17,1.171.59,2.131,1.686,2.386.801.187,2.058-.167,2.128-1.165.04-.571-.329-1.091-.757-1.689Z"/><path class="cls-2" d="m167.231,452.73c.65-.741.997-2.298.419-3.158-.458-.681-1.641-1.135-2.434-1.012-1.751.272-2.79,1.782-2.673,3.464.086,1.228,1.145,2.872,2.604,2.533.834-.194,1.416-.951,2.084-1.826Z"/><path class="cls-2" d="m164.678,452.31c.789-.176,1.773-1.04,1.806-1.89.026-.673-.538-1.546-1.123-1.849-1.292-.667-2.711-.169-3.448,1.001-.538.855-.631,2.457.499,2.939.647.275,1.398.056,2.265-.202Z"/><path class="cls-2" d="m165.479,449.795c.462-.782.509-2.252-.162-2.932-.531-.538-1.681-.746-2.377-.499-1.539.546-2.221,2.092-1.826,3.595.288,1.097,1.529,2.405,2.792,1.847.722-.319,1.119-1.104,1.574-2.011Z"/><path class="cls-2" d="m163.48,445.409c-.764-.426-2.18-.437-2.819.225-.506.524-.679,1.635-.424,2.3.562,1.468,2.066,2.089,3.504,1.674,1.05-.303,2.279-1.529,1.712-2.731-.324-.688-1.089-1.052-1.973-1.468Z"/><path class="cls-2" d="m163.35,444.472c-.541-.574-1.757-.967-2.485-.571-.577.313-1.028,1.223-.989,1.864.085,1.416,1.211,2.357,2.559,2.39.985.024,2.375-.697,2.214-1.885-.092-.68-.651-1.2-1.299-1.798Z"/><path class="cls-2" d="m163.503,444.403c.034-.776-.522-1.904-1.302-2.147-.617-.192-1.568.113-1.994.58-.941,1.031-.834,2.472.068,3.447.659.712,2.121,1.199,2.849.27.417-.531.4-1.283.378-2.15Z"/><path class="cls-2" d="m162.751,443.188c.11-.701-.279-1.782-.962-2.083-.541-.238-1.436-.058-1.87.322-.96.84-1.01,2.159-.291,3.137.525.714,1.803,1.306,2.56.537.433-.44.495-1.124.564-1.914Z"/><path class="cls-2" d="m162.13,441.707c.096-.63-.259-1.599-.873-1.866-.487-.211-1.289-.046-1.678.298-.858.759-.898,1.943-.248,2.818.475.639,1.625,1.165,2.301.471.387-.397.44-1.012.498-1.721Z"/><path class="cls-2" d="m162.531,440.571c.287-.79.081-2.134-.645-2.638-.574-.399-1.655-.394-2.246-.05-1.306.758-1.664,2.279-1.051,3.578.448.949,1.798,1.927,2.852,1.206.603-.412.831-1.193,1.09-2.096Z"/><path class="cls-2" d="m160.933,436.802c-.663-.344-1.871-.316-2.398.266-.418.46-.536,1.413-.302,1.973.518,1.238,1.817,1.727,3.032,1.336.887-.286,1.904-1.364,1.389-2.374-.294-.578-.956-.868-1.721-1.2Z"/></g></g></svg>