<?xml version="1.0" encoding="UTF-8"?><svg id="_레이어_1" xmlns="http://www.w3.org/2000/svg" viewBox="0 0 400 560"><defs><style>.cls-1{fill:#6c1c49;}.cls-2{fill:#506c23;}</style></defs><g><path class="cls-1" d="m203.461,492.878c-.271-1.308-1.675-2.954-3.077-3.03-1.11-.06-2.567.851-3.081,1.809-1.134,2.117-.347,4.474,1.569,5.719,1.399.909,4.043,1.104,4.866-.752.471-1.062.126-2.308-.277-3.745Z"/><path class="cls-1" d="m203.12,493.173c.757-.89,1.139-2.743.438-3.752-.555-.799-1.967-1.315-2.904-1.154-2.07.355-3.274,2.165-3.103,4.156.124,1.454,1.411,3.383,3.134,2.954.986-.246,1.661-1.154,2.436-2.204Z"/><path class="cls-1" d="m203.098,492.372c1.382-.664,2.827-2.684,2.523-4.267-.241-1.254-1.659-2.624-2.869-2.931-2.672-.677-5.08.853-5.936,3.332-.625,1.81-.11,4.81,2.186,5.212,1.313.23,2.606-.499,4.096-1.346Z"/><path class="cls-1" d="m202.706,489.544c1.202-.423,2.579-1.96,2.472-3.296-.085-1.058-1.132-2.319-2.103-2.682-2.146-.802-4.274.243-5.206,2.213-.681,1.439-.527,3.963,1.332,4.504,1.064.309,2.198-.175,3.506-.74Z"/><path class="cls-1" d="m204.354,484.661c.358-1.099.01-2.938-1.01-3.597-.808-.522-2.294-.463-3.091.036-1.76,1.103-2.181,3.212-1.276,4.969.661,1.283,2.563,2.565,3.978,1.524.809-.595,1.086-1.68,1.4-2.932Z"/><path class="cls-1" d="m202.931,484.485c1.136-.293,2.521-1.594,2.528-2.828.006-.977-.855-2.217-1.718-2.626-1.905-.905-3.94-.115-4.951,1.618-.739,1.266-.797,3.594.866,4.237.951.368,2.031.013,3.274-.401Z"/><path class="cls-1" d="m204.769,476.819c-.77-1.217-2.81-2.346-4.254-1.891-1.143.36-2.268,1.832-2.423,2.994-.341,2.566,1.347,4.646,3.752,5.176,1.757.387,4.498-.42,4.625-2.605.072-1.25-.748-2.377-1.7-3.674Z"/><path class="cls-1" d="m203.086,479.531c1.107-.129,2.576-1.175,2.742-2.334.131-.918-.519-2.195-1.277-2.691-1.675-1.097-3.691-.615-4.865.885-.858,1.096-1.212,3.278.269,4.097.847.469,1.908.274,3.131.044Z"/><path class="cls-1" d="m203.176,476.906c1.035-.061,2.457-.955,2.673-2.023.171-.846-.365-2.067-1.044-2.569-1.499-1.108-3.397-.769-4.569.563-.855.972-1.302,2.981.032,3.822.763.481,1.759.356,2.908.208Z"/><path class="cls-1" d="m202.655,468.33c-1.371-.133-3.42.746-3.924,2.103-.399,1.075.053,2.787.84,3.586,1.738,1.763,4.299,1.709,6.11.203,1.323-1.099,2.322-3.643.746-5.02-.901-.788-2.234-.83-3.772-.872Z"/><path class="cls-1" d="m205.989,467.708c-.601-.929-2.178-1.778-3.283-1.416-.875.286-1.727,1.426-1.836,2.32-.24,1.974,1.074,3.557,2.926,3.944,1.352.282,3.452-.36,3.53-2.039.045-.961-.595-1.82-1.337-2.808Z"/><path class="cls-1" d="m204.985,464.088c-1.307-.154-3.283.646-3.791,1.933-.402,1.019-.004,2.665.732,3.444,1.626,1.719,4.075,1.717,5.835.314,1.286-1.025,2.291-3.436.812-4.783-.846-.771-2.119-.837-3.588-.907Z"/><path class="cls-1" d="m210.224,464.143c-.202-1.557-1.7-3.609-3.336-3.823-1.296-.169-3.083.769-3.77,1.847-1.516,2.38-.803,5.211,1.331,6.839,1.558,1.189,4.639,1.651,5.767-.45.645-1.202.352-2.693.007-4.413Z"/><path class="cls-1" d="m210.44,461.173c-.58-1.212-2.346-2.48-3.733-2.216-1.098.209-2.301,1.449-2.571,2.508-.597,2.339.739,4.45,2.909,5.204,1.585.55,4.212.103,4.568-1.906.204-1.15-.433-2.283-1.173-3.589Z"/><path class="cls-1" d="m211.501,462.312c.681-.934.92-2.79.154-3.733-.607-.747-2.037-1.151-2.95-.923-2.016.504-3.069,2.378-2.754,4.33.23,1.425,1.642,3.233,3.31,2.682.954-.315,1.553-1.261,2.24-2.354Z"/><path class="cls-1" d="m213.362,458.706c.162-1.264-.593-3.183-1.834-3.687-.983-.399-2.579-.03-3.339.675-1.679,1.557-1.701,3.927-.36,5.644.979,1.254,3.303,2.25,4.621.831.754-.811.83-2.042.912-3.463Z"/><path class="cls-1" d="m211.332,452.866c-1.466-.234-3.728.576-4.359,2.003-.5,1.13-.127,3.002.666,3.913,1.753,2.011,4.511,2.122,6.558.622,1.495-1.095,2.738-3.765,1.135-5.351-.917-.907-2.348-1.04-4-1.187Z"/><path class="cls-1" d="m214.163,457.871c1.398-.395,3.075-2.045,3.049-3.572-.021-1.209-1.121-2.719-2.2-3.202-2.384-1.066-4.88-.03-6.082,2.144-.878,1.588-.885,4.471,1.192,5.22,1.188.428,2.514-.041,4.041-.59Z"/><path class="cls-1" d="m217.071,452.588c.298-1.235-.241-3.219-1.416-3.853-.93-.502-2.552-.31-3.382.305-1.833,1.36-2.113,3.705-.971,5.553.834,1.349,3.028,2.589,4.488,1.327.835-.722,1.045-1.933,1.281-3.332Z"/><path class="cls-1" d="m216.468,447.851c-.901-.602-2.649-.756-3.503-.002-.676.597-1.001,1.953-.752,2.799.549,1.869,2.345,2.785,4.161,2.415,1.326-.27,2.966-1.662,2.386-3.203-.332-.882-1.24-1.407-2.291-2.008Z"/><path class="cls-1" d="m219.696,445.988c-.841-1.18-2.954-2.199-4.379-1.661-1.128.426-2.176,1.967-2.266,3.143-.199,2.597,1.613,4.591,4.059,4.989,1.786.29,4.495-.673,4.5-2.875.003-1.259-.885-2.346-1.913-3.596Z"/><path class="cls-1" d="m220.448,444.441c-.815-.782-2.582-1.257-3.596-.639-.803.49-1.382,1.822-1.281,2.736.223,2.018,1.9,3.285,3.832,3.235,1.411-.036,3.347-1.166,3.032-2.854-.18-.965-1.017-1.669-1.986-2.478Z"/><path class="cls-1" d="m223.349,446.375c.689-.994.893-2.942.068-3.91-.654-.766-2.16-1.153-3.11-.892-2.096.577-3.151,2.565-2.772,4.598.277,1.485,1.799,3.341,3.53,2.723.99-.354,1.593-1.358,2.284-2.519Z"/><path class="cls-1" d="m223.464,445.777c1.041-.291,2.291-1.515,2.275-2.65-.013-.899-.828-2.025-1.63-2.386-1.771-.798-3.629-.033-4.528,1.582-.656,1.179-.667,3.324.876,3.885.883.321,1.87-.026,3.007-.43Z"/><path class="cls-1" d="m224.338,444.149c1.043.054,2.565-.68,2.901-1.725.266-.828-.134-2.109-.757-2.688-1.376-1.277-3.313-1.149-4.634.052-.965.877-1.636,2.838-.396,3.827.709.566,1.72.553,2.886.533Z"/><path class="cls-1" d="m228.572,441.254c.768-.976,1.097-2.96.312-4.003-.622-.826-2.142-1.316-3.131-1.107-2.184.462-3.389,2.433-3.127,4.541.191,1.539,1.637,3.536,3.449,3.009,1.037-.301,1.717-1.293,2.497-2.44Z"/><path class="cls-1" d="m230.229,438.291c.305-1.017-.055-2.698-1.007-3.281-.754-.461-2.116-.375-2.837.101-1.592,1.052-1.932,2.997-1.063,4.591.635,1.164,2.41,2.299,3.686,1.312.73-.565.96-1.566,1.221-2.724Z"/><path class="cls-1" d="m231.832,433.503c-.866-1.152-2.994-2.113-4.398-1.542-1.112.452-2.115,2.011-2.175,3.183-.133,2.588,1.72,4.526,4.163,4.86,1.784.244,4.454-.783,4.403-2.973-.029-1.253-.939-2.311-1.994-3.529Z"/><path class="cls-1" d="m231.789,437.391c1.08-.027,2.593-.907,2.856-2.012.208-.875-.307-2.166-.995-2.713-1.521-1.208-3.511-.921-4.778.424-.925.982-1.461,3.059-.103,3.981.777.528,1.819.433,3.021.32Z"/><path class="cls-1" d="m235.787,431.143c-.63-1.099-2.381-2.168-3.668-1.823-1.019.274-2.063,1.525-2.242,2.54-.397,2.243,1.008,4.134,3.102,4.691,1.529.406,3.97-.199,4.163-2.114.111-1.096-.568-2.118-1.355-3.294Z"/><path class="cls-1" d="m237.429,434.467c1.203-.659,2.399-2.531,2.053-3.931-.274-1.109-1.606-2.266-2.701-2.483-2.419-.478-4.497,1.002-5.145,3.256-.473,1.647.129,4.301,2.199,4.552,1.184.144,2.305-.569,3.595-1.396Z"/><path class="cls-1" d="m237.788,427.573c-.986-.367-2.672-.121-3.31.783-.505.715-.508,2.069-.084,2.813.937,1.643,2.839,2.106,4.472,1.35,1.193-.552,2.43-2.234,1.537-3.561-.511-.759-1.487-1.051-2.614-1.385Z"/><path class="cls-1" d="m242.002,428.165c-.045-1.092-.958-2.607-2.08-2.855-.888-.196-2.185.345-2.727,1.05-1.196,1.557-.875,3.564.505,4.824,1.008.92,3.116,1.428,4.027.04.521-.794.409-1.846.275-3.059Z"/><path class="cls-1" d="m244.665,426.313c-.143-1.371-1.415-3.206-2.847-3.429-1.134-.176-2.724.609-3.35,1.54-1.383,2.057-.817,4.558,1.022,6.034,1.343,1.078,4.038,1.55,5.074-.271.593-1.042.368-2.357.102-3.875Z"/><path class="cls-1" d="m244.156,423.351c-.917-.476-2.59-.437-3.32.367-.578.637-.743,1.955-.419,2.731.716,1.714,2.515,2.392,4.197,1.85,1.228-.395,2.636-1.887,1.924-3.286-.407-.801-1.323-1.203-2.382-1.662Z"/><path class="cls-1" d="m245.433,421.467c-1.197-.185-3.042.484-3.552,1.651-.404.924-.093,2.451.558,3.192,1.438,1.636,3.69,1.716,5.357.484,1.217-.9,2.222-3.084.907-4.372-.752-.737-1.921-.841-3.27-.955Z"/><path class="cls-1" d="m251.454,422.976c.13-1.511-.862-3.758-2.363-4.296-1.189-.426-3.069.092-3.939.968-1.921,1.935-1.83,4.755-.15,6.731,1.227,1.444,4.04,2.514,5.538.762.857-1.002.887-2.47.915-4.165Z"/></g><g><path class="cls-1" d="m179.576,382.19c.004-1.58-1.221-3.825-2.825-4.253-1.271-.339-3.178.361-4.004,1.346-1.826,2.175-1.487,5.093.428,6.999,1.398,1.392,4.411,2.258,5.814.31.802-1.114.706-2.641.588-4.402Z"/><path class="cls-1" d="m179.964,383.217c-.343-1.065-1.659-2.31-2.833-2.248-.93.049-2.062.938-2.403,1.782-.755,1.864.111,3.756,1.818,4.622,1.246.632,3.465.557,3.984-1.062.297-.926-.101-1.933-.566-3.094Z"/><path class="cls-1" d="m182.075,387.749c.772-.995,1.093-3.008.289-4.059-.636-.833-2.181-1.32-3.182-1.101-2.211.483-3.419,2.489-3.139,4.624.204,1.559,1.683,3.573,3.517,3.027,1.049-.312,1.732-1.322,2.515-2.49Z"/><path class="cls-1" d="m184.125,385.98c-.549-1.298-2.339-2.713-3.805-2.504-1.161.166-2.482,1.407-2.816,2.504-.739,2.423.559,4.7,2.796,5.595,1.634.654,4.409.312,4.88-1.776.269-1.195-.343-2.414-1.055-3.818Z"/><path class="cls-1" d="m183.33,386.975c-.982-.329-2.632-.032-3.231.878-.474.72-.432,2.051.009,2.77.975,1.586,2.861,1.979,4.443,1.182,1.155-.582,2.317-2.277,1.396-3.552-.527-.73-1.497-.986-2.617-1.276Z"/><path class="cls-1" d="m184.429,387.728c-1.462-.263-3.742.502-4.402,1.917-.523,1.121-.187,3.001.589,3.928,1.713,2.047,4.471,2.213,6.55.753,1.518-1.066,2.815-3.713,1.242-5.331-.9-.926-2.329-1.087-3.978-1.267Z"/><path class="cls-1" d="m188.241,396.035c1.031-1.01,1.707-3.247.957-4.565-.594-1.044-2.272-1.836-3.443-1.743-2.586.206-4.268,2.297-4.281,4.765-.009,1.802,1.358,4.318,3.524,3.982,1.239-.192,2.171-1.233,3.242-2.439Z"/><path class="cls-1" d="m189.477,397.39c.679-1.202.706-3.436-.333-4.449-.823-.802-2.575-1.084-3.626-.687-2.321.876-3.311,3.244-2.668,5.515.47,1.658,2.394,3.607,4.296,2.723,1.088-.506,1.668-1.71,2.331-3.102Z"/><path class="cls-1" d="m189.228,396.818c-.511-.942-1.969-1.882-3.064-1.616-.867.211-1.775,1.247-1.948,2.102-.381,1.888.768,3.516,2.527,4.03,1.285.375,3.361-.087,3.563-1.703.116-.924-.437-1.802-1.079-2.813Z"/><path class="cls-1" d="m190.881,398.423c-.74-1.279-2.786-2.519-4.285-2.11-1.187.323-2.399,1.786-2.605,2.971-.454,2.617,1.193,4.817,3.637,5.458,1.785.468,4.628-.248,4.846-2.483.125-1.278-.671-2.467-1.594-3.836Z"/><path class="cls-1" d="m190.982,405.387c1.001-.679,1.892-2.423,1.47-3.622-.334-.95-1.6-1.853-2.579-1.951-2.163-.216-3.862,1.258-4.241,3.291-.276,1.485.476,3.764,2.313,3.81,1.051.026,1.975-.693,3.037-1.528Z"/><path class="cls-1" d="m192.342,405.557c.199-.993-.292-2.559-1.248-3.028-.757-.372-2.044-.169-2.687.348-1.42,1.141-1.57,3.019-.603,4.457.706,1.05,2.494,1.97,3.619.92.644-.601.773-1.573.919-2.696Z"/><path class="cls-1" d="m192.067,411.49c1.518-.314,3.429-1.942,3.518-3.569.07-1.289-.986-2.98-2.098-3.576-2.456-1.317-5.192-.405-6.638,1.818-1.056,1.623-1.283,4.692.87,5.647,1.232.547,2.679.148,4.347-.319Z"/><path class="cls-1" d="m192.679,407.1c-1.104-.743-3.249-.939-4.301-.017-.833.73-1.237,2.393-.935,3.433.666,2.297,2.867,3.429,5.099,2.982,1.63-.326,3.649-2.028,2.943-3.923-.404-1.084-1.517-1.732-2.805-2.476Z"/><path class="cls-1" d="m194.319,409.694c-.972-1.183-3.273-2.104-4.736-1.434-1.159.531-2.151,2.231-2.161,3.477-.022,2.752,2.033,4.723,4.639,4.965,1.904.177,4.69-1.035,4.535-3.356-.088-1.328-1.102-2.409-2.277-3.652Z"/><path class="cls-1" d="m193.552,411.716c-1.214-.729-3.504-.819-4.571.219-.845.822-1.182,2.61-.805,3.699.834,2.404,3.235,3.485,5.581,2.887,1.713-.436,3.765-2.356,2.911-4.33-.489-1.129-1.707-1.757-3.116-2.476Z"/><path class="cls-1" d="m195.276,416.747c-.137-1.047-1.147-2.427-2.248-2.57-.872-.113-2.074.52-2.535,1.245-1.018,1.602-.536,3.507.901,4.601,1.049.799,3.122,1.108,3.88-.307.433-.809.235-1.812.002-2.969Z"/><path class="cls-1" d="m196.242,419.589c.048-1.21-.828-2.966-2.045-3.339-.964-.296-2.445.187-3.107.918-1.461,1.615-1.284,3.861.13,5.375,1.032,1.106,3.316,1.855,4.446.402.646-.831.616-2.004.575-3.356Z"/><path class="cls-1" d="m196.943,422.964c.421-1.238.054-3.323-1.091-4.084-.907-.602-2.588-.557-3.497-.004-2.007,1.223-2.514,3.602-1.516,5.603.729,1.461,2.862,2.938,4.478,1.781.924-.662,1.252-1.884,1.626-3.297Z"/><path class="cls-1" d="m195.092,422.438c-.872-.527-2.52-.597-3.289.148-.61.589-.856,1.876-.587,2.66.595,1.732,2.32,2.514,4.01,2.09,1.234-.31,2.714-1.687,2.104-3.109-.349-.814-1.224-1.268-2.237-1.788Z"/><path class="cls-1" d="m196.772,425.492c-.56-.953-2.098-1.868-3.216-1.555-.886.248-1.785,1.349-1.932,2.237-.325,1.96.919,3.597,2.751,4.062,1.338.34,3.461-.211,3.611-1.884.086-.957-.515-1.842-1.214-2.86Z"/><path class="cls-1" d="m197.056,431.854c.939-.631,1.781-2.258,1.391-3.382-.308-.89-1.488-1.741-2.404-1.837-2.023-.212-3.619,1.16-3.982,3.06-.265,1.388.428,3.523,2.147,3.575.983.029,1.85-.64,2.848-1.416Z"/><path class="cls-1" d="m196.17,435.691c1.391-.017,3.351-1.125,3.707-2.543.282-1.123-.36-2.792-1.237-3.507-1.938-1.579-4.503-1.242-6.155.468-1.207,1.249-1.93,3.913-.197,5.121.991.692,2.334.587,3.882.46Z"/><path class="cls-1" d="m199.229,434.121c.006-1.348-1.036-3.267-2.404-3.635-1.084-.292-2.712.303-3.42,1.142-1.562,1.853-1.278,4.344.353,5.974,1.191,1.19,3.761,1.935,4.961.275.687-.95.607-2.253.51-3.756Z"/><path class="cls-1" d="m198.929,437.299c.241-1.087-.263-2.817-1.303-3.354-.823-.425-2.242-.231-2.96.322-1.585,1.221-1.792,3.282-.762,4.883.753,1.169,2.696,2.22,3.955,1.091.72-.646.885-1.711,1.069-2.941Z"/><path class="cls-1" d="m199.298,440.448c.508-1.086.383-3.022-.584-3.83-.766-.64-2.302-.767-3.185-.354-1.952.912-2.652,3.029-1.943,4.952.517,1.405,2.313,2.964,3.901,2.072.908-.51,1.33-1.591,1.812-2.84Z"/><path class="cls-1" d="m199.796,442.186c.238-1.223-.377-3.144-1.556-3.715-.934-.452-2.515-.193-3.302.447-1.737,1.413-1.909,3.724-.709,5.485.876,1.286,3.081,2.405,4.457,1.105.787-.744.94-1.94,1.11-3.322Z"/><path class="cls-1" d="m199.955,443.294c-.297-1.269-1.707-2.839-3.076-2.879-1.085-.031-2.483.893-2.96,1.841-1.053,2.093-.227,4.372,1.672,5.538,1.387.852,3.971.976,4.727-.855.433-1.047.066-2.254-.363-3.646Z"/><path class="cls-1" d="m198.213,449.956c1.192-.232,2.704-1.489,2.788-2.763.067-1.009-.745-2.343-1.61-2.82-1.912-1.054-4.063-.365-5.215,1.363-.842,1.262-1.048,3.663.63,4.431.96.439,2.097.14,3.407-.21Z"/><path class="cls-1" d="m197.864,445.727c-1.434-.418-3.794.104-4.605,1.448-.642,1.065-.507,2.98.17,3.99,1.495,2.229,4.235,2.688,6.468,1.45,1.631-.904,3.209-3.412,1.809-5.198-.801-1.021-2.213-1.335-3.843-1.69Z"/><path class="cls-1" d="m200.03,448.929c-1.034-1.107-3.363-1.874-4.766-1.121-1.111.596-1.985,2.337-1.917,3.568.15,2.718,2.301,4.537,4.89,4.614,1.891.056,4.566-1.314,4.269-3.596-.17-1.306-1.238-2.31-2.476-3.464Z"/><path class="cls-1" d="m198.084,451.565c-1.111-.245-2.879.273-3.426,1.336-.434.842-.233,2.291.333,3.024,1.25,1.618,3.356,1.828,4.99.772,1.194-.771,2.266-2.758,1.11-4.043-.661-.735-1.75-.902-3.007-1.089Z"/><path class="cls-1" d="m200.199,454.98c-.632-.9-2.231-1.686-3.316-1.285-.859.317-1.663,1.482-1.738,2.374-.165,1.971,1.2,3.495,3.055,3.81,1.355.23,3.417-.487,3.432-2.159.009-.956-.659-1.786-1.433-2.741Z"/><path class="cls-1" d="m201.129,460.31c.512-.991.467-2.798-.403-3.584-.689-.623-2.113-.798-2.95-.446-1.849.777-2.578,2.721-1.989,4.536.43,1.326,2.043,2.842,3.553,2.071.864-.441,1.296-1.432,1.79-2.576Z"/><path class="cls-1" d="m201.945,460.472c-.342-1.401-1.918-3.123-3.434-3.152-1.2-.023-2.737,1.015-3.255,2.068-1.143,2.326-.205,4.839,1.909,6.109,1.543.928,4.403,1.037,5.22-.995.467-1.163.049-2.495-.441-4.03Z"/><path class="cls-1" d="m200.779,462.021c-.785-.958-2.646-1.706-3.83-1.165-.938.428-1.743,1.803-1.752,2.811-.021,2.226,1.639,3.823,3.748,4.022,1.54.145,3.795-.833,3.673-2.711-.07-1.074-.889-1.95-1.839-2.957Z"/><path class="cls-1" d="m199.525,470.585c1.472-.039,3.531-1.24,3.888-2.746.282-1.193-.422-2.951-1.361-3.695-2.075-1.643-4.785-1.249-6.51.586-1.259,1.34-1.986,4.17-.134,5.425,1.06.718,2.479.587,4.117.43Z"/><path class="cls-1" d="m202.792,469.829c.418-1.451-.118-3.838-1.481-4.653-1.079-.645-3.016-.502-4.035.186-2.25,1.52-2.704,4.293-1.444,6.548.92,1.647,3.463,3.235,5.264,1.812,1.03-.814,1.343-2.243,1.697-3.893Z"/><path class="cls-1" d="m199.996,474.677c1.145-.171,2.636-1.306,2.769-2.515.106-.958-.612-2.262-1.416-2.752-1.776-1.083-3.853-.516-5.022,1.081-.854,1.166-1.15,3.444.416,4.245.896.458,1.991.22,3.253-.059Z"/><path class="cls-1" d="m201.988,473.424c-.181-1.124-1.313-2.577-2.503-2.695-.943-.093-2.217.626-2.69,1.422-1.045,1.758-.465,3.794,1.118,4.926,1.156.827,3.398,1.093,4.169-.455.441-.885.195-1.959-.093-3.198Z"/><path class="cls-1" d="m202.836,475.465c-.308-1.427-1.856-3.212-3.389-3.283-1.214-.056-2.797.952-3.349,2.004-1.22,2.323-.338,4.891,1.766,6.234,1.537.981,4.427,1.169,5.309-.866.505-1.164.117-2.523-.337-4.09Z"/><path class="cls-1" d="m202.41,476.519c-.896-1.3-3.18-2.448-4.743-1.887-1.237.444-2.406,2.105-2.525,3.385-.263,2.826,1.677,5.032,4.335,5.508,1.941.348,4.91-.655,4.954-3.054.025-1.372-.923-2.572-2.022-3.952Z"/><path class="cls-1" d="m200.789,484.126c.969-.3,2.111-1.48,2.067-2.546-.035-.844-.83-1.879-1.591-2.197-1.682-.703-3.407.063-4.208,1.602-.585,1.123-.54,3.136.922,3.623.837.279,1.754-.072,2.811-.482Z"/><path class="cls-1" d="m201.998,486.186c.872-.741,1.533-2.472,1.015-3.558-.411-.86-1.694-1.581-2.625-1.573-2.057.017-3.506,1.577-3.655,3.528-.109,1.425.831,3.493,2.564,3.349.991-.082,1.787-.853,2.702-1.747Z"/><path class="cls-1" d="m202.398,484.79c-.606-1.114-2.333-2.222-3.627-1.906-1.025.251-2.098,1.478-2.3,2.49-.448,2.234.915,4.158,2.997,4.762,1.52.441,3.975-.109,4.212-2.02.136-1.093-.52-2.131-1.281-3.325Z"/><path class="cls-1" d="m201.082,491.948c1.109-.291,2.457-1.569,2.459-2.775.002-.955-.845-2.163-1.69-2.56-1.866-.877-3.851-.096-4.832,1.603-.716,1.24-.764,3.516.864,4.138.931.356,1.985.004,3.199-.406Z"/><path class="cls-1" d="m203.04,492.065c.314-1.177-.157-3.092-1.268-3.727-.88-.503-2.44-.357-3.25.214-1.789,1.261-2.112,3.503-1.06,5.301.768,1.313,2.843,2.552,4.272,1.377.818-.673,1.047-1.829,1.306-3.165Z"/><path class="cls-1" d="m202.852,494.589c.312-1.082-.087-2.861-1.102-3.469-.804-.482-2.248-.375-3.008.137-1.678,1.132-2.018,3.199-1.079,4.88.685,1.228,2.58,2.412,3.923,1.352.768-.606,1.002-1.671,1.266-2.901Z"/><path class="cls-1" d="m203.679,495.99c-.059-1.45-1.271-3.462-2.76-3.792-1.179-.261-2.901.457-3.621,1.393-1.59,2.067-1.164,4.732.668,6.405,1.338,1.222,4.136,1.898,5.346.056.692-1.054.544-2.451.366-4.062Z"/><path class="cls-1" d="m203.184,500.002c.494-1.143.306-3.15-.723-3.959-.815-.641-2.414-.727-3.319-.271-1.999,1.007-2.661,3.226-1.867,5.202.58,1.443,2.492,3.008,4.114,2.033.928-.557,1.333-1.693,1.795-3.005Z"/><path class="cls-1" d="m201.531,498.802c-1.037-.718-3.067-.929-4.075-.068-.798.682-1.201,2.252-.928,3.242.603,2.185,2.675,3.283,4.795,2.887,1.548-.289,3.482-1.877,2.836-3.681-.369-1.032-1.416-1.66-2.627-2.38Z"/><path class="cls-1" d="m201.352,506.559c.981-.296,2.143-1.482,2.105-2.558-.03-.853-.825-1.904-1.593-2.23-1.695-.722-3.442.041-4.263,1.59-.599,1.131-.567,3.165.907,3.667.843.287,1.772-.061,2.843-.468Z"/><path class="cls-1" d="m202.524,504.373c-.752-1.024-2.618-1.891-3.86-1.401-.984.388-1.883,1.752-1.947,2.784-.142,2.279,1.472,4.005,3.621,4.323,1.57.232,3.933-.647,3.909-2.577-.014-1.104-.805-2.046-1.723-3.129Z"/><path class="cls-1" d="m203.471,509.032c.144-1.249-.625-3.134-1.856-3.616-.975-.381-2.545.003-3.287.708-1.638,1.557-1.63,3.896-.285,5.574.982,1.225,3.288,2.179,4.571.763.734-.81.794-2.026.857-3.429Z"/><path class="cls-1" d="m202.021,514.401c1.164-.511,2.417-2.142,2.211-3.461-.163-1.045-1.299-2.22-2.292-2.509-2.193-.636-4.231.562-5.01,2.59-.569,1.481-.228,3.979,1.662,4.378,1.081.228,2.172-.339,3.43-.998Z"/><path class="cls-1" d="m202.826,517.09c1.292-.811,2.493-2.969,2.016-4.499-.378-1.212-1.933-2.408-3.163-2.575-2.716-.369-4.924,1.412-5.493,3.957-.415,1.859.43,4.765,2.744,4.906,1.323.08,2.52-.785,3.897-1.789Z"/><path class="cls-1" d="m202.088,513.702c-1.023-.9-3.175-1.38-4.364-.583-.942.632-1.57,2.266-1.401,3.362.374,2.419,2.46,3.857,4.783,3.697,1.697-.117,3.97-1.579,3.503-3.595-.267-1.153-1.312-1.958-2.521-2.881Z"/><path class="cls-1" d="m202.91,517.282c-.549-1.151-2.226-2.356-3.543-2.107-1.043.197-2.186,1.374-2.443,2.379-.568,2.221.699,4.226,2.758,4.943,1.504.524,3.999.101,4.338-1.807.194-1.091-.409-2.168-1.111-3.408Z"/><path class="cls-1" d="m200.98,518.279c-1.247-.503-3.408-.246-4.254.886-.67.896-.72,2.625-.204,3.589,1.14,2.131,3.553,2.786,5.665,1.877,1.542-.664,3.18-2.77,2.085-4.495-.627-.986-1.863-1.393-3.291-1.858Z"/><path class="cls-1" d="m202.461,525.53c.685-.783,1.047-2.427.436-3.334-.484-.718-1.734-1.194-2.57-1.063-1.847.291-2.94,1.886-2.813,3.661.093,1.296,1.214,3.028,2.753,2.667.88-.207,1.492-1.006,2.195-1.932Z"/><path class="cls-1" d="m201.405,523.93c-.957-.651-2.822-.831-3.741-.033-.728.631-1.086,2.076-.829,2.982.569,2.001,2.479,2.995,4.422,2.616,1.419-.277,3.182-1.748,2.577-3.4-.346-.945-1.312-1.513-2.429-2.165Z"/><path class="cls-1" d="m202.602,527.492c-.465-1.064-1.953-2.211-3.158-2.025-.955.148-2.03,1.183-2.295,2.09-.585,2.003.506,3.865,2.358,4.58,1.352.522,3.634.214,4.001-1.511.21-.987-.306-1.985-.906-3.134Z"/></g><g><path class="cls-2" d="m137.841,419.421s1.118,18.825,26.53,26.324c18.838,5.559,30.575-5.669,30.575-5.669,0,0-1.925-15.199-22.38-23.985-21.695-9.318-34.724,3.33-34.724,3.33Z"/><g><path class="cls-2" d="m140.046,418.444c-.149-.747-.943-1.692-1.743-1.741-.633-.039-1.468.475-1.764,1.019-.655,1.203-.216,2.55.872,3.268.794.524,2.301.646,2.778-.409.273-.604.081-1.316-.143-2.137Z"/><path class="cls-2" d="m140.667,419.226c.481-.402.85-1.348.57-1.944-.221-.472-.921-.873-1.431-.872-1.127,0-1.926.849-2.016,1.917-.066.78.44,1.916,1.39,1.845.543-.041.982-.46,1.487-.945Z"/><path class="cls-2" d="m142.524,416.138c-.349-.76-1.435-1.566-2.3-1.416-.685.119-1.446.878-1.625,1.535-.395,1.449.416,2.776,1.758,3.266.98.358,2.619.106,2.861-1.14.138-.713-.247-1.425-.694-2.244Z"/><path class="cls-2" d="m142.929,415.083c-.556-.4-1.656-.534-2.211-.077-.44.362-.674,1.211-.535,1.751.306,1.192,1.42,1.808,2.575,1.614.843-.142,1.908-.985,1.575-1.971-.19-.564-.753-.915-1.403-1.317Z"/><path class="cls-2" d="m145.962,416.439c.332-.901.102-2.439-.725-3.019-.655-.459-1.89-.458-2.568-.068-1.497.86-1.913,2.598-1.218,4.086.508,1.087,2.047,2.211,3.255,1.392.691-.469.955-1.36,1.256-2.391Z"/><path class="cls-2" d="m146.99,416.796c.709-.692,1.176-2.227.663-3.134-.406-.718-1.558-1.264-2.362-1.202-1.776.138-2.934,1.572-2.946,3.266-.009,1.238.927,2.967,2.415,2.74.851-.13,1.493-.844,2.23-1.67Z"/><path class="cls-2" d="m148.465,415.328c.41-.771.391-2.185-.282-2.808-.533-.494-1.646-.644-2.304-.376-1.454.591-2.042,2.105-1.598,3.531.324,1.041,1.572,2.243,2.761,1.653.68-.337,1.027-1.108,1.424-1.999Z"/><path class="cls-2" d="m149.465,413.862c-.008-.654-.53-1.576-1.197-1.743-.528-.132-1.313.17-1.649.583-.742.912-.583,2.118.222,2.894.588.567,1.84.907,2.408.091.325-.466.275-1.098.215-1.826Z"/><path class="cls-2" d="m151.42,412.685c-.351-.874-1.53-1.842-2.512-1.72-.778.096-1.676.91-1.913,1.639-.524,1.61.316,3.148,1.8,3.774,1.084.457,2.943.263,3.283-1.127.195-.795-.199-1.618-.658-2.565Z"/><path class="cls-2" d="m151.954,412.444c-.421-.487-1.398-.851-2.007-.554-.482.235-.882.961-.873,1.485.019,1.158.904,1.966,2.002,2.04.803.055,1.962-.484,1.873-1.458-.051-.558-.488-1.002-.995-1.512Z"/><path class="cls-2" d="m153.852,412.042c-.467-.637-1.626-1.176-2.399-.872-.612.241-1.171,1.088-1.211,1.73-.089,1.417.914,2.49,2.249,2.688.976.145,2.444-.401,2.43-1.601-.008-.686-.5-1.272-1.07-1.945Z"/><path class="cls-2" d="m155.293,411.377c-.644-.626-2.046-1.013-2.855-.527-.641.385-1.109,1.441-1.033,2.168.167,1.606,1.493,2.621,3.029,2.592,1.122-.021,2.667-.91,2.425-2.253-.138-.768-.8-1.333-1.566-1.981Z"/><path class="cls-2" d="m156.253,414.864c.751-.168,1.686-.992,1.716-1.8.024-.64-.514-1.471-1.071-1.757-1.23-.633-2.58-.158-3.279.957-.511.814-.598,2.339.479,2.795.616.261,1.331.051,2.154-.195Z"/><path class="cls-2" d="m159.313,413.463c.392-.829.302-2.311-.435-2.932-.584-.492-1.759-.594-2.436-.281-1.496.692-2.038,2.309-1.502,3.783.391,1.076,1.761,2.275,2.978,1.598.697-.388,1.023-1.213,1.395-2.168Z"/><path class="cls-2" d="m159.061,414.694c.752-.064,1.769-.741,1.906-1.523.108-.619-.305-1.497-.808-1.85-1.111-.778-2.486-.495-3.313.496-.604.724-.89,2.194.095,2.78.564.335,1.286.226,2.12.096Z"/><path class="cls-2" d="m160.806,415.05c.767-.153,1.737-.967,1.788-1.787.04-.65-.486-1.507-1.045-1.812-1.234-.674-2.618-.224-3.355.892-.539.815-.665,2.362.418,2.852.619.28,1.351.085,2.194-.145Z"/><path class="cls-2" d="m163.592,413.737c.204-.748-.089-1.969-.795-2.377-.559-.323-1.552-.235-2.07.125-1.144.797-1.356,2.224-.693,3.372.485.839,1.802,1.635,2.716.891.523-.425.673-1.161.842-2.011Z"/><path class="cls-2" d="m164.828,415.64c.784-.543,1.474-1.923,1.133-2.866-.27-.746-1.274-1.45-2.047-1.52-1.707-.155-3.036,1.019-3.32,2.625-.207,1.172.402,2.964,1.85,2.987.829.013,1.552-.56,2.383-1.226Z"/><path class="cls-2" d="m166.909,415.036c.45-.821.448-2.338-.266-3.015-.565-.537-1.757-.712-2.466-.434-1.567.615-2.218,2.23-1.761,3.765.334,1.121,1.657,2.426,2.939,1.809.733-.353,1.116-1.175,1.554-2.125Z"/><path class="cls-2" d="m167.361,413.234c-.449-.547-1.513-.974-2.19-.664-.536.245-.995,1.032-1,1.608-.011,1.273.939,2.185,2.145,2.297.88.082,2.169-.478,2.098-1.552-.041-.614-.509-1.114-1.053-1.689Z"/><path class="cls-2" d="m168.346,417.016c.84-.126,1.933-.96,2.03-1.847.077-.702-.45-1.659-1.041-2.018-1.304-.793-2.827-.376-3.683.796-.626.856-.841,2.527.308,3.113.657.336,1.46.16,2.386-.045Z"/><path class="cls-2" d="m169.89,413.065c-.82-.409-2.303-.351-2.939.373-.504.573-.631,1.745-.332,2.428.66,1.509,2.264,2.085,3.748,1.581,1.084-.368,2.31-1.711,1.659-2.942-.373-.704-1.191-1.047-2.136-1.44Z"/><path class="cls-2" d="m171.945,416.919c.564-.397,1.057-1.399.805-2.079-.199-.539-.929-1.042-1.489-1.089-1.236-.103-2.191.753-2.388,1.916-.144.849.306,2.142,1.354,2.152.6.005,1.12-.413,1.718-.899Z"/><path class="cls-2" d="m173.94,415.958c.087-.665-.307-1.676-.959-1.943-.516-.211-1.357-.02-1.758.35-.886.816-.901,2.063-.199,2.968.513.661,1.734,1.189,2.43.445.398-.425.44-1.073.486-1.82Z"/><path class="cls-2" d="m174.313,414.728c-.741-.418-2.118-.433-2.742.208-.494.508-.667,1.588-.422,2.235.541,1.43,2.001,2.039,3.4,1.641,1.022-.291,2.222-1.478,1.676-2.649-.312-.67-1.055-1.027-1.913-1.435Z"/><path class="cls-2" d="m176.823,416.497c-.319-.833-1.421-1.766-2.353-1.666-.738.08-1.6.836-1.835,1.523-.52,1.517.252,2.985,1.648,3.599,1.019.449,2.782.293,3.125-1.018.196-.75-.165-1.534-.585-2.438Z"/><path class="cls-2" d="m177.826,419.994c.675-.558,1.198-1.875.813-2.711-.305-.662-1.279-1.227-1.992-1.23-1.574-.008-2.698,1.17-2.832,2.661-.098,1.089.599,2.68,1.927,2.588.759-.053,1.376-.634,2.085-1.308Z"/><path class="cls-2" d="m177.791,421.635c.887,0,2.146-.689,2.385-1.591.189-.714-.206-1.783-.76-2.246-1.223-1.023-2.861-.829-3.929.248-.78.786-1.263,2.479-.168,3.264.626.449,1.483.394,2.472.326Z"/><path class="cls-2" d="m178.765,417.843c-.933-.173-2.393.309-2.82,1.211-.338.714-.13,1.917.363,2.513,1.088,1.314,2.85,1.429,4.184.503.974-.676,1.812-2.364.811-3.403-.572-.595-1.485-.703-2.539-.823Z"/><path class="cls-2" d="m181.516,422.647c.675-.49,1.251-1.711.934-2.529-.251-.647-1.143-1.242-1.82-1.289-1.496-.102-2.635.951-2.851,2.361-.158,1.029.41,2.584,1.677,2.576.725-.005,1.346-.521,2.06-1.119Z"/><path class="cls-2" d="m183.382,421.219c-.177-.859-1.098-1.94-2.018-1.991-.729-.04-1.685.557-2.023,1.186-.745,1.389-.23,2.936,1.027,3.754.918.597,2.653.727,3.194-.491.309-.696.084-1.515-.18-2.458Z"/><path class="cls-2" d="m182.94,425.331c.963.013,2.339-.719,2.611-1.694.215-.772-.2-1.939-.794-2.449-1.314-1.127-3.094-.939-4.268.216-.857.843-1.405,2.674-.227,3.541.674.496,1.605.447,2.679.387Z"/><path class="cls-2" d="m185.786,423.816c.139-.74-.24-1.898-.954-2.238-.566-.269-1.52-.107-1.993.282-1.044.86-1.139,2.257-.408,3.316.534.773,1.87,1.441,2.696.651.473-.452.56-1.176.658-2.011Z"/><path class="cls-2" d="m185.243,422.905c-.665-.146-1.724.165-2.051.802-.259.504-.138,1.372.201,1.811.75.968,2.011,1.092,2.989.459.714-.462,1.355-1.653.662-2.422-.396-.44-1.048-.539-1.801-.65Z"/><path class="cls-2" d="m187.823,426.388c.422-.48.648-1.491.273-2.049-.297-.442-1.064-.737-1.579-.658-1.136.176-1.811,1.155-1.736,2.247.055.797.742,1.864,1.689,1.645.542-.126.919-.616,1.353-1.184Z"/><path class="cls-2" d="m190.109,426.198c.046-.973-.646-2.391-1.622-2.699-.773-.244-1.968.134-2.505.718-1.186,1.289-1.058,3.097.068,4.324.823.896,2.655,1.514,3.573.353.525-.664.509-1.607.485-2.696Z"/><path class="cls-2" d="m188.945,429.398c.65-.078,1.513-.695,1.608-1.377.076-.54-.309-1.289-.756-1.58-.987-.642-2.171-.355-2.859.529-.502.646-.707,1.929.165,2.408.499.274,1.122.158,1.841.02Z"/><path class="cls-2" d="m191.005,427.685c-.438-.736-1.632-1.44-2.498-1.193-.685.196-1.378,1.052-1.488,1.74-.244,1.52.725,2.783,2.146,3.137,1.038.258,2.68-.177,2.791-1.473.063-.742-.406-1.425-.951-2.211Z"/><path class="cls-2" d="m191.915,431.426c.506-.607.752-1.862.272-2.539-.38-.536-1.338-.876-1.971-.761-1.397.253-2.199,1.485-2.071,2.829.093.982.976,2.278,2.138,1.977.665-.172,1.115-.79,1.633-1.506Z"/><path class="cls-2" d="m192.74,430.64c-.302-.729-1.299-1.53-2.122-1.419-.651.088-1.396.778-1.588,1.391-.424,1.354.294,2.636,1.544,3.146.913.373,2.469.193,2.741-.975.156-.668-.182-1.354-.575-2.144Z"/><path class="cls-2" d="m192.333,435.442c.968-.025,2.322-.814,2.556-1.804.186-.784-.276-1.94-.894-2.429-1.364-1.08-3.145-.822-4.279.384-.828.881-1.307,2.741-.089,3.566.696.472,1.63.387,2.706.284Z"/><path class="cls-2" d="m193.322,432.531c-.65-.346-1.842-.33-2.368.238-.416.45-.543,1.388-.317,1.943.499,1.226,1.775,1.722,2.977,1.347.878-.273,1.891-1.326,1.393-2.328-.285-.573-.934-.866-1.686-1.201Z"/><path class="cls-2" d="m193.895,433.4c-.836-.267-2.23.004-2.726.781-.393.616-.342,1.743.04,2.346.845,1.332,2.446,1.643,3.777.949.972-.507,1.936-1.956,1.141-3.025-.455-.612-1.279-.817-2.231-1.051Z"/><path class="cls-2" d="m196.372,436.718c.004-.914-.702-2.213-1.63-2.463-.734-.197-1.838.206-2.317.774-1.058,1.256-.865,2.944.241,4.048.807.806,2.549,1.31,3.362.185.465-.644.411-1.526.345-2.545Z"/><path class="cls-2" d="m195.553,437.158c-.482-.494-1.551-.821-2.182-.464-.5.283-.881,1.084-.838,1.644.095,1.237,1.093,2.044,2.273,2.054.862.007,2.067-.644,1.909-1.681-.09-.593-.587-1.04-1.162-1.554Z"/><path class="cls-2" d="m196.574,439.654c-.058-.655-.65-1.54-1.331-1.657-.539-.093-1.304.269-1.609.709-.675.97-.425,2.167.441,2.885.632.524,1.914.77,2.422-.09.291-.492.193-1.121.078-1.847Z"/><path class="cls-2" d="m194.857,439.052c-.672-.572-2.072-.861-2.834-.332-.604.419-.994,1.485-.873,2.194.268,1.564,1.634,2.474,3.139,2.346,1.099-.093,2.556-1.065,2.232-2.367-.185-.745-.871-1.255-1.664-1.841Z"/><path class="cls-2" d="m194.383,441.042c-.207-.808-1.129-1.794-2.006-1.801-.694-.005-1.576.604-1.869,1.217-.646,1.353-.087,2.8,1.143,3.521.899.527,2.553.572,3.012-.609.263-.675.012-1.443-.281-2.327Z"/><path class="cls-2" d="m191.137,440.719c-.804-.122-2.039.332-2.379,1.116-.269.621-.057,1.644.382,2.14.968,1.094,2.479,1.143,3.594.313.814-.606,1.483-2.074.598-2.935-.506-.493-1.29-.559-2.195-.633Z"/><path class="cls-2" d="m191.111,444.48c.526-.471.906-1.549.569-2.211-.267-.524-1.07-.948-1.644-.928-1.268.043-2.137,1.029-2.198,2.235-.044.881.568,2.141,1.635,2.025.61-.067,1.089-.555,1.639-1.12Z"/><path class="cls-2" d="m189.542,442.129c-.6-.61-1.926-1.01-2.707-.564-.619.353-1.087,1.348-1.031,2.042.124,1.533,1.365,2.529,2.828,2.535,1.068.004,2.559-.808,2.359-2.092-.115-.735-.733-1.287-1.448-1.92Z"/><path class="cls-2" d="m188.95,444.815c.28-.809.047-2.176-.7-2.678-.592-.397-1.692-.374-2.29-.014-1.319.794-1.658,2.349-1.012,3.663.472.959,1.864,1.934,2.926,1.182.607-.43.827-1.23,1.076-2.153Z"/><path class="cls-2" d="m186.796,444.205c-.211-.613-.988-1.319-1.668-1.269-.538.039-1.184.567-1.372,1.061-.415,1.089.108,2.175,1.107,2.656.729.352,2.014.282,2.296-.662.161-.54-.081-1.119-.364-1.786Z"/><path class="cls-2" d="m185.738,445.142c-.036-.742-.665-1.768-1.429-1.932-.605-.129-1.485.245-1.85.728-.806,1.065-.578,2.429.367,3.279.69.621,2.126.956,2.739.008.351-.543.269-1.258.172-2.082Z"/><path class="cls-2" d="m184.23,445.049c-.286-.763-1.287-1.623-2.139-1.537-.675.068-1.467.754-1.687,1.38-.484,1.382.212,2.729,1.483,3.299.929.416,2.54.285,2.862-.911.184-.684-.141-1.403-.519-2.231Z"/><path class="cls-2" d="m181.573,444.731c-.696-.354-1.961-.315-2.508.298-.433.485-.55,1.483-.3,2.068.552,1.291,1.916,1.793,3.185,1.373.926-.307,1.981-1.443,1.435-2.497-.313-.603-1.008-.901-1.812-1.242Z"/><path class="cls-2" d="m180.92,448.376c.752-.466,1.455-1.714,1.183-2.603-.215-.704-1.113-1.403-1.826-1.504-1.574-.223-2.861.803-3.198,2.278-.247,1.077.235,2.765,1.576,2.854.767.051,1.464-.447,2.266-1.025Z"/><path class="cls-2" d="m178.09,448.397c.716.033,1.759-.478,1.986-1.197.179-.57-.1-1.448-.531-1.843-.95-.872-2.281-.776-3.183.054-.659.607-1.112,1.956-.257,2.631.489.386,1.184.373,1.985.355Z"/><path class="cls-2" d="m177.49,444.429c-.718-.579-2.187-.841-2.968-.267-.618.455-.996,1.578-.849,2.314.323,1.625,1.776,2.537,3.342,2.361,1.144-.128,2.639-1.183,2.264-2.533-.214-.772-.944-1.286-1.789-1.875Z"/><path class="cls-2" d="m176.402,444.772c-.519-.73-1.825-1.363-2.707-1.031-.698.263-1.347,1.215-1.404,1.942-.125,1.606.994,2.841,2.506,3.089,1.104.181,2.781-.413,2.785-1.774.003-.779-.545-1.452-1.18-2.226Z"/><path class="cls-2" d="m174.391,444.72c-.531-.551-1.714-.919-2.417-.528-.556.31-.984,1.197-.94,1.818.098,1.372,1.2,2.274,2.508,2.291.956.013,2.296-.701,2.128-1.852-.096-.658-.644-1.157-1.279-1.73Z"/><path class="cls-2" d="m172.165,444.221c-.729-.317-2.012-.199-2.53.457-.41.52-.467,1.541-.177,2.12.641,1.278,2.058,1.704,3.321,1.199.922-.369,1.924-1.588,1.304-2.625-.355-.593-1.08-.853-1.917-1.15Z"/><path class="cls-2" d="m170.476,448.064c.781-.016,1.878-.649,2.071-1.447.153-.632-.216-1.568-.712-1.965-1.097-.878-2.537-.676-3.457.293-.672.708-1.066,2.208-.086,2.879.561.384,1.314.319,2.184.24Z"/><path class="cls-2" d="m170.711,444.666c-.38-.915-1.631-1.917-2.663-1.777-.817.111-1.751.977-1.991,1.747-.53,1.699.372,3.306,1.94,3.945,1.145.467,3.098.24,3.438-1.226.195-.839-.23-1.698-.724-2.688Z"/><path class="cls-2" d="m168.901,446.764c.45-.677.561-1.99-.006-2.629-.449-.506-1.467-.747-2.102-.559-1.402.416-2.085,1.766-1.803,3.128.206.995,1.254,2.222,2.409,1.784.661-.251,1.053-.934,1.502-1.724Z"/><path class="cls-2" d="m166.077,443.642c-.798-.378-2.225-.293-2.823.416-.474.562-.573,1.693-.272,2.345.665,1.441,2.221,1.964,3.641,1.449,1.036-.376,2.192-1.693,1.54-2.866-.373-.671-1.167-.985-2.086-1.345Z"/><path class="cls-2" d="m164.506,443.771c-.646-.327-1.818-.289-2.325.28-.401.45-.508,1.376-.275,1.917.514,1.196,1.779,1.66,2.954,1.269.858-.286,1.835-1.34,1.326-2.317-.291-.558-.936-.834-1.681-1.149Z"/><path class="cls-2" d="m163.071,446.64c.722-.089,1.678-.778,1.782-1.536.082-.6-.348-1.432-.845-1.753-1.099-.71-2.413-.387-3.175.597-.556.719-.779,2.146.192,2.675.555.303,1.248.171,2.046.016Z"/><path class="cls-2" d="m161.576,442.287c-.699-.283-1.912-.14-2.388.495-.376.503-.405,1.472-.116,2.014.639,1.196,1.992,1.565,3.177,1.056.866-.372,1.786-1.553,1.172-2.521-.351-.554-1.044-.783-1.846-1.044Z"/><path class="cls-2" d="m160.317,441.292c-.81-.356-2.238-.23-2.818.498-.459.577-.527,1.713-.206,2.358.708,1.425,2.283,1.905,3.691,1.349,1.028-.406,2.149-1.759,1.462-2.916-.392-.662-1.198-.955-2.129-1.289Z"/><path class="cls-2" d="m159.567,444.948c.905-.332,1.931-1.509,1.836-2.518-.075-.799-.879-1.742-1.618-2.007-1.631-.585-3.23.227-3.915,1.727-.501,1.095-.359,3.003,1.053,3.393.808.223,1.661-.155,2.644-.595Z"/><path class="cls-2" d="m158.528,443.448c.613-.522,1.076-1.741.71-2.504-.29-.604-1.193-1.11-1.849-1.104-1.447.014-2.465,1.113-2.568,2.486-.075,1.003.588,2.457,1.807,2.354.697-.059,1.257-.602,1.899-1.232Z"/><path class="cls-2" d="m157.735,442.529c.56-.77.756-2.301.123-3.077-.501-.615-1.68-.947-2.432-.758-1.661.417-2.527,1.963-2.265,3.571.191,1.174,1.357,2.663,2.731,2.207.786-.261,1.279-1.04,1.844-1.942Z"/><path class="cls-2" d="m156.144,440.933c.196-.753-.111-1.975-.824-2.377-.564-.318-1.56-.219-2.076.149-1.139.812-1.337,2.246-.658,3.391.496.836,1.826,1.621,2.735.864.52-.433.662-1.173.823-2.027Z"/><path class="cls-2" d="m154.847,438.715c-.389-.889-1.633-1.848-2.641-1.691-.798.124-1.696.99-1.917,1.748-.488,1.674.425,3.231,1.973,3.828,1.13.436,3.038.177,3.344-1.265.175-.825-.257-1.659-.759-2.62Z"/><path class="cls-2" d="m152.644,437.895c-.492-.586-1.647-1.036-2.375-.693-.577.271-1.064,1.126-1.063,1.749.003,1.376,1.04,2.351,2.345,2.459.953.079,2.34-.541,2.251-1.701-.051-.663-.563-1.199-1.157-1.814Z"/><path class="cls-2" d="m151.1,437.045c-.566-.541-1.789-.867-2.491-.438-.555.34-.955,1.263-.884,1.896.157,1.397,1.32,2.272,2.657,2.235.977-.027,2.316-.812,2.096-1.98-.126-.668-.706-1.155-1.379-1.714Z"/><path class="cls-2" d="m150.248,436.396c-.412-.639-1.494-1.226-2.254-.979-.602.195-1.189.977-1.266,1.591-.169,1.356.732,2.447,2.004,2.716.929.196,2.373-.242,2.43-1.396.033-.66-.406-1.252-.914-1.932Z"/><path class="cls-2" d="m150.158,436.806c.25-.911-.104-2.398-.962-2.898-.68-.395-1.89-.291-2.521.147-1.395.968-1.658,2.705-.853,4.105.588,1.022,2.19,1.996,3.305,1.092.638-.517.822-1.412,1.031-2.447Z"/><path class="cls-2" d="m147.791,436.687c.565-.337,1.105-1.256.914-1.921-.151-.527-.81-1.058-1.339-1.142-1.168-.186-2.138.56-2.409,1.653-.198.798.138,2.06,1.135,2.144.57.048,1.095-.314,1.699-.733Z"/><path class="cls-2" d="m146.854,435.974c.741-.352,1.518-1.43,1.359-2.277-.126-.671-.882-1.407-1.528-1.574-1.428-.368-2.719.446-3.182,1.77-.338.967-.069,2.572,1.158,2.793.702.126,1.395-.261,2.194-.711Z"/><path class="cls-2" d="m145.883,431.997c-.345-.561-1.272-1.088-1.934-.888-.525.158-1.047.825-1.124,1.355-.17,1.171.59,2.131,1.686,2.386.801.187,2.058-.167,2.128-1.165.04-.571-.329-1.091-.757-1.689Z"/><path class="cls-2" d="m145.7,433.285c.65-.741.997-2.298.419-3.158-.458-.681-1.641-1.135-2.434-1.012-1.751.272-2.79,1.782-2.673,3.464.086,1.228,1.145,2.872,2.604,2.533.834-.194,1.416-.951,2.084-1.826Z"/><path class="cls-2" d="m143.283,432.719c.789-.176,1.773-1.04,1.806-1.89.026-.673-.538-1.546-1.123-1.849-1.292-.667-2.711-.169-3.448,1.001-.538.855-.631,2.457.499,2.939.647.275,1.398.056,2.265-.202Z"/><path class="cls-2" d="m143.676,430.463c.462-.782.509-2.252-.162-2.932-.531-.538-1.681-.746-2.377-.499-1.539.546-2.221,2.092-1.826,3.595.288,1.097,1.529,2.405,2.792,1.847.722-.319,1.119-1.104,1.574-2.011Z"/><path class="cls-2" d="m141.653,426.088c-.764-.426-2.18-.437-2.819.225-.506.524-.679,1.635-.424,2.3.562,1.468,2.066,2.089,3.504,1.674,1.05-.303,2.279-1.529,1.712-2.731-.324-.688-1.089-1.052-1.973-1.468Z"/><path class="cls-2" d="m141.498,425.161c-.541-.574-1.757-.967-2.485-.571-.577.313-1.028,1.223-.989,1.864.085,1.416,1.211,2.357,2.559,2.39.985.024,2.375-.697,2.214-1.885-.092-.68-.651-1.2-1.299-1.798Z"/><path class="cls-2" d="m141.625,425.102c.034-.776-.522-1.904-1.302-2.147-.617-.192-1.568.113-1.994.58-.941,1.031-.834,2.472.068,3.447.659.712,2.121,1.199,2.849.27.417-.531.4-1.283.378-2.15Z"/><path class="cls-2" d="m140.848,423.898c.11-.701-.279-1.782-.962-2.083-.541-.238-1.436-.058-1.87.322-.96.84-1.01,2.159-.291,3.137.525.714,1.803,1.306,2.56.537.433-.44.495-1.124.564-1.914Z"/><path class="cls-2" d="m140.044,422.463c.096-.63-.259-1.599-.873-1.866-.487-.211-1.289-.046-1.678.298-.858.759-.898,1.943-.248,2.818.475.639,1.625,1.165,2.301.471.387-.397.44-1.012.498-1.721Z"/><path class="cls-2" d="m140.239,421.351c.287-.79.081-2.134-.645-2.638-.574-.399-1.655-.394-2.246-.05-1.306.758-1.664,2.279-1.051,3.578.448.949,1.798,1.927,2.852,1.206.603-.412.831-1.193,1.09-2.096Z"/><path class="cls-2" d="m138.436,417.607c-.663-.344-1.871-.316-2.398.266-.418.46-.536,1.413-.302,1.973.518,1.238,1.817,1.727,3.032,1.336.887-.286,1.904-1.364,1.389-2.374-.294-.578-.956-.868-1.721-1.2Z"/></g></g><g><path class="cls-2" d="m222.5,449.591s5.748,11.366,22.052,8.617c12.086-2.037,15.62-12.431,15.62-12.431,0,0-5.215-8.878-19.087-8.374-14.713.535-18.586,12.187-18.586,12.187Z"/><g><path class="cls-2" d="m222.782,447.482c-.665-.146-1.724.165-2.051.802-.259.504-.138,1.372.201,1.811.75.968,2.011,1.092,2.989.459.714-.462,1.355-1.653.662-2.422-.396-.44-1.048-.539-1.801-.65Z"/><path class="cls-2" d="m224.781,448.704c.422-.48.648-1.491.273-2.049-.297-.442-1.064-.737-1.579-.658-1.136.176-1.811,1.155-1.736,2.247.055.797.742,1.864,1.689,1.645.542-.126.919-.616,1.353-1.184Z"/><path class="cls-2" d="m226.605,446.185c.046-.973-.646-2.391-1.622-2.699-.773-.244-1.968.134-2.505.718-1.186,1.289-1.058,3.097.068,4.324.823.896,2.655,1.514,3.573.353.525-.664.509-1.607.485-2.696Z"/><path class="cls-2" d="m225.688,446.972c.65-.078,1.513-.695,1.608-1.377.076-.54-.309-1.289-.756-1.58-.987-.642-2.171-.355-2.859.529-.502.646-.707,1.929.165,2.408.499.274,1.122.158,1.841.02Z"/><path class="cls-2" d="m227.994,442.847c-.438-.736-1.632-1.44-2.498-1.193-.685.196-1.378,1.052-1.488,1.74-.244,1.52.725,2.783,2.146,3.137,1.038.258,2.68-.177,2.791-1.473.063-.742-.406-1.425-.951-2.211Z"/><path class="cls-2" d="m229.15,444.176c.506-.607.752-1.862.272-2.539-.38-.536-1.338-.876-1.971-.761-1.397.253-2.199,1.485-2.071,2.829.093.982.976,2.278,2.138,1.977.665-.172,1.115-.79,1.633-1.506Z"/><path class="cls-2" d="m230.22,440.977c-.302-.729-1.299-1.53-2.122-1.419-.651.088-1.396.778-1.588,1.391-.424,1.354.294,2.636,1.544,3.146.913.373,2.469.193,2.741-.975.156-.668-.182-1.354-.575-2.144Z"/><path class="cls-2" d="m230.06,443.366c.968-.025,2.322-.814,2.556-1.804.186-.784-.276-1.94-.894-2.429-1.364-1.08-3.145-.822-4.279.384-.828.881-1.307,2.741-.089,3.566.696.472,1.63.387,2.706.284Z"/><path class="cls-2" d="m231.645,438.625c-.65-.346-1.842-.33-2.368.238-.416.45-.543,1.388-.317,1.943.499,1.226,1.775,1.722,2.977,1.347.878-.273,1.891-1.326,1.393-2.328-.285-.573-.934-.866-1.686-1.201Z"/><path class="cls-2" d="m232.862,437.743c-.836-.267-2.23.004-2.726.781-.393.616-.342,1.743.04,2.346.845,1.332,2.446,1.643,3.777.949.972-.507,1.936-1.956,1.141-3.025-.455-.612-1.279-.817-2.231-1.051Z"/><path class="cls-2" d="m236.331,439.149c.004-.914-.702-2.213-1.63-2.463-.734-.197-1.838.206-2.317.774-1.058,1.256-.865,2.944.241,4.048.807.806,2.549,1.31,3.362.185.465-.644.411-1.526.345-2.545Z"/><path class="cls-2" d="m236.563,437.651c-.482-.494-1.551-.821-2.182-.464-.5.283-.881,1.084-.838,1.644.095,1.237,1.093,2.044,2.273,2.054.862.007,2.067-.644,1.909-1.681-.09-.593-.587-1.04-1.162-1.554Z"/><path class="cls-2" d="m238.634,438.208c-.058-.655-.65-1.54-1.331-1.657-.539-.093-1.304.269-1.609.709-.675.97-.425,2.167.441,2.885.632.524,1.914.77,2.422-.09.291-.492.193-1.121.078-1.847Z"/><path class="cls-2" d="m239.663,436.246c-.672-.572-2.072-.861-2.834-.332-.604.419-.994,1.485-.873,2.194.268,1.564,1.634,2.474,3.139,2.346,1.099-.093,2.556-1.065,2.232-2.367-.185-.745-.871-1.255-1.664-1.841Z"/><path class="cls-2" d="m241.941,436.878c-.207-.808-1.129-1.794-2.006-1.801-.694-.005-1.576.604-1.869,1.217-.646,1.353-.087,2.8,1.143,3.521.899.527,2.553.572,3.012-.609.263-.675.012-1.443-.281-2.327Z"/><path class="cls-2" d="m241.464,435.396c-.804-.122-2.039.332-2.379,1.116-.269.621-.057,1.644.382,2.14.968,1.094,2.479,1.143,3.594.313.814-.606,1.483-2.074.598-2.935-.506-.493-1.29-.559-2.195-.633Z"/><path class="cls-2" d="m244.428,438.877c.526-.471.906-1.549.569-2.211-.267-.524-1.07-.948-1.644-.928-1.268.043-2.137,1.029-2.198,2.235-.044.881.568,2.141,1.635,2.025.61-.067,1.089-.555,1.639-1.12Z"/><path class="cls-2" d="m245.848,436.246c-.6-.61-1.926-1.01-2.707-.564-.619.353-1.087,1.348-1.031,2.042.124,1.533,1.365,2.529,2.828,2.535,1.068.004,2.559-.808,2.359-2.092-.115-.735-.733-1.287-1.448-1.92Z"/><path class="cls-2" d="m248.246,438.653c.28-.809.047-2.176-.7-2.678-.592-.397-1.692-.374-2.29-.014-1.319.794-1.658,2.349-1.012,3.663.472.959,1.864,1.934,2.926,1.182.607-.43.827-1.23,1.076-2.153Z"/><path class="cls-2" d="m249.081,437.763c-.211-.613-.988-1.319-1.668-1.269-.538.039-1.184.567-1.372,1.061-.415,1.089.108,2.175,1.107,2.656.729.352,2.014.282,2.296-.662.161-.54-.081-1.119-.364-1.786Z"/><path class="cls-2" d="m251.013,438.421c-.036-.742-.665-1.768-1.429-1.932-.605-.129-1.485.245-1.85.728-.806,1.065-.578,2.429.367,3.279.69.621,2.126.956,2.739.008.351-.543.269-1.258.172-2.082Z"/><path class="cls-2" d="m252.494,438.048c-.286-.763-1.287-1.623-2.139-1.537-.675.068-1.467.754-1.687,1.38-.484,1.382.212,2.729,1.483,3.299.929.416,2.54.285,2.862-.911.184-.684-.141-1.403-.519-2.231Z"/><path class="cls-2" d="m252.823,437.458c-.696-.354-1.961-.315-2.508.298-.433.485-.55,1.483-.3,2.068.552,1.291,1.916,1.793,3.185,1.373.926-.307,1.981-1.443,1.435-2.497-.313-.603-1.008-.901-1.812-1.242Z"/><path class="cls-2" d="m254.991,441.941c.752-.466,1.455-1.714,1.183-2.603-.215-.704-1.113-1.403-1.826-1.504-1.574-.223-2.861.803-3.198,2.278-.247,1.077.235,2.765,1.576,2.854.767.051,1.464-.447,2.266-1.025Z"/><path class="cls-2" d="m255.003,442.932c.716.033,1.759-.478,1.986-1.197.179-.57-.1-1.448-.531-1.843-.95-.872-2.281-.776-3.183.054-.659.607-1.112,1.956-.257,2.631.489.386,1.184.373,1.985.355Z"/><path class="cls-2" d="m257.244,439.933c-.718-.579-2.187-.841-2.968-.267-.618.455-.996,1.578-.849,2.314.323,1.625,1.776,2.537,3.342,2.361,1.144-.128,2.639-1.183,2.264-2.533-.214-.772-.944-1.286-1.789-1.875Z"/><path class="cls-2" d="m258.997,441.245c-.519-.73-1.825-1.363-2.707-1.031-.698.263-1.347,1.215-1.404,1.942-.125,1.606.994,2.841,2.506,3.089,1.104.181,2.781-.413,2.785-1.774.003-.779-.545-1.452-1.18-2.226Z"/><path class="cls-2" d="m259.745,442.253c-.531-.551-1.714-.919-2.417-.528-.556.31-.984,1.197-.94,1.818.098,1.372,1.2,2.274,2.508,2.291.956.013,2.296-.701,2.128-1.852-.096-.658-.644-1.157-1.279-1.73Z"/><path class="cls-2" d="m260.057,443.054c-.729-.317-2.012-.199-2.53.457-.41.52-.467,1.541-.177,2.12.641,1.278,2.058,1.704,3.321,1.199.922-.369,1.924-1.588,1.304-2.625-.355-.593-1.08-.853-1.917-1.15Z"/><path class="cls-2" d="m260.277,448.269c.781-.016,1.878-.649,2.071-1.447.153-.632-.216-1.568-.712-1.965-1.097-.878-2.537-.676-3.457.293-.672.708-1.066,2.208-.086,2.879.561.384,1.314.319,2.184.24Z"/><path class="cls-2" d="m261.378,446.363c-.38-.915-1.631-1.917-2.663-1.777-.817.111-1.751.977-1.991,1.747-.53,1.699.372,3.306,1.94,3.945,1.145.467,3.098.24,3.438-1.226.195-.839-.23-1.698-.724-2.688Z"/><path class="cls-2" d="m260.302,449.864c.45-.677.561-1.99-.006-2.629-.449-.506-1.467-.747-2.102-.559-1.402.416-2.085,1.766-1.803,3.128.206.995,1.254,2.222,2.409,1.784.661-.251,1.053-.934,1.502-1.724Z"/><path class="cls-2" d="m258.007,448.01c-.798-.378-2.225-.293-2.823.416-.474.562-.573,1.693-.272,2.345.665,1.441,2.221,1.964,3.641,1.449,1.036-.376,2.192-1.693,1.54-2.866-.373-.671-1.167-.985-2.086-1.345Z"/><path class="cls-2" d="m256.918,449.585c-.646-.327-1.818-.289-2.325.28-.401.45-.508,1.376-.275,1.917.514,1.196,1.779,1.66,2.954,1.269.858-.286,1.835-1.34,1.326-2.317-.291-.558-.936-.834-1.681-1.149Z"/><path class="cls-2" d="m255.856,454.31c.722-.089,1.678-.778,1.782-1.536.082-.6-.348-1.432-.845-1.753-1.099-.71-2.413-.387-3.175.597-.556.719-.779,2.146.192,2.675.555.303,1.248.171,2.046.016Z"/><path class="cls-2" d="m254.736,451.813c-.699-.283-1.912-.14-2.388.495-.376.503-.405,1.472-.116,2.014.639,1.196,1.992,1.565,3.177,1.056.866-.372,1.786-1.553,1.172-2.521-.351-.554-1.044-.783-1.846-1.044Z"/><path class="cls-2" d="m253.581,452.307c-.81-.356-2.238-.23-2.818.498-.459.577-.527,1.713-.206,2.358.708,1.425,2.283,1.905,3.691,1.349,1.028-.406,2.149-1.759,1.462-2.916-.392-.662-1.198-.955-2.129-1.289Z"/><path class="cls-2" d="m252.803,457.272c.905-.332,1.931-1.509,1.836-2.518-.075-.799-.879-1.742-1.618-2.007-1.631-.585-3.23.227-3.915,1.727-.501,1.095-.359,3.003,1.053,3.393.808.223,1.661-.155,2.644-.595Z"/><path class="cls-2" d="m251.737,457.081c.613-.522,1.076-1.741.71-2.504-.29-.604-1.193-1.11-1.849-1.104-1.447.014-2.465,1.113-2.568,2.486-.075,1.003.588,2.457,1.807,2.354.697-.059,1.257-.602,1.899-1.232Z"/><path class="cls-2" d="m250.916,457.47c.56-.77.756-2.301.123-3.077-.501-.615-1.68-.947-2.432-.758-1.661.417-2.527,1.963-2.265,3.571.191,1.174,1.357,2.663,2.731,2.207.786-.261,1.279-1.04,1.844-1.942Z"/><path class="cls-2" d="m249.297,457.183c.196-.753-.111-1.975-.824-2.377-.564-.318-1.56-.219-2.076.149-1.139.812-1.337,2.246-.658,3.391.496.836,1.826,1.621,2.735.864.52-.433.662-1.173.823-2.027Z"/><path class="cls-2" d="m247.973,456.274c-.389-.889-1.633-1.848-2.641-1.691-.798.124-1.696.99-1.917,1.748-.488,1.674.425,3.231,1.973,3.828,1.13.436,3.038.177,3.344-1.265.175-.825-.257-1.659-.759-2.62Z"/><path class="cls-2" d="m245.734,456.717c-.492-.586-1.647-1.036-2.375-.693-.577.271-1.064,1.126-1.063,1.749.003,1.376,1.04,2.351,2.345,2.459.953.079,2.34-.541,2.251-1.701-.051-.663-.563-1.199-1.157-1.814Z"/><path class="cls-2" d="m244.036,456.43c-.566-.541-1.789-.867-2.491-.438-.555.34-.955,1.263-.884,1.896.157,1.397,1.32,2.272,2.657,2.235.977-.027,2.316-.812,2.096-1.98-.126-.668-.706-1.155-1.379-1.714Z"/><path class="cls-2" d="m242.797,456.656c-.412-.639-1.494-1.226-2.254-.979-.602.195-1.189.977-1.266,1.591-.169,1.356.732,2.447,2.004,2.716.929.196,2.373-.242,2.43-1.396.033-.66-.406-1.252-.914-1.932Z"/><path class="cls-2" d="m242.204,458.094c.25-.911-.104-2.398-.962-2.898-.68-.395-1.89-.291-2.521.147-1.395.968-1.658,2.705-.853,4.105.588,1.022,2.19,1.996,3.305,1.092.638-.517.822-1.412,1.031-2.447Z"/><path class="cls-2" d="m239.334,459.004c.565-.337,1.105-1.256.914-1.921-.151-.527-.81-1.058-1.339-1.142-1.168-.186-2.138.56-2.409,1.653-.198.798.138,2.06,1.135,2.144.57.048,1.095-.314,1.699-.733Z"/><path class="cls-2" d="m237.894,459.32c.741-.352,1.518-1.43,1.359-2.277-.126-.671-.882-1.407-1.528-1.574-1.428-.368-2.719.446-3.182,1.77-.338.967-.069,2.572,1.158,2.793.702.126,1.395-.261,2.194-.711Z"/><path class="cls-2" d="m236.42,456.372c-.345-.561-1.272-1.088-1.934-.888-.525.158-1.047.825-1.124,1.355-.17,1.171.59,2.131,1.686,2.386.801.187,2.058-.167,2.128-1.165.04-.571-.329-1.091-.757-1.689Z"/><path class="cls-2" d="m235.733,458.689c.65-.741.997-2.298.419-3.158-.458-.681-1.641-1.135-2.434-1.012-1.751.272-2.79,1.782-2.673,3.464.086,1.228,1.145,2.872,2.604,2.533.834-.194,1.416-.951,2.084-1.826Z"/><path class="cls-2" d="m232.814,459.152c.789-.176,1.773-1.04,1.806-1.89.026-.673-.538-1.546-1.123-1.849-1.292-.667-2.711-.169-3.448,1.001-.538.855-.631,2.457.499,2.939.647.275,1.398.056,2.265-.202Z"/><path class="cls-2" d="m232.845,457.422c.462-.782.509-2.252-.162-2.932-.531-.538-1.681-.746-2.377-.499-1.539.546-2.221,2.092-1.826,3.595.288,1.097,1.529,2.405,2.792,1.847.722-.319,1.119-1.104,1.574-2.011Z"/><path class="cls-2" d="m230.154,453.598c-.764-.426-2.18-.437-2.819.225-.506.524-.679,1.635-.424,2.3.562,1.468,2.066,2.089,3.504,1.674,1.05-.303,2.279-1.529,1.712-2.731-.324-.688-1.089-1.052-1.973-1.468Z"/><path class="cls-2" d="m229.332,453.223c-.541-.574-1.757-.967-2.485-.571-.577.313-1.028,1.223-.989,1.864.085,1.416,1.211,2.357,2.559,2.39.985.024,2.375-.697,2.214-1.885-.092-.68-.651-1.2-1.299-1.798Z"/><path class="cls-2" d="m228.792,453.717c.034-.776-.522-1.904-1.302-2.147-.617-.192-1.568.113-1.994.58-.941,1.031-.834,2.472.068,3.447.659.712,2.121,1.199,2.849.27.417-.531.4-1.283.378-2.15Z"/><path class="cls-2" d="m227.348,453.065c.11-.701-.279-1.782-.962-2.083-.541-.238-1.436-.058-1.87.322-.96.84-1.01,2.159-.291,3.137.525.714,1.803,1.306,2.56.537.433-.44.495-1.124.564-1.914Z"/><path class="cls-2" d="m225.975,452.08c.096-.63-.259-1.599-.873-1.866-.487-.211-1.289-.046-1.678.298-.858.759-.898,1.943-.248,2.818.475.639,1.625,1.165,2.301.471.387-.397.44-1.012.498-1.721Z"/><path class="cls-2" d="m225.534,451.245c.287-.79.081-2.134-.645-2.638-.574-.399-1.655-.394-2.246-.05-1.306.758-1.664,2.279-1.051,3.578.448.949,1.798,1.927,2.852,1.206.603-.412.831-1.193,1.09-2.096Z"/><path class="cls-2" d="m223.094,447.777c-.663-.344-1.871-.316-2.398.266-.418.46-.536,1.413-.302,1.973.518,1.238,1.817,1.727,3.032,1.336.887-.286,1.904-1.364,1.389-2.374-.294-.578-.956-.868-1.721-1.2Z"/></g></g><g><path class="cls-2" d="m214.668,383.441s-11.221-1.319-17.888,12.596c-4.942,10.315.66,18.276.66,18.276,0,0,9.15.473,16.141-10.441,7.414-11.576,1.087-20.432,1.087-20.432Z"/><g><path class="cls-2" d="m216.773,385.196c.506-.607.752-1.862.272-2.539-.38-.536-1.338-.876-1.971-.761-1.397.253-2.199,1.485-2.071,2.829.093.982.976,2.278,2.138,1.977.665-.172,1.115-.79,1.633-1.506Z"/><path class="cls-2" d="m217.447,384.497c-.302-.729-1.299-1.53-2.122-1.419-.651.088-1.396.778-1.588,1.391-.424,1.354.294,2.636,1.544,3.146.913.373,2.469.193,2.741-.975.156-.668-.182-1.354-.575-2.144Z"/><path class="cls-2" d="m216.631,389.467c.968-.025,2.322-.814,2.556-1.804.186-.784-.276-1.94-.894-2.429-1.364-1.08-3.145-.822-4.279.384-.828.881-1.307,2.741-.089,3.566.696.472,1.63.387,2.706.284Z"/><path class="cls-2" d="m217.01,386.789c-.65-.346-1.842-.33-2.368.238-.416.45-.543,1.388-.317,1.943.499,1.226,1.775,1.722,2.977,1.347.878-.273,1.891-1.326,1.393-2.328-.285-.573-.934-.866-1.686-1.201Z"/><path class="cls-2" d="m216.974,387.891c-.836-.267-2.23.004-2.726.781-.393.616-.342,1.743.04,2.346.845,1.332,2.446,1.643,3.777.949.972-.507,1.936-1.956,1.141-3.025-.455-.612-1.279-.817-2.231-1.051Z"/><path class="cls-2" d="m219.19,391.281c.004-.914-.702-2.213-1.63-2.463-.734-.197-1.838.206-2.317.774-1.058,1.256-.865,2.944.241,4.048.807.806,2.549,1.31,3.362.185.465-.644.411-1.526.345-2.545Z"/><path class="cls-2" d="m218.169,391.766c-.482-.494-1.551-.821-2.182-.464-.5.283-.881,1.084-.838,1.644.095,1.237,1.093,2.044,2.273,2.054.862.007,2.067-.644,1.909-1.681-.09-.593-.587-1.04-1.162-1.554Z"/><path class="cls-2" d="m218.364,394.253c-.058-.655-.65-1.54-1.331-1.657-.539-.093-1.304.269-1.609.709-.675.97-.425,2.167.441,2.885.632.524,1.914.77,2.422-.09.291-.492.193-1.121.078-1.847Z"/><path class="cls-2" d="m217.397,394.208c-.672-.572-2.072-.861-2.834-.332-.604.419-.994,1.485-.873,2.194.268,1.564,1.634,2.474,3.139,2.346,1.099-.093,2.556-1.065,2.232-2.367-.185-.745-.871-1.255-1.664-1.841Z"/><path class="cls-2" d="m217.68,396.758c-.207-.808-1.129-1.794-2.006-1.801-.694-.005-1.576.604-1.869,1.217-.646,1.353-.087,2.8,1.143,3.521.899.527,2.553.572,3.012-.609.263-.675.012-1.443-.281-2.327Z"/><path class="cls-2" d="m215.197,397.007c-.804-.122-2.039.332-2.379,1.116-.269.621-.057,1.644.382,2.14.968,1.094,2.479,1.143,3.594.313.814-.606,1.483-2.074.598-2.935-.506-.493-1.29-.559-2.195-.633Z"/><path class="cls-2" d="m216.123,401.692c.526-.471.906-1.549.569-2.211-.267-.524-1.07-.948-1.644-.928-1.268.043-2.137,1.029-2.198,2.235-.044.881.568,2.141,1.635,2.025.61-.067,1.089-.555,1.639-1.12Z"/><path class="cls-2" d="m215.506,400.265c-.6-.61-1.926-1.01-2.707-.564-.619.353-1.087,1.348-1.031,2.042.124,1.533,1.365,2.529,2.828,2.535,1.068.004,2.559-.808,2.359-2.092-.115-.735-.733-1.287-1.448-1.92Z"/><path class="cls-2" d="m215.866,403.875c.28-.809.047-2.176-.7-2.678-.592-.397-1.692-.374-2.29-.014-1.319.794-1.658,2.349-1.012,3.663.472.959,1.864,1.934,2.926,1.182.607-.43.827-1.23,1.076-2.153Z"/><path class="cls-2" d="m214.233,403.926c-.211-.613-.988-1.319-1.668-1.269-.538.039-1.184.567-1.372,1.061-.415,1.089.108,2.175,1.107,2.656.729.352,2.014.282,2.296-.662.161-.54-.081-1.119-.364-1.786Z"/><path class="cls-2" d="m213.552,405.435c-.036-.742-.665-1.768-1.429-1.932-.605-.129-1.485.245-1.85.728-.806,1.065-.578,2.429.367,3.279.69.621,2.126.956,2.739.008.351-.543.269-1.258.172-2.082Z"/><path class="cls-2" d="m212.419,405.914c-.286-.763-1.287-1.623-2.139-1.537-.675.068-1.467.754-1.687,1.38-.484,1.382.212,2.729,1.483,3.299.929.416,2.54.285,2.862-.911.184-.684-.141-1.403-.519-2.231Z"/><path class="cls-2" d="m210.138,406.167c-.696-.354-1.961-.315-2.508.298-.433.485-.55,1.483-.3,2.068.552,1.291,1.916,1.793,3.185,1.373.926-.307,1.981-1.443,1.435-2.497-.313-.603-1.008-.901-1.812-1.242Z"/><path class="cls-2" d="m209.938,410.896c.752-.466,1.455-1.714,1.183-2.603-.215-.704-1.113-1.403-1.826-1.504-1.574-.223-2.861.803-3.198,2.278-.247,1.077.235,2.765,1.576,2.854.767.051,1.464-.447,2.266-1.025Z"/><path class="cls-2" d="m207.581,412.133c.716.033,1.759-.478,1.986-1.197.179-.57-.1-1.448-.531-1.843-.95-.872-2.281-.776-3.183.054-.659.607-1.112,1.956-.257,2.631.489.386,1.184.373,1.985.355Z"/><path class="cls-2" d="m207.454,409.381c-.718-.579-2.187-.841-2.968-.267-.618.455-.996,1.578-.849,2.314.323,1.625,1.776,2.537,3.342,2.361,1.144-.128,2.639-1.183,2.264-2.533-.214-.772-.944-1.286-1.789-1.875Z"/><path class="cls-2" d="m206.483,410.419c-.519-.73-1.825-1.363-2.707-1.031-.698.263-1.347,1.215-1.404,1.942-.125,1.606.994,2.841,2.506,3.089,1.104.181,2.781-.413,2.785-1.774.003-.779-.545-1.452-1.18-2.226Z"/><path class="cls-2" d="m204.59,411.064c-.531-.551-1.714-.919-2.417-.528-.556.31-.984,1.197-.94,1.818.098,1.372,1.2,2.274,2.508,2.291.956.013,2.296-.701,2.128-1.852-.096-.658-.644-1.157-1.279-1.73Z"/><path class="cls-2" d="m202.482,411.261c-.729-.317-2.012-.199-2.53.457-.41.52-.467,1.541-.177,2.12.641,1.278,2.058,1.704,3.321,1.199.922-.369,1.924-1.588,1.304-2.625-.355-.593-1.08-.853-1.917-1.15Z"/><path class="cls-2" d="m200.911,415.8c.781-.016,1.878-.649,2.071-1.447.153-.632-.216-1.568-.712-1.965-1.097-.878-2.537-.676-3.457.293-.672.708-1.066,2.208-.086,2.879.561.384,1.314.319,2.184.24Z"/><path class="cls-2" d="m201.189,412.807c-.38-.915-1.631-1.917-2.663-1.777-.817.111-1.751.977-1.991,1.747-.53,1.699.372,3.306,1.94,3.945,1.145.467,3.098.24,3.438-1.226.195-.839-.23-1.698-.724-2.688Z"/><path class="cls-2" d="m199.385,415.166c.45-.677.561-1.99-.006-2.629-.449-.506-1.467-.747-2.102-.559-1.402.416-2.085,1.766-1.803,3.128.206.995,1.254,2.222,2.409,1.784.661-.251,1.053-.934,1.502-1.724Z"/><path class="cls-2" d="m197.371,410.806c-.798-.378-2.225-.293-2.823.416-.474.562-.573,1.693-.272,2.345.665,1.441,2.221,1.964,3.641,1.449,1.036-.376,2.192-1.693,1.54-2.866-.373-.671-1.167-.985-2.086-1.345Z"/><path class="cls-2" d="m196.666,409.801c-.646-.327-1.818-.289-2.325.28-.401.45-.508,1.376-.275,1.917.514,1.196,1.779,1.66,2.954,1.269.858-.286,1.835-1.34,1.326-2.317-.291-.558-.936-.834-1.681-1.149Z"/><path class="cls-2" d="m196.297,411.833c.722-.089,1.678-.778,1.782-1.536.082-.6-.348-1.432-.845-1.753-1.099-.71-2.413-.387-3.175.597-.556.719-.779,2.146.192,2.675.555.303,1.248.171,2.046.016Z"/><path class="cls-2" d="m195.869,406.644c-.699-.283-1.912-.14-2.388.495-.376.503-.405,1.472-.116,2.014.639,1.196,1.992,1.565,3.177,1.056.866-.372,1.786-1.553,1.172-2.521-.351-.554-1.044-.783-1.846-1.044Z"/><path class="cls-2" d="m195.677,404.812c-.81-.356-2.238-.23-2.818.498-.459.577-.527,1.713-.206,2.358.708,1.425,2.283,1.905,3.691,1.349,1.028-.406,2.149-1.759,1.462-2.916-.392-.662-1.198-.955-2.129-1.289Z"/><path class="cls-2" d="m195.994,407.632c.905-.332,1.931-1.509,1.836-2.518-.075-.799-.879-1.742-1.618-2.007-1.631-.585-3.23.227-3.915,1.727-.501,1.095-.359,3.003,1.053,3.393.808.223,1.661-.155,2.644-.595Z"/><path class="cls-2" d="m196.63,405.296c.613-.522,1.076-1.741.71-2.504-.29-.604-1.193-1.11-1.849-1.104-1.447.014-2.465,1.113-2.568,2.486-.075,1.003.588,2.457,1.807,2.354.697-.059,1.257-.602,1.899-1.232Z"/><path class="cls-2" d="m197.565,403.54c.56-.77.756-2.301.123-3.077-.501-.615-1.68-.947-2.432-.758-1.661.417-2.527,1.963-2.265,3.571.191,1.174,1.357,2.663,2.731,2.207.786-.261,1.279-1.04,1.844-1.942Z"/><path class="cls-2" d="m197.701,401.108c.196-.753-.111-1.975-.824-2.377-.564-.318-1.56-.219-2.076.149-1.139.812-1.337,2.246-.658,3.391.496.836,1.826,1.621,2.735.864.52-.433.662-1.173.823-2.027Z"/><path class="cls-2" d="m198.133,398.053c-.389-.889-1.633-1.848-2.641-1.691-.798.124-1.696.99-1.917,1.748-.488,1.674.425,3.231,1.973,3.828,1.13.436,3.038.177,3.344-1.265.175-.825-.257-1.659-.759-2.62Z"/><path class="cls-2" d="m197.657,396.397c-.492-.586-1.647-1.036-2.375-.693-.577.271-1.064,1.126-1.063,1.749.003,1.376,1.04,2.351,2.345,2.459.953.079,2.34-.541,2.251-1.701-.051-.663-.563-1.199-1.157-1.814Z"/><path class="cls-2" d="m197.842,394.709c-.566-.541-1.789-.867-2.491-.438-.555.34-.955,1.263-.884,1.896.157,1.397,1.32,2.272,2.657,2.235.977-.027,2.316-.812,2.096-1.98-.126-.668-.706-1.155-1.379-1.714Z"/><path class="cls-2" d="m198.993,393.779c-.412-.639-1.494-1.226-2.254-.979-.602.195-1.189.977-1.266,1.591-.169,1.356.732,2.447,2.004,2.716.929.196,2.373-.242,2.43-1.396.033-.66-.406-1.252-.914-1.932Z"/><path class="cls-2" d="m200.927,394.126c.25-.911-.104-2.398-.962-2.898-.68-.395-1.89-.291-2.521.147-1.395.968-1.658,2.705-.853,4.105.588,1.022,2.19,1.996,3.305,1.092.638-.517.822-1.412,1.031-2.447Z"/><path class="cls-2" d="m200.584,393.944c.565-.337,1.105-1.256.914-1.921-.151-.527-.81-1.058-1.339-1.142-1.168-.186-2.138.56-2.409,1.653-.198.798.138,2.06,1.135,2.144.57.048,1.095-.314,1.699-.733Z"/><path class="cls-2" d="m201.67,393.168c.741-.352,1.518-1.43,1.359-2.277-.126-.671-.882-1.407-1.528-1.574-1.428-.368-2.719.446-3.182,1.77-.338.967-.069,2.572,1.158,2.793.702.126,1.395-.261,2.194-.711Z"/><path class="cls-2" d="m202.723,389.129c-.345-.561-1.272-1.088-1.934-.888-.525.158-1.047.825-1.124,1.355-.17,1.171.59,2.131,1.686,2.386.801.187,2.058-.167,2.128-1.165.04-.571-.329-1.091-.757-1.689Z"/><path class="cls-2" d="m204.563,390.355c.65-.741.997-2.298.419-3.158-.458-.681-1.641-1.135-2.434-1.012-1.751.272-2.79,1.782-2.673,3.464.086,1.228,1.145,2.872,2.604,2.533.834-.194,1.416-.951,2.084-1.826Z"/><path class="cls-2" d="m204.171,389.726c.789-.176,1.773-1.04,1.806-1.89.026-.673-.538-1.546-1.123-1.849-1.292-.667-2.711-.169-3.448,1.001-.538.855-.631,2.457.499,2.939.647.275,1.398.056,2.265-.202Z"/><path class="cls-2" d="m206.541,387.437c.462-.782.509-2.252-.162-2.932-.531-.538-1.681-.746-2.377-.499-1.539.546-2.221,2.092-1.826,3.595.288,1.097,1.529,2.405,2.792,1.847.722-.319,1.119-1.104,1.574-2.011Z"/><path class="cls-2" d="m206.572,383.887c-.764-.426-2.18-.437-2.819.225-.506.524-.679,1.635-.424,2.3.562,1.468,2.066,2.089,3.504,1.674,1.05-.303,2.279-1.529,1.712-2.731-.324-.688-1.089-1.052-1.973-1.468Z"/><path class="cls-2" d="m208.473,383.789c-.541-.574-1.757-.967-2.485-.571-.577.313-1.028,1.223-.989,1.864.085,1.416,1.211,2.357,2.559,2.39.985.024,2.375-.697,2.214-1.885-.092-.68-.651-1.2-1.299-1.798Z"/><path class="cls-2" d="m210.656,384.559c.034-.776-.522-1.904-1.302-2.147-.617-.192-1.568.113-1.994.58-.941,1.031-.834,2.472.068,3.447.659.712,2.121,1.199,2.849.27.417-.531.4-1.283.378-2.15Z"/><path class="cls-2" d="m211.935,384.184c.11-.701-.279-1.782-.962-2.083-.541-.238-1.436-.058-1.87.322-.96.84-1.01,2.159-.291,3.137.525.714,1.803,1.306,2.56.537.433-.44.495-1.124.564-1.914Z"/><path class="cls-2" d="m213.19,383.595c.096-.63-.259-1.599-.873-1.866-.487-.211-1.289-.046-1.678.298-.858.759-.898,1.943-.248,2.818.475.639,1.625,1.165,2.301.471.387-.397.44-1.012.498-1.721Z"/><path class="cls-2" d="m215.226,383.927c.287-.79.081-2.134-.645-2.638-.574-.399-1.655-.394-2.246-.05-1.306.758-1.664,2.279-1.051,3.578.448.949,1.798,1.927,2.852,1.206.603-.412.831-1.193,1.09-2.096Z"/><path class="cls-2" d="m215.262,381.627c-.663-.344-1.871-.316-2.398.266-.418.46-.536,1.413-.302,1.973.518,1.238,1.817,1.727,3.032,1.336.887-.286,1.904-1.364,1.389-2.374-.294-.578-.956-.868-1.721-1.2Z"/></g></g></svg>