<svg width="8" height="12" viewBox="0 0 8 12" fill="none" xmlns="http://www.w3.org/2000/svg">
<g clip-path="url(#clip0_62_110)">
<path d="M6.71005 9.87999L2.83005 5.99999L6.71005 2.11999C6.80263 2.02741 6.87607 1.9175 6.92617 1.79653C6.97628 1.67557 7.00207 1.54592 7.00207 1.41499C7.00207 1.28406 6.97628 1.15441 6.92617 1.03345C6.87607 0.912482 6.80263 0.802571 6.71005 0.70999C6.61747 0.617408 6.50755 0.543968 6.38659 0.493863C6.26563 0.443758 6.13598 0.417969 6.00505 0.417969C5.87412 0.417969 5.74447 0.443758 5.6235 0.493863C5.50254 0.543968 5.39263 0.617408 5.30005 0.70999L0.710047 5.29999C0.617343 5.3925 0.543796 5.50239 0.493614 5.62337C0.443433 5.74434 0.417603 5.87402 0.417603 6.00499C0.417603 6.13596 0.443433 6.26564 0.493614 6.38661C0.543796 6.50759 0.617343 6.61748 0.710047 6.70999L5.30005 11.3C5.69005 11.69 6.32005 11.69 6.71005 11.3C7.09005 10.91 7.10005 10.27 6.71005 9.87999Z" fill="black"/>
</g>
<defs>
<clipPath id="clip0_62_110">
<rect width="8" height="12" fill="white"/>
</clipPath>
</defs>
</svg>
