<svg width="18" height="18" viewBox="0 0 18 18" fill="none" xmlns="http://www.w3.org/2000/svg">
<path fill-rule="evenodd" clip-rule="evenodd" d="M4 0.25C4.41421 0.25 4.75 0.585786 4.75 1V2.66763C7.57773 2.4158 10.4223 2.4158 13.25 2.66763V1C13.25 0.585786 13.5858 0.25 14 0.25C14.4142 0.25 14.75 0.585786 14.75 1V2.81644C16.243 3.02754 17.4226 4.20847 17.6222 5.71484L17.7088 6.36779C18.0728 9.11412 18.0414 11.8984 17.6154 14.6359C17.4044 15.9919 16.3028 17.0335 14.937 17.1681L13.744 17.2858C10.589 17.5969 7.41097 17.5969 4.25593 17.2858L3.06292 17.1681C1.69718 17.0335 0.595521 15.9919 0.384511 14.6359C-0.0414466 11.8984 -0.0728873 9.11412 0.291148 6.36779L0.3777 5.71484C0.577376 4.20845 1.75693 3.02751 3.25 2.81643V1C3.25 0.585786 3.58579 0.25 4 0.25ZM4.44516 4.2028C7.47435 3.90408 10.5256 3.90408 13.5548 4.2028L14.4602 4.2921C15.327 4.37757 16.0208 5.04854 16.1352 5.91194L16.2218 6.56489C16.252 6.793 16.2794 7.02139 16.3039 7.25H1.69606C1.72055 7.02139 1.7479 6.79301 1.77814 6.5649L1.86469 5.91194C1.97914 5.04854 2.67296 4.37757 3.53971 4.2921L4.44516 4.2028ZM1.57683 8.75C1.47865 10.6381 1.57538 12.5332 1.86667 14.4052C1.97251 15.0854 2.52509 15.6078 3.21013 15.6754L4.40314 15.793C7.46028 16.0945 10.5397 16.0945 13.5968 15.793L14.7898 15.6754C15.4748 15.6078 16.0274 15.0854 16.1333 14.4052C16.4246 12.5332 16.5213 10.6381 16.4231 8.75H1.57683Z" fill="black"/>
</svg>
