<?xml version="1.0" encoding="UTF-8"?>
<svg xmlns="http://www.w3.org/2000/svg" xmlns:xlink="http://www.w3.org/1999/xlink" width="15px" height="15px" viewBox="0 0 15 15" version="1.1">
<g id="surface1">
<path style=" stroke:none;fill-rule:nonzero;fill:rgb(0%,0%,0%);fill-opacity:1;" d="M 0.792969 0.03125 C 0.488281 0.0898438 0.222656 0.300781 0.09375 0.578125 C 0.0273438 0.714844 0.0117188 0.789062 0.0117188 0.984375 C 0.0117188 1.433594 -0.183594 1.210938 3.164062 4.558594 L 6.121094 7.511719 L 3.136719 10.5 C 0.714844 12.933594 0.144531 13.519531 0.0898438 13.640625 C -0.0117188 13.84375 -0.0117188 14.222656 0.0820312 14.425781 C 0.167969 14.613281 0.355469 14.808594 0.539062 14.90625 C 0.753906 15.011719 1.089844 15.027344 1.335938 14.941406 C 1.503906 14.875 1.609375 14.777344 4.503906 11.882812 L 7.5 8.894531 L 10.480469 11.867188 C 12.878906 14.257812 13.488281 14.859375 13.605469 14.914062 C 13.730469 14.972656 13.800781 14.988281 14.035156 14.988281 C 14.277344 14.988281 14.328125 14.972656 14.460938 14.90625 C 14.636719 14.8125 14.835938 14.601562 14.921875 14.421875 C 15.011719 14.222656 15.011719 13.839844 14.910156 13.640625 C 14.855469 13.519531 14.285156 12.933594 11.863281 10.5 L 8.878906 7.511719 L 11.835938 4.558594 C 15.183594 1.210938 14.988281 1.433594 14.988281 0.984375 C 14.988281 0.792969 14.972656 0.714844 14.910156 0.585938 C 14.671875 0.0820312 14.074219 -0.125 13.582031 0.125 C 13.503906 0.164062 12.433594 1.207031 10.480469 3.15625 L 7.5 6.140625 L 4.519531 3.15625 C 2.566406 1.207031 1.496094 0.164062 1.417969 0.125 C 1.320312 0.0703125 0.996094 -0.0117188 0.941406 0.00390625 C 0.929688 0.0078125 0.867188 0.015625 0.792969 0.03125 Z M 0.792969 0.03125 "/>
</g>
</svg>
