<?xml version="1.0" encoding="UTF-8"?>
<svg xmlns="http://www.w3.org/2000/svg" xmlns:xlink="http://www.w3.org/1999/xlink" width="16px" height="16px" viewBox="0 0 16 16" version="1.1">
<g id="surface1">
<path style=" stroke:none;fill-rule:nonzero;fill:rgb(0%,0%,0%);fill-opacity:0.3;" d="M 2.710938 0.046875 C 1.554688 0.242188 0.523438 1.128906 0.164062 2.25 C -0.00390625 2.757812 0 2.617188 0 8 C 0 13.382812 -0.00390625 13.242188 0.164062 13.75 C 0.53125 14.882812 1.554688 15.761719 2.734375 15.953125 C 3.15625 16.023438 12.84375 16.023438 13.265625 15.953125 C 14.632812 15.730469 15.730469 14.632812 15.953125 13.265625 C 16.023438 12.835938 16.023438 3.140625 15.953125 2.730469 C 15.714844 1.351562 14.632812 0.269531 13.265625 0.046875 C 12.875 -0.0195312 3.09375 -0.015625 2.710938 0.046875 Z M 13.199219 1.519531 C 13.304688 1.546875 13.476562 1.613281 13.578125 1.664062 C 13.820312 1.792969 14.207031 2.179688 14.335938 2.421875 C 14.542969 2.820312 14.53125 2.46875 14.53125 8 C 14.53125 13.53125 14.542969 13.179688 14.335938 13.578125 C 14.207031 13.820312 13.820312 14.207031 13.578125 14.335938 C 13.179688 14.542969 13.53125 14.53125 8 14.53125 C 2.46875 14.53125 2.820312 14.542969 2.421875 14.335938 C 2.179688 14.207031 1.792969 13.820312 1.664062 13.578125 C 1.457031 13.179688 1.46875 13.53125 1.46875 8 C 1.46875 2.46875 1.457031 2.820312 1.664062 2.421875 C 1.789062 2.1875 2.175781 1.796875 2.40625 1.671875 C 2.804688 1.460938 2.414062 1.476562 7.980469 1.472656 C 12.46875 1.46875 13.027344 1.476562 13.199219 1.519531 Z M 13.199219 1.519531 "/>
</g>
</svg>
