<?xml version="1.0" encoding="UTF-8"?>
<svg xmlns="http://www.w3.org/2000/svg" xmlns:xlink="http://www.w3.org/1999/xlink" width="16px" height="16px" viewBox="0 0 16 16" version="1.1">
<g id="surface1">
<path style=" stroke:none;fill-rule:nonzero;fill:rgb(0%,0%,0%);fill-opacity:0.3;" d="M 2.050781 0.0507812 C 1.035156 0.25 0.242188 1.054688 0.046875 2.070312 C -0.0234375 2.445312 -0.0234375 13.554688 0.046875 13.929688 C 0.242188 14.960938 1.039062 15.757812 2.070312 15.953125 C 2.445312 16.023438 13.554688 16.023438 13.929688 15.953125 C 14.960938 15.757812 15.757812 14.960938 15.953125 13.929688 C 16.023438 13.554688 16.023438 2.445312 15.953125 2.070312 C 15.789062 1.210938 15.195312 0.492188 14.375 0.171875 C 13.917969 -0.0078125 14.179688 0 7.972656 0.00390625 C 3.265625 0.0078125 2.226562 0.0117188 2.050781 0.0507812 Z M 13.839844 1.785156 C 14.042969 1.886719 14.148438 1.992188 14.246094 2.21875 C 14.308594 2.359375 14.3125 2.398438 14.3125 8 C 14.3125 13.601562 14.308594 13.640625 14.246094 13.78125 C 14.148438 14.007812 14.042969 14.113281 13.839844 14.214844 L 13.648438 14.3125 L 8.003906 14.3125 C 2.398438 14.3125 2.359375 14.308594 2.21875 14.246094 C 1.992188 14.148438 1.886719 14.042969 1.785156 13.839844 L 1.6875 13.648438 L 1.6875 8.003906 C 1.6875 2.398438 1.691406 2.359375 1.753906 2.21875 C 1.851562 1.992188 1.957031 1.886719 2.160156 1.785156 L 2.351562 1.6875 L 13.648438 1.6875 Z M 13.839844 1.785156 "/>
<path style=" stroke:none;fill-rule:nonzero;fill:rgb(0%,0%,0%);fill-opacity:0.3;" d="M 10.71875 4.816406 C 10.5625 4.878906 10.382812 5.050781 8.585938 6.835938 L 6.628906 8.792969 L 6.070312 8.242188 C 5.757812 7.941406 5.453125 7.664062 5.386719 7.632812 C 5.1875 7.53125 4.910156 7.488281 4.71875 7.527344 C 4.214844 7.636719 3.894531 8.027344 3.894531 8.53125 C 3.894531 8.957031 3.921875 8.996094 5.039062 10.109375 C 6.132812 11.195312 6.171875 11.226562 6.5625 11.242188 C 6.746094 11.253906 6.835938 11.242188 6.984375 11.1875 C 7.164062 11.121094 7.261719 11.027344 9.539062 8.753906 C 12.21875 6.082031 12.109375 6.210938 12.109375 5.75 C 12.105469 5.566406 12.089844 5.476562 12.027344 5.34375 C 11.929688 5.136719 11.738281 4.933594 11.539062 4.835938 C 11.328125 4.734375 10.957031 4.726562 10.71875 4.816406 Z M 10.71875 4.816406 "/>
</g>
</svg>
