<svg width="20" height="22" viewBox="0 0 20 22" fill="none" xmlns="http://www.w3.org/2000/svg">
<g clip-path="url(#clip0_45_149)">
<path d="M17.5375 11.45C17.1956 11.261 16.8341 11.1101 16.4593 11C16.8341 10.8899 17.1956 10.739 17.5375 10.55C18.3132 10.1024 18.8794 9.36506 19.1115 8.50004C19.3436 7.63503 19.2225 6.71326 18.775 5.9375C18.3274 5.16174 17.59 4.59555 16.725 4.36347C15.86 4.13139 14.9382 4.25245 14.1625 4.7C13.8291 4.90089 13.518 5.13659 13.2343 5.40313C13.3218 5.0248 13.369 4.63826 13.375 4.25C13.375 3.35489 13.0194 2.49645 12.3864 1.86351C11.7535 1.23058 10.8951 0.875 9.99995 0.875C9.10485 0.875 8.2464 1.23058 7.61347 1.86351C6.98053 2.49645 6.62495 3.35489 6.62495 4.25C6.63094 4.63826 6.67808 5.0248 6.76558 5.40313C6.48194 5.13659 6.17082 4.90089 5.83745 4.7C5.0617 4.25245 4.13992 4.13139 3.27491 4.36347C2.4099 4.59555 1.67251 5.16174 1.22495 5.9375C0.777402 6.71326 0.656348 7.63503 0.888424 8.50004C1.1205 9.36506 1.6867 10.1024 2.46245 10.55C2.80427 10.739 3.16581 10.8899 3.54058 11C3.16581 11.1101 2.80427 11.261 2.46245 11.45C1.6867 11.8976 1.1205 12.6349 0.888424 13.5C0.656348 14.365 0.777402 15.2867 1.22495 16.0625C1.67251 16.8383 2.4099 17.4045 3.27491 17.6365C4.13992 17.8686 5.0617 17.7476 5.83745 17.3C6.17082 17.0991 6.48194 16.8634 6.76558 16.5969C6.67808 16.9752 6.63094 17.3617 6.62495 17.75C6.62495 18.6451 6.98053 19.5035 7.61347 20.1365C8.2464 20.7694 9.10485 21.125 9.99995 21.125C10.8951 21.125 11.7535 20.7694 12.3864 20.1365C13.0194 19.5035 13.375 18.6451 13.375 17.75C13.369 17.3617 13.3218 16.9752 13.2343 16.5969C13.518 16.8634 13.8291 17.0991 14.1625 17.3C14.9382 17.7476 15.86 17.8686 16.725 17.6365C17.59 17.4045 18.3274 16.8383 18.775 16.0625C19.2225 15.2867 19.3436 14.365 19.1115 13.5C18.8794 12.6349 18.3132 11.8976 17.5375 11.45ZM9.99995 13.25C9.55495 13.25 9.11993 13.118 8.74992 12.8708C8.37991 12.6236 8.09152 12.2722 7.92122 11.861C7.75093 11.4499 7.70637 10.9975 7.79319 10.561C7.88 10.1246 8.0943 9.72368 8.40896 9.40901C8.72363 9.09434 9.12454 8.88005 9.561 8.79323C9.99746 8.70642 10.4499 8.75097 10.861 8.92127C11.2721 9.09157 11.6235 9.37996 11.8708 9.74997C12.118 10.12 12.25 10.555 12.25 11C12.2475 11.596 12.0096 12.1668 11.5882 12.5883C11.1668 13.0097 10.5959 13.2475 9.99995 13.25Z" fill="#DEDBC5"/>
</g>
<defs>
<clipPath id="clip0_45_149">
<rect width="20" height="22" fill="white"/>
</clipPath>
</defs>
</svg>
