<svg width="20" height="20" viewBox="0 0 20 20" fill="none" xmlns="http://www.w3.org/2000/svg">
<path d="M19.5674 9.68681C19.6448 9.55487 19.6903 9.40472 19.663 9.27277C19.6448 9.18633 19.5856 9.10443 19.5174 9.02708C19.5219 9.01343 19.5265 8.99978 19.531 8.98613C19.7449 8.80414 19.9177 8.47199 19.854 8.2172C19.8358 8.13985 19.7903 8.0625 19.7312 7.98971C19.7312 7.96696 19.7312 7.93966 19.7221 7.91691C19.6903 7.80771 19.6175 7.72126 19.5219 7.63937C19.5265 7.61207 19.5356 7.58932 19.5401 7.56202C19.6038 7.33907 19.5219 6.97053 19.3081 6.84769C19.2489 6.81129 19.167 6.79764 19.0851 6.79309C19.0624 6.69299 19.0351 6.59289 19.0032 6.4837C18.9623 6.3017 18.8303 6.09696 18.662 5.95591C18.5391 5.77846 18.2752 5.63742 18.075 5.63742C18.0568 5.63742 18.0386 5.63742 18.0204 5.64197C17.9977 5.56462 17.9749 5.48272 17.9522 5.40082C17.8839 5.10053 17.5518 4.73199 17.2288 4.72289C17.1287 4.72289 17.024 4.75019 16.9194 4.80024C16.8329 4.80024 16.751 4.82299 16.6782 4.85484C16.5417 4.75019 16.3324 4.67739 16.1413 4.68194C16.0867 4.65009 16.0321 4.62279 15.9775 4.61369C15.7819 4.58184 15.5226 4.69104 15.377 4.84119C15.2086 4.71379 14.9083 4.67739 14.7127 4.75019C14.5898 4.65919 14.4397 4.59094 14.2986 4.5682C14.2895 4.40895 14.2395 4.2315 14.1758 4.04041C14.1485 3.94031 14.0939 3.83566 14.0165 3.74012C14.0165 3.74012 14.0165 3.74012 14.0165 3.73557C14.0757 3.64002 14.103 3.52627 14.0802 3.40343C14.0393 3.18958 13.8664 3.03034 13.6571 2.85744C13.6344 2.81194 13.6071 2.76189 13.5752 2.72094C13.648 2.60265 13.6799 2.46615 13.6207 2.3251C13.5661 2.19316 13.4524 2.09761 13.3159 2.00661C13.2795 1.82007 13.1339 1.61532 12.9746 1.52887C12.9291 1.43788 12.8745 1.35598 12.8063 1.29683C12.6288 1.13758 12.4195 1.06479 12.2102 1.05114C12.2102 1.05114 12.2011 1.04204 12.1966 1.03749C12.0601 0.94649 11.9145 0.905541 11.7735 0.900991C11.7371 0.864592 11.7007 0.828193 11.6597 0.791794C11.5915 0.718996 11.4868 0.650747 11.3731 0.605249C11.3367 0.568849 11.3048 0.54155 11.2639 0.518801C11.1683 0.464202 11.0682 0.436903 10.9727 0.427803C10.818 0.204859 10.5723 0.00466412 10.3311 0.000114236C10.1309 -0.00443565 9.88526 0.127511 9.73056 0.291307C9.61681 0.291307 9.49397 0.314056 9.38022 0.359555C9.16638 0.309506 8.88883 0.345905 8.75234 0.500601C8.73414 0.523351 8.72049 0.5552 8.70229 0.582499C8.59764 0.632548 8.50664 0.714446 8.44749 0.800893C8.44294 0.800893 8.43839 0.800893 8.43384 0.800893C8.3201 0.832743 8.22455 0.887341 8.1472 0.960139C8.04255 0.91919 7.93791 0.905541 7.84236 0.92829C7.69676 0.964689 7.55117 1.09664 7.46017 1.24223C7.42832 1.24678 7.40102 1.25588 7.36917 1.26498C7.15988 1.34688 6.97333 1.63807 6.95968 1.85647C6.95968 1.92471 6.95968 1.99296 6.97333 2.05666C6.96423 2.07031 6.95513 2.07941 6.94603 2.09306C6.93238 2.12036 6.92328 2.14311 6.91418 2.17041C6.73674 2.18406 6.55929 2.24321 6.46375 2.3615C6.37275 2.47525 6.3409 2.66179 6.35455 2.83014C6.2499 2.97574 6.2044 3.14863 6.21805 3.33063C6.19985 3.36248 6.1771 3.39888 6.16345 3.43528C6.04061 3.53992 5.94051 3.67187 5.89956 3.79927C5.82676 4.02221 5.84041 4.23605 5.90411 4.4317C5.88136 4.49995 5.86316 4.56364 5.85861 4.63644C5.70391 4.65009 5.54922 4.70014 5.40817 4.78659C5.36267 4.73199 5.31262 4.68649 5.25803 4.65919C5.07148 4.56365 4.76664 4.60004 4.58009 4.71379C4.49365 4.70014 4.40265 4.70469 4.3253 4.71834C4.12966 4.61824 3.82936 4.61369 3.65192 4.70924C3.60642 4.73654 3.56092 4.76384 3.51997 4.79569C3.41077 4.78204 3.28793 4.80479 3.18328 4.85484C3.18328 4.85484 3.18328 4.85484 3.17873 4.85484C2.77379 4.79569 2.4371 5.01863 2.28695 5.36442C2.10496 5.48272 1.97301 5.66927 1.91386 5.89676C1.91386 5.91496 1.90931 5.93316 1.90476 5.95136C1.88201 5.95591 1.85472 5.96046 1.83197 5.96956C1.59537 6.06966 1.43613 6.25165 1.35878 6.4655C1.24958 6.53829 1.15403 6.63384 1.10853 6.73394C1.09488 6.76124 1.09034 6.78854 1.08124 6.82039C0.953839 6.89773 0.853741 7.00693 0.785493 7.12978C0.667196 7.13888 0.553449 7.17528 0.471551 7.24353C0.348704 7.34362 0.275906 7.53472 0.253157 7.71671C0.189459 7.75766 0.13486 7.80316 0.093911 7.86231C-0.0380356 8.05795 -0.0243859 8.42195 0.093911 8.62214C0.13031 8.68129 0.171259 8.73589 0.221308 8.78139C0.12121 8.93153 0.0620618 9.12718 0.0802614 9.27277C0.103011 9.46387 0.184909 9.62766 0.298656 9.75506C0.325955 9.96436 0.421503 10.1372 0.562549 10.2601C0.557999 10.2828 0.553449 10.3056 0.553449 10.3283C0.553449 10.3283 0.548899 10.3374 0.544349 10.342C0.444252 10.5695 0.51705 10.9471 0.676296 11.1291C0.785493 11.2565 0.91744 11.343 1.05849 11.3976C1.09943 11.4658 1.14493 11.5295 1.19953 11.5796C1.16768 11.8753 1.26778 12.212 1.57717 12.2893C1.67727 12.3121 1.77737 12.303 1.88201 12.2757C1.92296 12.3439 1.97756 12.4076 2.04126 12.4486C2.05491 12.485 2.06401 12.5214 2.07766 12.5532C2.15046 12.717 2.29605 12.8808 2.4644 12.99C2.55995 13.172 2.71464 13.3131 2.93759 13.3176C3.02858 13.3176 3.11503 13.2949 3.20148 13.2585C3.21968 13.2676 3.23788 13.2767 3.25608 13.2858C3.10138 13.3131 2.95579 13.3813 2.87389 13.4905C2.79199 13.5087 2.71919 13.5406 2.65549 13.5861C2.4462 13.7453 2.3188 14.1366 2.3734 14.3868C2.40525 14.5461 2.4735 14.678 2.55995 14.7963C2.55085 14.8919 2.55995 14.992 2.58725 15.0921C2.49625 15.224 2.44165 15.4015 2.4644 15.5562C2.4553 15.5926 2.45075 15.6244 2.4462 15.6608C2.30515 15.8428 2.22781 16.1203 2.25965 16.316C2.3188 16.639 2.5099 16.8802 2.76924 17.0167C2.78744 17.044 2.80564 17.0622 2.82384 17.0849C2.80109 17.1805 2.79199 17.2806 2.80109 17.3852C2.81929 17.6673 3.00584 18.0176 3.28338 18.1314C3.39713 18.3088 3.58367 18.4681 3.78386 18.5181C3.78386 18.5272 3.78386 18.5318 3.78386 18.5363C3.78386 18.7365 3.89306 18.9868 4.06596 19.1233C4.22065 19.3644 4.47545 19.5328 4.78029 19.5828C4.95773 19.6147 5.17158 19.5828 5.35812 19.5055C5.41727 19.5055 5.48097 19.5055 5.54467 19.4918C5.62657 19.4918 5.71756 19.4873 5.81766 19.4736C5.81766 19.4782 5.82221 19.4827 5.82676 19.4873C5.91321 19.6056 6.05881 19.7148 6.21805 19.7557C6.44555 19.9195 6.73674 19.9832 7.03703 19.9195C7.12348 19.9013 7.21448 19.8649 7.30547 19.8148C7.61032 20.0196 8.10625 20.0924 8.33375 19.7421C8.38834 19.6602 8.41109 19.5601 8.42474 19.46C8.44749 19.4509 8.47024 19.4463 8.49299 19.4372C8.61584 19.3826 8.73869 19.2916 8.83878 19.1733C8.94343 19.1824 9.05263 19.1642 9.15273 19.1005C9.34837 18.9868 9.45302 18.7638 9.55311 18.5045C9.56676 18.5045 9.58041 18.4999 9.59406 18.4954C9.73056 18.4499 9.87616 18.3452 9.9808 18.2178C9.99445 18.2178 10.0081 18.2087 10.0263 18.2042C10.1764 18.327 10.3903 18.4135 10.595 18.4271C10.6906 18.7092 10.959 19.0004 11.2775 18.9094C11.2866 18.9231 11.3003 18.9322 11.3139 18.9413C11.3367 19.1733 11.455 19.4008 11.7007 19.4418C11.7553 19.4509 11.8099 19.4509 11.8645 19.4418C11.9054 19.5009 11.9509 19.5601 12.0101 19.6147C12.1238 19.7193 12.2921 19.7966 12.465 19.8194C12.4741 19.8285 12.4832 19.8376 12.4923 19.8467C12.7016 20.0059 13.0838 20.0742 13.2977 19.8876C13.416 19.8876 13.5343 19.8649 13.6526 19.8194C13.8255 19.8421 14.0074 19.8194 14.1849 19.7557C14.2895 19.7148 14.3987 19.642 14.4943 19.551C14.6763 19.6693 14.8992 19.7148 15.0812 19.5737C15.1313 19.5328 15.1722 19.4827 15.2041 19.4281C15.4953 19.4873 15.9138 19.3781 15.9866 19.0505C16.1322 18.9868 16.2733 18.8685 16.3643 18.7229C16.3916 18.6956 16.4234 18.6683 16.4462 18.6319C16.5554 18.4635 16.5463 18.2451 16.519 17.9994C16.5463 17.9585 16.569 17.913 16.5963 17.8675C16.6509 17.8402 16.7055 17.8129 16.7647 17.7811C17.0149 17.6719 17.2879 17.317 17.2424 17.0349C17.2424 17.0121 17.2333 16.9894 17.2242 16.9621C17.479 16.8802 17.7748 16.5799 17.7702 16.3023C17.7702 16.2705 17.7656 16.2341 17.7565 16.2022C17.8248 16.0839 17.8521 15.952 17.8111 15.8064C17.7611 15.6472 17.6383 15.5243 17.4836 15.4106C17.5018 15.3287 17.5063 15.2422 17.4927 15.1649C17.6064 14.9556 17.6383 14.7099 17.4836 14.5097C17.4335 14.446 17.3653 14.3959 17.2925 14.355C17.3107 14.2048 17.2925 14.0547 17.2242 13.941C17.2242 13.9364 17.2151 13.9273 17.2106 13.9228C17.2424 13.7362 17.2106 13.5451 17.0468 13.4086C16.9603 13.3358 16.8511 13.2994 16.7328 13.2767C16.6964 13.2221 16.66 13.172 16.6236 13.1129C16.6236 13.1038 16.6145 13.0992 16.61 13.0901C16.6873 13.0401 16.7601 12.9764 16.8147 12.9081C16.8875 12.8444 16.9558 12.7762 17.0331 12.6943C17.0468 12.6806 17.0604 12.667 17.0695 12.6533C17.115 12.6533 17.1605 12.6442 17.206 12.6351C17.3971 12.5896 17.611 12.4486 17.7156 12.2575C17.7884 12.2575 17.8657 12.2529 17.9431 12.212C18.1251 12.121 18.2252 11.9254 18.3298 11.6933C18.5164 11.6615 18.7302 11.5386 18.844 11.3657C19.026 11.302 19.2171 11.1519 19.299 10.9653C19.4673 10.8789 19.6038 10.7333 19.6084 10.5467C19.6175 10.5331 19.6311 10.5194 19.6357 10.5058C19.7403 10.2737 19.6675 10.0008 19.5811 9.68681C19.5811 9.68226 19.5811 9.67771 19.5765 9.66861L19.5674 9.68681Z" fill="#D88775"/>
</svg>
