<svg width="18" height="20" viewBox="0 0 18 20" fill="none" xmlns="http://www.w3.org/2000/svg">
<path fill-rule="evenodd" clip-rule="evenodd" d="M10.6351 3.03423C9.72743 2.19887 8.29439 2.19887 7.38676 3.03423L2.56332 7.47357C2.44514 7.58234 2.36565 7.72402 2.33611 7.87854C1.75838 10.9004 1.71573 13.994 2.20996 17.0295L2.32727 17.75H5.43047V11.5387C5.43047 11.1244 5.78055 10.7887 6.21241 10.7887H11.8094C12.2413 10.7887 12.5914 11.1244 12.5914 11.5387V17.75H15.6946L15.8119 17.0295C16.3061 13.994 16.2634 10.9004 15.6857 7.87854C15.6562 7.72402 15.5767 7.58234 15.4585 7.47357L10.6351 3.03423ZM6.30399 1.95191C7.81671 0.559649 10.2051 0.559649 11.7178 1.95191L16.5413 6.39125C16.8963 6.71804 17.1352 7.14373 17.2239 7.60799C17.8334 10.7956 17.8783 14.059 17.357 17.2609L17.1685 18.4184C17.0906 18.8971 16.6608 19.25 16.1557 19.25H11.8094C11.3776 19.25 11.0275 18.9142 11.0275 18.5V12.2887H6.99434V18.5C6.99434 18.9142 6.64426 19.25 6.21241 19.25H1.86617C1.36106 19.25 0.931217 18.8971 0.853278 18.4184L0.664819 17.2609C0.143478 14.059 0.188463 10.7956 0.797883 7.60799C0.886641 7.14373 1.12548 6.71804 1.48055 6.39125L6.30399 1.95191Z" fill="#DCD9D3"/>
</svg>
