<svg width="19" height="18" viewBox="0 0 19 18" fill="none" xmlns="http://www.w3.org/2000/svg">
<path fill-rule="evenodd" clip-rule="evenodd" d="M4.25006 0.25C4.66427 0.25 5.00006 0.585786 5.00006 1V2.66763C7.8278 2.4158 10.6723 2.4158 13.5001 2.66763V1C13.5001 0.585786 13.8358 0.25 14.2501 0.25C14.6643 0.25 15.0001 0.585786 15.0001 1V2.81644C16.4931 3.02754 17.6726 4.20847 17.8723 5.71484L17.9589 6.36779C18.3229 9.11412 18.2914 11.8984 17.8655 14.6359C17.6545 15.9919 16.5528 17.0335 15.1871 17.1681L13.9941 17.2858C10.839 17.5969 7.66103 17.5969 4.50599 17.2858L3.31298 17.1681C1.94724 17.0335 0.845582 15.9919 0.634573 14.6359C0.208614 11.8984 0.177174 9.11412 0.541209 6.36779L0.627761 5.71484C0.827438 4.20845 2.00699 3.02751 3.50006 2.81643V1C3.50006 0.585786 3.83585 0.25 4.25006 0.25ZM4.69523 4.2028C7.72441 3.90408 10.7756 3.90408 13.8048 4.2028L14.7103 4.2921C15.577 4.37757 16.2709 5.04854 16.3853 5.91194L16.4719 6.56489C16.5021 6.793 16.5295 7.02139 16.5539 7.25H1.94612C1.97061 7.02139 1.99797 6.79301 2.0282 6.5649L2.11475 5.91194C2.2292 5.04854 2.92303 4.37757 3.78977 4.2921L4.69523 4.2028ZM1.82689 8.75C1.72871 10.6381 1.82544 12.5332 2.11674 14.4052C2.22258 15.0854 2.77515 15.6078 3.46019 15.6754L4.6532 15.793C7.71034 16.0945 10.7897 16.0945 13.8469 15.793L15.0399 15.6754C15.7249 15.6078 16.2775 15.0854 16.3833 14.4052C16.6746 12.5332 16.7714 10.6381 16.6732 8.75H1.82689Z" fill="#DCD9D3"/>
</svg>
