<svg width="19" height="19" viewBox="0 0 19 19" fill="none" xmlns="http://www.w3.org/2000/svg">
<path fill-rule="evenodd" clip-rule="evenodd" d="M11.1351 2.53423C10.2274 1.69887 8.79439 1.69887 7.88676 2.53423L3.06332 6.97357C2.94514 7.08234 2.86565 7.22402 2.83611 7.37854C2.25838 10.4004 2.21573 13.494 2.70996 16.5295L2.82727 17.25H5.93047V11.0387C5.93047 10.6244 6.28055 10.2887 6.71241 10.2887H12.3094C12.7413 10.2887 13.0914 10.6244 13.0914 11.0387V17.25H16.1946L16.3119 16.5295C16.8061 13.494 16.7634 10.4004 16.1857 7.37854C16.1562 7.22402 16.0767 7.08234 15.9585 6.97357L11.1351 2.53423ZM6.80399 1.45191C8.31671 0.0596485 10.7051 0.0596485 12.2178 1.45191L17.0413 5.89125C17.3963 6.21804 17.6352 6.64373 17.7239 7.10799C18.3334 10.2956 18.3783 13.559 17.857 16.7609L17.6685 17.9184C17.5906 18.3971 17.1608 18.75 16.6557 18.75H12.3094C11.8776 18.75 11.5275 18.4142 11.5275 18V11.7887H7.49434V18C7.49434 18.4142 7.14426 18.75 6.71241 18.75H2.36617C1.86106 18.75 1.43122 18.3971 1.35328 17.9184L1.16482 16.7609C0.643478 13.559 0.688463 10.2956 1.29788 7.10799C1.38664 6.64373 1.62548 6.21804 1.98055 5.89125L6.80399 1.45191Z" fill="black"/>
</svg>
