<svg width="16" height="20" viewBox="0 0 16 20" fill="none" xmlns="http://www.w3.org/2000/svg">
<path d="M6 7.00008C6 5.89551 6.89543 5.00008 8 5.00008C9.10457 5.00008 10 5.89551 10 7.00008C10 8.10465 9.10457 9.00008 8 9.00008C6.89543 9.00008 6 8.10465 6 7.00008Z" fill="black"/>
<path d="M7 10.5001C5.34315 10.5001 4 11.8432 4 13.5001C4 14.0524 4.44772 14.5001 5 14.5001H11C11.5523 14.5001 12 14.0524 12 13.5001C12 11.8432 10.6569 10.5001 9 10.5001H7Z" fill="black"/>
<path fill-rule="evenodd" clip-rule="evenodd" d="M3.54353 0.882765C6.49933 0.458024 9.50068 0.458024 12.4565 0.882765C13.922 1.09335 15.0511 2.28274 15.1852 3.7572L15.3122 5.15293C15.6055 8.37771 15.6055 11.6225 15.3122 14.8472L15.1852 16.243C15.0511 17.7174 13.922 18.9068 12.4565 19.1174C9.50068 19.5421 6.49933 19.5421 3.54353 19.1174C2.07804 18.9068 0.948944 17.7174 0.814816 16.243L0.687849 14.8472C0.394497 11.6225 0.394496 8.37771 0.687848 5.15293L0.814816 3.7572C0.948944 2.28274 2.07804 1.09335 3.54353 0.882765ZM12.2431 2.36751C9.42884 1.96311 6.57118 1.96311 3.75688 2.36751C2.97909 2.47928 2.37983 3.11054 2.30865 3.89309L2.18168 5.28882C1.89655 8.42319 1.89655 11.577 2.18168 14.7113L2.30865 16.1071C2.37984 16.8896 2.97909 17.5209 3.75688 17.6327C6.57118 18.0371 9.42884 18.0371 12.2431 17.6327C13.0209 17.5209 13.6202 16.8896 13.6914 16.1071L13.8183 14.7113C14.1035 11.577 14.1035 8.42319 13.8183 5.28882L13.6914 3.89309C13.6202 3.11054 13.0209 2.47928 12.2431 2.36751Z" fill="black"/>
</svg>
