<svg width="20" height="16" viewBox="0 0 20 16" fill="none" xmlns="http://www.w3.org/2000/svg">
<path fill-rule="evenodd" clip-rule="evenodd" d="M0.553664 4.35342C0.27352 6.95631 0.286008 9.9583 0.675831 12.5506C0.891529 13.985 2.0622 15.0847 3.50727 15.2103L5.0175 15.3416C8.16655 15.6153 11.3334 15.6153 14.4825 15.3416L15.9927 15.2103C17.4378 15.0847 18.6084 13.985 18.8241 12.5506C19.2139 9.95829 19.2265 6.95648 18.9463 4.35357C18.9101 4.05181 18.8694 3.75046 18.8241 3.44961C18.6084 2.01522 17.4378 0.915573 15.9927 0.789956L14.4825 0.658674C11.3334 0.384934 8.16655 0.384934 5.0175 0.658675L3.50727 0.789956C2.0622 0.915573 0.891529 2.01522 0.675831 3.44961C0.630599 3.75041 0.589876 4.05171 0.553664 4.35342ZM5.1474 2.15304C8.21001 1.88681 11.2899 1.88681 14.3525 2.15304L15.8628 2.28432C16.6171 2.34989 17.2282 2.92391 17.3408 3.67267C17.3525 3.75042 17.3639 3.82822 17.3749 3.90604L11.8139 6.99549C10.5303 7.7086 8.96955 7.7086 7.68596 6.99549L2.12502 3.90608C2.13608 3.82824 2.14746 3.75043 2.15915 3.67267C2.27175 2.92391 2.88284 2.34989 3.63717 2.28432L5.1474 2.15304ZM17.5585 5.52001C17.7525 7.78776 17.6799 10.0726 17.3408 12.3276C17.2282 13.0763 16.6171 13.6503 15.8628 13.7159L14.3526 13.8472C11.2899 14.1134 8.21001 14.1134 5.1474 13.8472L3.63717 13.7159C2.88284 13.6503 2.27175 13.0763 2.15915 12.3276C1.82006 10.0726 1.7475 7.78779 1.94147 5.52005L6.95749 8.30672C8.69412 9.27152 10.8058 9.27152 12.5424 8.30673L17.5585 5.52001Z" fill="#DCD9D3"/>
</svg>
