<svg width="20" height="16" viewBox="0 0 20 16" fill="none" xmlns="http://www.w3.org/2000/svg">
<path fill-rule="evenodd" clip-rule="evenodd" d="M0.803725 4.35342C0.523581 6.95631 0.536069 9.9583 0.925892 12.5506C1.14159 13.985 2.31226 15.0847 3.75733 15.2103L5.26756 15.3416C8.41661 15.6153 11.5835 15.6153 14.7325 15.3416L16.2427 15.2103C17.6878 15.0847 18.8585 13.985 19.0742 12.5506C19.464 9.95829 19.4765 6.95648 19.1964 4.35357C19.1602 4.05181 19.1194 3.75046 19.0742 3.44961C18.8585 2.01522 17.6878 0.915573 16.2427 0.789956L14.7325 0.658674C11.5835 0.384934 8.41661 0.384934 5.26756 0.658675L3.75733 0.789956C2.31226 0.915573 1.14159 2.01522 0.925892 3.44961C0.88066 3.75041 0.839937 4.05171 0.803725 4.35342ZM5.39746 2.15304C8.46007 1.88681 11.54 1.88681 14.6026 2.15304L16.1128 2.28432C16.8672 2.34989 17.4783 2.92391 17.5909 3.67267C17.6026 3.75042 17.6139 3.82822 17.625 3.90604L12.064 6.99549C10.7804 7.7086 9.21962 7.7086 7.93602 6.99549L2.37508 3.90608C2.38614 3.82824 2.39752 3.75043 2.40921 3.67267C2.52181 2.92391 3.1329 2.34989 3.88723 2.28432L5.39746 2.15304ZM17.8085 5.52001C18.0025 7.78776 17.93 10.0726 17.5909 12.3276C17.4783 13.0763 16.8672 13.6503 16.1128 13.7159L14.6026 13.8472C11.54 14.1134 8.46007 14.1134 5.39746 13.8472L3.88723 13.7159C3.1329 13.6503 2.52181 13.0763 2.40921 12.3276C2.07013 10.0726 1.99756 7.78779 2.19153 5.52005L7.20755 8.30672C8.94419 9.27152 11.0558 9.27152 12.7925 8.30673L17.8085 5.52001Z" fill="black"/>
</svg>
