<svg width="16" height="20" viewBox="0 0 16 20" fill="none" xmlns="http://www.w3.org/2000/svg">
<path d="M5.99994 7.00008C5.99994 5.89551 6.89537 5.00008 7.99994 5.00008C9.10451 5.00008 9.99994 5.89551 9.99994 7.00008C9.99994 8.10465 9.10451 9.00008 7.99994 9.00008C6.89537 9.00008 5.99994 8.10465 5.99994 7.00008Z" fill="#DCD9D3"/>
<path d="M6.99994 10.5001C5.34308 10.5001 3.99994 11.8432 3.99994 13.5001C3.99994 14.0524 4.44765 14.5001 4.99994 14.5001H10.9999C11.5522 14.5001 11.9999 14.0524 11.9999 13.5001C11.9999 11.8432 10.6568 10.5001 8.99994 10.5001H6.99994Z" fill="#DCD9D3"/>
<path fill-rule="evenodd" clip-rule="evenodd" d="M3.54347 0.882765C6.49927 0.458024 9.50062 0.458024 12.4564 0.882765C13.9219 1.09335 15.051 2.28274 15.1851 3.7572L15.3121 5.15293C15.6055 8.37771 15.6055 11.6225 15.3121 14.8472L15.1851 16.243C15.051 17.7174 13.9219 18.9068 12.4564 19.1174C9.50062 19.5421 6.49927 19.5421 3.54347 19.1174C2.07798 18.9068 0.948883 17.7174 0.814755 16.243L0.687788 14.8472C0.394436 11.6225 0.394435 8.37771 0.687787 5.15293L0.814755 3.7572C0.948883 2.28274 2.07798 1.09335 3.54347 0.882765ZM12.2431 2.36751C9.42878 1.96311 6.57112 1.96311 3.75682 2.36751C2.97903 2.47928 2.37977 3.11054 2.30859 3.89309L2.18162 5.28882C1.89649 8.42319 1.89649 11.577 2.18162 14.7113L2.30859 16.1071C2.37977 16.8896 2.97903 17.5209 3.75682 17.6327C6.57112 18.0371 9.42878 18.0371 12.2431 17.6327C13.0209 17.5209 13.6201 16.8896 13.6913 16.1071L13.8183 14.7113C14.1034 11.577 14.1034 8.42319 13.8183 5.28882L13.6913 3.89309C13.6201 3.11054 13.0209 2.47928 12.2431 2.36751Z" fill="#DCD9D3"/>
</svg>
