<svg width="16" height="21" viewBox="0 0 16 21" fill="none" xmlns="http://www.w3.org/2000/svg">
<path fill-rule="evenodd" clip-rule="evenodd" d="M11.6501 2.7629L12.4635 2.8642C14.3408 3.09801 15.75 4.69359 15.75 6.58545V17.0749C15.75 18.9118 14.3817 20.461 12.5589 20.688C9.53134 21.0651 6.46866 21.0651 3.44107 20.688C1.61826 20.461 0.25 18.9118 0.25 17.0749V6.58545C0.25 4.69359 1.6592 3.09801 3.53655 2.8642L4.3499 2.7629C4.67208 1.60206 5.73654 0.75 7 0.75H9C10.2635 0.75 11.3279 1.60206 11.6501 2.7629ZM4.25 4.28693L3.72193 4.3527C2.59552 4.49299 1.75 5.45034 1.75 6.58545V17.0749C1.75 18.155 2.55458 19.066 3.62645 19.1995C6.53093 19.5612 9.46907 19.5612 12.3735 19.1995C13.4454 19.066 14.25 18.155 14.25 17.0749V6.58545C14.25 5.45034 13.4045 4.49299 12.2781 4.3527L11.75 4.28693V5.5C11.75 5.91421 11.4142 6.25 11 6.25H5C4.58579 6.25 4.25 5.91421 4.25 5.5V4.28693ZM5.75 3.5C5.75 2.80964 6.30964 2.25 7 2.25H9C9.69036 2.25 10.25 2.80964 10.25 3.5V4.75H5.75V3.5Z" fill="#DCD9D3"/>
<path d="M11.75 10.25C11.75 9.83579 11.4142 9.5 11 9.5H5C4.58579 9.5 4.25 9.83579 4.25 10.25C4.25 10.6642 4.58579 11 5 11H11C11.4142 11 11.75 10.6642 11.75 10.25Z" fill="#DCD9D3"/>
<path d="M10.75 13.25C10.75 12.8358 10.4142 12.5 10 12.5H5C4.58579 12.5 4.25 12.8358 4.25 13.25C4.25 13.6642 4.58579 14 5 14H10C10.4142 14 10.75 13.6642 10.75 13.25Z" fill="#DCD9D3"/>
</svg>
