<?xml version="1.0" encoding="UTF-8"?>
<svg xmlns="http://www.w3.org/2000/svg" xmlns:xlink="http://www.w3.org/1999/xlink" width="24px" height="24px" viewBox="0 0 24 24" version="1.1">
<g id="surface1">
<path style=" stroke:none;fill-rule:nonzero;fill:rgb(0%,0%,0%);fill-opacity:1;" d="M 9.84375 1.453125 C 7.707031 1.597656 5.675781 2.390625 3.964844 3.738281 C 3.46875 4.128906 2.550781 5.074219 2.167969 5.589844 C 0.828125 7.375 0.109375 9.390625 0.0195312 11.605469 C -0.0507812 13.332031 0.3125 15.066406 1.078125 16.636719 C 4 22.613281 11.625 24.4375 16.953125 20.433594 C 17.589844 19.953125 18.167969 19.390625 18.238281 19.1875 C 18.355469 18.824219 18.183594 18.378906 17.859375 18.207031 C 17.703125 18.128906 17.363281 18.113281 17.183594 18.1875 C 17.121094 18.207031 16.910156 18.371094 16.722656 18.542969 C 14.472656 20.613281 11.441406 21.410156 8.457031 20.71875 C 4.964844 19.902344 2.277344 16.980469 1.707031 13.359375 C 1.609375 12.746094 1.597656 11.390625 1.683594 10.800781 C 2.175781 7.410156 4.40625 4.667969 7.59375 3.542969 C 9.207031 2.964844 11.097656 2.878906 12.796875 3.300781 C 15.949219 4.105469 18.46875 6.628906 19.265625 9.785156 C 19.339844 10.089844 19.394531 10.339844 19.386719 10.347656 C 19.375 10.359375 18.734375 9.9375 17.96875 9.40625 C 17.199219 8.886719 16.519531 8.425781 16.46875 8.402344 C 16.292969 8.300781 15.875 8.328125 15.699219 8.453125 C 15.359375 8.683594 15.238281 9.113281 15.421875 9.46875 C 15.542969 9.691406 15.410156 9.597656 17.925781 11.316406 C 19.234375 12.207031 20.082031 12.761719 20.183594 12.777344 C 20.402344 12.824219 20.621094 12.769531 20.800781 12.640625 C 20.953125 12.542969 23.800781 8.421875 23.933594 8.125 C 24.089844 7.761719 23.925781 7.328125 23.578125 7.140625 C 23.328125 7.011719 23.105469 7.003906 22.847656 7.128906 C 22.667969 7.214844 22.546875 7.371094 21.785156 8.484375 C 21.3125 9.171875 20.925781 9.734375 20.917969 9.730469 C 20.90625 9.722656 20.839844 9.480469 20.761719 9.183594 C 20.3125 7.46875 19.375 5.863281 18.019531 4.519531 C 16.925781 3.425781 15.800781 2.691406 14.355469 2.125 C 13.015625 1.605469 11.339844 1.355469 9.84375 1.453125 Z M 9.84375 1.453125 "/>
</g>
</svg>
