<svg width="8" height="12" viewBox="0 0 8 12" fill="none" xmlns="http://www.w3.org/2000/svg">
<path d="M1.28995 9.87999L5.16995 5.99999L1.28995 2.11999C1.19736 2.02741 1.12392 1.9175 1.07382 1.79653C1.02371 1.67557 0.997925 1.54592 0.997925 1.41499C0.997925 1.28406 1.02371 1.15441 1.07382 1.03345C1.12392 0.912482 1.19736 0.802571 1.28995 0.70999C1.38253 0.617408 1.49244 0.543968 1.6134 0.493863C1.73437 0.443758 1.86401 0.417969 1.99495 0.417969C2.12588 0.417969 2.25552 0.443758 2.37649 0.493863C2.49745 0.543968 2.60736 0.617408 2.69995 0.70999L7.28995 5.29999C7.67995 5.68999 7.67995 6.31999 7.28995 6.70999L2.69995 11.3C2.60743 11.3927 2.49754 11.4662 2.37657 11.5164C2.2556 11.5666 2.12591 11.5924 1.99495 11.5924C1.86398 11.5924 1.73429 11.5666 1.61332 11.5164C1.49235 11.4662 1.38246 11.3927 1.28995 11.3C0.909946 10.91 0.899946 10.27 1.28995 9.87999Z" fill="#B0AEA9"/>
</svg>
