<svg width="21" height="20" viewBox="0 0 21 20" fill="none" xmlns="http://www.w3.org/2000/svg">
<g clip-path="url(#clip0_122_931)">
<path d="M4.86604 3.38263L4.34162 4.23408L4.86604 3.38263ZM1.81693 8.53131L1.29251 9.38277L1.81693 8.53131ZM1.30908 6.08657L0.488921 5.51443L1.30908 6.08657ZM1.41534 13.7564L0.595183 14.3285L1.41534 13.7564ZM4.8732 16.6L4.34878 15.7485L4.8732 16.6ZM14.8273 16.5445L14.3028 17.3959L14.8273 16.5445ZM17.1765 16.3042L17.9967 16.8763L17.1765 16.3042ZM15.128 16.7297L15.6524 15.8783L15.128 16.7297ZM18.1311 11.5527L17.6067 12.4041L18.1311 11.5527ZM18.6726 14.1596L17.8525 13.5874L18.6726 14.1596ZM15.0694 3.29342L14.5449 2.44196L15.0694 3.29342ZM17.0662 3.70822L17.8863 3.13608L17.0662 3.70822ZM11.4839 0H8.11469V2H11.4839V0ZM15.3446 4.29836L15.5938 4.14488L14.5449 2.44196L14.2958 2.59544L15.3446 4.29836ZM16.246 4.28036L17.7866 6.48884L19.427 5.34455L17.8863 3.13608L16.246 4.28036ZM18.6555 10.7012L18.6013 10.6678L17.5524 12.3707L17.6067 12.4041L18.6555 10.7012ZM17.9967 16.8763L19.4928 14.7317L17.8525 13.5874L16.3564 15.732L17.9967 16.8763ZM14.3028 17.3959L14.6036 17.5812L15.6524 15.8783L15.3517 15.693L14.3028 17.3959ZM8.11935 20H11.4792V18H8.11935V20ZM3.96935 15.6697L2.23549 13.1843L0.595183 14.3285L2.32904 16.814L3.96935 15.6697ZM1.29251 9.38277L1.38005 9.43668L2.42889 7.73376L2.34135 7.67985L1.29251 9.38277ZM2.15086 3.13207L0.488921 5.51443L2.12923 6.65871L3.79117 4.27635L2.15086 3.13207ZM5.39046 2.53117L5.30295 2.47727L4.25411 4.18018L4.34162 4.23408L5.39046 2.53117ZM4.34162 4.23408C5.86528 5.17252 7.8278 4.07636 7.8278 2.28689H5.8278C5.8278 2.51138 5.58161 2.64889 5.39046 2.53117L4.34162 4.23408ZM3.79117 4.27635C3.8956 4.12666 4.0987 4.08447 4.25411 4.18018L5.30295 2.47727C4.24478 1.82553 2.8619 2.11281 2.15086 3.13207L3.79117 4.27635ZM2.34135 7.67985C1.99036 7.46367 1.89337 6.99681 2.12923 6.65871L0.488921 5.51443C-0.404567 6.79522 -0.0371741 8.5638 1.29251 9.38277L2.34135 7.67985ZM2.42889 12.2533C4.11178 11.2167 4.11179 8.77028 2.42889 7.73376L1.38005 9.43668C1.79473 9.69209 1.79474 10.2949 1.38005 10.5503L2.42889 12.2533ZM2.23549 13.1843C2.02045 12.876 2.10888 12.4504 2.42889 12.2533L1.38005 10.5503C0.0813471 11.3502 -0.277484 13.0776 0.595183 14.3285L2.23549 13.1843ZM4.34878 15.7485C4.22141 15.827 4.05494 15.7924 3.96935 15.6697L2.32904 16.814C3.02125 17.8062 4.36749 18.0859 5.39762 17.4514L4.34878 15.7485ZM7.8278 17.7024C7.8278 15.9312 5.8817 14.8044 4.34878 15.7485L5.39762 17.4514C5.57325 17.3433 5.8278 17.467 5.8278 17.7024H7.8278ZM8.11935 18C7.96438 18 7.8278 17.8695 7.8278 17.7024H5.8278C5.8278 18.9619 6.84771 20 8.11935 20V18ZM11.8055 17.6737C11.8055 17.8539 11.6594 18 11.4792 18V20C12.764 20 13.8055 18.9585 13.8055 17.6737H11.8055ZM15.3517 15.693C13.8018 14.7384 11.8055 15.8535 11.8055 17.6737H13.8055C13.8055 17.4184 14.0855 17.2621 14.3028 17.3959L15.3517 15.693ZM16.3564 15.732C16.1976 15.9597 15.8887 16.0238 15.6524 15.8783L14.6036 17.5812C15.7427 18.2827 17.2313 17.9735 17.9967 16.8763L16.3564 15.732ZM17.6067 12.4041C18.0134 12.6546 18.1258 13.1956 17.8525 13.5874L19.4928 14.7317C20.4237 13.3972 20.0409 11.5545 18.6555 10.7012L17.6067 12.4041ZM17.5524 7.61627C15.782 8.70667 15.782 11.2803 17.5524 12.3707L18.6013 10.6678C18.0991 10.3585 18.0991 9.62849 18.6013 9.31919L17.5524 7.61627ZM17.7866 6.48884C18.0471 6.86213 17.94 7.37758 17.5524 7.61627L18.6013 9.31919C19.9675 8.47772 20.345 6.66054 19.427 5.34455L17.7866 6.48884ZM15.5938 4.14488C15.8127 4.01002 16.0989 4.06946 16.246 4.28036L17.8863 3.13608C17.1326 2.05561 15.6667 1.75109 14.5449 2.44196L15.5938 4.14488ZM11.8055 2.3216C11.8055 4.13824 13.7978 5.25104 15.3446 4.29836L14.2958 2.59544C14.0815 2.72741 13.8055 2.57326 13.8055 2.3216H11.8055ZM8.11469 0C6.85168 0 5.8278 1.02388 5.8278 2.28689H7.8278C7.8278 2.12844 7.95625 2 8.11469 2V0ZM11.4839 2C11.6615 2 11.8055 2.14399 11.8055 2.3216H13.8055C13.8055 1.03942 12.7661 0 11.4839 0V2Z" fill="black"/>
<circle cx="10.0525" cy="10" r="3" stroke="black" stroke-width="2"/>
</g>
<defs>
<clipPath id="clip0_122_931">
<rect width="21" height="20" fill="white"/>
</clipPath>
</defs>
</svg>
