<svg width="16" height="20" viewBox="0 0 16 20" fill="none" xmlns="http://www.w3.org/2000/svg">
<path d="M15.7977 12.3125C15.8731 12.0721 15.7553 11.6998 15.5762 11.5348C15.5526 11.516 15.5291 11.5018 15.5055 11.483C15.5055 11.4217 15.4961 11.3652 15.4678 11.3086C15.4725 11.1814 15.4678 11.0447 15.4489 10.8986C15.4489 10.7572 15.3924 10.5875 15.2981 10.4414C15.3782 10.3566 15.4395 10.2576 15.4536 10.1539C15.4961 9.91358 15.3311 9.56954 15.1379 9.43287C15.1237 9.42344 15.1096 9.41873 15.1002 9.4093C15.1002 9.35746 15.0955 9.30562 15.0766 9.25849C15.0295 9.12652 14.9069 9.00399 14.7656 8.91916C14.7514 8.80133 14.7043 8.66937 14.6336 8.54684C14.6383 8.462 14.6336 8.37717 14.6006 8.30177C14.5346 8.14624 14.365 8.00014 14.1859 7.92002C14.1717 7.89174 14.1623 7.86818 14.1482 7.8399C14.1152 7.75035 14.0539 7.66081 13.9738 7.57598C13.9738 7.49114 13.9502 7.41102 13.9125 7.34504C13.8984 7.32619 13.8795 7.30734 13.8607 7.28849C13.8701 7.22722 13.8701 7.16124 13.856 7.10468C13.8041 6.88318 13.5591 6.65696 13.3375 6.57684C13.4082 6.37418 13.4035 6.15739 13.2527 5.98772C13.1396 5.86519 12.9794 5.79921 12.7956 5.75679C12.7767 5.71909 12.7531 5.6861 12.7296 5.64839C12.6919 5.50701 12.6259 5.36091 12.5552 5.20538C12.5552 5.19595 12.5458 5.18182 12.5411 5.17239C12.5411 5.10641 12.5269 5.03572 12.4939 4.96502C12.3808 4.72466 12.1122 4.5927 11.8011 4.4466C11.8011 4.4466 11.7964 4.4466 11.7917 4.4466C11.7493 4.34292 11.6833 4.23452 11.6032 4.14969C11.5938 4.12612 11.5891 4.10256 11.5796 4.07428C11.5419 3.92347 11.4335 3.75852 11.2921 3.63598C11.2262 3.39562 11.0706 3.15055 10.8586 3.07986C10.7831 3.05158 10.6889 3.05158 10.5946 3.061C10.5758 3.04215 10.5522 3.0233 10.5287 3.00445C10.5004 2.94318 10.4674 2.88191 10.4297 2.82065C10.4061 2.7688 10.3684 2.71696 10.326 2.66983C10.3401 2.4766 10.2977 2.27395 10.1799 2.15613C10.1375 2.11371 10.0762 2.07601 10.0055 2.05244C9.93954 1.96761 9.86413 1.88278 9.7793 1.79794C9.77458 1.78852 9.76045 1.78381 9.75573 1.77438C9.75573 1.62357 9.72745 1.48218 9.64262 1.37849C9.60963 1.34079 9.56722 1.30309 9.52009 1.27481C9.47767 1.17113 9.40698 1.07215 9.31743 0.992035C9.31272 0.973184 9.30801 0.954332 9.29858 0.930768C9.18076 0.680983 8.90741 0.553734 8.59164 0.402921C8.55865 0.38407 8.51624 0.365218 8.47382 0.351079C8.36542 0.186127 8.21461 0.0494526 8.04966 0.0117493C7.79987 -0.0448057 7.43227 0.11072 7.28145 0.308663C7.10707 0.534883 7.05052 0.794093 7.08351 1.03916C6.98925 1.10043 6.90442 1.18055 6.84315 1.27952C6.84315 1.27952 6.84315 1.27952 6.84315 1.28424C6.82901 1.28424 6.81016 1.27481 6.79602 1.27481C6.52267 1.26067 6.16449 1.48218 6.03724 1.71782C5.9854 1.8168 5.95241 1.92048 5.93356 2.01945C5.93356 2.01945 5.92885 2.01945 5.92885 2.02416C5.78746 2.17969 5.70734 2.36349 5.68377 2.5473C5.56595 2.66041 5.48112 2.83007 5.47169 2.96675C5.47169 2.99031 5.47169 3.01388 5.47169 3.03273C5.45284 3.05158 5.42928 3.06572 5.41514 3.08457C5.38686 3.12227 5.36801 3.15526 5.34916 3.19297C5.29732 3.19297 5.24547 3.20239 5.20306 3.22124C5.07581 3.27309 4.9627 3.40505 4.88729 3.55115C4.65165 3.59356 4.416 3.71139 4.31232 3.89519C4.2322 4.03658 4.22277 4.23923 4.25105 4.42304C4.2322 4.46545 4.21806 4.50787 4.20863 4.555C4.14736 4.58328 4.09081 4.62098 4.03897 4.6634C3.87873 4.72938 3.73263 4.82835 3.65251 4.94617C3.48756 5.18182 3.43571 5.44103 3.47342 5.6861C3.46399 5.6861 3.45928 5.6861 3.44985 5.6861C3.30847 5.7238 3.16708 5.85576 3.08225 6.00186C2.92672 6.08198 2.80418 6.19509 2.71464 6.33177C2.60153 6.38832 2.49784 6.45902 2.43658 6.54385C2.23392 6.80306 2.17265 7.10468 2.22921 7.38746C2.22921 7.38746 2.2245 7.39217 2.21978 7.39689C2.02184 7.51 1.88045 7.68909 1.80033 7.89645C1.76263 7.92945 1.72493 7.96715 1.70136 8.00485C1.61653 8.12739 1.5694 8.25935 1.54584 8.39602C1.35261 8.55626 1.22064 8.7872 1.1688 9.05112C1.1688 9.06526 1.1688 9.0794 1.1688 9.09354C0.961434 9.20193 0.772918 9.45172 0.739928 9.65909C0.725789 9.7392 0.725789 9.81461 0.730502 9.89002C0.626818 10.0031 0.570263 10.2011 0.574976 10.3707C0.424162 10.5498 0.33933 10.7902 0.33933 11.0447C0.33933 11.1531 0.362894 11.2709 0.410024 11.384C0.358181 11.4547 0.320478 11.5301 0.296914 11.6149C0.131962 11.7846 0 12.0532 0 12.2606C0 12.4963 0.0706937 12.6989 0.193229 12.8686C0.174378 12.9487 0.164952 13.0288 0.169665 13.1137C0.169665 13.1325 0.174378 13.1561 0.179091 13.1749C0.122536 13.3681 0.136675 13.5755 0.216794 13.7687C0.216794 13.7876 0.216794 13.8064 0.216794 13.8206C0.230933 14.0751 0.334617 14.2919 0.494856 14.4474C0.523133 14.6312 0.603253 14.8009 0.735215 14.9328C0.683373 15.0648 0.655095 15.2015 0.664521 15.3146C0.697511 15.6256 0.85775 15.8707 1.08397 16.0309C1.0934 16.0922 1.10753 16.1582 1.12639 16.2195C1.22064 16.4881 1.50813 16.785 1.81918 16.785C1.83332 17.0018 1.92758 17.2233 2.11139 17.327C2.27162 17.5391 2.48371 17.6569 2.71464 17.6946C2.74292 17.7464 2.77591 17.7936 2.81361 17.8407C2.89373 17.935 3.01627 18.0198 3.15294 18.0669C3.16237 18.0763 3.17179 18.0858 3.18122 18.0952C3.19536 18.2649 3.25191 18.4345 3.34617 18.5901C3.54882 18.9152 4.05782 19.2122 4.43014 18.9718C4.57624 19.0566 4.75533 19.0472 4.95327 19.0142C5.04282 19.1038 5.15122 19.1745 5.27375 19.2169C5.31617 19.2781 5.37272 19.3347 5.44813 19.3677C5.57066 19.4242 5.70734 19.4195 5.85344 19.3913C5.96184 19.5939 6.14564 19.7494 6.386 19.707C6.39071 19.707 6.39542 19.707 6.40014 19.7023C6.59337 19.9332 6.90442 20.0982 7.18248 19.9332C7.23432 19.905 7.27674 19.8673 7.31444 19.8248C7.40399 19.8154 7.49825 19.7966 7.60193 19.7777C7.65377 19.773 7.70561 19.7541 7.76217 19.7353C7.9177 19.8107 8.12978 19.839 8.30416 19.7777C8.42198 19.7636 8.54923 19.7212 8.69061 19.674C8.7236 19.6646 8.75659 19.6505 8.78959 19.6316C8.89327 19.806 9.0488 19.9332 9.2703 19.9332C9.53423 19.9332 9.75573 19.7447 10.0149 19.5279C10.0197 19.5279 10.0244 19.5185 10.0291 19.5138C10.0998 19.5185 10.1752 19.5138 10.2506 19.4996C10.5711 19.6316 10.9811 19.6269 11.1696 19.3064C11.1837 19.2829 11.1885 19.2546 11.2026 19.2263C11.41 19.198 11.5938 19.0943 11.6739 18.887C11.6833 18.8634 11.6833 18.8351 11.688 18.8116C11.7116 18.7974 11.7352 18.7739 11.7587 18.7503C12.0038 18.8163 12.2771 18.7833 12.428 18.5571C12.4421 18.5335 12.4515 18.5052 12.4609 18.4817C12.6542 18.4722 12.8427 18.411 12.9794 18.2884C13.0595 18.2649 13.1396 18.2272 13.2056 18.1565C13.2951 18.0622 13.3423 17.9444 13.3705 17.803C13.413 17.7841 13.4601 17.7606 13.5025 17.737C13.658 17.6758 13.8183 17.5202 13.9125 17.3458C13.9597 17.3317 14.0115 17.3129 14.0586 17.2846C14.2943 17.1338 14.3932 16.8416 14.5064 16.4975C14.5441 16.408 14.5629 16.2996 14.5629 16.1865C14.6713 16.0592 14.7467 15.8896 14.7326 15.734C15.1143 15.6633 15.5809 15.291 15.4348 14.848C15.4112 14.7726 15.3688 14.7066 15.317 14.6453C15.317 14.6406 15.317 14.6312 15.317 14.6265C15.3688 14.5982 15.4207 14.5699 15.4678 14.5322C15.7081 14.3437 15.9014 13.9148 15.6987 13.6321C15.6987 13.6085 15.6987 13.5849 15.7034 13.5614C15.7176 13.4483 15.694 13.3116 15.6374 13.1891C15.7081 12.9958 15.7081 12.7508 15.5997 12.5999C15.5997 12.5952 15.5997 12.5905 15.5997 12.5811C15.6893 12.5057 15.76 12.4161 15.793 12.3172L15.7977 12.3125Z" fill="#758AD7"/>
</svg>
