<?xml version="1.0" encoding="UTF-8"?><svg id="_레이어_1" xmlns="http://www.w3.org/2000/svg" viewBox="0 0 400 560"><defs><style>.cls-1{fill:#f3eddd;}</style></defs><ellipse class="cls-1" cx="199.621" cy="297.186" rx="160.5" ry="204.5"/><path class="cls-1" d="m367.718,284.688c-.344-1.039-.537-2.248-.705-3.354-.099-.651-.152-1.313-.196-1.973-.068-1.007-.133-2.018-.252-3.017-.031-.105-.049-.219-.085-.321-.428-1.206-.548-2.417-.295-3.651l.601-1.681c.477-.912,1.052-1.596,1.725-2.049.107-.112.241-.132.353-.228-.536-1.128-.804-2.44-.51-3.921.325-1.813.496-3.719.573-5.68-.004-.763-.099-1.534-.137-2.302-.576-1.31-.824-2.814-.474-4.381-.258-1.438-.529-2.877-.922-4.281-.624-1.77-1.297-3.42-2.234-4.883l-.194-.289c-.132-.169-.259-.35-.396-.508-1.212-1.394-1.855-3.051-1.821-5.129.013-.787.217-1.443.48-2.048-1.652-1.664-2.905-4.541-2.004-7.14.407-1.199.507-1.498.396-2.684-.019-.202-.141-.749-.3-1.353-.175-.599-.4-1.253-.58-1.68-.647-1.531-2.606-4.361-3.748-5.645-1.178-1.362-1.917-2.807-2.171-4.242-.25-1.435-.022-2.859.636-4.127.87-1.675,2.256-2.706,3.811-3.279-.564-2.15-1.375-4.227-2.062-6.345-.847-1.271-1.733-2.477-2.66-3.548-1.72-1.961-1.85-4.009-1.305-5.821-.595-.57-1.192-1.163-1.774-1.632-.686-2.549-1.74-5.016-2.933-7.269-1.207-2.246-2.499-4.304-4.077-5.842-1.656-5.841-4.751-12.436-8.669-19.381-.66-1.28-1.439-2.612-2.312-3.962-.221-1.536-.632-3.047-1.18-4.545-.544-1.501-1.225-2.989-2.062-4.428-1.086-1.956-2.676-3.849-4.414-5.699-1.746-1.846-3.663-3.634-5.777-5.127-2.083-1.516-4.183-2.868-6.223-3.906-2.088-.999-4.061-1.728-5.774-2.111-1.331-1.074-2.65-2.071-4.091-2.891-.927-1.256-1.929-2.472-2.962-3.589-1.041-1.109-2.073-2.159-3.189-2.95-1.934-1.436-3.854-2.65-5.732-3.66-1.876-1.012-3.824-1.69-5.635-2.267-1.267-1.176-2.535-2.332-3.928-3.274-1.392-.945-2.815-1.798-4.252-2.551l-.02-.037c-1.289-2.93-4.046-6.173-7.495-9.397-1.738-1.585-3.747-3.004-5.803-4.384-1.042-.665-2.07-1.369-3.176-1.91-1.098-.557-2.206-1.075-3.312-1.544-1.16-.942-2.408-1.826-3.756-2.601-1.446-.77-3.092-1.416-4.824-2.005-.868-.291-1.76-.561-2.667-.808-.903-.256-1.828-.474-2.78-.61-1.89-.308-3.8-.521-5.654-.637-.929-.051-1.835-.108-2.734-.085-.903.036-1.783.096-2.63.178-.521-.119-1.061-.269-1.563-.359-1.825-.31-3.584-.593-5.303-.677-1.725-.057-3.385-.033-4.97.066-1.588.119-3.089.227-4.527.558-1.437.321-2.791.705-4.054,1.146-1.009-1.066-2.181-2.11-3.496-3.096-1.315-.979-2.78-1.768-4.357-2.524-1.577-.74-3.27-1.379-5.04-1.881-1.771-.456-3.62-.681-5.504-.783-.906-.043-1.845-.048-2.805-.016-.96.027-1.942.089-2.93.266-1.978.311-3.998.755-5.971,1.302-1.98.5-3.887,1.301-5.676,2.119-1.789.823-3.452,1.708-4.92,2.62-1.431.121-2.843.365-4.203.718-1.309.346-2.634.813-3.934,1.371-1.308.529-2.537,1.326-3.73,2.083-1.186.78-2.307,1.617-3.327,2.478-.51.431-.995.867-1.451,1.306-.451.454-.864.934-1.25,1.397-2.38.935-4.674,2.011-6.751,3.304-2.675-.328-5.681-.125-8.57.798-2.22.781-4.564,2.183-6.743,3.763-.54.403-1.082.798-1.583,1.241-.497.45-.977.909-1.436,1.371-.917.925-1.748,1.865-2.456,2.779-2.665,1.051-5.058,2.617-7.28,4.313-3.913-.062-8.953,1.315-13.924,3.586-2.412,1.212-4.797,2.648-6.963,4.243-2.117,1.642-3.949,3.506-5.413,5.407-.821,1.069-1.52,2.228-2.092,3.467-1.977,2-3.889,4.207-5.42,6.447-1.481,2.283-2.661,4.533-3.363,6.49-1.169.723-2.246,1.568-3.196,2.573-.411.43-.806.924-1.201,1.412-1.913,1.223-3.809,2.57-5.294,4.109-2.171,2.242-4.172,4.568-5.85,6.991-1.624,2.458-3.016,4.958-4.165,7.436-2.681,1.676-5.2,3.887-7.242,6.606-1.106,1.482-2.019,3.26-2.884,5.124-.831,1.88-1.631,3.842-2.148,5.87-.528,2.023-.921,4.045-1.159,5.952-.246,1.904-.328,3.695-.17,5.295-2.031,3.577-3.894,7.812-4.804,11.966-1.217,1.743-2.48,3.669-3.456,5.745-.988,2.072-1.853,4.239-2.522,6.372-.457.544-.908,1.109-1.351,1.692-.42.59-.828,1.201-1.227,1.826-.797,1.25-1.55,2.563-2.238,3.911-.678,1.35-1.33,2.726-1.824,4.128-.481,1.405-.875,2.818-1.164,4.21-.99,1.418-1.941,2.93-2.825,4.505-.863,1.58-1.584,3.238-2.247,4.917-.654,1.681-1.211,3.392-1.642,5.095-.418,1.705-.623,3.419-.724,5.079-.475,6.795,2.021,14.178,5.162,18.724-.453.904-.851,1.858-1.144,2.881-.563,1.969-.845,4.342-.888,6.779.013,2.441.329,4.949.796,7.185-.422,1.559-.885,3.158-1.279,4.823-.611,2.247-1.006,4.986-1.199,7.889-.476.896-.956,1.853-1.378,2.859-.405,1.006-.787,2.061-1.14,3.152-.705,2.183-1.293,4.515-1.721,6.892-.412,2.376-.538,4.796-.529,7.152.047,2.354.195,4.649.78,6.755.743,2.878,2.03,5.678,3.562,8.184.476,2.374,1.2,4.684,1.972,6.751.801,2.064,1.632,3.889,2.641,5.262.312.433.638.728.954,1.126.198,1.421.4,2.864.608,4.35.118,1.145.314,2.357.575,3.601.287,1.24.678,2.507,1.103,3.778.194,3.623.783,7.282,1.974,10.722.567,1.726,1.225,3.411,1.963,5.031.731,1.622,1.667,3.146,2.602,4.601.515,2.346,1.149,4.626,2.066,6.731.928,2.102,2.01,4.067,3.209,5.848-.005.351-.01.689-.015,1.044-.184,2.403.29,5.357,1.017,8.506.698,3.16,2.003,6.38,3.474,9.297.461,6.988,3.307,15.394,7.763,20.42,1.456,1.718,3.382,3.081,5.272,4.226.562,1.186,1.184,2.383,1.852,3.565.656,1.189,1.463,2.302,2.247,3.408,1.616,2.182,3.274,4.259,5.123,5.861.355,1.326.771,2.639,1.307,3.874,4.539,10.429,12.885,18.724,21.563,22.802,2.385,2.498,5.132,4.614,7.504,5.965.912,2.498,2.37,4.946,4.385,7.113,1.438,1.611,3.468,2.99,5.589,4.306,1.069.648,2.182,1.258,3.305,1.818,1.149.527,2.331.977,3.48,1.381.375.318.746.665,1.125.955,1.204.911,2.406,1.778,3.639,2.542,1.26.726,2.522,1.387,3.778,1.985s2.506,1.131,3.742,1.602c1.246.454,2.52.776,3.747,1.077,1.419,1.494,3.083,3.111,5.006,4.542,1.939,1.401,4.067,2.747,6.267,3.941,2.215,1.161,4.569,2.021,6.825,2.725,2.247.731,4.503,1.032,6.549,1.051.523.005,1.033-.059,1.548-.092,1.552.376,3.07.776,4.574.912,1.499.158,2.932.232,4.244.212,1.924.807,3.906,1.649,6.028,2.308,4.807,1.92,11.728,2.989,18.242,2.585,3.305.274,6.849.323,10.102-.301,1.959.373,3.978.648,5.944.787,1.96.034,3.87-.056,5.616-.285,3.946-.418,7.483-1.616,10.623-2.832,1.575-.591,3.012-1.39,4.347-2.194,1.334-.806,2.559-1.651,3.67-2.523.638-.141,1.271-.285,1.849-.461,1.885-.692,3.576-1.487,5.152-2.323,1.272.326,2.662.62,4.088.751,1.417.106,2.897.12,4.397.03,1.5-.09,3.021-.284,4.515-.591,1.461-.38,2.896-.875,4.255-1.49,1.369-.62,2.742-1.395,4.06-2.283,1.282-.955,2.513-2.014,3.647-3.118,1.399-.535,2.792-1.116,4.141-1.775,1.318-.711,2.609-1.475,3.863-2.285,1.253-.811,2.473-1.662,3.641-2.559,1.129-.953,2.212-1.944,3.241-2.963,1.299.207,2.677.282,4.183.09,1.04-.116,2.125-.388,3.259-.767,1.14-.372,2.338-.841,3.571-1.389,1.228-.554,2.513-1.162,3.763-1.881,1.23-.741,2.468-1.546,3.688-2.397,1.22-.851,2.423-1.747,3.583-2.67,1.124-.958,2.185-1.963,3.192-2.962,2.003-2.009,3.788-4,4.979-5.986,1.478-2.36,2.684-4.612,3.592-6.786.854-2.22,1.455-4.327,1.837-6.314.226-.306.462-.6.68-.915.706-.199,1.415-.435,2.124-.708.693-.285,1.369-.62,2.045-.991,1.348-.744,2.662-1.653,3.892-2.744.713-.632,1.424-1.344,2.124-2.118.663-.798,1.312-1.658,1.939-2.561,1.25-1.808,2.428-3.775,3.413-5.776.925-2.039,1.692-4.092,2.244-6.008.555-1.913.896-3.688.894-5.227.325-.454.644-.899.975-1.362.562-.727,1.117-1.549,1.665-2.398,1.775-.871,3.535-2.07,4.987-3.712,1.66-1.844,3.321-4.327,4.641-7.087,1.277-2.781,2.324-5.783,3.003-8.557,1.179-1.767,2.371-3.598,3.604-5.51,2.139-2.913,3.903-6.894,5.402-11.084.764-2.09,1.252-4.303,1.716-6.453.421-2.164.8-4.273.874-6.31.938-1.558,1.79-3.18,2.562-4.845.76-1.668,1.498-3.365,2.017-5.12.589-13.805.986-27.893.393-41.562-.241-3.968,1.624-5.968,3.662-6.997-.123-.565-.249-1.144-.371-1.703-.513-2.197-1.162-4.227-1.943-6.051-.38-.869-.803-1.708-1.264-2.455-.1-.024-1.019-1.118-1.173-1.254-.484-.428-.963-1.182-1.305-2.074-.348-.893-.613-1.927-.58-2.924.033-1.165-.042-3.246.062-4.873-1.137-.686-2.53-1.838-3.434-3.283-.792.976-1.79,1.628-2.537,2.01.634-.325-.196.172-.385,1.456-.194,1.322-.249,2.611-.258,3.962.04,3.493.236,6.932.574,10.347.307,3.037-.694,4.951-2.495,6.198-1.361.943-2.11,3.325-2.62,5.949-.57,2.616-.99,5.47-1.458,7.363-.78,3.339-2.157,6.443-3.43,9.514-1.24,3.081-2.814,6.041-4.034,9.141-5.947,14.509-10.038,28.602-13.108,43.706-.264,1.293-.742,2.327-1.403,3.095-.682.758-1.512,1.269-2.414,1.561-1.805.585-3.9.289-5.729-.597-.887,1.116-1.691,2.296-2.42,3.505-.771,1.184-1.441,2.412-1.98,3.67-.54,1.258-.948,2.548-1.196,3.857-.279,1.288-.425,2.579-.36,3.89.028.593.116,1.143.218,1.684-.785,1.271-1.45,2.613-2.119,3.951-3.506,1.653-7.32,4.61-10.752,7.918-.844.84-1.629,1.735-2.381,2.639-.781.879-1.502,1.792-2.147,2.735-1.295,1.879-2.242,3.918-2.899,5.891-2.013.348-4.075.898-6.084,1.66-2.041.73-4.102,1.589-5.99,2.725-1.862,1.172-3.754,2.371-5.377,3.929-.826.76-1.567,1.637-2.311,2.504-.748.863-1.438,1.802-2.062,2.826-2.019,3.448-3.054,6.717-3.495,10.383-.542.284-1.084.586-1.63.905-.557.298-1.124.601-1.701.91-1.142.634-2.297,1.327-3.472,2.067-1.157.772-2.402,1.466-3.663,2.208-1.254.756-2.541,1.531-3.855,2.324-1.251.621-2.553,1.351-3.84,2.227-1.295.857-2.558,1.902-3.866,2.831-1.29.216-2.623.521-3.96.909-.663.206-1.335.415-2.013.625-.683.191-1.362.402-2.035.633-1.345.462-2.662,1.004-3.916,1.625-1.258.607-2.493,1.161-3.609,1.869-.316.089-.633.186-.952.299-1.064-.519-2.185-.944-3.357-1.272-1.187-.392-2.421-.679-3.697-.832-1.278-.162-2.592-.155-3.959-.051-1.378.044-2.798.244-4.27.631-.951.236-1.855.593-2.746.902-.891.302-1.755.662-2.602,1.073s-1.678.873-2.503,1.379c-.413.253-.824.516-1.235.79l-1.239.765c-1.383-.491-2.81-.888-4.251-1.162-.721-.144-1.446-.226-2.172-.33-.726-.124-1.453-.214-2.178-.266-1.451-.103-2.896-.053-4.316.179-1.419.208-2.805.467-4.157,1.017-1.052-.228-2.116-.415-3.191-.561-1.074-.154-2.145-.386-3.235-.51-2.173-.298-4.411-.315-6.638-.463-2.245-1.588-4.755-2.795-7.339-3.77-1.302-.448-2.643-.755-4.02-.889-1.352-.219-2.737-.273-4.154-.117-.476.052-.914.156-1.363.248-1.623-.931-3.266-1.963-5.033-2.872-.727-.914-1.582-1.776-2.585-2.564-.985-.833-2.093-1.654-3.383-2.361-1.093-.615-2.231-1.086-3.383-1.524-1.134-.477-2.307-.865-3.525-1.188-1.215-.329-2.49-.568-3.79-.812-1.278-.284-2.605-.527-3.984-.752-3.341-4.638-8.163-9.874-13.463-12.418-.571-1.671-1.368-3.486-2.651-5.288-.553-.789-1.156-1.537-1.799-2.258-.612-.759-1.268-1.488-1.967-2.193-.699-.705-1.44-1.387-2.222-2.052-.788-.659-1.607-1.311-2.414-2.008-1.642-1.364-3.436-2.689-5.347-4.038-1.83-1.428-3.78-2.876-5.819-4.391-.427-.346-.924-.66-1.357-1.019l-.079-.111c-1.009-1.276-2.142-2.36-3.386-3.327-1.245-.965-2.615-1.803-3.989-2.664-1.618-5.381-4.562-10.818-8.367-15.887-.53-2.875-1.465-5.749-2.54-8.806-.953-2.589-2.438-5.306-3.982-8.02-.799-1.343-1.674-2.653-2.606-3.892-.956-1.228-1.826-2.452-2.818-3.526-.313-.796-.698-1.581-1.064-2.369-.008-.048,0-.084-.009-.132-.632-3.275-1.863-6.503-3.72-9.81-.089-1.448-.226-2.976-.494-4.549-.269-1.573-.653-3.196-1.123-4.874-.507-1.667-.912-3.447-1.469-5.255-.521-1.818-1.147-3.68-1.698-5.627-.462-2.088-1.248-4.335-2.252-6.563-.176-1.6-.349-3.217-.633-4.816-.286-1.599-.672-3.184-1.152-4.746.599-1.692,1.22-3.599,1.653-5.596.438-1.998.722-4.09.809-6.19.172-2.113.146-4.233-.132-6.283-.139-1.025-.34-2.032-.611-3.013-.252-.982-.533-1.941-.913-2.862.162-.997.297-2.013.405-3.045.219-2.172.245-4.552.248-7.017-.027-2.463-.277-5.004-.632-7.493-.577-4.975-2-9.762-3.936-13.249-.104-.751-.155-1.509-.297-2.257l-.002-.011c1.399-3.97,2.574-8.506,2.187-12.62.881-1.999,1.562-4.283,1.638-6.906.026-.715.008-1.413-.043-2.101,1.037-1.577,2.177-3.254,3.151-5.067,1.007-1.807,1.865-3.749,2.738-5.78,3.03-7.177,5.213-17.364,4.671-25.365.593-2.166,1.189-4.365,1.521-6.578.175-1.103.305-2.201.383-3.283.109-1.068.184-2.112.189-3.13.228-.567.496-1.1.703-1.683.626-1.685,1.038-3.587,1.497-5.467.809-1.229,1.555-2.512,2.233-3.848.69-1.33,1.257-2.741,1.888-4.132.385-.256.77-.496,1.154-.773,1.525-1.099,3.101-2.506,4.624-4.126,1.582-1.585,3.162-3.352,4.568-5.26.493-.468.974-.972,1.449-1.516.5-.527.99-1.096,1.467-1.715,1.181-1.533,2.155-3.168,2.985-4.914.882-1.708,1.659-3.496,2.331-5.412.343-.953.647-1.948.969-2.945.342-.981.672-1.99.995-3.025.316-1.049.636-2.11.96-3.187.313-1.094.635-2.208,1.021-3.299,1.163-.905,2.287-1.912,3.341-2.994.527-.541,1.036-1.1,1.524-1.674.509-.553,1.007-1.111,1.474-1.687,1.67-.677,3.358-1.521,4.974-2.517,1.636-.975,3.284-2.012,4.738-3.239.732-.608,1.427-1.253,2.077-1.932.682-.64,1.317-1.316,1.896-2.03,1.161-1.421,2.083-3.01,2.737-4.711.859-.457,1.716-.86,2.563-1.383,3.264-2.117,6.864-4.904,9.938-8.066,1.583-1.506,3.024-3.126,4.23-4.798,1.221-1.642,2.271-3.222,2.93-4.867l.239-.218c2.79-.311,6.18-.91,9.311-2.109.393-.148.78-.309,1.166-.471.395-.141.785-.291,1.169-.45.769-.317,1.515-.668,2.229-1.054.714-.386,1.396-.806,2.037-1.262.638-.463,1.24-.95,1.811-1.416,1.241-.485,2.51-1.027,3.816-1.611.652-.297,1.314-.599,1.987-.905.679-.286,1.38-.541,2.085-.823.405-.138.824-.337,1.239-.506,1.608.309,3.244.456,5.01.598,1.361.127,2.833.138,4.361.044.764-.047,1.541-.121,2.325-.219.793-.051,1.595-.113,2.397-.205.056.022.106.041.163.063,1.04.362,2.162.677,3.34.938,1.164.24,2.406.496,3.702.763,2.563.491,5.252.644,7.955.884,1.348.077,2.694.081,4.021.002,1.327-.018,2.636-.051,3.911-.213,1.275-.147,2.519-.415,3.71-.731,1.187-.26,2.326-.626,3.399-1.106.706.441,1.444.839,2.219,1.187.387.174.783.335,1.188.483.402.172.812.342,1.232.491,1.68.605,3.509.981,5.529,1.065,2.84.325,5.542-.055,8.276-.646,1.647,1.308,3.487,2.542,5.441,3.615,1.919,1.2,3.94,2.286,6.022,3.117,2.053.921,4.125,1.717,6.226,2.144,1.059.192,2.067.441,3.092.548,1.021.117,2.038.145,3.043.073.253.144.472.314.729.454.541.282,1.094.57,1.657.863.557.309,1.132.608,1.722.897,1.18.577,2.419,1.11,3.698,1.59,1.298.445,2.541,1.011,3.846,1.428,1.295.435,2.606.807,3.911,1.102.724,1.595,1.623,3.264,2.877,4.72.622.736,1.323,1.437,2.111,2.093.772.68,1.602,1.362,2.544,1.969,1.058.69,2.151,1.225,3.271,1.691,1.515,1.916,3.225,3.714,5.29,5.283,1.044.771,2.071,1.613,3.185,2.41,1.111.801,2.285,1.586,3.515,2.372.582,2.235,1.413,4.858,2.628,7.4.295.645.629,1.271.946,1.929.312.664.642,1.325.989,1.979.694,1.31,1.459,2.595,2.288,3.831,1.628,2.5,3.373,4.929,5.427,6.894,1.954,2.049,4.102,3.735,6.485,4.796,3.033,3.976,6.582,7.618,10.438,10.783.245.475.439.955.705,1.427,1.015,1.708,2.111,3.562,3.448,5.293.345,1.478.812,2.955,1.331,4.458.481,1.522,1.056,3.047,1.723,4.567-.029.325-.074.636-.095.967-.004.174-.009.374-.014.555,1.003.342,1.877.889,2.545,1.706.647.826,1.119,1.907,1.387,3.277.324,1.658.778,3.378,1.33,5.143.484,1.793,1.073,3.627,1.753,5.477.34.925.703,1.854,1.086,2.784.364.938.731,1.883,1.099,2.83.764,1.887,1.602,3.766,2.501,5.609.847,1.86,1.703,3.7,2.634,5.469.917,1.772,1.929,3.469,2.827,5.11.931,1.632,1.898,3.17,2.888,4.58.995,1.409,2.008,2.692,2.953,3.828,1.189,1.391,1.625,2.833,1.559,4.894-.038,2.595-.105,5.537.196,8.401.153,1.432.396,2.845.754,4.194.34,1.351.733,2.647,1.31,3.828,1.2,2.495,3.351,3.446,4.399,6.075.841,2.311.893,5.728,1.354,8.281.142.743.288,1.502.433,2.263.127.762.269,1.527.428,2.282.32,1.509.715,2.977,1.221,4.3.592,1.548,1.527,2.656,2.317,3.929.642-2.018,1.258-4.069,1.845-6.152.562-2.083,1.2-4.201,1.599-6.346Z"/></svg>