<?xml version="1.0" encoding="UTF-8"?><svg id="_레이어_1" xmlns="http://www.w3.org/2000/svg" viewBox="0 0 400 560"><defs><style>.cls-1{fill:#82a03b;}</style></defs><g><path class="cls-1" d="m134.407,398.111s23.593,48.333,57.242,49.174c0,0-.719-20.6-57.242-49.174Z"/><g><path class="cls-1" d="m136.191,396.92c-.379-.725-1.481-1.459-2.319-1.269-.664.151-1.369.931-1.511,1.581-.313,1.436.546,2.692,1.882,3.104.976.301,2.566-.028,2.739-1.258.099-.704-.313-1.38-.791-2.159Z"/><path class="cls-1" d="m137.556,397.644c-.4-.736-1.541-1.47-2.397-1.261-.678.165-1.387.976-1.521,1.645-.297,1.476.603,2.749,1.979,3.149,1.005.292,2.627-.071,2.785-1.334.09-.723-.343-1.409-.846-2.198Z"/><path class="cls-1" d="m138.625,400.859c.521-.476.89-1.558.546-2.216-.272-.521-1.08-.937-1.654-.911-1.268.056-2.126,1.05-2.175,2.257-.035.881.59,2.135,1.655,2.008.609-.073,1.083-.566,1.627-1.137Z"/><path class="cls-1" d="m139.214,402.744c.899-.115,2.085-.978,2.21-1.922.099-.748-.441-1.781-1.062-2.178-1.372-.877-3.007-.469-3.949.762-.688.898-.958,2.676.254,3.33.693.374,1.554.206,2.547.009Z"/><path class="cls-1" d="m142.033,402.083c.435-.775.448-2.213-.222-2.863-.531-.515-1.659-.693-2.335-.436-1.492.568-2.126,2.094-1.707,3.554.305,1.066,1.547,2.317,2.77,1.745.699-.327,1.07-1.103,1.495-2Z"/><path class="cls-1" d="m142.224,403.623c.654-.281,1.364-1.19,1.253-1.931-.087-.586-.719-1.25-1.274-1.415-1.227-.366-2.373.297-2.819,1.431-.325.828-.144,2.229.913,2.46.605.132,1.219-.181,1.926-.545Z"/><path class="cls-1" d="m143.306,401.234c-.586-.38-1.714-.463-2.257.031-.43.391-.627,1.267-.459,1.81.371,1.199,1.536,1.773,2.703,1.518.852-.186,1.896-1.098,1.508-2.086-.222-.565-.812-.895-1.495-1.273Z"/><path class="cls-1" d="m144.704,405.067c.594-.208,1.276-.965,1.224-1.625-.041-.522-.556-1.146-1.036-1.327-1.059-.398-2.111.116-2.574,1.087-.338.71-.265,1.957.653,2.226.525.154,1.086-.084,1.732-.362Z"/><path class="cls-1" d="m146.516,405.78c.597-.392,1.139-1.414.901-2.126-.189-.564-.928-1.109-1.506-1.176-1.276-.147-2.293.708-2.535,1.905-.177.874.247,2.227,1.331,2.271.62.025,1.172-.391,1.808-.875Z"/><path class="cls-1" d="m148.129,405.946c.376-.535.494-1.586.052-2.112-.35-.417-1.163-.632-1.677-.494-1.135.304-1.713,1.373-1.516,2.474.144.804.959,1.812,1.897,1.485.536-.187.866-.727,1.244-1.352Z"/><path class="cls-1" d="m149.906,407.355c.645-.662,1.046-2.103.547-2.936-.395-.66-1.481-1.143-2.229-1.066-1.652.169-2.699,1.532-2.671,3.112.02,1.154.932,2.745,2.314,2.498.791-.141,1.372-.821,2.04-1.608Z"/><path class="cls-1" d="m150.74,405.311c-.478-.642-1.656-1.182-2.437-.87-.619.248-1.18,1.11-1.217,1.761-.082,1.436.941,2.518,2.296,2.711.99.141,2.475-.421,2.454-1.637-.012-.696-.514-1.286-1.096-1.965Z"/><path class="cls-1" d="m151.171,409.341c.718-.085,1.671-.765,1.777-1.517.084-.596-.339-1.424-.831-1.745-1.088-.71-2.395-.396-3.156.579-.555.712-.784,2.128.178,2.658.55.303,1.238.176,2.032.026Z"/><path class="cls-1" d="m153.822,410.053c.773-.593,1.408-2.037,1.012-2.982-.313-.748-1.373-1.415-2.166-1.448-1.75-.072-3.047,1.193-3.256,2.846-.153,1.207.559,3.004,2.039,2.955.846-.028,1.555-.65,2.371-1.371Z"/><path class="cls-1" d="m154.52,407.922c-.392-.527-1.36-.97-2.001-.713-.508.204-.968.912-.999,1.446-.066,1.179.774,2.067,1.886,2.225.812.115,2.032-.347,2.014-1.345-.01-.571-.423-1.056-.901-1.613Z"/><path class="cls-1" d="m156.925,409.014c-.206-.917-1.212-2.058-2.199-2.095-.782-.029-1.795.628-2.145,1.308-.772,1.502-.192,3.15,1.17,4.003.994.623,2.856.729,3.412-.586.318-.752.062-1.625-.239-2.63Z"/><path class="cls-1" d="m157.74,410.725c.119-.654-.221-1.674-.854-1.97-.501-.235-1.342-.086-1.757.26-.917.765-.994,1.998-.343,2.929.475.68,1.658,1.262,2.383.56.415-.402.488-1.041.57-1.778Z"/><path class="cls-1" d="m158.196,409.545c-.694-.434-2.017-.509-2.645.08-.497.466-.71,1.497-.503,2.13.457,1.398,1.834,2.048,3.197,1.727.995-.235,2.201-1.323,1.727-2.473-.271-.658-.969-1.033-1.776-1.463Z"/><path class="cls-1" d="m160.696,411.878c-.023-.782-.665-1.874-1.466-2.06-.634-.148-1.567.229-1.96.73-.869,1.105-.655,2.544.323,3.457.714.667,2.219,1.048,2.882.061.379-.564.307-1.318.221-2.188Z"/><path class="cls-1" d="m161.488,411.675c-.438-.63-1.551-1.184-2.31-.908-.6.219-1.165,1.029-1.22,1.651-.122,1.375.826,2.443,2.119,2.669.944.165,2.386-.329,2.402-1.495.009-.667-.454-1.248-.991-1.917Z"/><path class="cls-1" d="m163.416,413.846c.134-.768-.273-1.962-1.017-2.304-.589-.271-1.575-.09-2.059.319-1.07.904-1.149,2.352-.378,3.438.563.794,1.955,1.467,2.8.638.483-.475.564-1.225.655-2.091Z"/><path class="cls-1" d="m162.743,412.689c-.776-.144-1.989.256-2.344,1.006-.281.594-.108,1.593.301,2.088.904,1.092,2.368,1.188,3.477.419.809-.562,1.506-1.964.675-2.828-.475-.494-1.234-.584-2.109-.685Z"/><path class="cls-1" d="m165.818,416.57c.464-.679.593-2.003.028-2.656-.448-.517-1.473-.774-2.117-.591-1.421.402-2.129,1.757-1.862,3.137.195,1.008,1.238,2.261,2.411,1.833.671-.245,1.076-.93,1.54-1.722Z"/><path class="cls-1" d="m165.363,414.548c-.798-.224-2.104.08-2.546.831-.35.594-.264,1.656.118,2.212.843,1.228,2.365,1.467,3.597.766.9-.511,1.761-1.912.973-2.894-.45-.562-1.235-.728-2.142-.915Z"/><path class="cls-1" d="m166.676,415.46c-.815-.266-2.18-.009-2.67.749-.388.6-.344,1.702.026,2.294.818,1.307,2.383,1.619,3.687.949.953-.49,1.904-1.901,1.132-2.951-.442-.601-1.246-.806-2.176-1.04Z"/><path class="cls-1" d="m167.779,420.64c.801.042,1.97-.522,2.228-1.324.204-.635-.102-1.62-.58-2.064-1.056-.981-2.544-.883-3.558.039-.741.673-1.257,2.178-.305,2.939.544.435,1.32.425,2.216.41Z"/><path class="cls-1" d="m170.343,418.233c-.419-.692-1.552-1.348-2.368-1.109-.646.19-1.294,1.004-1.394,1.655-.22,1.437.705,2.624,2.05,2.948.982.237,2.531-.186,2.626-1.411.054-.701-.394-1.343-.914-2.082Z"/><path class="cls-1" d="m171.661,421.279c.387-.602.468-1.758-.039-2.313-.402-.44-1.301-.638-1.857-.464-1.228.384-1.811,1.58-1.546,2.775.194.872,1.132,1.939,2.142,1.538.578-.229.914-.835,1.299-1.536Z"/><path class="cls-1" d="m173.482,421.252c.039-.899-.605-2.205-1.508-2.487-.715-.223-1.817.131-2.31.672-1.09,1.194-.966,2.863.079,3.993.763.825,2.457,1.389,3.301.313.483-.615.464-1.486.438-2.491Z"/><path class="cls-1" d="m174.348,423.62c.555-.677.816-2.07.278-2.816-.427-.591-1.491-.959-2.191-.826-1.546.294-2.423,1.665-2.269,3.154.113,1.087,1.102,2.515,2.387,2.171.735-.197,1.229-.886,1.795-1.683Z"/><path class="cls-1" d="m175.002,422.639c-.234-.584-1.022-1.231-1.679-1.15-.52.064-1.12.608-1.279,1.095-.35,1.076.211,2.104,1.203,2.522.724.305,1.967.176,2.194-.753.13-.532-.133-1.081-.44-1.714Z"/><path class="cls-1" d="m175.41,426.013c.641-.122,1.456-.794,1.504-1.478.038-.542-.395-1.26-.858-1.519-1.024-.571-2.181-.205-2.805.72-.455.676-.571,1.965.328,2.382.515.238,1.126.08,1.831-.105Z"/><path class="cls-1" d="m176.737,427.724c.933-.119,2.164-1.015,2.293-1.994.103-.776-.457-1.848-1.102-2.26-1.424-.911-3.12-.486-4.098.79-.714.932-.994,2.777.264,3.455.719.388,1.613.214,2.643.009Z"/><path class="cls-1" d="m177.828,424.665c-.631-.326-1.782-.297-2.283.257-.397.439-.508,1.346-.284,1.879.495,1.177,1.733,1.641,2.889,1.267.844-.274,1.81-1.301,1.319-2.263-.281-.55-.912-.825-1.641-1.14Z"/><path class="cls-1" d="m178.847,424.998c-.891-.291-2.382-.01-2.917.817-.424.655-.377,1.859.028,2.506.894,1.428,2.603,1.77,4.029,1.038,1.041-.535,2.081-2.077,1.238-3.225-.482-.657-1.361-.881-2.377-1.137Z"/><path class="cls-1" d="m181.31,426.997c-.458-.765-1.704-1.494-2.604-1.234-.713.206-1.431,1.099-1.544,1.816-.25,1.583.764,2.895,2.244,3.259,1.081.266,2.79-.192,2.901-1.542.063-.772-.427-1.482-.997-2.299Z"/><path class="cls-1" d="m181.915,430.547c.428-.462.675-1.451.32-2.01-.281-.442-1.029-.752-1.537-.686-1.122.145-1.811,1.092-1.764,2.167.034.785.684,1.853,1.62,1.66.536-.11.92-.583,1.361-1.132Z"/><path class="cls-1" d="m183.114,432.238c.633-.506,1.138-1.718.794-2.497-.273-.617-1.166-1.155-1.825-1.17-1.457-.032-2.516,1.042-2.663,2.42-.108,1.007.514,2.491,1.744,2.426.704-.037,1.284-.566,1.95-1.179Z"/><path class="cls-1" d="m184.504,430.847c-.338-.818-1.455-1.716-2.378-1.593-.73.098-1.566.871-1.782,1.559-.477,1.518.327,2.955,1.728,3.529,1.023.419,2.769.219,3.075-1.091.175-.749-.203-1.518-.643-2.404Z"/><path class="cls-1" d="m185.832,432.606c-.098-.908-.944-2.12-1.892-2.264-.751-.114-1.802.409-2.215,1.027-.911,1.365-.532,3.02.689,3.993.891.711,2.677,1.018,3.359-.19.39-.691.238-1.562.059-2.566Z"/><path class="cls-1" d="m186.712,435.188c.432-.772.443-2.204-.226-2.85-.529-.512-1.653-.688-2.325-.431-1.485.567-2.113,2.088-1.694,3.541.306,1.061,1.544,2.305,2.76,1.733.696-.327,1.064-1.1,1.485-1.994Z"/><path class="cls-1" d="m188.014,435.53c.123-.941-.435-2.372-1.357-2.75-.731-.299-1.92-.028-2.488.495-1.254,1.156-1.276,2.92-.281,4.202.726.936,2.455,1.683,3.439.63.563-.602.623-1.519.687-2.577Z"/><path class="cls-1" d="m188.454,436.004c-.189-.769-1.055-1.713-1.887-1.728-.659-.012-1.502.559-1.785,1.138-.626,1.278-.109,2.657,1.052,3.353.848.508,2.418.567,2.865-.55.256-.639.025-1.37-.245-2.212Z"/><path class="cls-1" d="m189.625,438.392c.284-.758.098-2.055-.596-2.547-.549-.39-1.59-.395-2.163-.07-1.265.718-1.624,2.179-1.046,3.437.423.918,1.714,1.873,2.736,1.188.584-.392.811-1.142,1.069-2.008Z"/><path class="cls-1" d="m188.742,441.623c.905-.009,2.183-.728,2.416-1.65.185-.73-.23-1.818-.8-2.284-1.259-1.03-2.929-.815-4.007.296-.787.811-1.262,2.544-.135,3.333.644.451,1.518.385,2.526.305Z"/><path class="cls-1" d="m191.332,439.908c-.175-.937-1.152-2.13-2.151-2.204-.791-.059-1.842.57-2.222,1.246-.838,1.493-.31,3.185,1.038,4.099.985.668,2.867.844,3.48-.467.351-.75.123-1.644-.145-2.674Z"/><path class="cls-1" d="m191.953,441.428c-.13-.9-1.016-2.077-1.965-2.186-.752-.087-1.78.472-2.168,1.102-.858,1.392-.421,3.026.83,3.951.913.676,2.702.917,3.337-.31.364-.702.181-1.563-.033-2.557Z"/><path class="cls-1" d="m190.735,445.578c.813.011,1.977-.606,2.206-1.43.182-.652-.167-1.638-.67-2.07-1.109-.953-2.614-.795-3.606.179-.725.712-1.189,2.258-.194,2.991.569.42,1.355.379,2.263.329Z"/><path class="cls-1" d="m193.523,444.244c-.107-.969-1.013-2.26-2.026-2.412-.802-.12-1.923.441-2.361,1.102-.969,1.459-.559,3.225.746,4.26.953.756,2.86,1.079,3.585-.212.415-.738.25-1.667.056-2.739Z"/><path class="cls-1" d="m193.305,445.586c-.211-.765-1.105-1.688-1.94-1.679-.661.007-1.49.602-1.758,1.19-.591,1.298-.035,2.666,1.148,3.331.864.486,2.439.5,2.856-.631.239-.647-.013-1.373-.307-2.21Z"/><path class="cls-1" d="m192.886,447.119c.128-.729-.258-1.864-.964-2.19-.56-.258-1.496-.088-1.957.301-1.017.858-1.094,2.233-.363,3.266.534.755,1.856,1.396,2.66.609.46-.45.537-1.163.624-1.985Z"/><path class="cls-1" d="m189.702,448.394c.68.03,1.668-.457,1.882-1.14.169-.541-.099-1.374-.508-1.748-.904-.825-2.166-.731-3.021.059-.624.577-1.051,1.859-.237,2.497.465.365,1.124.351,1.884.332Z"/><path class="cls-1" d="m189.925,446.224c.117-.743-.295-1.888-1.018-2.207-.573-.252-1.521-.062-1.982.34-1.018.889-1.072,2.287-.31,3.323.556.757,1.91,1.385,2.712.571.459-.465.525-1.19.599-2.027Z"/><path class="cls-1" d="m187.812,444.815c-.299-.566-1.164-1.137-1.82-.986-.519.12-1.069.733-1.178,1.243-.24,1.126.436,2.106,1.484,2.424.765.232,2.008-.03,2.14-.994.075-.551-.249-1.08-.626-1.688Z"/><path class="cls-1" d="m187.034,445.302c.101-.785-.368-1.978-1.139-2.291-.611-.248-1.602-.019-2.075.419-1.044.967-1.057,2.44-.224,3.507.608.779,2.052,1.398,2.871.517.468-.504.516-1.269.567-2.152Z"/><path class="cls-1" d="m185.301,445.373c.279-.662.159-1.819-.438-2.28-.473-.365-1.396-.406-1.916-.138-1.147.592-1.518,1.875-1.049,3.011.342.829,1.454,1.721,2.384,1.151.532-.327.76-.984,1.019-1.743Z"/><path class="cls-1" d="m183.91,444.901c.27-.705.104-1.915-.54-2.379-.51-.367-1.48-.378-2.016-.079-1.184.661-1.528,2.022-.997,3.198.388.859,1.586,1.757,2.543,1.125.547-.361.763-1.059,1.01-1.866Z"/><path class="cls-1" d="m180.591,441.652c-.933-.179-2.396.294-2.828,1.194-.342.713-.141,1.917.348,2.515,1.081,1.321,2.842,1.447,4.182.529.978-.671,1.826-2.353.832-3.399-.569-.598-1.481-.712-2.534-.839Z"/><path class="cls-1" d="m179.628,445.365c.7-.123,1.597-.842,1.66-1.586.05-.589-.411-1.378-.912-1.666-1.107-.636-2.372-.256-3.064.742-.506.729-.651,2.131.322,2.598.557.267,1.225.104,1.995-.087Z"/><path class="cls-1" d="m178.007,445.223c.803-.056,1.899-.762,2.058-1.593.126-.658-.301-1.602-.832-1.986-1.173-.848-2.644-.568-3.542.476-.656.762-.985,2.326.057,2.967.596.367,1.368.262,2.259.137Z"/><path class="cls-1" d="m176.848,444.373c.662-.213,1.437-1.03,1.399-1.761-.03-.578-.582-1.282-1.107-1.495-1.159-.47-2.336.068-2.875,1.128-.394.775-.348,2.155.658,2.478.576.185,1.202-.062,1.924-.35Z"/><path class="cls-1" d="m176.417,441.846c-.079-.755-.78-1.766-1.568-1.888-.625-.097-1.5.335-1.845.849-.761,1.133-.45,2.511.563,3.324.74.594,2.224.853,2.795-.15.326-.574.202-1.298.056-2.134Z"/><path class="cls-1" d="m174.732,442.275c.241-.628.093-1.708-.481-2.121-.454-.327-1.32-.337-1.798-.07-1.056.589-1.363,1.803-.889,2.851.346.766,1.414,1.566,2.267,1.003.488-.322.681-.944.9-1.663Z"/><path class="cls-1" d="m173.572,439.339c-.554-.805-1.967-1.517-2.934-1.17-.766.275-1.49,1.302-1.564,2.094-.164,1.749,1.036,3.115,2.681,3.411,1.201.216,3.039-.403,3.067-1.888.016-.849-.57-1.592-1.25-2.447Z"/><path class="cls-1" d="m172.134,438.978c-.339-.688-1.355-1.401-2.145-1.242-.626.126-1.304.842-1.452,1.448-.326,1.339.45,2.536,1.694,2.952.908.304,2.405.032,2.596-1.117.109-.658-.262-1.301-.692-2.041Z"/><path class="cls-1" d="m169.687,440.99c.728-.032,1.737-.644,1.901-1.393.129-.593-.234-1.457-.705-1.817-1.041-.796-2.379-.578-3.217.345-.612.674-.948,2.081-.02,2.686.531.346,1.232.27,2.042.178Z"/><path class="cls-1" d="m169.891,437.572c-.132-.741-.898-1.689-1.686-1.754-.624-.051-1.459.44-1.763.971-.671,1.175-.264,2.514.796,3.245.774.534,2.26.684,2.752-.349.281-.591.107-1.298-.098-2.114Z"/><path class="cls-1" d="m169.176,436.797c-.032-.928-.799-2.222-1.751-2.439-.754-.172-1.859.28-2.324.877-1.026,1.317-.765,3.025.401,4.104.852.788,2.64,1.233,3.423.058.448-.672.358-1.567.252-2.599Z"/><path class="cls-1" d="m167.117,435.376c-.264-.638-1.137-1.339-1.856-1.242-.57.077-1.222.681-1.39,1.217-.371,1.185.257,2.306,1.35,2.754.799.327,2.161.169,2.399-.853.136-.585-.159-1.185-.503-1.876Z"/><path class="cls-1" d="m166.56,434.245c-.291-.91-1.413-1.975-2.415-1.923-.794.041-1.761.798-2.055,1.518-.647,1.59.09,3.207,1.545,3.948,1.063.541,2.957.481,3.403-.9.255-.79-.084-1.651-.478-2.642Z"/><path class="cls-1" d="m165.523,434.304c.112-.921-.447-2.314-1.353-2.675-.717-.286-1.877-.009-2.427.508-1.215,1.141-1.219,2.866-.235,4.11.719.908,2.415,1.622,3.367.583.545-.594.594-1.491.647-2.525Z"/><path class="cls-1" d="m162.845,431.259c-.787-.494-2.289-.583-3.003.084-.565.528-.81,1.698-.576,2.418.516,1.589,2.078,2.329,3.626,1.967,1.13-.264,2.501-1.497,1.966-2.804-.306-.748-1.098-1.175-2.013-1.665Z"/><path class="cls-1" d="m162.624,431.525c-.253-.807-1.242-1.756-2.13-1.715-.704.032-1.564.698-1.827,1.334-.581,1.405.064,2.841,1.349,3.504.939.485,2.617.44,3.019-.781.23-.699-.066-1.462-.411-2.343Z"/><path class="cls-1" d="m160.669,429.838c-.582-.574-1.856-.936-2.596-.498-.586.346-1.019,1.305-.954,1.967.141,1.463,1.343,2.396,2.741,2.379,1.021-.012,2.433-.811,2.222-2.035-.121-.7-.72-1.218-1.413-1.813Z"/><path class="cls-1" d="m160.035,430.186c-.043-.722-.666-1.714-1.412-1.865-.59-.119-1.442.255-1.793.728-.773,1.046-.536,2.37.393,3.188.679.597,2.08.908,2.667-.022.335-.532.248-1.227.145-2.029Z"/><path class="cls-1" d="m158.126,430.971c.585-.351,1.142-1.305.942-1.993-.158-.545-.842-1.094-1.391-1.18-1.211-.19-2.214.587-2.492,1.72-.202.827.149,2.134,1.182,2.218.591.048,1.134-.328,1.758-.765Z"/><path class="cls-1" d="m158.087,429.608c.577-.736.824-2.229.231-3.014-.469-.621-1.614-.989-2.359-.831-1.644.349-2.549,1.835-2.35,3.421.145,1.159,1.235,2.661,2.599,2.263.78-.228,1.291-.975,1.878-1.839Z"/><path class="cls-1" d="m155.611,425.573c-.612-.345-1.75-.357-2.265.172-.408.42-.55,1.312-.348,1.847.447,1.181,1.654,1.684,2.81,1.355.844-.24,1.835-1.222,1.384-2.189-.258-.554-.872-.848-1.581-1.185Z"/><path class="cls-1" d="m155.507,427.687c.72-.482,1.366-1.727,1.069-2.588-.235-.682-1.138-1.335-1.839-1.409-1.548-.164-2.772.884-3.052,2.338-.205,1.062.324,2.698,1.639,2.739.753.024,1.417-.488,2.182-1.081Z"/><path class="cls-1" d="m153.888,426.748c.779-.227,1.707-1.157,1.686-2.009-.017-.675-.639-1.513-1.244-1.778-1.336-.584-2.725.006-3.386,1.226-.483.891-.473,2.501.691,2.909.665.234,1.404-.035,2.254-.349Z"/><path class="cls-1" d="m152.112,421.841c-.703-.162-1.828.156-2.181.828-.28.532-.161,1.452.194,1.921.784,1.034,2.119,1.179,3.162.519.762-.482,1.453-1.736.727-2.559-.415-.47-1.105-.582-1.902-.708Z"/><path class="cls-1" d="m152.954,423.251c.417-.708.457-2.038-.151-2.652-.481-.486-1.522-.673-2.152-.448-1.391.496-2.006,1.896-1.648,3.255.262.992,1.387,2.173,2.529,1.667.653-.289,1.011-1,1.421-1.822Z"/><path class="cls-1" d="m152.139,421.446c.192-.818-.172-2.13-.952-2.545-.618-.329-1.69-.195-2.237.215-1.208.907-1.384,2.461-.621,3.679.557.89,2.014,1.702,2.976.861.55-.481.684-1.284.835-2.21Z"/><path class="cls-1" d="m149.614,422.386c.919-.095,2.15-.946,2.3-1.906.119-.76-.406-1.826-1.03-2.246-1.378-.928-3.055-.551-4.045.681-.723.899-1.041,2.705.178,3.401.698.398,1.58.248,2.597.071Z"/><path class="cls-1" d="m150.021,417.463c-.431-.873-1.724-1.776-2.727-1.573-.794.161-1.655,1.072-1.841,1.842-.411,1.702.577,3.22,2.157,3.746,1.154.384,3.055.036,3.294-1.424.137-.835-.335-1.652-.883-2.591Z"/><path class="cls-1" d="m147.354,419.304c.634-.038,1.503-.587,1.635-1.241.104-.518-.225-1.265-.641-1.572-.918-.677-2.081-.468-2.797.349-.523.596-.794,1.826.023,2.34.467.294,1.077.216,1.78.125Z"/><path class="cls-1" d="m147.391,417.618c.509-.469.865-1.532.525-2.175-.27-.509-1.063-.914-1.626-.886-1.243.061-2.08,1.04-2.122,2.223-.031.864.589,2.091,1.633,1.961.597-.074,1.059-.56,1.59-1.123Z"/><path class="cls-1" d="m145.464,417.698c.942-.031,2.254-.81,2.475-1.775.175-.764-.283-1.886-.888-2.358-1.335-1.042-3.067-.777-4.162.405-.8.863-1.252,2.677-.061,3.471.681.454,1.589.364,2.636.257Z"/><path class="cls-1" d="m145.882,413.694c-.023-.696-.599-1.667-1.313-1.83-.565-.129-1.395.21-1.744.657-.77.988-.575,2.269.299,3.079.638.591,1.98.926,2.568.045.336-.504.27-1.175.19-1.95Z"/><path class="cls-1" d="m145.184,411.151c-.49-.829-1.833-1.625-2.807-1.349-.772.218-1.553,1.18-1.68,1.954-.279,1.709.808,3.134,2.406,3.536,1.167.294,3.017-.191,3.145-1.65.073-.834-.453-1.605-1.064-2.491Z"/><path class="cls-1" d="m144.943,411.726c.274-.942-.07-2.494-.954-3.026-.7-.421-1.959-.332-2.622.114-1.464.984-1.765,2.784-.95,4.252.595,1.072,2.244,2.108,3.417,1.186.671-.527.876-1.455,1.109-2.526Z"/><path class="cls-1" d="m141.978,412.173c.818-.013,1.97-.668,2.177-1.503.164-.661-.216-1.643-.734-2.062-1.143-.926-2.652-.723-3.622.286-.708.737-1.129,2.306-.107,3.014.585.405,1.374.341,2.286.264Z"/><path class="cls-1" d="m142.762,407.888c-.228-.827-1.195-1.825-2.097-1.816-.714.007-1.611.651-1.9,1.286-.64,1.404-.038,2.882,1.241,3.601.934.525,2.637.541,3.088-.682.258-.7-.014-1.485-.332-2.389Z"/><path class="cls-1" d="m141.648,407.14c-.028-.687-.603-1.64-1.309-1.796-.559-.123-1.375.217-1.716.661-.753.98-.55,2.243.319,3.035.634.579,1.961.898,2.534.025.328-.5.257-1.162.172-1.925Z"/><path class="cls-1" d="m141.373,406.35c.208-.872-.177-2.273-1.007-2.718-.658-.353-1.803-.214-2.388.222-1.292.964-1.485,2.621-.675,3.923.592.951,2.143,1.822,3.172.928.588-.511.734-1.367.898-2.356Z"/><path class="cls-1" d="m139.965,405.264c.258-.64.126-1.75-.455-2.184-.46-.344-1.347-.369-1.843-.104-1.094.586-1.43,1.824-.963,2.908.341.791,1.422,1.632,2.307,1.07.506-.322.715-.956.953-1.69Z"/><path class="cls-1" d="m138.504,401.915c-.568-.53-1.787-.839-2.478-.404-.547.344-.932,1.266-.854,1.893.173,1.385,1.338,2.239,2.665,2.186.969-.039,2.289-.835,2.056-1.991-.133-.662-.716-1.138-1.39-1.684Z"/><path class="cls-1" d="m137.752,400.973c-.41-.512-1.39-.92-2.02-.641-.499.221-.934.943-.945,1.477-.025,1.178.843,2.034,1.958,2.153.814.087,2.014-.416,1.961-1.411-.03-.569-.458-1.038-.954-1.577Z"/><path class="cls-1" d="m136.154,399.141c-.642-.21-1.718-.009-2.104.587-.306.472-.273,1.341.018,1.807.643,1.03,1.876,1.278,2.904.751.751-.385,1.502-1.496.895-2.324-.347-.474-.981-.636-1.713-.821Z"/><path class="cls-1" d="m137.435,398.863c-.094-.922-.945-2.157-1.907-2.309-.762-.121-1.831.404-2.254,1.029-.933,1.38-.557,3.061.675,4.056.9.727,2.71,1.049,3.41-.173.4-.699.251-1.583.075-2.603Z"/><path class="cls-1" d="m135.365,396.256c-.655-.487-1.965-.667-2.635-.132-.531.424-.825,1.431-.67,2.077.343,1.426,1.66,2.182,3.04,1.971,1.008-.154,2.293-1.14,1.914-2.321-.217-.676-.881-1.104-1.649-1.596Z"/></g></g><g><path class="cls-1" d="m237.307,421.832s-36.946,21.297-35.776,47.961c0,0,16.256-1.692,35.776-47.961Z"/><g><path class="cls-1" d="m237.106,420.309c-.776-.144-1.989.256-2.344,1.006-.281.594-.108,1.593.301,2.088.904,1.092,2.368,1.188,3.477.419.809-.562,1.506-1.964.675-2.828-.475-.494-1.234-.584-2.109-.685Z"/><path class="cls-1" d="m238.279,424.613c.464-.679.593-2.003.028-2.656-.448-.517-1.473-.774-2.117-.591-1.421.402-2.129,1.757-1.862,3.137.195,1.008,1.238,2.261,2.411,1.833.671-.245,1.076-.93,1.54-1.722Z"/><path class="cls-1" d="m235.923,423.012c-.798-.224-2.104.08-2.546.831-.35.594-.264,1.656.118,2.212.843,1.228,2.365,1.467,3.597.766.9-.511,1.761-1.912.973-2.894-.45-.562-1.235-.728-2.142-.915Z"/><path class="cls-1" d="m235.334,424.346c-.815-.266-2.18-.009-2.67.749-.388.6-.344,1.702.026,2.294.818,1.307,2.383,1.619,3.687.949.953-.49,1.904-1.901,1.132-2.951-.442-.601-1.246-.806-2.176-1.04Z"/><path class="cls-1" d="m234.535,429.949c.801.042,1.97-.522,2.228-1.324.204-.635-.102-1.62-.58-2.064-1.056-.981-2.544-.883-3.558.039-.741.673-1.257,2.178-.305,2.939.544.435,1.32.425,2.216.41Z"/><path class="cls-1" d="m235.197,427.964c-.419-.692-1.552-1.348-2.368-1.109-.646.19-1.294,1.004-1.394,1.655-.22,1.437.705,2.624,2.05,2.948.982.237,2.531-.186,2.626-1.411.054-.701-.394-1.343-.914-2.082Z"/><path class="cls-1" d="m234.614,431.431c.387-.602.468-1.758-.039-2.313-.402-.44-1.301-.638-1.857-.464-1.228.384-1.811,1.58-1.546,2.775.194.872,1.132,1.939,2.142,1.538.578-.229.914-.835,1.299-1.536Z"/><path class="cls-1" d="m234.532,431.827c.039-.899-.605-2.205-1.508-2.487-.715-.223-1.817.131-2.31.672-1.09,1.194-.966,2.863.079,3.993.763.825,2.457,1.389,3.301.313.483-.615.464-1.486.438-2.491Z"/><path class="cls-1" d="m233.496,434.617c.555-.677.816-2.07.278-2.816-.427-.591-1.491-.959-2.191-.826-1.546.294-2.423,1.665-2.269,3.154.113,1.087,1.102,2.515,2.387,2.171.735-.197,1.229-.886,1.795-1.683Z"/><path class="cls-1" d="m232.249,434.057c-.234-.584-1.022-1.231-1.679-1.15-.52.064-1.12.608-1.279,1.095-.35,1.076.211,2.104,1.203,2.522.724.305,1.967.176,2.194-.753.13-.532-.133-1.081-.44-1.714Z"/><path class="cls-1" d="m230.754,437.853c.641-.122,1.456-.794,1.504-1.478.038-.542-.395-1.26-.858-1.519-1.024-.571-2.181-.205-2.805.72-.455.676-.571,1.965.328,2.382.515.238,1.126.08,1.831-.105Z"/><path class="cls-1" d="m230.18,439.987c.933-.119,2.164-1.015,2.293-1.994.103-.776-.457-1.848-1.102-2.26-1.424-.911-3.12-.486-4.098.79-.714.932-.994,2.777.264,3.455.719.388,1.613.214,2.643.009Z"/><path class="cls-1" d="m229.369,437.349c-.631-.326-1.782-.297-2.283.257-.397.439-.508,1.346-.284,1.879.495,1.177,1.733,1.641,2.889,1.267.844-.274,1.81-1.301,1.319-2.263-.281-.55-.912-.825-1.641-1.14Z"/><path class="cls-1" d="m228.485,438.104c-.891-.291-2.382-.01-2.917.817-.424.655-.377,1.859.028,2.506.894,1.428,2.603,1.77,4.029,1.038,1.041-.535,2.081-2.077,1.238-3.225-.482-.657-1.361-.881-2.377-1.137Z"/><path class="cls-1" d="m229.172,440.398c-.458-.765-1.704-1.494-2.604-1.234-.713.206-1.431,1.099-1.544,1.816-.25,1.583.764,2.895,2.244,3.259,1.081.266,2.79-.192,2.901-1.542.063-.772-.427-1.482-.997-2.299Z"/><path class="cls-1" d="m228.085,444.154c.428-.462.675-1.451.32-2.01-.281-.442-1.029-.752-1.537-.686-1.122.145-1.811,1.092-1.764,2.167.034.785.684,1.853,1.62,1.66.536-.11.92-.583,1.361-1.132Z"/><path class="cls-1" d="m227.582,446.045c.633-.506,1.138-1.718.794-2.497-.273-.617-1.166-1.155-1.825-1.17-1.457-.032-2.516,1.042-2.663,2.42-.108,1.007.514,2.491,1.744,2.426.704-.037,1.284-.566,1.95-1.179Z"/><path class="cls-1" d="m227.081,444.742c-.338-.818-1.455-1.716-2.378-1.593-.73.098-1.566.871-1.782,1.559-.477,1.518.327,2.955,1.728,3.529,1.023.419,2.769.219,3.075-1.091.175-.749-.203-1.518-.643-2.404Z"/><path class="cls-1" d="m226.518,446.589c-.098-.908-.944-2.12-1.892-2.264-.751-.114-1.802.409-2.215,1.027-.911,1.365-.532,3.02.689,3.993.891.711,2.677,1.018,3.359-.19.39-.691.238-1.562.059-2.566Z"/><path class="cls-1" d="m225.506,449.26c.432-.772.443-2.204-.226-2.85-.529-.512-1.653-.688-2.325-.431-1.485.567-2.113,2.088-1.694,3.541.306,1.061,1.544,2.305,2.76,1.733.696-.327,1.064-1.1,1.485-1.994Z"/><path class="cls-1" d="m224.917,449.69c.123-.941-.435-2.372-1.357-2.75-.731-.299-1.92-.028-2.488.495-1.254,1.156-1.276,2.92-.281,4.202.726.936,2.455,1.683,3.439.63.563-.602.623-1.519.687-2.577Z"/><path class="cls-1" d="m223.466,450.251c-.189-.769-1.055-1.713-1.887-1.728-.659-.012-1.502.559-1.785,1.138-.626,1.278-.109,2.657,1.052,3.353.848.508,2.418.567,2.865-.55.256-.639.025-1.37-.245-2.212Z"/><path class="cls-1" d="m222.745,452.728c.284-.758.098-2.055-.596-2.547-.549-.39-1.59-.395-2.163-.07-1.265.718-1.624,2.179-1.046,3.437.423.918,1.714,1.873,2.736,1.188.584-.392.811-1.142,1.069-2.008Z"/><path class="cls-1" d="m220.223,455.882c.905-.009,2.183-.728,2.416-1.65.185-.73-.23-1.818-.8-2.284-1.259-1.03-2.929-.815-4.007.296-.787.811-1.262,2.544-.135,3.333.644.451,1.518.385,2.526.305Z"/><path class="cls-1" d="m221.23,454.051c-.175-.937-1.152-2.13-2.151-2.204-.791-.059-1.842.57-2.222,1.246-.838,1.493-.31,3.185,1.038,4.099.985.668,2.867.844,3.48-.467.351-.75.123-1.644-.145-2.674Z"/><path class="cls-1" d="m220.269,455.457c-.13-.9-1.016-2.077-1.965-2.186-.752-.087-1.78.472-2.168,1.102-.858,1.392-.421,3.026.83,3.951.913.676,2.702.917,3.337-.31.364-.702.181-1.563-.033-2.557Z"/><path class="cls-1" d="m217.469,459.492c.813.011,1.977-.606,2.206-1.43.182-.652-.167-1.638-.67-2.07-1.109-.953-2.614-.795-3.606.179-.725.712-1.189,2.258-.194,2.991.569.42,1.355.379,2.263.329Z"/><path class="cls-1" d="m218.673,458.042c-.107-.969-1.013-2.26-2.026-2.412-.802-.12-1.923.441-2.361,1.102-.969,1.459-.559,3.225.746,4.26.953.756,2.86,1.079,3.585-.212.415-.738.25-1.667.056-2.739Z"/><path class="cls-1" d="m216.999,458.946c-.211-.765-1.105-1.688-1.94-1.679-.661.007-1.49.602-1.758,1.19-.591,1.298-.035,2.666,1.148,3.331.864.486,2.439.5,2.856-.631.239-.647-.013-1.373-.307-2.21Z"/><path class="cls-1" d="m215.93,460.899c.128-.729-.258-1.864-.964-2.19-.56-.258-1.496-.088-1.957.301-1.017.858-1.094,2.233-.363,3.266.534.755,1.856,1.396,2.66.609.46-.45.537-1.163.624-1.985Z"/><path class="cls-1" d="m213.124,463.688c.68.03,1.668-.457,1.882-1.14.169-.541-.099-1.374-.508-1.748-.904-.825-2.166-.731-3.021.059-.624.577-1.051,1.859-.237,2.497.465.365,1.124.351,1.884.332Z"/><path class="cls-1" d="m213.724,463.031c.117-.743-.295-1.888-1.018-2.207-.573-.252-1.521-.062-1.982.34-1.018.889-1.072,2.287-.31,3.323.556.757,1.91,1.385,2.712.571.459-.465.525-1.19.599-2.027Z"/><path class="cls-1" d="m211.989,463.136c-.299-.566-1.164-1.137-1.82-.986-.519.12-1.069.733-1.178,1.243-.24,1.126.436,2.106,1.484,2.424.765.232,2.008-.03,2.14-.994.075-.551-.249-1.08-.626-1.688Z"/><path class="cls-1" d="m211.588,465.137c.101-.785-.368-1.978-1.139-2.291-.611-.248-1.602-.019-2.075.419-1.044.967-1.057,2.44-.224,3.507.608.779,2.052,1.398,2.871.517.468-.504.516-1.269.567-2.152Z"/><path class="cls-1" d="m210.222,466.706c.279-.662.159-1.819-.438-2.28-.473-.365-1.396-.406-1.916-.138-1.147.592-1.518,1.875-1.049,3.011.342.829,1.454,1.721,2.384,1.151.532-.327.76-.984,1.019-1.743Z"/><path class="cls-1" d="m208.984,467.454c.27-.705.104-1.915-.54-2.379-.51-.367-1.48-.378-2.016-.079-1.184.661-1.528,2.022-.997,3.198.388.859,1.586,1.757,2.543,1.125.547-.361.763-1.059,1.01-1.866Z"/><path class="cls-1" d="m205.818,465.424c-.933-.179-2.396.294-2.828,1.194-.342.713-.141,1.917.348,2.515,1.081,1.321,2.842,1.447,4.182.529.978-.671,1.826-2.353.832-3.399-.569-.598-1.481-.712-2.534-.839Z"/><path class="cls-1" d="m205.009,470.355c.7-.123,1.597-.842,1.66-1.586.05-.589-.411-1.378-.912-1.666-1.107-.636-2.372-.256-3.064.742-.506.729-.651,2.131.322,2.598.557.267,1.225.104,1.995-.087Z"/><path class="cls-1" d="m203.507,471.353c.803-.056,1.899-.762,2.058-1.593.126-.658-.301-1.602-.832-1.986-1.173-.848-2.644-.568-3.542.476-.656.762-.985,2.326.057,2.967.596.367,1.368.262,2.259.137Z"/><path class="cls-1" d="m202.351,471.374c.662-.213,1.437-1.03,1.399-1.761-.03-.578-.582-1.282-1.107-1.495-1.159-.47-2.336.068-2.875,1.128-.394.775-.348,2.155.658,2.478.576.185,1.202-.062,1.924-.35Z"/><path class="cls-1" d="m203.729,467.771c-.079-.755-.78-1.766-1.568-1.888-.625-.097-1.5.335-1.845.849-.761,1.133-.45,2.511.563,3.324.74.594,2.224.853,2.795-.15.326-.574.202-1.298.056-2.134Z"/><path class="cls-1" d="m203.867,467.109c.241-.628.093-1.708-.481-2.121-.454-.327-1.32-.337-1.798-.07-1.056.589-1.363,1.803-.889,2.851.346.766,1.414,1.566,2.267,1.003.488-.322.681-.944.9-1.663Z"/><path class="cls-1" d="m204.313,463.509c-.554-.805-1.967-1.517-2.934-1.17-.766.275-1.49,1.302-1.564,2.094-.164,1.749,1.036,3.115,2.681,3.411,1.201.216,3.039-.403,3.067-1.888.016-.849-.57-1.592-1.25-2.447Z"/><path class="cls-1" d="m204.433,462.579c-.339-.688-1.355-1.401-2.145-1.242-.626.126-1.304.842-1.452,1.448-.326,1.339.45,2.536,1.694,2.952.908.304,2.405.032,2.596-1.117.109-.658-.262-1.301-.692-2.041Z"/><path class="cls-1" d="m203.543,464.021c.728-.032,1.737-.644,1.901-1.393.129-.593-.234-1.457-.705-1.817-1.041-.796-2.379-.578-3.217.345-.612.674-.948,2.081-.02,2.686.531.346,1.232.27,2.042.178Z"/><path class="cls-1" d="m205.306,460.034c-.132-.741-.898-1.689-1.686-1.754-.624-.051-1.459.44-1.763.971-.671,1.175-.264,2.514.796,3.245.774.534,2.26.684,2.752-.349.281-.591.107-1.298-.098-2.114Z"/><path class="cls-1" d="m206.147,458.69c-.032-.928-.799-2.222-1.751-2.439-.754-.172-1.859.28-2.324.877-1.026,1.317-.765,3.025.401,4.104.852.788,2.64,1.233,3.423.058.448-.672.358-1.567.252-2.599Z"/><path class="cls-1" d="m205.646,456.701c-.264-.638-1.137-1.339-1.856-1.242-.57.077-1.222.681-1.39,1.217-.371,1.185.257,2.306,1.35,2.754.799.327,2.161.169,2.399-.853.136-.585-.159-1.185-.503-1.876Z"/><path class="cls-1" d="m206.647,455c-.291-.91-1.413-1.975-2.415-1.923-.794.041-1.761.798-2.055,1.518-.647,1.59.09,3.207,1.545,3.948,1.063.541,2.957.481,3.403-.9.255-.79-.084-1.651-.478-2.642Z"/><path class="cls-1" d="m207.168,454.49c.112-.921-.447-2.314-1.353-2.675-.717-.286-1.877-.009-2.427.508-1.215,1.141-1.219,2.866-.235,4.11.719.908,2.415,1.622,3.367.583.545-.594.594-1.491.647-2.525Z"/><path class="cls-1" d="m206.578,451.101c-.787-.494-2.289-.583-3.003.084-.565.528-.81,1.698-.576,2.418.516,1.589,2.078,2.329,3.626,1.967,1.13-.264,2.501-1.497,1.966-2.804-.306-.748-1.098-1.175-2.013-1.665Z"/><path class="cls-1" d="m208.454,451.026c-.253-.807-1.242-1.756-2.13-1.715-.704.032-1.564.698-1.827,1.334-.581,1.405.064,2.841,1.349,3.504.939.485,2.617.44,3.019-.781.23-.699-.066-1.462-.411-2.343Z"/><path class="cls-1" d="m208.595,448.998c-.582-.574-1.856-.936-2.596-.498-.586.346-1.019,1.305-.954,1.967.141,1.463,1.343,2.396,2.741,2.379,1.021-.012,2.433-.811,2.222-2.035-.121-.7-.72-1.218-1.413-1.813Z"/><path class="cls-1" d="m210.058,449.006c-.043-.722-.666-1.714-1.412-1.865-.59-.119-1.442.255-1.793.728-.773,1.046-.536,2.37.393,3.188.679.597,2.08.908,2.667-.022.335-.532.248-1.227.145-2.029Z"/><path class="cls-1" d="m210.245,449.45c.585-.351,1.142-1.305.942-1.993-.158-.545-.842-1.094-1.391-1.18-1.211-.19-2.214.587-2.492,1.72-.202.827.149,2.134,1.182,2.218.591.048,1.134-.328,1.758-.765Z"/><path class="cls-1" d="m212.078,447.979c.577-.736.824-2.229.231-3.014-.469-.621-1.614-.989-2.359-.831-1.644.349-2.549,1.835-2.35,3.421.145,1.159,1.235,2.661,2.599,2.263.78-.228,1.291-.975,1.878-1.839Z"/><path class="cls-1" d="m211.466,443.843c-.612-.345-1.75-.357-2.265.172-.408.42-.55,1.312-.348,1.847.447,1.181,1.654,1.684,2.81,1.355.844-.24,1.835-1.222,1.384-2.189-.258-.554-.872-.848-1.581-1.185Z"/><path class="cls-1" d="m213.228,445.856c.72-.482,1.366-1.727,1.069-2.588-.235-.682-1.138-1.335-1.839-1.409-1.548-.164-2.772.884-3.052,2.338-.205,1.062.324,2.698,1.639,2.739.753.024,1.417-.488,2.182-1.081Z"/><path class="cls-1" d="m213.475,444.817c.779-.227,1.707-1.157,1.686-2.009-.017-.675-.639-1.513-1.244-1.778-1.336-.584-2.725.006-3.386,1.226-.483.891-.473,2.501.691,2.909.665.234,1.404-.035,2.254-.349Z"/><path class="cls-1" d="m213.563,439.809c-.703-.162-1.828.156-2.181.828-.28.532-.161,1.452.194,1.921.784,1.034,2.119,1.179,3.162.519.762-.482,1.453-1.736.727-2.559-.415-.47-1.105-.582-1.902-.708Z"/><path class="cls-1" d="m216.475,441.29c.417-.708.457-2.038-.151-2.652-.481-.486-1.522-.673-2.152-.448-1.391.496-2.006,1.896-1.648,3.255.262.992,1.387,2.173,2.529,1.667.653-.289,1.011-1,1.421-1.822Z"/><path class="cls-1" d="m217.781,439.598c.192-.818-.172-2.13-.952-2.545-.618-.329-1.69-.195-2.237.215-1.208.907-1.384,2.461-.621,3.679.557.89,2.014,1.702,2.976.861.55-.481.684-1.284.835-2.21Z"/><path class="cls-1" d="m217.377,440.652c.919-.095,2.15-.946,2.3-1.906.119-.76-.406-1.826-1.03-2.246-1.378-.928-3.055-.551-4.045.681-.723.899-1.041,2.705.178,3.401.698.398,1.58.248,2.597.071Z"/><path class="cls-1" d="m219.905,435.842c-.431-.873-1.724-1.776-2.727-1.573-.794.161-1.655,1.072-1.841,1.842-.411,1.702.577,3.22,2.157,3.746,1.154.384,3.055.036,3.294-1.424.137-.835-.335-1.652-.883-2.591Z"/><path class="cls-1" d="m219.358,437.796c.634-.038,1.503-.587,1.635-1.241.104-.518-.225-1.265-.641-1.572-.918-.677-2.081-.468-2.797.349-.523.596-.794,1.826.023,2.34.467.294,1.077.216,1.78.125Z"/><path class="cls-1" d="m221.516,436.223c.509-.469.865-1.532.525-2.175-.27-.509-1.063-.914-1.626-.886-1.243.061-2.08,1.04-2.122,2.223-.031.864.589,2.091,1.633,1.961.597-.074,1.059-.56,1.59-1.123Z"/><path class="cls-1" d="m221.71,436.417c.942-.031,2.254-.81,2.475-1.775.175-.764-.283-1.886-.888-2.358-1.335-1.042-3.067-.777-4.162.405-.8.863-1.252,2.677-.061,3.471.681.454,1.589.364,2.636.257Z"/><path class="cls-1" d="m224.112,432.628c-.023-.696-.599-1.667-1.313-1.83-.565-.129-1.395.21-1.744.657-.77.988-.575,2.269.299,3.079.638.591,1.98.926,2.568.045.336-.504.27-1.175.19-1.95Z"/><path class="cls-1" d="m225.376,430.314c-.49-.829-1.833-1.625-2.807-1.349-.772.218-1.553,1.18-1.68,1.954-.279,1.709.808,3.134,2.406,3.536,1.167.294,3.017-.191,3.145-1.65.073-.834-.453-1.605-1.064-2.491Z"/><path class="cls-1" d="m227.123,431.15c.274-.942-.07-2.494-.954-3.026-.7-.421-1.959-.332-2.622.114-1.464.984-1.765,2.784-.95,4.252.595,1.072,2.244,2.108,3.417,1.186.671-.527.876-1.455,1.109-2.526Z"/><path class="cls-1" d="m226.249,431.977c.818-.013,1.97-.668,2.177-1.503.164-.661-.216-1.643-.734-2.062-1.143-.926-2.652-.723-3.622.286-.708.737-1.129,2.306-.107,3.014.585.405,1.374.341,2.286.264Z"/><path class="cls-1" d="m229.123,428.071c-.228-.827-1.195-1.825-2.097-1.816-.714.007-1.611.651-1.9,1.286-.64,1.404-.038,2.882,1.241,3.601.934.525,2.637.541,3.088-.682.258-.7-.014-1.485-.332-2.389Z"/><path class="cls-1" d="m230.098,427.702c-.028-.687-.603-1.64-1.309-1.796-.559-.123-1.375.217-1.716.661-.753.98-.55,2.243.319,3.035.634.579,1.961.898,2.534.025.328-.5.257-1.162.172-1.925Z"/><path class="cls-1" d="m231.912,427.292c.208-.872-.177-2.273-1.007-2.718-.658-.353-1.803-.214-2.388.222-1.292.964-1.485,2.621-.675,3.923.592.951,2.143,1.822,3.172.928.588-.511.734-1.367.898-2.356Z"/><path class="cls-1" d="m232.594,426.585c.258-.64.126-1.75-.455-2.184-.46-.344-1.347-.369-1.843-.104-1.094.586-1.43,1.824-.963,2.908.341.791,1.422,1.632,2.307,1.07.506-.322.715-.956.953-1.69Z"/><path class="cls-1" d="m233.223,423.616c-.568-.53-1.787-.839-2.478-.404-.547.344-.932,1.266-.854,1.893.173,1.385,1.338,2.239,2.665,2.186.969-.039,2.289-.835,2.056-1.991-.133-.662-.716-1.138-1.39-1.684Z"/><path class="cls-1" d="m234.492,423.094c-.41-.512-1.39-.92-2.02-.641-.499.221-.934.943-.945,1.477-.025,1.178.843,2.034,1.958,2.153.814.087,2.014-.416,1.961-1.411-.03-.569-.458-1.038-.954-1.577Z"/><path class="cls-1" d="m234.944,421.79c-.642-.21-1.718-.009-2.104.587-.306.472-.273,1.341.018,1.807.643,1.03,1.876,1.278,2.904.751.751-.385,1.502-1.496.895-2.324-.347-.474-.981-.636-1.713-.821Z"/><path class="cls-1" d="m238.28,422.048c-.094-.922-.945-2.157-1.907-2.309-.762-.121-1.831.404-2.254,1.029-.933,1.38-.557,3.061.675,4.056.9.727,2.71,1.049,3.41-.173.4-.699.251-1.583.075-2.603Z"/><path class="cls-1" d="m238.265,419.977c-.655-.487-1.965-.667-2.635-.132-.531.424-.825,1.431-.67,2.077.343,1.426,1.66,2.182,3.04,1.971,1.008-.154,2.293-1.14,1.914-2.321-.217-.676-.881-1.104-1.649-1.596Z"/></g></g><g><path class="cls-1" d="m182.482,437.597c1.494-.061,3.568-1.312,3.907-2.847.269-1.216-.472-2.991-1.437-3.732-2.132-1.638-4.879-1.198-6.603.692-1.259,1.38-1.955,4.265-.055,5.512,1.087.713,2.527.56,4.188.376Z"/><path class="cls-1" d="m186.224,433.389c-.734-1.28-2.773-2.524-4.271-2.122-1.186.319-2.402,1.775-2.611,2.958-.462,2.611,1.174,4.814,3.612,5.462,1.781.473,4.622-.232,4.848-2.462.129-1.276-.661-2.466-1.578-3.835Z"/><path class="cls-1" d="m186.141,440.854c1.3-.287,2.922-1.707,2.98-3.105.046-1.107-.881-2.548-1.842-3.047-2.124-1.103-4.463-.288-5.679,1.637-.888,1.406-1.048,4.043.812,4.839,1.064.455,2.302.096,3.729-.324Z"/><path class="cls-1" d="m189.24,437.27c-.728-1.218-2.71-2.38-4.144-1.967-1.135.327-2.279,1.749-2.46,2.889-.399,2.519,1.212,4.609,3.568,5.19,1.721.424,4.441-.303,4.619-2.452.102-1.229-.678-2.36-1.584-3.661Z"/><path class="cls-1" d="m191.508,441.572c.234-1.331-.471-3.403-1.761-3.998-1.021-.471-2.731-.159-3.572.55-1.856,1.567-1.997,4.076-.661,5.962.976,1.377,3.389,2.548,4.855,1.11.839-.822.981-2.123,1.138-3.625Z"/><path class="cls-1" d="m190.783,446.737c1.34-.235,3.059-1.613,3.18-3.038.096-1.129-.786-2.64-1.746-3.192-2.12-1.22-4.543-.492-5.87,1.419-.969,1.396-1.249,4.081.614,4.977,1.066.512,2.346.2,3.821-.165Z"/><path class="cls-1" d="m194.689,444.919c.044-1.367-.958-3.34-2.335-3.752-1.09-.326-2.758.231-3.499,1.062-1.635,1.835-1.417,4.368.191,6.066,1.174,1.24,3.758,2.067,5.021.417.723-.943.679-2.266.622-3.793Z"/><path class="cls-1" d="m191.896,444.547c-1.236-.161-3.117.574-3.613,1.787-.393.961-.035,2.524.654,3.27,1.52,1.647,3.839,1.673,5.523.365,1.229-.956,2.209-3.228.824-4.521-.792-.739-1.997-.817-3.388-.901Z"/><path class="cls-1" d="m194.611,447.099c-1.043-.898-3.223-1.361-4.416-.543-.945.648-1.563,2.307-1.38,3.412.403,2.441,2.526,3.872,4.873,3.686,1.714-.136,3.995-1.638,3.502-3.67-.282-1.163-1.347-1.965-2.579-2.885Z"/><path class="cls-1" d="m195.88,454.222c.824-.79,1.377-2.553.796-3.602-.461-.831-1.781-1.471-2.707-1.408-2.046.141-3.394,1.78-3.425,3.731-.023,1.425,1.037,3.426,2.753,3.179.982-.141,1.727-.957,2.584-1.901Z"/><path class="cls-1" d="m197.523,453.345c-.373-1.33-1.939-2.928-3.392-2.906-1.15.017-2.588,1.061-3.049,2.087-1.018,2.265-.037,4.641,2.028,5.788,1.509.838,4.25.849,4.966-1.125.41-1.129-.035-2.391-.554-3.844Z"/><path class="cls-1" d="m198.152,455.45c-.484-1.291-2.176-2.748-3.619-2.603-1.142.115-2.484,1.274-2.856,2.333-.821,2.339.355,4.618,2.507,5.584,1.571.706,4.299.485,4.844-1.538.312-1.157-.237-2.374-.876-3.776Z"/><path class="cls-1" d="m197.532,456.509c-1.076-.836-3.255-1.186-4.394-.317-.902.688-1.431,2.359-1.195,3.443.52,2.394,2.691,3.703,5.002,3.402,1.688-.22,3.869-1.818,3.28-3.803-.337-1.136-1.429-1.876-2.693-2.725Z"/><path class="cls-1" d="m200.459,460.812c-.193-1.545-1.671-3.589-3.294-3.808-1.285-.173-3.063.749-3.748,1.816-1.514,2.354-.819,5.167,1.291,6.792,1.541,1.187,4.596,1.659,5.724-.421.646-1.19.361-2.671.027-4.378Z"/><path class="cls-1" d="m199.969,464.316c.166-.987-.367-2.517-1.326-2.951-.759-.343-2.023-.103-2.642.427-1.366,1.17-1.456,3.029-.457,4.418.73,1.014,2.523,1.868,3.601.795.617-.613.715-1.577.823-2.69Z"/><path class="cls-1" d="m200.516,469.249c1.133-.866,2.067-2.977,1.492-4.361-.456-1.096-2.005-2.076-3.165-2.127-2.561-.112-4.464,1.735-4.776,4.154-.228,1.766.808,4.399,2.974,4.333,1.239-.038,2.279-.946,3.475-1.999Z"/><path class="cls-1" d="m200.85,472.121c1.289-.838,2.467-3.031,1.962-4.566-.4-1.216-1.986-2.397-3.228-2.547-2.744-.33-4.942,1.499-5.475,4.074-.39,1.88.508,4.796,2.842,4.902,1.335.061,2.528-.83,3.9-1.864Z"/><path class="cls-1" d="m198.748,467.812c-1.479-.323-3.83.372-4.555,1.788-.574,1.122-.303,3.05.453,4.023,1.669,2.149,4.471,2.421,6.643,1.012,1.586-1.029,3.006-3.677,1.464-5.384-.882-.976-2.331-1.195-4.005-1.44Z"/><path class="cls-1" d="m200.923,475.856c.789-.679,1.379-2.256.902-3.24-.378-.779-1.549-1.427-2.396-1.415-1.87.027-3.178,1.454-3.302,3.229-.091,1.296.775,3.17,2.35,3.03.901-.08,1.62-.786,2.446-1.603Z"/><path class="cls-1" d="m201.393,478.306c.79-.73,1.344-2.381.815-3.38-.419-.791-1.652-1.419-2.526-1.376-1.931.095-3.231,1.616-3.296,3.454-.047,1.342.915,3.248,2.537,3.046.928-.115,1.645-.87,2.47-1.744Z"/><path class="cls-1" d="m201.738,480.964c.864-.719,1.531-2.413,1.032-3.485-.395-.849-1.648-1.57-2.563-1.572-2.021-.004-3.46,1.514-3.626,3.43-.121,1.399.781,3.44,2.485,3.316.975-.071,1.764-.82,2.672-1.689Z"/><path class="cls-1" d="m202.663,482.451c.523-1.006.482-2.842-.4-3.644-.699-.635-2.146-.817-2.998-.462-1.881.785-2.627,2.758-2.034,4.605.433,1.349,2.069,2.894,3.606,2.114.879-.446,1.321-1.451,1.826-2.613Z"/><path class="cls-1" d="m203.21,482.233c-.499-1.255-2.186-2.649-3.596-2.479-1.117.135-2.408,1.297-2.751,2.342-.758,2.307.439,4.517,2.565,5.421,1.553.66,4.22.39,4.714-1.602.283-1.14-.279-2.321-.933-3.682Z"/><path class="cls-1" d="m200.642,482.937c-1.363-.244-3.488.47-4.102,1.79-.487,1.045-.173,2.798.551,3.661,1.598,1.908,4.169,2.06,6.106.698,1.414-.995,2.622-3.463,1.155-4.97-.839-.862-2.171-1.012-3.709-1.179Z"/><path class="cls-1" d="m204.285,487.876c-.195-1.439-1.593-3.33-3.108-3.518-1.2-.149-2.848.729-3.477,1.729-1.389,2.21-.714,4.825,1.27,6.32,1.448,1.092,4.301,1.502,5.333-.448.59-1.116.311-2.494-.018-4.083Z"/><path class="cls-1" d="m203.488,491.033c.006-1.052-.804-2.55-1.871-2.839-.845-.229-2.117.233-2.669.887-1.221,1.444-1.002,3.388.268,4.661.928.93,2.932,1.514,3.87.221.537-.74.477-1.757.402-2.929Z"/><path class="cls-1" d="m202.961,492.296c-.506-.888-1.915-1.754-2.953-1.479-.822.218-1.667,1.224-1.814,2.043-.325,1.807.803,3.336,2.49,3.79,1.232.331,3.201-.151,3.362-1.695.092-.883-.453-1.709-1.085-2.659Z"/><path class="cls-1" d="m202.132,499.579c1.286-.228,2.934-1.554,3.048-2.922.09-1.084-.759-2.533-1.682-3.062-2.037-1.167-4.363-.464-5.633,1.373-.928,1.342-1.192,3.92.599,4.777,1.024.49,2.252.188,3.668-.166Z"/><path class="cls-1" d="m203.107,500.985c.924-.635,1.741-2.255,1.345-3.365-.314-.879-1.492-1.71-2.4-1.796-2.006-.189-3.574,1.185-3.914,3.071-.249,1.378.46,3.486,2.162,3.52.974.019,1.827-.652,2.808-1.431Z"/><path class="cls-1" d="m201.378,498.423c-1.14-.249-2.951.286-3.51,1.378-.442.864-.233,2.35.349,3.1,1.286,1.656,3.445,1.866,5.119.78,1.222-.793,2.316-2.833,1.128-4.148-.68-.752-1.796-.92-3.086-1.109Z"/><path class="cls-1" d="m204.972,503.402c.042-1.44-1.02-3.517-2.473-3.947-1.15-.34-2.906.252-3.684,1.13-1.718,1.939-1.479,4.608.22,6.392,1.241,1.303,3.967,2.166,5.293.424.759-.997.708-2.391.643-3.999Z"/><path class="cls-1" d="m204.828,505.739c-.032-1.357-1.134-3.257-2.521-3.589-1.099-.263-2.72.381-3.408,1.245-1.519,1.908-1.163,4.407.524,6,1.232,1.164,3.838,1.841,4.999.137.664-.975.547-2.283.407-3.793Z"/><path class="cls-1" d="m203.062,505.154c-1.33-.862-3.89-1.048-5.123.072-.976.887-1.422,2.877-1.04,4.109.842,2.722,3.488,4.022,6.136,3.442,1.934-.423,4.302-2.494,3.421-4.735-.504-1.282-1.844-2.031-3.393-2.888Z"/><path class="cls-1" d="m203.216,513.225c.836-.59,1.564-2.078,1.189-3.086-.297-.798-1.381-1.543-2.211-1.611-1.833-.15-3.248,1.122-3.537,2.847-.212,1.26.459,3.176,2.013,3.188.889.007,1.66-.616,2.546-1.338Z"/><path class="cls-1" d="m204.38,516.388c1.173-1.016,2.046-3.372,1.329-4.837-.568-1.16-2.318-2.121-3.58-2.098-2.789.05-4.733,2.184-4.909,4.832-.129,1.934,1.173,4.725,3.521,4.507,1.343-.125,2.412-1.18,3.641-2.404Z"/><path class="cls-1" d="m203.022,514.233c-.702-.806-2.325-1.403-3.332-.907-.798.393-1.456,1.599-1.439,2.468.039,1.92,1.512,3.255,3.335,3.372,1.332.086,3.251-.815,3.097-2.431-.088-.924-.817-1.659-1.661-2.502Z"/><path class="cls-1" d="m202.935,515.863c-1.035-.846-3.164-1.242-4.302-.417-.901.653-1.46,2.279-1.255,3.348.452,2.36,2.55,3.697,4.824,3.458,1.661-.175,3.839-1.69,3.309-3.651-.303-1.122-1.357-1.874-2.576-2.738Z"/><path class="cls-1" d="m201.472,518.359c-1.122-.302-2.949.143-3.557,1.202-.482.838-.345,2.326.198,3.1,1.199,1.709,3.337,2.021,5.053,1.022,1.254-.73,2.44-2.706,1.322-4.071-.64-.781-1.742-1.002-3.016-1.252Z"/><path class="cls-1" d="m204.159,523.315c.006-1.218-.934-2.951-2.17-3.284-.979-.264-2.45.273-3.089,1.03-1.411,1.673-1.155,3.924.317,5.396,1.075,1.075,3.396,1.749,4.481.25.62-.858.549-2.034.461-3.392Z"/><path class="cls-1" d="m203.214,524.332c-.611-1.003-2.26-1.95-3.443-1.598-.937.279-1.874,1.464-2.015,2.409-.312,2.088,1.036,3.806,2.99,4.27,1.427.339,3.673-.283,3.805-2.062.076-1.018-.578-1.948-1.337-3.018Z"/><path class="cls-1" d="m201.48,532.244c1.382-.048,3.307-1.193,3.63-2.611.255-1.123-.42-2.769-1.309-3.46-1.963-1.527-4.505-1.135-6.11.603-1.172,1.269-1.832,3.934-.082,5.097,1.001.666,2.334.532,3.871.371Z"/></g></svg>