<?xml version="1.0" encoding="UTF-8"?><svg id="_레이어_1" xmlns="http://www.w3.org/2000/svg" viewBox="0 0 400 560"><defs><style>.cls-1{fill:#82a03b;}</style></defs><g><path class="cls-1" d="m139.406,397.988s23.593,48.333,57.242,49.174c0,0-.719-20.6-57.242-49.174Z"/><g><path class="cls-1" d="m141.189,396.797c-.379-.725-1.481-1.459-2.319-1.269-.664.151-1.369.931-1.511,1.581-.313,1.436.546,2.692,1.882,3.104.976.301,2.566-.028,2.739-1.258.099-.704-.313-1.38-.791-2.159Z"/><path class="cls-1" d="m142.554,397.521c-.4-.736-1.541-1.47-2.397-1.261-.678.165-1.387.976-1.521,1.645-.297,1.476.603,2.749,1.979,3.149,1.005.292,2.627-.071,2.785-1.334.09-.723-.343-1.409-.846-2.198Z"/><path class="cls-1" d="m143.624,400.737c.521-.476.89-1.558.546-2.216-.272-.521-1.08-.937-1.654-.911-1.268.056-2.126,1.05-2.175,2.257-.035.881.59,2.135,1.655,2.008.609-.073,1.083-.566,1.627-1.137Z"/><path class="cls-1" d="m144.212,402.621c.899-.115,2.085-.978,2.21-1.922.099-.748-.441-1.781-1.062-2.178-1.372-.877-3.007-.469-3.949.762-.688.898-.958,2.676.254,3.33.693.374,1.554.206,2.547.009Z"/><path class="cls-1" d="m147.032,401.96c.435-.775.448-2.213-.222-2.863-.531-.515-1.659-.693-2.335-.436-1.492.568-2.126,2.094-1.707,3.554.305,1.066,1.547,2.317,2.77,1.745.699-.327,1.07-1.103,1.495-2Z"/><path class="cls-1" d="m147.222,403.5c.654-.281,1.364-1.19,1.253-1.931-.087-.586-.719-1.25-1.274-1.415-1.227-.366-2.373.297-2.819,1.431-.325.828-.144,2.229.913,2.46.605.132,1.219-.181,1.926-.545Z"/><path class="cls-1" d="m148.305,401.111c-.586-.38-1.714-.463-2.257.031-.43.391-.627,1.267-.459,1.81.371,1.199,1.536,1.773,2.703,1.518.852-.186,1.896-1.098,1.508-2.086-.222-.565-.812-.895-1.495-1.273Z"/><path class="cls-1" d="m149.702,404.944c.594-.208,1.276-.965,1.224-1.625-.041-.522-.556-1.146-1.036-1.327-1.059-.398-2.111.116-2.574,1.087-.338.71-.265,1.957.653,2.226.525.154,1.086-.084,1.732-.362Z"/><path class="cls-1" d="m151.514,405.657c.597-.392,1.139-1.414.901-2.126-.189-.564-.928-1.109-1.506-1.176-1.276-.147-2.293.708-2.535,1.905-.177.874.247,2.227,1.331,2.271.62.025,1.172-.391,1.808-.875Z"/><path class="cls-1" d="m153.128,405.824c.376-.535.494-1.586.052-2.112-.35-.417-1.163-.632-1.677-.494-1.135.304-1.713,1.373-1.516,2.474.144.804.959,1.812,1.897,1.485.536-.187.866-.727,1.244-1.352Z"/><path class="cls-1" d="m154.905,407.232c.645-.662,1.046-2.103.547-2.936-.395-.66-1.481-1.143-2.229-1.066-1.652.169-2.699,1.532-2.671,3.112.02,1.154.932,2.745,2.314,2.498.791-.141,1.372-.821,2.04-1.608Z"/><path class="cls-1" d="m155.738,405.189c-.478-.642-1.656-1.182-2.437-.87-.619.248-1.18,1.11-1.217,1.761-.082,1.436.941,2.518,2.296,2.711.99.141,2.475-.421,2.454-1.637-.012-.696-.514-1.286-1.096-1.965Z"/><path class="cls-1" d="m156.17,409.219c.718-.085,1.671-.765,1.777-1.517.084-.596-.339-1.424-.831-1.745-1.088-.71-2.395-.396-3.156.579-.555.712-.784,2.128.178,2.658.55.303,1.238.176,2.032.026Z"/><path class="cls-1" d="m158.821,409.93c.773-.593,1.408-2.037,1.012-2.982-.313-.748-1.373-1.415-2.166-1.448-1.75-.072-3.047,1.193-3.256,2.846-.153,1.207.559,3.004,2.039,2.955.846-.028,1.555-.65,2.371-1.371Z"/><path class="cls-1" d="m159.519,407.799c-.392-.527-1.36-.97-2.001-.713-.508.204-.968.912-.999,1.446-.066,1.179.774,2.067,1.886,2.225.812.115,2.032-.347,2.014-1.345-.01-.571-.423-1.056-.901-1.613Z"/><path class="cls-1" d="m161.924,408.891c-.206-.917-1.212-2.058-2.199-2.095-.782-.029-1.795.628-2.145,1.308-.772,1.502-.192,3.15,1.17,4.003.994.623,2.856.729,3.412-.586.318-.752.062-1.625-.239-2.63Z"/><path class="cls-1" d="m162.739,410.602c.119-.654-.221-1.674-.854-1.97-.501-.235-1.342-.086-1.757.26-.917.765-.994,1.998-.343,2.929.475.68,1.658,1.262,2.383.56.415-.402.488-1.041.57-1.778Z"/><path class="cls-1" d="m163.194,409.422c-.694-.434-2.017-.509-2.645.08-.497.466-.71,1.497-.503,2.13.457,1.398,1.834,2.048,3.197,1.727.995-.235,2.201-1.323,1.727-2.473-.271-.658-.969-1.033-1.776-1.463Z"/><path class="cls-1" d="m165.695,411.755c-.023-.782-.665-1.874-1.466-2.06-.634-.148-1.567.229-1.96.73-.869,1.105-.655,2.544.323,3.457.714.667,2.219,1.048,2.882.061.379-.564.307-1.318.221-2.188Z"/><path class="cls-1" d="m166.486,411.552c-.438-.63-1.551-1.184-2.31-.908-.6.219-1.165,1.029-1.22,1.651-.122,1.375.826,2.443,2.119,2.669.944.165,2.386-.329,2.402-1.495.009-.667-.454-1.248-.991-1.917Z"/><path class="cls-1" d="m168.414,413.723c.134-.768-.273-1.962-1.017-2.304-.589-.271-1.575-.09-2.059.319-1.07.904-1.149,2.352-.378,3.438.563.794,1.955,1.467,2.8.638.483-.475.564-1.225.655-2.091Z"/><path class="cls-1" d="m167.741,412.566c-.776-.144-1.989.256-2.344,1.006-.281.594-.108,1.593.301,2.088.904,1.092,2.368,1.188,3.477.419.809-.562,1.506-1.964.675-2.828-.475-.494-1.234-.584-2.109-.685Z"/><path class="cls-1" d="m170.816,416.447c.464-.679.593-2.003.028-2.656-.448-.517-1.473-.774-2.117-.591-1.421.402-2.129,1.757-1.862,3.137.195,1.008,1.238,2.261,2.411,1.833.671-.245,1.076-.93,1.54-1.722Z"/><path class="cls-1" d="m170.361,414.425c-.798-.224-2.104.08-2.546.831-.35.594-.264,1.656.118,2.212.843,1.228,2.365,1.467,3.597.766.9-.511,1.761-1.912.973-2.894-.45-.562-1.235-.728-2.142-.915Z"/><path class="cls-1" d="m171.675,415.337c-.815-.266-2.18-.009-2.67.749-.388.6-.344,1.702.026,2.294.818,1.307,2.383,1.619,3.687.949.953-.49,1.904-1.901,1.132-2.951-.442-.601-1.246-.806-2.176-1.04Z"/><path class="cls-1" d="m172.777,420.517c.801.042,1.97-.522,2.228-1.324.204-.635-.102-1.62-.58-2.064-1.056-.981-2.544-.883-3.558.039-.741.673-1.257,2.178-.305,2.939.544.435,1.32.425,2.216.41Z"/><path class="cls-1" d="m175.342,418.11c-.419-.692-1.552-1.348-2.368-1.109-.646.19-1.294,1.004-1.394,1.655-.22,1.437.705,2.624,2.05,2.948.982.237,2.531-.186,2.626-1.411.054-.701-.394-1.343-.914-2.082Z"/><path class="cls-1" d="m176.66,421.156c.387-.602.468-1.758-.039-2.313-.402-.44-1.301-.638-1.857-.464-1.228.384-1.811,1.58-1.546,2.775.194.872,1.132,1.939,2.142,1.538.578-.229.914-.835,1.299-1.536Z"/><path class="cls-1" d="m178.48,421.129c.039-.899-.605-2.205-1.508-2.487-.715-.223-1.817.131-2.31.672-1.09,1.194-.966,2.863.079,3.993.763.825,2.457,1.389,3.301.313.483-.615.464-1.486.438-2.491Z"/><path class="cls-1" d="m179.346,423.497c.555-.677.816-2.07.278-2.816-.427-.591-1.491-.959-2.191-.826-1.546.294-2.423,1.665-2.269,3.154.113,1.087,1.102,2.515,2.387,2.171.735-.197,1.229-.886,1.795-1.683Z"/><path class="cls-1" d="m180.001,422.516c-.234-.584-1.022-1.231-1.679-1.15-.52.064-1.12.608-1.279,1.095-.35,1.076.211,2.104,1.203,2.522.724.305,1.967.176,2.194-.753.13-.532-.133-1.081-.44-1.714Z"/><path class="cls-1" d="m180.408,425.89c.641-.122,1.456-.794,1.504-1.478.038-.542-.395-1.26-.858-1.519-1.024-.571-2.181-.205-2.805.72-.455.676-.571,1.965.328,2.382.515.238,1.126.08,1.831-.105Z"/><path class="cls-1" d="m181.736,427.602c.933-.119,2.164-1.015,2.293-1.994.103-.776-.457-1.848-1.102-2.26-1.424-.911-3.12-.486-4.098.79-.714.932-.994,2.777.264,3.455.719.388,1.613.214,2.643.009Z"/><path class="cls-1" d="m182.827,424.542c-.631-.326-1.782-.297-2.283.257-.397.439-.508,1.346-.284,1.879.495,1.177,1.733,1.641,2.889,1.267.844-.274,1.81-1.301,1.319-2.263-.281-.55-.912-.825-1.641-1.14Z"/><path class="cls-1" d="m183.845,424.875c-.891-.291-2.382-.01-2.917.817-.424.655-.377,1.859.028,2.506.894,1.428,2.603,1.77,4.029,1.038,1.041-.535,2.081-2.077,1.238-3.225-.482-.657-1.361-.881-2.377-1.137Z"/><path class="cls-1" d="m186.309,426.874c-.458-.765-1.704-1.494-2.604-1.234-.713.206-1.431,1.099-1.544,1.816-.25,1.583.764,2.895,2.244,3.259,1.081.266,2.79-.192,2.901-1.542.063-.772-.427-1.482-.997-2.299Z"/><path class="cls-1" d="m186.913,430.424c.428-.462.675-1.451.32-2.01-.281-.442-1.029-.752-1.537-.686-1.122.145-1.811,1.092-1.764,2.167.034.785.684,1.853,1.62,1.66.536-.11.92-.583,1.361-1.132Z"/><path class="cls-1" d="m188.112,432.115c.633-.506,1.138-1.718.794-2.497-.273-.617-1.166-1.155-1.825-1.17-1.457-.032-2.516,1.042-2.663,2.42-.108,1.007.514,2.491,1.744,2.426.704-.037,1.284-.566,1.95-1.179Z"/><path class="cls-1" d="m189.503,430.724c-.338-.818-1.455-1.716-2.378-1.593-.73.098-1.566.871-1.782,1.559-.477,1.518.327,2.955,1.728,3.529,1.023.419,2.769.219,3.075-1.091.175-.749-.203-1.518-.643-2.404Z"/><path class="cls-1" d="m190.831,432.483c-.098-.908-.944-2.12-1.892-2.264-.751-.114-1.802.409-2.215,1.027-.911,1.365-.532,3.02.689,3.993.891.711,2.677,1.018,3.359-.19.39-.691.238-1.562.059-2.566Z"/><path class="cls-1" d="m191.71,435.066c.432-.772.443-2.204-.226-2.85-.529-.512-1.653-.688-2.325-.431-1.485.567-2.113,2.088-1.694,3.541.306,1.061,1.544,2.305,2.76,1.733.696-.327,1.064-1.1,1.485-1.994Z"/><path class="cls-1" d="m193.012,435.407c.123-.941-.435-2.372-1.357-2.75-.731-.299-1.92-.028-2.488.495-1.254,1.156-1.276,2.92-.281,4.202.726.936,2.455,1.683,3.439.63.563-.602.623-1.519.687-2.577Z"/><path class="cls-1" d="m193.453,435.881c-.189-.769-1.055-1.713-1.887-1.728-.659-.012-1.502.559-1.785,1.138-.626,1.278-.109,2.657,1.052,3.353.848.508,2.418.567,2.865-.55.256-.639.025-1.37-.245-2.212Z"/><path class="cls-1" d="m194.623,438.269c.284-.758.098-2.055-.596-2.547-.549-.39-1.59-.395-2.163-.07-1.265.718-1.624,2.179-1.046,3.437.423.918,1.714,1.873,2.736,1.188.584-.392.811-1.142,1.069-2.008Z"/><path class="cls-1" d="m193.741,441.5c.905-.009,2.183-.728,2.416-1.65.185-.73-.23-1.818-.8-2.284-1.259-1.03-2.929-.815-4.007.296-.787.811-1.262,2.544-.135,3.333.644.451,1.518.385,2.526.305Z"/><path class="cls-1" d="m196.33,439.785c-.175-.937-1.152-2.13-2.151-2.204-.791-.059-1.842.57-2.222,1.246-.838,1.493-.31,3.185,1.038,4.099.985.668,2.867.844,3.48-.467.351-.75.123-1.644-.145-2.674Z"/><path class="cls-1" d="m196.951,441.305c-.13-.9-1.016-2.077-1.965-2.186-.752-.087-1.78.472-2.168,1.102-.858,1.392-.421,3.026.83,3.951.913.676,2.702.917,3.337-.31.364-.702.181-1.563-.033-2.557Z"/><path class="cls-1" d="m195.734,445.456c.813.011,1.977-.606,2.206-1.43.182-.652-.167-1.638-.67-2.07-1.109-.953-2.614-.795-3.606.179-.725.712-1.189,2.258-.194,2.991.569.42,1.355.379,2.263.329Z"/><path class="cls-1" d="m198.522,444.121c-.107-.969-1.013-2.26-2.026-2.412-.802-.12-1.923.441-2.361,1.102-.969,1.459-.559,3.225.746,4.26.953.756,2.86,1.079,3.585-.212.415-.738.25-1.667.056-2.739Z"/><path class="cls-1" d="m198.303,445.463c-.211-.765-1.105-1.688-1.94-1.679-.661.007-1.49.602-1.758,1.19-.591,1.298-.035,2.666,1.148,3.331.864.486,2.439.5,2.856-.631.239-.647-.013-1.373-.307-2.21Z"/><path class="cls-1" d="m197.885,446.996c.128-.729-.258-1.864-.964-2.19-.56-.258-1.496-.088-1.957.301-1.017.858-1.094,2.233-.363,3.266.534.755,1.856,1.396,2.66.609.46-.45.537-1.163.624-1.985Z"/><path class="cls-1" d="m194.701,448.271c.68.03,1.668-.457,1.882-1.14.169-.541-.099-1.374-.508-1.748-.904-.825-2.166-.731-3.021.059-.624.577-1.051,1.859-.237,2.497.465.365,1.124.351,1.884.332Z"/><path class="cls-1" d="m194.923,446.101c.117-.743-.295-1.888-1.018-2.207-.573-.252-1.521-.062-1.982.34-1.018.889-1.072,2.287-.31,3.323.556.757,1.91,1.385,2.712.571.459-.465.525-1.19.599-2.027Z"/><path class="cls-1" d="m192.811,444.692c-.299-.566-1.164-1.137-1.82-.986-.519.12-1.069.733-1.178,1.243-.24,1.126.436,2.106,1.484,2.424.765.232,2.008-.03,2.14-.994.075-.551-.249-1.08-.626-1.688Z"/><path class="cls-1" d="m192.033,445.179c.101-.785-.368-1.978-1.139-2.291-.611-.248-1.602-.019-2.075.419-1.044.967-1.057,2.44-.224,3.507.608.779,2.052,1.398,2.871.517.468-.504.516-1.269.567-2.152Z"/><path class="cls-1" d="m190.3,445.25c.279-.662.159-1.819-.438-2.28-.473-.365-1.396-.406-1.916-.138-1.147.592-1.518,1.875-1.049,3.011.342.829,1.454,1.721,2.384,1.151.532-.327.76-.984,1.019-1.743Z"/><path class="cls-1" d="m188.909,444.778c.27-.705.104-1.915-.54-2.379-.51-.367-1.48-.378-2.016-.079-1.184.661-1.528,2.022-.997,3.198.388.859,1.586,1.757,2.543,1.125.547-.361.763-1.059,1.01-1.866Z"/><path class="cls-1" d="m185.589,441.529c-.933-.179-2.396.294-2.828,1.194-.342.713-.141,1.917.348,2.515,1.081,1.321,2.842,1.447,4.182.529.978-.671,1.826-2.353.832-3.399-.569-.598-1.481-.712-2.534-.839Z"/><path class="cls-1" d="m184.626,445.242c.7-.123,1.597-.842,1.66-1.586.05-.589-.411-1.378-.912-1.666-1.107-.636-2.372-.256-3.064.742-.506.729-.651,2.131.322,2.598.557.267,1.225.104,1.995-.087Z"/><path class="cls-1" d="m183.005,445.1c.803-.056,1.899-.762,2.058-1.593.126-.658-.301-1.602-.832-1.986-1.173-.848-2.644-.568-3.542.476-.656.762-.985,2.326.057,2.967.596.367,1.368.262,2.259.137Z"/><path class="cls-1" d="m181.846,444.25c.662-.213,1.437-1.03,1.399-1.761-.03-.578-.582-1.282-1.107-1.495-1.159-.47-2.336.068-2.875,1.128-.394.775-.348,2.155.658,2.478.576.185,1.202-.062,1.924-.35Z"/><path class="cls-1" d="m181.415,441.723c-.079-.755-.78-1.766-1.568-1.888-.625-.097-1.5.335-1.845.849-.761,1.133-.45,2.511.563,3.324.74.594,2.224.853,2.795-.15.326-.574.202-1.298.056-2.134Z"/><path class="cls-1" d="m179.731,442.152c.241-.628.093-1.708-.481-2.121-.454-.327-1.32-.337-1.798-.07-1.056.589-1.363,1.803-.889,2.851.346.766,1.414,1.566,2.267,1.003.488-.322.681-.944.9-1.663Z"/><path class="cls-1" d="m178.571,439.216c-.554-.805-1.967-1.517-2.934-1.17-.766.275-1.49,1.302-1.564,2.094-.164,1.749,1.036,3.115,2.681,3.411,1.201.216,3.039-.403,3.067-1.888.016-.849-.57-1.592-1.25-2.447Z"/><path class="cls-1" d="m177.133,438.855c-.339-.688-1.355-1.401-2.145-1.242-.626.126-1.304.842-1.452,1.448-.326,1.339.45,2.536,1.694,2.952.908.304,2.405.032,2.596-1.117.109-.658-.262-1.301-.692-2.041Z"/><path class="cls-1" d="m174.685,440.867c.728-.032,1.737-.644,1.901-1.393.129-.593-.234-1.457-.705-1.817-1.041-.796-2.379-.578-3.217.345-.612.674-.948,2.081-.02,2.686.531.346,1.232.27,2.042.178Z"/><path class="cls-1" d="m174.89,437.449c-.132-.741-.898-1.689-1.686-1.754-.624-.051-1.459.44-1.763.971-.671,1.175-.264,2.514.796,3.245.774.534,2.26.684,2.752-.349.281-.591.107-1.298-.098-2.114Z"/><path class="cls-1" d="m174.174,436.674c-.032-.928-.799-2.222-1.751-2.439-.754-.172-1.859.28-2.324.877-1.026,1.317-.765,3.025.401,4.104.852.788,2.64,1.233,3.423.058.448-.672.358-1.567.252-2.599Z"/><path class="cls-1" d="m172.115,435.253c-.264-.638-1.137-1.339-1.856-1.242-.57.077-1.222.681-1.39,1.217-.371,1.185.257,2.306,1.35,2.754.799.327,2.161.169,2.399-.853.136-.585-.159-1.185-.503-1.876Z"/><path class="cls-1" d="m171.559,434.122c-.291-.91-1.413-1.975-2.415-1.923-.794.041-1.761.798-2.055,1.518-.647,1.59.09,3.207,1.545,3.948,1.063.541,2.957.481,3.403-.9.255-.79-.084-1.651-.478-2.642Z"/><path class="cls-1" d="m170.521,434.181c.112-.921-.447-2.314-1.353-2.675-.717-.286-1.877-.009-2.427.508-1.215,1.141-1.219,2.866-.235,4.11.719.908,2.415,1.622,3.367.583.545-.594.594-1.491.647-2.525Z"/><path class="cls-1" d="m167.843,431.136c-.787-.494-2.289-.583-3.003.084-.565.528-.81,1.698-.576,2.418.516,1.589,2.078,2.329,3.626,1.967,1.13-.264,2.501-1.497,1.966-2.804-.306-.748-1.098-1.175-2.013-1.665Z"/><path class="cls-1" d="m167.623,431.402c-.253-.807-1.242-1.756-2.13-1.715-.704.032-1.564.698-1.827,1.334-.581,1.405.064,2.841,1.349,3.504.939.485,2.617.44,3.019-.781.23-.699-.066-1.462-.411-2.343Z"/><path class="cls-1" d="m165.668,429.715c-.582-.574-1.856-.936-2.596-.498-.586.346-1.019,1.305-.954,1.967.141,1.463,1.343,2.396,2.741,2.379,1.021-.012,2.433-.811,2.222-2.035-.121-.7-.72-1.218-1.413-1.813Z"/><path class="cls-1" d="m165.034,430.063c-.043-.722-.666-1.714-1.412-1.865-.59-.119-1.442.255-1.793.728-.773,1.046-.536,2.37.393,3.188.679.597,2.08.908,2.667-.022.335-.532.248-1.227.145-2.029Z"/><path class="cls-1" d="m163.124,430.848c.585-.351,1.142-1.305.942-1.993-.158-.545-.842-1.094-1.391-1.18-1.211-.19-2.214.587-2.492,1.72-.202.827.149,2.134,1.182,2.218.591.048,1.134-.328,1.758-.765Z"/><path class="cls-1" d="m163.086,429.485c.577-.736.824-2.229.231-3.014-.469-.621-1.614-.989-2.359-.831-1.644.349-2.549,1.835-2.35,3.421.145,1.159,1.235,2.661,2.599,2.263.78-.228,1.291-.975,1.878-1.839Z"/><path class="cls-1" d="m160.609,425.45c-.612-.345-1.75-.357-2.265.172-.408.42-.55,1.312-.348,1.847.447,1.181,1.654,1.684,2.81,1.355.844-.24,1.835-1.222,1.384-2.189-.258-.554-.872-.848-1.581-1.185Z"/><path class="cls-1" d="m160.505,427.564c.72-.482,1.366-1.727,1.069-2.588-.235-.682-1.138-1.335-1.839-1.409-1.548-.164-2.772.884-3.052,2.338-.205,1.062.324,2.698,1.639,2.739.753.024,1.417-.488,2.182-1.081Z"/><path class="cls-1" d="m158.887,426.625c.779-.227,1.707-1.157,1.686-2.009-.017-.675-.639-1.513-1.244-1.778-1.336-.584-2.725.006-3.386,1.226-.483.891-.473,2.501.691,2.909.665.234,1.404-.035,2.254-.349Z"/><path class="cls-1" d="m157.11,421.718c-.703-.162-1.828.156-2.181.828-.28.532-.161,1.452.194,1.921.784,1.034,2.119,1.179,3.162.519.762-.482,1.453-1.736.727-2.559-.415-.47-1.105-.582-1.902-.708Z"/><path class="cls-1" d="m157.952,423.128c.417-.708.457-2.038-.151-2.652-.481-.486-1.522-.673-2.152-.448-1.391.496-2.006,1.896-1.648,3.255.262.992,1.387,2.173,2.529,1.667.653-.289,1.011-1,1.421-1.822Z"/><path class="cls-1" d="m157.138,421.323c.192-.818-.172-2.13-.952-2.545-.618-.329-1.69-.195-2.237.215-1.208.907-1.384,2.461-.621,3.679.557.89,2.014,1.702,2.976.861.55-.481.684-1.284.835-2.21Z"/><path class="cls-1" d="m154.613,422.263c.919-.095,2.15-.946,2.3-1.906.119-.76-.406-1.826-1.03-2.246-1.378-.928-3.055-.551-4.045.681-.723.899-1.041,2.705.178,3.401.698.398,1.58.248,2.597.071Z"/><path class="cls-1" d="m155.02,417.34c-.431-.873-1.724-1.776-2.727-1.573-.794.161-1.655,1.072-1.841,1.842-.411,1.702.577,3.22,2.157,3.746,1.154.384,3.055.036,3.294-1.424.137-.835-.335-1.652-.883-2.591Z"/><path class="cls-1" d="m152.352,419.181c.634-.038,1.503-.587,1.635-1.241.104-.518-.225-1.265-.641-1.572-.918-.677-2.081-.468-2.797.349-.523.596-.794,1.826.023,2.34.467.294,1.077.216,1.78.125Z"/><path class="cls-1" d="m152.389,417.495c.509-.469.865-1.532.525-2.175-.27-.509-1.063-.914-1.626-.886-1.243.061-2.08,1.04-2.122,2.223-.031.864.589,2.091,1.633,1.961.597-.074,1.059-.56,1.59-1.123Z"/><path class="cls-1" d="m150.462,417.575c.942-.031,2.254-.81,2.475-1.775.175-.764-.283-1.886-.888-2.358-1.335-1.042-3.067-.777-4.162.405-.8.863-1.252,2.677-.061,3.471.681.454,1.589.364,2.636.257Z"/><path class="cls-1" d="m150.881,413.571c-.023-.696-.599-1.667-1.313-1.83-.565-.129-1.395.21-1.744.657-.77.988-.575,2.269.299,3.079.638.591,1.98.926,2.568.045.336-.504.27-1.175.19-1.95Z"/><path class="cls-1" d="m150.182,411.028c-.49-.829-1.833-1.625-2.807-1.349-.772.218-1.553,1.18-1.68,1.954-.279,1.709.808,3.134,2.406,3.536,1.167.294,3.017-.191,3.145-1.65.073-.834-.453-1.605-1.064-2.491Z"/><path class="cls-1" d="m149.941,411.603c.274-.942-.07-2.494-.954-3.026-.7-.421-1.959-.332-2.622.114-1.464.984-1.765,2.784-.95,4.252.595,1.072,2.244,2.108,3.417,1.186.671-.527.876-1.455,1.109-2.526Z"/><path class="cls-1" d="m146.977,412.051c.818-.013,1.97-.668,2.177-1.503.164-.661-.216-1.643-.734-2.062-1.143-.926-2.652-.723-3.622.286-.708.737-1.129,2.306-.107,3.014.585.405,1.374.341,2.286.264Z"/><path class="cls-1" d="m147.761,407.765c-.228-.827-1.195-1.825-2.097-1.816-.714.007-1.611.651-1.9,1.286-.64,1.404-.038,2.882,1.241,3.601.934.525,2.637.541,3.088-.682.258-.7-.014-1.485-.332-2.389Z"/><path class="cls-1" d="m146.647,407.017c-.028-.687-.603-1.64-1.309-1.796-.559-.123-1.375.217-1.716.661-.753.98-.55,2.243.319,3.035.634.579,1.961.898,2.534.025.328-.5.257-1.162.172-1.925Z"/><path class="cls-1" d="m146.371,406.227c.208-.872-.177-2.273-1.007-2.718-.658-.353-1.803-.214-2.388.222-1.292.964-1.485,2.621-.675,3.923.592.951,2.143,1.822,3.172.928.588-.511.734-1.367.898-2.356Z"/><path class="cls-1" d="m144.964,405.141c.258-.64.126-1.75-.455-2.184-.46-.344-1.347-.369-1.843-.104-1.094.586-1.43,1.824-.963,2.908.341.791,1.422,1.632,2.307,1.07.506-.322.715-.956.953-1.69Z"/><path class="cls-1" d="m143.503,401.792c-.568-.53-1.787-.839-2.478-.404-.547.344-.932,1.266-.854,1.893.173,1.385,1.338,2.239,2.665,2.186.969-.039,2.289-.835,2.056-1.991-.133-.662-.716-1.138-1.39-1.684Z"/><path class="cls-1" d="m142.751,400.85c-.41-.512-1.39-.92-2.02-.641-.499.221-.934.943-.945,1.477-.025,1.178.843,2.034,1.958,2.153.814.087,2.014-.416,1.961-1.411-.03-.569-.458-1.038-.954-1.577Z"/><path class="cls-1" d="m141.153,399.018c-.642-.21-1.718-.009-2.104.587-.306.472-.273,1.341.018,1.807.643,1.03,1.876,1.278,2.904.751.751-.385,1.502-1.496.895-2.324-.347-.474-.981-.636-1.713-.821Z"/><path class="cls-1" d="m142.434,398.74c-.094-.922-.945-2.157-1.907-2.309-.762-.121-1.831.404-2.254,1.029-.933,1.38-.557,3.061.675,4.056.9.727,2.71,1.049,3.41-.173.4-.699.251-1.583.075-2.603Z"/><path class="cls-1" d="m140.364,396.133c-.655-.487-1.965-.667-2.635-.132-.531.424-.825,1.431-.67,2.077.343,1.426,1.66,2.182,3.04,1.971,1.008-.154,2.293-1.14,1.914-2.321-.217-.676-.881-1.104-1.649-1.596Z"/></g></g><g><path class="cls-1" d="m274.308,421.227s-30.068.513-38.457,17.36c0,0,10.606,4.511,38.457-17.36Z"/><g><path class="cls-1" d="m275.46,421.167c-.175-.937-1.152-2.13-2.151-2.204-.791-.059-1.842.57-2.222,1.246-.838,1.493-.31,3.185,1.038,4.099.985.668,2.867.844,3.48-.467.351-.75.123-1.644-.145-2.674Z"/><path class="cls-1" d="m274.095,422.163c-.13-.9-1.016-2.077-1.965-2.186-.752-.087-1.78.472-2.168,1.102-.858,1.392-.421,3.026.83,3.951.913.676,2.702.917,3.337-.31.364-.702.181-1.563-.033-2.557Z"/><path class="cls-1" d="m270.892,425.788c.813.011,1.977-.606,2.206-1.43.182-.652-.167-1.638-.67-2.07-1.109-.953-2.614-.795-3.606.179-.725.712-1.189,2.258-.194,2.991.569.42,1.355.379,2.263.329Z"/><path class="cls-1" d="m271.694,423.93c-.107-.969-1.013-2.26-2.026-2.412-.802-.12-1.923.441-2.361,1.102-.969,1.459-.559,3.225.746,4.26.953.756,2.86,1.079,3.585-.212.415-.738.25-1.667.056-2.739Z"/><path class="cls-1" d="m269.847,424.62c-.211-.765-1.105-1.688-1.94-1.679-.661.007-1.49.602-1.758,1.19-.591,1.298-.035,2.666,1.148,3.331.864.486,2.439.5,2.856-.631.239-.647-.013-1.373-.307-2.21Z"/><path class="cls-1" d="m268.604,426.359c.128-.729-.258-1.864-.964-2.19-.56-.258-1.496-.088-1.957.301-1.017.858-1.094,2.233-.363,3.266.534.755,1.856,1.396,2.66.609.46-.45.537-1.163.624-1.985Z"/><path class="cls-1" d="m265.624,428.933c.68.03,1.668-.457,1.882-1.14.169-.541-.099-1.374-.508-1.748-.904-.825-2.166-.731-3.021.059-.624.577-1.051,1.859-.237,2.497.465.365,1.124.351,1.884.332Z"/><path class="cls-1" d="m266.051,428.062c.117-.743-.295-1.888-1.018-2.207-.573-.252-1.521-.062-1.982.34-1.018.889-1.072,2.287-.31,3.323.556.757,1.91,1.385,2.712.571.459-.465.525-1.19.599-2.027Z"/><path class="cls-1" d="m264.142,427.952c-.299-.566-1.164-1.137-1.82-.986-.519.12-1.069.733-1.178,1.243-.24,1.126.436,2.106,1.484,2.424.765.232,2.008-.03,2.14-.994.075-.551-.249-1.08-.626-1.688Z"/><path class="cls-1" d="m263.568,429.739c.101-.785-.368-1.978-1.139-2.291-.611-.248-1.602-.019-2.075.419-1.044.967-1.057,2.44-.224,3.507.608.779,2.052,1.398,2.871.517.468-.504.516-1.269.567-2.152Z"/><path class="cls-1" d="m262.039,431.108c.279-.662.159-1.819-.438-2.28-.473-.365-1.396-.406-1.916-.138-1.147.592-1.518,1.875-1.049,3.011.342.829,1.454,1.721,2.384,1.151.532-.327.76-.984,1.019-1.743Z"/><path class="cls-1" d="m260.852,431.936c.27-.705.104-1.915-.54-2.379-.51-.367-1.48-.378-2.016-.079-1.184.661-1.528,2.022-.997,3.198.388.859,1.586,1.757,2.543,1.125.547-.361.763-1.059,1.01-1.866Z"/><path class="cls-1" d="m257.736,429.986c-.933-.179-2.396.294-2.828,1.194-.342.713-.141,1.917.348,2.515,1.081,1.321,2.842,1.447,4.182.529.978-.671,1.826-2.353.832-3.399-.569-.598-1.481-.712-2.534-.839Z"/><path class="cls-1" d="m256.958,434.961c.7-.123,1.597-.842,1.66-1.586.05-.589-.411-1.378-.912-1.666-1.107-.636-2.372-.256-3.064.742-.506.729-.651,2.131.322,2.598.557.267,1.225.104,1.995-.087Z"/><path class="cls-1" d="m255.395,435.847c.803-.056,1.899-.762,2.058-1.593.126-.658-.301-1.602-.832-1.986-1.173-.848-2.644-.568-3.542.476-.656.762-.985,2.326.057,2.967.596.367,1.368.262,2.259.137Z"/><path class="cls-1" d="m254.294,436.023c.662-.213,1.437-1.03,1.399-1.761-.03-.578-.582-1.282-1.107-1.495-1.159-.47-2.336.068-2.875,1.128-.394.775-.348,2.155.658,2.478.576.185,1.202-.062,1.924-.35Z"/><path class="cls-1" d="m253.921,434.524c-.079-.755-.78-1.766-1.568-1.888-.625-.097-1.5.335-1.845.849-.761,1.133-.45,2.511.563,3.324.74.594,2.224.853,2.795-.15.326-.574.202-1.298.056-2.134Z"/><path class="cls-1" d="m252.294,435.979c.241-.628.093-1.708-.481-2.121-.454-.327-1.32-.337-1.798-.07-1.056.589-1.363,1.803-.889,2.851.346.766,1.414,1.566,2.267,1.003.488-.322.681-.944.9-1.663Z"/><path class="cls-1" d="m250.976,434.497c-.554-.805-1.967-1.517-2.934-1.17-.766.275-1.49,1.302-1.564,2.094-.164,1.749,1.036,3.115,2.681,3.411,1.201.216,3.039-.403,3.067-1.888.016-.849-.57-1.592-1.25-2.447Z"/><path class="cls-1" d="m249.331,435.685c-.339-.688-1.355-1.401-2.145-1.242-.626.126-1.304.842-1.452,1.448-.326,1.339.45,2.536,1.694,2.952.908.304,2.405.032,2.596-1.117.109-.658-.262-1.301-.692-2.041Z"/><path class="cls-1" d="m246.677,439.246c.728-.032,1.737-.644,1.901-1.393.129-.593-.234-1.457-.705-1.817-1.041-.796-2.379-.578-3.217.345-.612.674-.948,2.081-.02,2.686.531.346,1.232.27,2.042.178Z"/><path class="cls-1" d="m246.675,437.376c-.132-.741-.898-1.689-1.686-1.754-.624-.051-1.459.44-1.763.971-.671,1.175-.264,2.514.796,3.245.774.534,2.26.684,2.752-.349.281-.591.107-1.298-.098-2.114Z"/><path class="cls-1" d="m245.662,437.811c-.032-.928-.799-2.222-1.751-2.439-.754-.172-1.859.28-2.324.877-1.026,1.317-.765,3.025.401,4.104.852.788,2.64,1.233,3.423.058.448-.672.358-1.567.252-2.599Z"/><path class="cls-1" d="m243.29,437.537c-.264-.638-1.137-1.339-1.856-1.242-.57.077-1.222.681-1.39,1.217-.371,1.185.257,2.306,1.35,2.754.799.327,2.161.169,2.399-.853.136-.585-.159-1.185-.503-1.876Z"/><path class="cls-1" d="m242.42,437.552c-.291-.91-1.413-1.975-2.415-1.923-.794.041-1.761.798-2.055,1.518-.647,1.59.09,3.207,1.545,3.948,1.063.541,2.957.481,3.403-.9.255-.79-.084-1.651-.478-2.642Z"/><path class="cls-1" d="m241.069,438.757c.112-.921-.447-2.314-1.353-2.675-.717-.286-1.877-.009-2.427.508-1.215,1.141-1.219,2.866-.235,4.11.719.908,2.415,1.622,3.367.583.545-.594.594-1.491.647-2.525Z"/><path class="cls-1" d="m238.083,436.624c-.787-.494-2.289-.583-3.003.084-.565.528-.81,1.698-.576,2.418.516,1.589,2.078,2.329,3.626,1.967,1.13-.264,2.501-1.497,1.966-2.804-.306-.748-1.098-1.175-2.013-1.665Z"/><path class="cls-1" d="m237.943,437.452c-.253-.807-1.242-1.756-2.13-1.715-.704.032-1.564.698-1.827,1.334-.581,1.405.064,2.841,1.349,3.504.939.485,2.617.44,3.019-.781.23-.699-.066-1.462-.411-2.343Z"/><path class="cls-1" d="m238.304,435.602c-.582-.574-1.856-.936-2.596-.498-.586.346-1.019,1.305-.954,1.967.141,1.463,1.343,2.396,2.741,2.379,1.021-.012,2.433-.811,2.222-2.035-.121-.7-.72-1.218-1.413-1.813Z"/><path class="cls-1" d="m239.986,435.787c-.043-.722-.666-1.714-1.412-1.865-.59-.119-1.442.255-1.793.728-.773,1.046-.536,2.37.393,3.188.679.597,2.08.908,2.667-.022.335-.532.248-1.227.145-2.029Z"/><path class="cls-1" d="m240.392,436.409c.585-.351,1.142-1.305.942-1.993-.158-.545-.842-1.094-1.391-1.18-1.211-.19-2.214.587-2.492,1.72-.202.827.149,2.134,1.182,2.218.591.048,1.134-.328,1.758-.765Z"/><path class="cls-1" d="m242.445,435.115c.577-.736.824-2.229.231-3.014-.469-.621-1.614-.989-2.359-.831-1.644.349-2.549,1.835-2.35,3.421.145,1.159,1.235,2.661,2.599,2.263.78-.228,1.291-.975,1.878-1.839Z"/><path class="cls-1" d="m242.052,431.157c-.612-.345-1.75-.357-2.265.172-.408.42-.55,1.312-.348,1.847.447,1.181,1.654,1.684,2.81,1.355.844-.24,1.835-1.222,1.384-2.189-.258-.554-.872-.848-1.581-1.185Z"/><path class="cls-1" d="m244.033,433.348c.72-.482,1.366-1.727,1.069-2.588-.235-.682-1.138-1.335-1.839-1.409-1.548-.164-2.772.884-3.052,2.338-.205,1.062.324,2.698,1.639,2.739.753.024,1.417-.488,2.182-1.081Z"/><path class="cls-1" d="m244.499,432.486c.779-.227,1.707-1.157,1.686-2.009-.017-.675-.639-1.513-1.244-1.778-1.336-.584-2.725.006-3.386,1.226-.483.891-.473,2.501.691,2.909.665.234,1.404-.035,2.254-.349Z"/><path class="cls-1" d="m244.808,427.656c-.703-.162-1.828.156-2.181.828-.28.532-.161,1.452.194,1.921.784,1.034,2.119,1.179,3.162.519.762-.482,1.453-1.736.727-2.559-.415-.47-1.105-.582-1.902-.708Z"/><path class="cls-1" d="m247.858,429.327c.417-.708.457-2.038-.151-2.652-.481-.486-1.522-.673-2.152-.448-1.391.496-2.006,1.896-1.648,3.255.262.992,1.387,2.173,2.529,1.667.653-.289,1.011-1,1.421-1.822Z"/><path class="cls-1" d="m249.486,428.132c.192-.818-.172-2.13-.952-2.545-.618-.329-1.69-.195-2.237.215-1.208.907-1.384,2.461-.621,3.679.557.89,2.014,1.702,2.976.861.55-.481.684-1.284.835-2.21Z"/><path class="cls-1" d="m249.404,429.682c.919-.095,2.15-.946,2.3-1.906.119-.76-.406-1.826-1.03-2.246-1.378-.928-3.055-.551-4.045.681-.723.899-1.041,2.705.178,3.401.698.398,1.58.248,2.597.071Z"/><path class="cls-1" d="m252.253,425.369c-.431-.873-1.724-1.776-2.727-1.573-.794.161-1.655,1.072-1.841,1.842-.411,1.702.577,3.22,2.157,3.746,1.154.384,3.055.036,3.294-1.424.137-.835-.335-1.652-.883-2.591Z"/><path class="cls-1" d="m252.029,427.82c.634-.038,1.503-.587,1.635-1.241.104-.518-.225-1.265-.641-1.572-.918-.677-2.081-.468-2.797.349-.523.596-.794,1.826.023,2.34.467.294,1.077.216,1.78.125Z"/><path class="cls-1" d="m254.508,426.745c.509-.469.865-1.532.525-2.175-.27-.509-1.063-.914-1.626-.886-1.243.061-2.08,1.04-2.122,2.223-.031.864.589,2.091,1.633,1.961.597-.074,1.059-.56,1.59-1.123Z"/><path class="cls-1" d="m255.024,427.435c.942-.031,2.254-.81,2.475-1.775.175-.764-.283-1.886-.888-2.358-1.335-1.042-3.067-.777-4.162.405-.8.863-1.252,2.677-.061,3.471.681.454,1.589.364,2.636.257Z"/><path class="cls-1" d="m257.748,424.142c-.023-.696-.599-1.667-1.313-1.83-.565-.129-1.395.21-1.744.657-.77.988-.575,2.269.299,3.079.638.591,1.98.926,2.568.045.336-.504.27-1.175.19-1.95Z"/><path class="cls-1" d="m259.334,422.326c-.49-.829-1.833-1.625-2.807-1.349-.772.218-1.553,1.18-1.68,1.954-.279,1.709.808,3.134,2.406,3.536,1.167.294,3.017-.191,3.145-1.65.073-.834-.453-1.605-1.064-2.491Z"/><path class="cls-1" d="m261.418,423.768c.274-.942-.07-2.494-.954-3.026-.7-.421-1.959-.332-2.622.114-1.464.984-1.765,2.784-.95,4.252.595,1.072,2.244,2.108,3.417,1.186.671-.527.876-1.455,1.109-2.526Z"/><path class="cls-1" d="m260.827,425.25c.818-.013,1.97-.668,2.177-1.503.164-.661-.216-1.643-.734-2.062-1.143-.926-2.652-.723-3.622.286-.708.737-1.129,2.306-.107,3.014.585.405,1.374.341,2.286.264Z"/><path class="cls-1" d="m263.985,421.999c-.228-.827-1.195-1.825-2.097-1.816-.714.007-1.611.651-1.9,1.286-.64,1.404-.038,2.882,1.241,3.601.934.525,2.637.541,3.088-.682.258-.7-.014-1.485-.332-2.389Z"/><path class="cls-1" d="m265.244,422.285c-.028-.687-.603-1.64-1.309-1.796-.559-.123-1.375.217-1.716.661-.753.98-.55,2.243.319,3.035.634.579,1.961.898,2.534.025.328-.5.257-1.162.172-1.925Z"/><path class="cls-1" d="m267.342,422.529c.208-.872-.177-2.273-1.007-2.718-.658-.353-1.803-.214-2.388.222-1.292.964-1.485,2.621-.675,3.923.592.951,2.143,1.822,3.172.928.588-.511.734-1.367.898-2.356Z"/><path class="cls-1" d="m268.308,422.477c.258-.64.126-1.75-.455-2.184-.46-.344-1.347-.369-1.843-.104-1.094.586-1.43,1.824-.963,2.908.341.791,1.422,1.632,2.307,1.07.506-.322.715-.956.953-1.69Z"/><path class="cls-1" d="m269.22,420.163c-.568-.53-1.787-.839-2.478-.404-.547.344-.932,1.266-.854,1.893.173,1.385,1.338,2.239,2.665,2.186.969-.039,2.289-.835,2.056-1.991-.133-.662-.716-1.138-1.39-1.684Z"/><path class="cls-1" d="m270.775,420.313c-.41-.512-1.39-.92-2.02-.641-.499.221-.934.943-.945,1.477-.025,1.178.843,2.034,1.958,2.153.814.087,2.014-.416,1.961-1.411-.03-.569-.458-1.038-.954-1.577Z"/><path class="cls-1" d="m271.47,419.74c-.642-.21-1.718-.009-2.104.587-.306.472-.273,1.341.018,1.807.643,1.03,1.876,1.278,2.904.751.751-.385,1.502-1.496.895-2.324-.347-.474-.981-.636-1.713-.821Z"/><path class="cls-1" d="m275.044,420.721c-.094-.922-.945-2.157-1.907-2.309-.762-.121-1.831.404-2.254,1.029-.933,1.38-.557,3.061.675,4.056.9.727,2.71,1.049,3.41-.173.4-.699.251-1.583.075-2.603Z"/><path class="cls-1" d="m275.266,419.372c-.655-.487-1.965-.667-2.635-.132-.531.424-.825,1.431-.67,2.077.343,1.426,1.66,2.182,3.04,1.971,1.008-.154,2.293-1.14,1.914-2.321-.217-.676-.881-1.104-1.649-1.596Z"/></g></g><g><path class="cls-1" d="m229.231,350.02s-29.901,23.375-25.545,46.724c0,0,14.114-3.518,25.545-46.724Z"/><g><path class="cls-1" d="m230.341,349.964c-.234-.584-1.022-1.231-1.679-1.15-.52.064-1.12.608-1.279,1.095-.35,1.076.211,2.104,1.203,2.522.724.305,1.967.176,2.194-.753.13-.532-.133-1.081-.44-1.714Z"/><path class="cls-1" d="m229.027,353.836c.641-.122,1.456-.794,1.504-1.478.038-.542-.395-1.26-.858-1.519-1.024-.571-2.181-.205-2.805.72-.455.676-.571,1.965.328,2.382.515.238,1.126.08,1.831-.105Z"/><path class="cls-1" d="m228.632,356.045c.933-.119,2.164-1.015,2.293-1.994.103-.776-.457-1.848-1.102-2.26-1.424-.911-3.12-.486-4.098.79-.714.932-.994,2.777.264,3.455.719.388,1.613.214,2.643.009Z"/><path class="cls-1" d="m228.002,353.482c-.631-.326-1.782-.297-2.283.257-.397.439-.508,1.346-.284,1.879.495,1.177,1.733,1.641,2.889,1.267.844-.274,1.81-1.301,1.319-2.263-.281-.55-.912-.825-1.641-1.14Z"/><path class="cls-1" d="m227.298,354.312c-.891-.291-2.382-.01-2.917.817-.424.655-.377,1.859.028,2.506.894,1.428,2.603,1.77,4.029,1.038,1.041-.535,2.081-2.077,1.238-3.225-.482-.657-1.361-.881-2.377-1.137Z"/><path class="cls-1" d="m228.165,356.681c-.458-.765-1.704-1.494-2.604-1.234-.713.206-1.431,1.099-1.544,1.816-.25,1.583.764,2.895,2.244,3.259,1.081.266,2.79-.192,2.901-1.542.063-.772-.427-1.482-.997-2.299Z"/><path class="cls-1" d="m227.258,360.512c.428-.462.675-1.451.32-2.01-.281-.442-1.029-.752-1.537-.686-1.122.145-1.811,1.092-1.764,2.167.034.785.684,1.853,1.62,1.66.536-.11.92-.583,1.361-1.132Z"/><path class="cls-1" d="m226.946,362.484c.633-.506,1.138-1.718.794-2.497-.273-.617-1.166-1.155-1.825-1.17-1.457-.032-2.516,1.042-2.663,2.42-.108,1.007.514,2.491,1.744,2.426.704-.037,1.284-.566,1.95-1.179Z"/><path class="cls-1" d="m226.826,361.374c-.338-.818-1.455-1.716-2.378-1.593-.73.098-1.566.871-1.782,1.559-.477,1.518.327,2.955,1.728,3.529,1.023.419,2.769.219,3.075-1.091.175-.749-.203-1.518-.643-2.404Z"/><path class="cls-1" d="m226.643,363.415c-.098-.908-.944-2.12-1.892-2.264-.751-.114-1.802.409-2.215,1.027-.911,1.365-.532,3.02.689,3.993.891.711,2.677,1.018,3.359-.19.39-.691.238-1.562.059-2.566Z"/><path class="cls-1" d="m226.01,366.279c.432-.772.443-2.204-.226-2.85-.529-.512-1.653-.688-2.325-.431-1.485.567-2.113,2.088-1.694,3.541.306,1.061,1.544,2.305,2.76,1.733.696-.327,1.064-1.1,1.485-1.994Z"/><path class="cls-1" d="m225.801,366.902c.123-.941-.435-2.372-1.357-2.75-.731-.299-1.92-.028-2.488.495-1.254,1.156-1.276,2.92-.281,4.202.726.936,2.455,1.683,3.439.63.563-.602.623-1.519.687-2.577Z"/><path class="cls-1" d="m224.731,367.656c-.189-.769-1.055-1.713-1.887-1.728-.659-.012-1.502.559-1.785,1.138-.626,1.278-.109,2.657,1.052,3.353.848.508,2.418.567,2.865-.55.256-.639.025-1.37-.245-2.212Z"/><path class="cls-1" d="m224.39,370.326c.284-.758.098-2.055-.596-2.547-.549-.39-1.59-.395-2.163-.07-1.265.718-1.624,2.179-1.046,3.437.423.918,1.714,1.873,2.736,1.188.584-.392.811-1.142,1.069-2.008Z"/><path class="cls-1" d="m222.249,373.673c.905-.009,2.183-.728,2.416-1.65.185-.73-.23-1.818-.8-2.284-1.259-1.03-2.929-.815-4.007.296-.787.811-1.262,2.544-.135,3.333.644.451,1.518.385,2.526.305Z"/><path class="cls-1" d="m223.636,372.035c-.175-.937-1.152-2.13-2.151-2.204-.791-.059-1.842.57-2.222,1.246-.838,1.493-.31,3.185,1.038,4.099.985.668,2.867.844,3.48-.467.351-.75.123-1.644-.145-2.674Z"/><path class="cls-1" d="m223.055,373.634c-.13-.9-1.016-2.077-1.965-2.186-.752-.087-1.78.472-2.168,1.102-.858,1.392-.421,3.026.83,3.951.913.676,2.702.917,3.337-.31.364-.702.181-1.563-.033-2.557Z"/><path class="cls-1" d="m220.587,377.84c.813.011,1.977-.606,2.206-1.43.182-.652-.167-1.638-.67-2.07-1.109-.953-2.614-.795-3.606.179-.725.712-1.189,2.258-.194,2.991.569.42,1.355.379,2.263.329Z"/><path class="cls-1" d="m221.892,376.455c-.107-.969-1.013-2.26-2.026-2.412-.802-.12-1.923.441-2.361,1.102-.969,1.459-.559,3.225.746,4.26.953.756,2.86,1.079,3.585-.212.415-.738.25-1.667.056-2.739Z"/><path class="cls-1" d="m220.548,377.619c-.211-.765-1.105-1.688-1.94-1.679-.661.007-1.49.602-1.758,1.19-.591,1.298-.035,2.666,1.148,3.331.864.486,2.439.5,2.856-.631.239-.647-.013-1.373-.307-2.21Z"/><path class="cls-1" d="m219.808,379.831c.128-.729-.258-1.864-.964-2.19-.56-.258-1.496-.088-1.957.301-1.017.858-1.094,2.233-.363,3.266.534.755,1.856,1.396,2.66.609.46-.45.537-1.163.624-1.985Z"/><path class="cls-1" d="m217.332,382.879c.68.03,1.668-.457,1.882-1.14.169-.541-.099-1.374-.508-1.748-.904-.825-2.166-.731-3.021.059-.624.577-1.051,1.859-.237,2.497.465.365,1.124.351,1.884.332Z"/><path class="cls-1" d="m218.262,382.481c.117-.743-.295-1.888-1.018-2.207-.573-.252-1.521-.062-1.982.34-1.018.889-1.072,2.287-.31,3.323.556.757,1.91,1.385,2.712.571.459-.465.525-1.19.599-2.027Z"/><path class="cls-1" d="m216.856,382.845c-.299-.566-1.164-1.137-1.82-.986-.519.12-1.069.733-1.178,1.243-.24,1.126.436,2.106,1.484,2.424.765.232,2.008-.03,2.14-.994.075-.551-.249-1.08-.626-1.688Z"/><path class="cls-1" d="m216.785,385.105c.101-.785-.368-1.978-1.139-2.291-.611-.248-1.602-.019-2.075.419-1.044.967-1.057,2.44-.224,3.507.608.779,2.052,1.398,2.871.517.468-.504.516-1.269.567-2.152Z"/><path class="cls-1" d="m215.759,386.948c.279-.662.159-1.819-.438-2.28-.473-.365-1.396-.406-1.916-.138-1.147.592-1.518,1.875-1.049,3.011.342.829,1.454,1.721,2.384,1.151.532-.327.76-.984,1.019-1.743Z"/><path class="cls-1" d="m215.076,388.25c.27-.705.104-1.915-.54-2.379-.51-.367-1.48-.378-2.016-.079-1.184.661-1.528,2.022-.997,3.198.388.859,1.586,1.757,2.543,1.125.547-.361.763-1.059,1.01-1.866Z"/><path class="cls-1" d="m212.463,386.773c-.933-.179-2.396.294-2.828,1.194-.342.713-.141,1.917.348,2.515,1.081,1.321,2.842,1.447,4.182.529.978-.671,1.826-2.353.832-3.399-.569-.598-1.481-.712-2.534-.839Z"/><path class="cls-1" d="m211.974,392.075c.7-.123,1.597-.842,1.66-1.586.05-.589-.411-1.378-.912-1.666-1.107-.636-2.372-.256-3.064.742-.506.729-.651,2.131.322,2.598.557.267,1.225.104,1.995-.087Z"/><path class="cls-1" d="m210.733,393.449c.803-.056,1.899-.762,2.058-1.593.126-.658-.301-1.602-.832-1.986-1.173-.848-2.644-.568-3.542.476-.656.762-.985,2.326.057,2.967.596.367,1.368.262,2.259.137Z"/><path class="cls-1" d="m209.954,394.114c.662-.213,1.437-1.03,1.399-1.761-.03-.578-.582-1.282-1.107-1.495-1.159-.47-2.336.068-2.875,1.128-.394.775-.348,2.155.658,2.478.576.185,1.202-.062,1.924-.35Z"/><path class="cls-1" d="m209.902,393.104c-.079-.755-.78-1.766-1.568-1.888-.625-.097-1.5.335-1.845.849-.761,1.133-.45,2.511.563,3.324.74.594,2.224.853,2.795-.15.326-.574.202-1.298.056-2.134Z"/><path class="cls-1" d="m208.598,395.048c.241-.628.093-1.708-.481-2.121-.454-.327-1.32-.337-1.798-.07-1.056.589-1.363,1.803-.889,2.851.346.766,1.414,1.566,2.267,1.003.488-.322.681-.944.9-1.663Z"/><path class="cls-1" d="m207.535,393.963c-.554-.805-1.967-1.517-2.934-1.17-.766.275-1.49,1.302-1.564,2.094-.164,1.749,1.036,3.115,2.681,3.411,1.201.216,3.039-.403,3.067-1.888.016-.849-.57-1.592-1.25-2.447Z"/><path class="cls-1" d="m205.944,395.266c-.339-.688-1.355-1.401-2.145-1.242-.626.126-1.304.842-1.452,1.448-.326,1.339.45,2.536,1.694,2.952.908.304,2.405.032,2.596-1.117.109-.658-.262-1.301-.692-2.041Z"/><path class="cls-1" d="m204.168,397.763c.728-.032,1.737-.644,1.901-1.393.129-.593-.234-1.457-.705-1.817-1.041-.796-2.379-.578-3.217.345-.612.674-.948,2.081-.02,2.686.531.346,1.232.27,2.042.178Z"/><path class="cls-1" d="m205.797,393.753c-.132-.741-.898-1.689-1.686-1.754-.624-.051-1.459.44-1.763.971-.671,1.175-.264,2.514.796,3.245.774.534,2.26.684,2.752-.349.281-.591.107-1.298-.098-2.114Z"/><path class="cls-1" d="m206.506,392.386c-.032-.928-.799-2.222-1.751-2.439-.754-.172-1.859.28-2.324.877-1.026,1.317-.765,3.025.401,4.104.852.788,2.64,1.233,3.423.058.448-.672.358-1.567.252-2.599Z"/><path class="cls-1" d="m205.872,390.374c-.264-.638-1.137-1.339-1.856-1.242-.57.077-1.222.681-1.39,1.217-.371,1.185.257,2.306,1.35,2.754.799.327,2.161.169,2.399-.853.136-.585-.159-1.185-.503-1.876Z"/><path class="cls-1" d="m206.74,388.651c-.291-.91-1.413-1.975-2.415-1.923-.794.041-1.761.798-2.055,1.518-.647,1.59.09,3.207,1.545,3.948,1.063.541,2.957.481,3.403-.9.255-.79-.084-1.651-.478-2.642Z"/><path class="cls-1" d="m207.127,388.118c.112-.921-.447-2.314-1.353-2.675-.717-.286-1.877-.009-2.427.508-1.215,1.141-1.219,2.866-.235,4.11.719.908,2.415,1.622,3.367.583.545-.594.594-1.491.647-2.525Z"/><path class="cls-1" d="m205.874,384.482c-.787-.494-2.289-.583-3.003.084-.565.528-.81,1.698-.576,2.418.516,1.589,2.078,2.329,3.626,1.967,1.13-.264,2.501-1.497,1.966-2.804-.306-.748-1.098-1.175-2.013-1.665Z"/><path class="cls-1" d="m207.078,384.156c-.253-.807-1.242-1.756-2.13-1.715-.704.032-1.564.698-1.827,1.334-.581,1.405.064,2.841,1.349,3.504.939.485,2.617.44,3.019-.781.23-.699-.066-1.462-.411-2.343Z"/><path class="cls-1" d="m206.548,381.878c-.582-.574-1.856-.936-2.596-.498-.586.346-1.019,1.305-.954,1.967.141,1.463,1.343,2.396,2.741,2.379,1.021-.012,2.433-.811,2.222-2.035-.121-.7-.72-1.218-1.413-1.813Z"/><path class="cls-1" d="m207.338,381.634c-.043-.722-.666-1.714-1.412-1.865-.59-.119-1.442.255-1.793.728-.773,1.046-.536,2.37.393,3.188.679.597,2.08.908,2.667-.022.335-.532.248-1.227.145-2.029Z"/><path class="cls-1" d="m206.854,381.827c.585-.351,1.142-1.305.942-1.993-.158-.545-.842-1.094-1.391-1.18-1.211-.19-2.214.587-2.492,1.72-.202.827.149,2.134,1.182,2.218.591.048,1.134-.328,1.758-.765Z"/><path class="cls-1" d="m208.268,380.193c.577-.736.824-2.229.231-3.014-.469-.621-1.614-.989-2.359-.831-1.644.349-2.549,1.835-2.35,3.421.145,1.159,1.235,2.661,2.599,2.263.78-.228,1.291-.975,1.878-1.839Z"/><path class="cls-1" d="m207.591,376.016c-.612-.345-1.75-.357-2.265.172-.408.42-.55,1.312-.348,1.847.447,1.181,1.654,1.684,2.81,1.355.844-.24,1.835-1.222,1.384-2.189-.258-.554-.872-.848-1.581-1.185Z"/><path class="cls-1" d="m209.288,377.988c.72-.482,1.366-1.727,1.069-2.588-.235-.682-1.138-1.335-1.839-1.409-1.548-.164-2.772.884-3.052,2.338-.205,1.062.324,2.698,1.639,2.739.753.024,1.417-.488,2.182-1.081Z"/><path class="cls-1" d="m209.471,376.909c.779-.227,1.707-1.157,1.686-2.009-.017-.675-.639-1.513-1.244-1.778-1.336-.584-2.725.006-3.386,1.226-.483.891-.473,2.501.691,2.909.665.234,1.404-.035,2.254-.349Z"/><path class="cls-1" d="m209.495,371.859c-.703-.162-1.828.156-2.181.828-.28.532-.161,1.452.194,1.921.784,1.034,2.119,1.179,3.162.519.762-.482,1.453-1.736.727-2.559-.415-.47-1.105-.582-1.902-.708Z"/><path class="cls-1" d="m212.137,373.128c.417-.708.457-2.038-.151-2.652-.481-.486-1.522-.673-2.152-.448-1.391.496-2.006,1.896-1.648,3.255.262.992,1.387,2.173,2.529,1.667.653-.289,1.011-1,1.421-1.822Z"/><path class="cls-1" d="m213.124,371.181c.192-.818-.172-2.13-.952-2.545-.618-.329-1.69-.195-2.237.215-1.208.907-1.384,2.461-.621,3.679.557.89,2.014,1.702,2.976.861.55-.481.684-1.284.835-2.21Z"/><path class="cls-1" d="m212.399,371.98c.919-.095,2.15-.946,2.3-1.906.119-.76-.406-1.826-1.03-2.246-1.378-.928-3.055-.551-4.045.681-.723.899-1.041,2.705.178,3.401.698.398,1.58.248,2.597.071Z"/><path class="cls-1" d="m214.607,366.915c-.431-.873-1.724-1.776-2.727-1.573-.794.161-1.655,1.072-1.841,1.842-.411,1.702.577,3.22,2.157,3.746,1.154.384,3.055.036,3.294-1.424.137-.835-.335-1.652-.883-2.591Z"/><path class="cls-1" d="m213.74,368.614c.634-.038,1.503-.587,1.635-1.241.104-.518-.225-1.265-.641-1.572-.918-.677-2.081-.468-2.797.349-.523.596-.794,1.826.023,2.34.467.294,1.077.216,1.78.125Z"/><path class="cls-1" d="m215.578,366.787c.509-.469.865-1.532.525-2.175-.27-.509-1.063-.914-1.626-.886-1.243.061-2.08,1.04-2.122,2.223-.031.864.589,2.091,1.633,1.961.597-.074,1.059-.56,1.59-1.123Z"/><path class="cls-1" d="m215.502,366.764c.942-.031,2.254-.81,2.475-1.775.175-.764-.283-1.886-.888-2.358-1.335-1.042-3.067-.777-4.162.405-.8.863-1.252,2.677-.061,3.471.681.454,1.589.364,2.636.257Z"/><path class="cls-1" d="m217.84,362.912c-.023-.696-.599-1.667-1.313-1.83-.565-.129-1.395.21-1.744.657-.77.988-.575,2.269.299,3.079.638.591,1.98.926,2.568.045.336-.504.27-1.175.19-1.95Z"/><path class="cls-1" d="m219.04,360.536c-.49-.829-1.833-1.625-2.807-1.349-.772.218-1.553,1.18-1.68,1.954-.279,1.709.808,3.134,2.406,3.536,1.167.294,3.017-.191,3.145-1.65.073-.834-.453-1.605-1.064-2.491Z"/><path class="cls-1" d="m220.698,361.278c.274-.942-.07-2.494-.954-3.026-.7-.421-1.959-.332-2.622.114-1.464.984-1.765,2.784-.95,4.252.595,1.072,2.244,2.108,3.417,1.186.671-.527.876-1.455,1.109-2.526Z"/><path class="cls-1" d="m219.632,361.892c.818-.013,1.97-.668,2.177-1.503.164-.661-.216-1.643-.734-2.062-1.143-.926-2.652-.723-3.622.286-.708.737-1.129,2.306-.107,3.014.585.405,1.374.341,2.286.264Z"/><path class="cls-1" d="m222.315,357.774c-.228-.827-1.195-1.825-2.097-1.816-.714.007-1.611.651-1.9,1.286-.64,1.404-.038,2.882,1.241,3.601.934.525,2.637.541,3.088-.682.258-.7-.014-1.485-.332-2.389Z"/><path class="cls-1" d="m223.1,357.193c-.028-.687-.603-1.64-1.309-1.796-.559-.123-1.375.217-1.716.661-.753.98-.55,2.243.319,3.035.634.579,1.961.898,2.534.025.328-.5.257-1.162.172-1.925Z"/><path class="cls-1" d="m224.723,356.57c.208-.872-.177-2.273-1.007-2.718-.658-.353-1.803-.214-2.388.222-1.292.964-1.485,2.621-.675,3.923.592.951,2.143,1.822,3.172.928.588-.511.734-1.367.898-2.356Z"/><path class="cls-1" d="m225.214,355.651c.258-.64.126-1.75-.455-2.184-.46-.344-1.347-.369-1.843-.104-1.094.586-1.43,1.824-.963,2.908.341.791,1.422,1.632,2.307,1.07.506-.322.715-.956.953-1.69Z"/><path class="cls-1" d="m225.652,352.469c-.568-.53-1.787-.839-2.478-.404-.547.344-.932,1.266-.854,1.893.173,1.385,1.338,2.239,2.665,2.186.969-.039,2.289-.835,2.056-1.991-.133-.662-.716-1.138-1.39-1.684Z"/><path class="cls-1" d="m226.837,351.844c-.41-.512-1.39-.92-2.02-.641-.499.221-.934.943-.945,1.477-.025,1.178.843,2.034,1.958,2.153.814.087,2.014-.416,1.961-1.411-.03-.569-.458-1.038-.954-1.577Z"/><path class="cls-1" d="m227.152,350.358c-.642-.21-1.718-.009-2.104.587-.306.472-.273,1.341.018,1.807.643,1.03,1.876,1.278,2.904.751.751-.385,1.502-1.496.895-2.324-.347-.474-.981-.636-1.713-.821Z"/><path class="cls-1" d="m230.346,350.426c-.094-.922-.945-2.157-1.907-2.309-.762-.121-1.831.404-2.254,1.029-.933,1.38-.557,3.061.675,4.056.9.727,2.71,1.049,3.41-.173.4-.699.251-1.583.075-2.603Z"/><path class="cls-1" d="m230.189,348.165c-.655-.487-1.965-.667-2.635-.132-.531.424-.825,1.431-.67,2.077.343,1.426,1.66,2.182,3.04,1.971,1.008-.154,2.293-1.14,1.914-2.321-.217-.676-.881-1.104-1.649-1.596Z"/></g></g><g><path class="cls-1" d="m202.127,465.979c-.868-.791-2.717-1.238-3.754-.569-.822.53-1.388,1.93-1.259,2.878.286,2.092,2.062,3.363,4.068,3.261,1.465-.075,3.447-1.301,3.075-3.047-.213-.999-1.102-1.708-2.13-2.523Z"/><path class="cls-1" d="m205.045,465.249c-.497-1.11-2.067-2.299-3.328-2.093-.999.164-2.117,1.258-2.386,2.211-.594,2.104.566,4.046,2.513,4.778,1.422.535,3.811.191,4.18-1.62.211-1.036-.339-2.077-.979-3.276Z"/><path class="cls-1" d="m207.597,464.201c-.271-1.308-1.675-2.954-3.077-3.03-1.11-.06-2.567.851-3.081,1.809-1.134,2.117-.347,4.474,1.569,5.719,1.399.909,4.043,1.104,4.866-.752.471-1.062.126-2.308-.277-3.745Z"/><path class="cls-1" d="m208.926,465.433c.757-.89,1.139-2.743.438-3.752-.555-.799-1.967-1.315-2.904-1.154-2.07.355-3.274,2.165-3.103,4.156.124,1.454,1.411,3.383,3.134,2.954.986-.246,1.661-1.154,2.436-2.204Z"/><path class="cls-1" d="m210.573,465.568c1.382-.664,2.827-2.684,2.523-4.267-.241-1.254-1.659-2.624-2.869-2.931-2.672-.677-5.08.853-5.936,3.332-.625,1.81-.11,4.81,2.186,5.212,1.313.23,2.606-.499,4.096-1.346Z"/><path class="cls-1" d="m211.85,463.677c1.202-.423,2.579-1.96,2.472-3.296-.085-1.058-1.132-2.319-2.103-2.682-2.146-.802-4.274.243-5.206,2.213-.681,1.439-.527,3.963,1.332,4.504,1.064.309,2.198-.175,3.506-.74Z"/><path class="cls-1" d="m215.168,459.731c.358-1.099.01-2.938-1.01-3.597-.808-.522-2.294-.463-3.091.036-1.76,1.103-2.181,3.212-1.276,4.969.661,1.283,2.563,2.565,3.978,1.524.809-.595,1.086-1.68,1.4-2.932Z"/><path class="cls-1" d="m215.414,460.492c1.136-.293,2.521-1.594,2.528-2.828.006-.977-.855-2.217-1.718-2.626-1.905-.905-3.94-.115-4.951,1.618-.739,1.266-.797,3.594.866,4.237.951.368,2.031.013,3.274-.401Z"/><path class="cls-1" d="m218.921,453.763c-.77-1.217-2.81-2.346-4.254-1.891-1.143.36-2.268,1.832-2.423,2.994-.341,2.566,1.347,4.646,3.752,5.176,1.757.387,4.498-.42,4.625-2.605.072-1.25-.748-2.377-1.7-3.674Z"/><path class="cls-1" d="m218.908,457.412c1.107-.129,2.576-1.175,2.742-2.334.131-.918-.519-2.195-1.277-2.691-1.675-1.097-3.691-.615-4.865.885-.858,1.096-1.212,3.278.269,4.097.847.469,1.908.274,3.131.044Z"/><path class="cls-1" d="m220.616,455.676c1.035-.061,2.457-.955,2.673-2.023.171-.846-.365-2.067-1.044-2.569-1.499-1.108-3.397-.769-4.569.563-.855.972-1.302,2.981.032,3.822.763.481,1.759.356,2.908.208Z"/><path class="cls-1" d="m221.256,447.549c-1.371-.133-3.42.746-3.924,2.103-.399,1.075.053,2.787.84,3.586,1.738,1.763,4.299,1.709,6.11.203,1.323-1.099,2.322-3.643.746-5.02-.901-.788-2.234-.83-3.772-.872Z"/><path class="cls-1" d="m225.032,447.14c-.601-.929-2.178-1.778-3.283-1.416-.875.286-1.727,1.426-1.836,2.32-.24,1.974,1.074,3.557,2.926,3.944,1.352.282,3.452-.36,3.53-2.039.045-.961-.595-1.82-1.337-2.808Z"/><path class="cls-1" d="m224.237,443.653c-1.307-.154-3.283.646-3.791,1.933-.402,1.019-.004,2.665.732,3.444,1.626,1.719,4.075,1.717,5.835.314,1.286-1.025,2.291-3.436.812-4.783-.846-.771-2.119-.837-3.588-.907Z"/><path class="cls-1" d="m229.685,443.843c-.202-1.557-1.7-3.609-3.336-3.823-1.296-.169-3.083.769-3.77,1.847-1.516,2.38-.803,5.211,1.331,6.839,1.558,1.189,4.639,1.651,5.767-.45.645-1.202.352-2.693.007-4.413Z"/><path class="cls-1" d="m230.11,441.007c-.58-1.212-2.346-2.48-3.733-2.216-1.098.209-2.301,1.449-2.571,2.508-.597,2.339.739,4.45,2.909,5.204,1.585.55,4.212.103,4.568-1.906.204-1.15-.433-2.283-1.173-3.589Z"/><path class="cls-1" d="m231.38,442.281c.681-.934.92-2.79.154-3.733-.607-.747-2.037-1.151-2.95-.923-2.016.504-3.069,2.378-2.754,4.33.23,1.425,1.642,3.233,3.31,2.682.954-.315,1.553-1.261,2.24-2.354Z"/><path class="cls-1" d="m233.449,438.81c.162-1.264-.593-3.183-1.834-3.687-.983-.399-2.579-.03-3.339.675-1.679,1.557-1.701,3.927-.36,5.644.979,1.254,3.303,2.25,4.621.831.754-.811.83-2.042.912-3.463Z"/><path class="cls-1" d="m231.629,433.104c-1.466-.234-3.728.576-4.359,2.003-.5,1.13-.127,3.002.666,3.913,1.753,2.011,4.511,2.122,6.558.622,1.495-1.095,2.738-3.765,1.135-5.351-.917-.907-2.348-1.04-4-1.187Z"/><path class="cls-1" d="m234.669,438.243c1.398-.395,3.075-2.045,3.049-3.572-.021-1.209-1.121-2.719-2.2-3.202-2.384-1.066-4.88-.03-6.082,2.144-.878,1.588-.885,4.471,1.192,5.22,1.188.428,2.514-.041,4.041-.59Z"/><path class="cls-1" d="m237.737,433.068c.298-1.235-.241-3.219-1.416-3.853-.93-.502-2.552-.31-3.382.305-1.833,1.36-2.113,3.705-.971,5.553.834,1.349,3.028,2.589,4.488,1.327.835-.722,1.045-1.933,1.281-3.332Z"/><path class="cls-1" d="m236.721,428.056c-.901-.602-2.649-.756-3.503-.002-.676.597-1.001,1.953-.752,2.799.549,1.869,2.345,2.785,4.161,2.415,1.326-.27,2.966-1.662,2.386-3.203-.332-.882-1.24-1.407-2.291-2.008Z"/><path class="cls-1" d="m239.278,425.722c-.841-1.18-2.954-2.199-4.379-1.661-1.128.426-2.176,1.967-2.266,3.143-.199,2.597,1.613,4.591,4.059,4.989,1.786.29,4.495-.673,4.5-2.875.003-1.259-.885-2.346-1.913-3.596Z"/><path class="cls-1" d="m239.36,423.706c-.815-.782-2.582-1.257-3.596-.639-.803.49-1.382,1.822-1.281,2.736.223,2.018,1.9,3.285,3.832,3.235,1.411-.036,3.347-1.166,3.032-2.854-.18-.965-1.017-1.669-1.986-2.478Z"/><path class="cls-1" d="m241.59,425.169c.689-.994.893-2.942.068-3.91-.654-.766-2.16-1.153-3.11-.892-2.096.577-3.151,2.565-2.772,4.598.277,1.485,1.799,3.341,3.53,2.723.99-.354,1.593-1.358,2.284-2.519Z"/><path class="cls-1" d="m241.034,424.101c1.041-.291,2.291-1.515,2.275-2.65-.013-.899-.828-2.025-1.63-2.386-1.771-.798-3.629-.033-4.528,1.582-.656,1.179-.667,3.324.876,3.885.883.321,1.87-.026,3.007-.43Z"/><path class="cls-1" d="m241.237,422.002c1.043.054,2.565-.68,2.901-1.725.266-.828-.134-2.109-.757-2.688-1.376-1.277-3.313-1.149-4.634.052-.965.877-1.636,2.838-.396,3.827.709.566,1.72.553,2.886.533Z"/><path class="cls-1" d="m244.8,418.637c.768-.976,1.097-2.96.312-4.003-.622-.826-2.142-1.316-3.131-1.107-2.184.462-3.389,2.433-3.127,4.541.191,1.539,1.637,3.536,3.449,3.009,1.037-.301,1.717-1.293,2.497-2.44Z"/><path class="cls-1" d="m245.787,415.204c.305-1.017-.055-2.698-1.007-3.281-.754-.461-2.116-.375-2.837.101-1.592,1.052-1.932,2.997-1.063,4.591.635,1.164,2.41,2.299,3.686,1.312.73-.565.96-1.566,1.221-2.724Z"/><path class="cls-1" d="m246.679,409.929c-.866-1.152-2.994-2.113-4.398-1.542-1.112.452-2.115,2.011-2.175,3.183-.133,2.588,1.72,4.526,4.163,4.86,1.784.244,4.454-.783,4.403-2.973-.029-1.253-.939-2.311-1.994-3.529Z"/><path class="cls-1" d="m245.457,412.955c1.08-.027,2.593-.907,2.856-2.012.208-.875-.307-2.166-.995-2.713-1.521-1.208-3.511-.921-4.778.424-.925.982-1.461,3.059-.103,3.981.777.528,1.819.433,3.021.32Z"/><path class="cls-1" d="m248.273,405.842c-.63-1.099-2.381-2.168-3.668-1.823-1.019.274-2.063,1.525-2.242,2.54-.397,2.243,1.008,4.134,3.102,4.691,1.529.406,3.97-.199,4.163-2.114.111-1.096-.568-2.118-1.355-3.294Z"/><path class="cls-1" d="m248.733,408.3c1.203-.659,2.399-2.531,2.053-3.931-.274-1.109-1.606-2.266-2.701-2.483-2.419-.478-4.497,1.002-5.145,3.256-.473,1.647.129,4.301,2.199,4.552,1.184.144,2.305-.569,3.595-1.396Z"/><path class="cls-1" d="m247.91,400.54c-.986-.367-2.672-.121-3.31.783-.505.715-.508,2.069-.084,2.813.937,1.643,2.839,2.106,4.472,1.35,1.193-.552,2.43-2.234,1.537-3.561-.511-.759-1.487-1.051-2.614-1.385Z"/><path class="cls-1" d="m250.942,400.265c-.045-1.092-.958-2.607-2.08-2.855-.888-.196-2.185.345-2.727,1.05-1.196,1.557-.875,3.564.505,4.824,1.008.92,3.116,1.428,4.027.04.521-.794.409-1.846.275-3.059Z"/><path class="cls-1" d="m252.423,397.548c-.143-1.371-1.415-3.206-2.847-3.429-1.134-.176-2.724.609-3.35,1.54-1.383,2.057-.817,4.558,1.022,6.034,1.343,1.078,4.038,1.55,5.074-.271.593-1.042.368-2.357.102-3.875Z"/><path class="cls-1" d="m250.562,393.582c-.917-.476-2.59-.437-3.32.367-.578.637-.743,1.955-.419,2.731.716,1.714,2.515,2.392,4.197,1.85,1.228-.395,2.636-1.887,1.924-3.286-.407-.801-1.323-1.203-2.382-1.662Z"/><path class="cls-1" d="m250.359,390.589c-1.197-.185-3.042.484-3.552,1.651-.404.924-.093,2.451.558,3.192,1.438,1.636,3.69,1.716,5.357.484,1.217-.9,2.222-3.084.907-4.372-.752-.737-1.921-.841-3.27-.955Z"/><path class="cls-1" d="m254.9,390.989c.13-1.511-.862-3.758-2.363-4.296-1.189-.426-3.069.092-3.939.968-1.921,1.935-1.83,4.755-.15,6.731,1.227,1.444,4.04,2.514,5.538.762.857-1.002.887-2.47.915-4.165Z"/></g><g><path class="cls-1" d="m183.432,348.461c1.319-.021,3.174-1.078,3.506-2.424.263-1.066-.351-2.646-1.185-3.321-1.843-1.49-4.274-1.162-5.835.465-1.14,1.189-1.817,3.716-.169,4.857.942.652,2.215.549,3.683.423Z"/><path class="cls-1" d="m186.989,347.081c.135-1.054-.494-2.655-1.529-3.076-.819-.333-2.151-.026-2.786.562-1.401,1.298-1.42,3.274-.302,4.707.816,1.046,2.754,1.878,3.854.695.629-.676.693-1.703.762-2.888Z"/><path class="cls-1" d="m186.392,351.851c1.063-.096,2.497-1.061,2.685-2.167.149-.876-.442-2.115-1.156-2.61-1.577-1.092-3.519-.682-4.682.725-.849,1.028-1.244,3.109.155,3.93.8.47,1.821.31,2.998.121Z"/><path class="cls-1" d="m187.56,355.194c1.552.091,3.825-.989,4.334-2.541.403-1.229-.18-3.141-1.102-4.008-2.036-1.913-4.921-1.741-6.899.035-1.444,1.297-2.461,4.209-.625,5.694,1.05.849,2.555.839,4.291.82Z"/><path class="cls-1" d="m190.607,349.834c-1.199-.996-3.677-1.476-5.011-.525-1.057.753-1.723,2.644-1.493,3.892.506,2.756,2.939,4.333,5.592,4.074,1.938-.189,4.491-1.935,3.891-4.227-.343-1.311-1.565-2.197-2.978-3.215Z"/><path class="cls-1" d="m193.75,354.879c.061-1.498-1.02-3.672-2.526-4.136-1.193-.367-3.027.228-3.846,1.132-1.81,1.997-1.594,4.777.154,6.654,1.276,1.37,4.102,2.301,5.503.504.801-1.028.765-2.479.717-4.154Z"/><path class="cls-1" d="m193.883,357.302c.036-1.29-.917-3.15-2.219-3.534-1.031-.304-2.603.228-3.299,1.015-1.537,1.738-1.322,4.129.202,5.726,1.113,1.166,3.556,1.937,4.742.376.679-.893.632-2.142.573-3.583Z"/><path class="cls-1" d="m191.487,356.755c-1.293-.294-3.358.297-4.004,1.533-.511.978-.288,2.67.366,3.528,1.446,1.896,3.899,2.155,5.813.937,1.397-.89,2.661-3.198,1.323-4.706-.765-.862-2.034-1.064-3.498-1.291Z"/><path class="cls-1" d="m194.807,361.607c-.18-1.162-1.34-2.672-2.569-2.801-.973-.103-2.295.633-2.789,1.453-1.091,1.81-.505,3.917,1.124,5.097,1.189.862,3.505,1.151,4.311-.444.461-.912.214-2.024-.076-3.305Z"/><path class="cls-1" d="m194.361,361.884c-1.069-.866-3.26-1.263-4.427-.41-.924.676-1.492,2.351-1.276,3.45.476,2.426,2.639,3.792,4.977,3.535,1.708-.187,3.942-1.755,3.388-3.771-.317-1.153-1.404-1.922-2.662-2.805Z"/><path class="cls-1" d="m194.463,364.673c-.954-.623-2.793-.764-3.682.038-.704.635-1.03,2.064-.759,2.95.598,1.959,2.496,2.9,4.401,2.491,1.391-.299,3.099-1.78,2.472-3.394-.359-.923-1.32-1.465-2.431-2.085Z"/><path class="cls-1" d="m195.942,367.598c-.699-.903-2.395-1.64-3.501-1.171-.875.371-1.652,1.617-1.686,2.546-.076,2.051,1.414,3.566,3.353,3.802,1.416.173,3.519-.671,3.454-2.405-.037-.992-.77-1.82-1.619-2.772Z"/><path class="cls-1" d="m197.792,373.974c.909-1.108,1.337-3.389.456-4.611-.698-.968-2.44-1.57-3.587-1.352-2.531.48-3.968,2.726-3.716,5.164.184,1.781,1.804,4.119,3.907,3.555,1.203-.323,2.012-1.45,2.94-2.756Z"/><path class="cls-1" d="m197.793,373.795c-.127-1.019-1.101-2.366-2.171-2.51-.847-.114-2.019.494-2.471,1.196-.999,1.552-.541,3.406.85,4.477,1.016.783,3.029,1.094,3.774-.277.426-.784.239-1.761.018-2.886Z"/><path class="cls-1" d="m196.168,379.584c1.031-.051,2.453-.927,2.678-1.988.178-.84-.344-2.06-1.015-2.566-1.481-1.117-3.373-.796-4.551.518-.86.96-1.322,2.954-.004,3.803.754.485,1.747.37,2.891.233Z"/><path class="cls-1" d="m198.232,377.898c-.463-.978-1.882-2.007-3.001-1.799-.886.164-1.859,1.159-2.081,2.012-.489,1.883.58,3.589,2.326,4.204,1.275.449,3.394.098,3.688-1.52.168-.926-.341-1.842-.932-2.896Z"/><path class="cls-1" d="m199.037,382.424c.361-1.028.072-2.769-.876-3.412-.751-.509-2.152-.485-2.914-.031-1.683,1.003-2.124,2.981-1.309,4.657.595,1.224,2.361,2.472,3.717,1.521.775-.544,1.059-1.56,1.382-2.734Z"/><path class="cls-1" d="m199.467,383.361c-.223-1.16-1.444-2.632-2.683-2.717-.981-.067-2.28.72-2.746,1.561-1.028,1.857-.362,3.95,1.316,5.075,1.225.821,3.56,1.025,4.31-.605.429-.933.14-2.039-.199-3.314Z"/><path class="cls-1" d="m199.018,389.375c1.096-.632,2.159-2.381,1.811-3.664-.275-1.016-1.526-2.055-2.54-2.233-2.239-.391-4.124,1.015-4.675,3.106-.402,1.527.207,3.961,2.119,4.15,1.094.108,2.112-.571,3.284-1.36Z"/><path class="cls-1" d="m198.44,392.145c1.154-.258,2.592-1.524,2.639-2.767.038-.984-.789-2.261-1.645-2.702-1.89-.974-3.966-.243-5.041,1.47-.785,1.251-.92,3.595.735,4.297.946.402,2.045.079,3.312-.298Z"/><path class="cls-1" d="m200.046,394.017c1.005-.785,1.82-2.681,1.292-3.913-.418-.976-1.813-1.837-2.85-1.871-2.29-.075-3.974,1.594-4.23,3.76-.187,1.581.765,3.926,2.7,3.845,1.107-.046,2.028-.868,3.088-1.82Z"/><path class="cls-1" d="m201.125,392.902c-.331-1.296-1.809-2.877-3.215-2.889-1.113-.01-2.528.968-2.998,1.949-1.037,2.168-.143,4.489,1.83,5.646,1.44.845,4.093.919,4.831-.974.422-1.083.021-2.314-.448-3.732Z"/><path class="cls-1" d="m201.212,397.84c.607-1.043.657-2.995-.24-3.892-.71-.71-2.238-.977-3.162-.643-2.039.739-2.932,2.797-2.395,4.79.392,1.455,2.051,3.181,3.724,2.43.957-.43,1.477-1.475,2.073-2.684Z"/><path class="cls-1" d="m200.818,396.058c-1.079-1.027-3.41-1.646-4.744-.825-1.056.649-1.814,2.409-1.676,3.613.304,2.66,2.521,4.321,5.067,4.247,1.859-.054,4.407-1.554,3.983-3.777-.242-1.272-1.349-2.196-2.631-3.258Z"/><path class="cls-1" d="m201.814,402.444c.478-1.089.309-3.006-.668-3.785-.774-.616-2.301-.707-3.167-.277-1.914.95-2.559,3.066-1.812,4.957.546,1.381,2.363,2.886,3.917,1.964.889-.527,1.282-1.609,1.731-2.859Z"/><path class="cls-1" d="m201.908,403.432c-.104-1.154-1.15-2.711-2.35-2.916-.951-.162-2.296.478-2.834,1.253-1.187,1.711-.743,3.82.784,5.083,1.115.922,3.374,1.352,4.267-.165.511-.868.338-1.976.133-3.254Z"/><path class="cls-1" d="m201.723,409.741c1.35-.777,2.661-2.931,2.234-4.512-.338-1.252-1.878-2.533-3.126-2.752-2.757-.484-5.081,1.246-5.761,3.822-.497,1.881.251,4.879,2.606,5.114,1.347.134,2.602-.702,4.047-1.672Z"/><path class="cls-1" d="m202.955,410.467c.739-1.298.776-3.716-.345-4.815-.888-.871-2.783-1.182-3.922-.757-2.515.939-3.595,3.499-2.906,5.958.503,1.796,2.578,3.912,4.639,2.962,1.179-.543,1.81-1.844,2.533-3.348Z"/><path class="cls-1" d="m202.391,411.151c-.002-1.129-.885-2.731-2.034-3.032-.909-.238-2.27.268-2.858.975-1.298,1.561-1.047,3.646.328,5.002,1.004.99,3.161,1.6,4.157.203.57-.799.496-1.89.406-3.149Z"/><path class="cls-1" d="m201.975,411.923c-.7-1.012-2.482-1.903-3.698-1.463-.963.348-1.871,1.644-1.962,2.641-.2,2.202,1.314,3.918,3.386,4.285,1.513.268,3.825-.518,3.855-2.387.017-1.069-.723-2.002-1.581-3.076Z"/><path class="cls-1" d="m202.505,416.308c.056-1.032-.667-2.54-1.7-2.875-.818-.265-2.088.128-2.661.743-1.267,1.358-1.145,3.276.041,4.586.866.957,2.804,1.626,3.787.401.562-.7.551-1.701.534-2.855Z"/><path class="cls-1" d="m201.574,421.635c1.084-.428,2.288-1.881,2.144-3.097-.114-.963-1.115-2.079-2.015-2.377-1.989-.658-3.896.371-4.68,2.203-.572,1.338-.344,3.639,1.374,4.069.983.246,2.003-.237,3.177-.798Z"/><path class="cls-1" d="m201.968,419.116c-.832-.831-2.661-1.362-3.729-.739-.846.493-1.476,1.868-1.39,2.821.191,2.105,1.91,3.458,3.921,3.446,1.469-.008,3.507-1.145,3.214-2.908-.168-1.008-1.024-1.759-2.016-2.62Z"/><path class="cls-1" d="m203.366,422.956c-.232-1.22-1.512-2.772-2.814-2.864-1.031-.073-2.399.751-2.891,1.635-1.086,1.95-.391,4.153,1.371,5.34,1.287.866,3.741,1.088,4.534-.625.454-.98.153-2.144-.2-3.486Z"/><path class="cls-1" d="m204.118,427.131c.457-1.339.063-3.596-1.174-4.42-.98-.653-2.799-.607-3.784-.009-2.174,1.32-2.725,3.893-1.648,6.06.786,1.582,3.093,3.183,4.842,1.934,1.001-.715,1.358-2.037,1.764-3.565Z"/><path class="cls-1" d="m204.644,429.722c.523-1.484.108-3.998-1.259-4.927-1.083-.736-3.106-.704-4.207-.05-2.431,1.445-3.071,4.3-1.897,6.721.858,1.768,3.406,3.572,5.364,2.201,1.12-.784,1.531-2.251,1.999-3.945Z"/><path class="cls-1" d="m204.006,430.427c-.21-1.325-1.541-3.043-2.944-3.186-1.111-.113-2.616.732-3.176,1.67-1.237,2.071-.559,4.473,1.304,5.812,1.361.978,4.005,1.298,4.918-.525.522-1.043.235-2.31-.101-3.771Z"/><path class="cls-1" d="m203.305,436.408c1.089-.81,2.004-2.809,1.473-4.133-.42-1.049-1.884-2.001-2.987-2.063-2.436-.137-4.27,1.598-4.596,3.896-.238,1.678.716,4.197,2.778,4.16,1.18-.021,2.181-.873,3.332-1.86Z"/><path class="cls-1" d="m204.651,437.602c.67-1.386.541-3.876-.687-4.93-.973-.834-2.944-1.024-4.086-.507-2.522,1.14-3.456,3.847-2.578,6.33.641,1.813,2.923,3.846,4.977,2.726,1.175-.64,1.735-2.022,2.375-3.619Z"/><path class="cls-1" d="m204.261,438.103c-.126-1.337-1.345-3.136-2.737-3.367-1.102-.183-2.658.565-3.277,1.465-1.367,1.989-.842,4.43.933,5.885,1.297,1.063,3.916,1.55,4.943-.212.588-1.008.382-2.291.138-3.771Z"/><path class="cls-1" d="m204.006,443.969c1.157-1,2.02-3.322,1.314-4.767-.559-1.144-2.282-2.093-3.527-2.072-2.749.047-4.667,2.148-4.844,4.758-.129,1.906,1.151,4.658,3.465,4.446,1.324-.121,2.379-1.161,3.591-2.366Z"/><path class="cls-1" d="m203.797,446.181c1.033-.913,1.789-3.013,1.139-4.308-.515-1.025-2.076-1.864-3.198-1.833-2.477.068-4.185,1.98-4.319,4.333-.098,1.719,1.082,4.186,3.165,3.973,1.192-.122,2.132-1.069,3.213-2.166Z"/><path class="cls-1" d="m201.5,443.771c-1.006-.311-2.677.032-3.263.971-.464.744-.39,2.096.077,2.815,1.03,1.588,2.957,1.942,4.545,1.093,1.16-.62,2.3-2.371,1.332-3.645-.554-.729-1.546-.965-2.691-1.234Z"/><path class="cls-1" d="m203.75,449.779c.489-.932.458-2.636-.358-3.384-.646-.592-1.988-.766-2.78-.439-1.749.722-2.448,2.551-1.904,4.266.397,1.253,1.91,2.694,3.339,1.975.817-.411,1.231-1.342,1.704-2.419Z"/><path class="cls-1" d="m204.748,449.374c-.568-1.475-2.524-3.126-4.176-2.944-1.308.144-2.833,1.488-3.247,2.706-.915,2.69.458,5.289,2.934,6.373,1.808.792,4.932.509,5.535-1.816.345-1.33-.298-2.719-1.045-4.319Z"/><path class="cls-1" d="m202.298,450.131c-1.395-.614-3.854-.399-4.853.854-.791.992-.909,2.949-.358,4.061,1.217,2.455,3.929,3.283,6.354,2.327,1.771-.699,3.702-3.027,2.521-5.02-.675-1.14-2.062-1.645-3.664-2.221Z"/><path class="cls-1" d="m203.411,458.44c.916-.652,1.71-2.29,1.294-3.396-.329-.876-1.524-1.69-2.437-1.762-2.015-.157-3.565,1.247-3.876,3.144-.227,1.386.518,3.489,2.226,3.495.977.003,1.821-.684,2.792-1.481Z"/><path class="cls-1" d="m201.168,455.799c-1.206-.101-2.997.694-3.424,1.893-.338.949.078,2.449.778,3.142,1.547,1.53,3.797,1.453,5.371.109,1.15-.981,1.999-3.228.599-4.42-.801-.682-1.973-.704-3.325-.723Z"/><path class="cls-1" d="m204.331,460.028c-.336-1.214-1.758-2.676-3.082-2.661-1.049.012-2.363.958-2.787,1.892-.936,2.062-.05,4.231,1.829,5.284,1.372.769,3.872.789,4.532-1.008.377-1.028-.024-2.18-.492-3.507Z"/><path class="cls-1" d="m204.418,462.331c-.402-1.262-1.954-2.74-3.344-2.671-1.101.055-2.443,1.102-2.851,2.1-.9,2.203.118,4.446,2.134,5.476,1.472.752,4.099.672,4.719-1.242.355-1.095-.113-2.288-.658-3.663Z"/><path class="cls-1" d="m204.582,464.001c-.707-1.378-2.785-2.784-4.376-2.435-1.26.276-2.606,1.744-2.884,2.974-.613,2.716.996,5.107,3.522,5.906,1.845.584,4.86-.017,5.206-2.345.198-1.332-.573-2.619-1.468-4.1Z"/><path class="cls-1" d="m204.052,466.53c-.725-1.174-2.669-2.275-4.057-1.853-1.099.334-2.191,1.733-2.35,2.845-.352,2.455,1.245,4.464,3.544,4.995,1.679.388,4.313-.359,4.456-2.45.081-1.197-.694-2.285-1.593-3.537Z"/><path class="cls-1" d="m202.041,468.072c-1.218-.459-3.304-.163-4.098.951-.629.882-.639,2.556-.118,3.478,1.15,2.037,3.5,2.619,5.523,1.692,1.478-.677,3.017-2.751,1.919-4.396-.628-.941-1.833-1.308-3.226-1.725Z"/><path class="cls-1" d="m204.723,473.77c.189-1.294-.55-3.278-1.814-3.818-1.001-.428-2.646-.079-3.439.631-1.752,1.567-1.819,3.998-.474,5.785.982,1.305,3.348,2.37,4.727.939.789-.818.89-2.08,1.001-3.537Z"/><path class="cls-1" d="m202.883,479.447c1.303-.385,2.853-1.947,2.812-3.375-.033-1.131-1.079-2.531-2.094-2.97-2.242-.971-4.564.026-5.665,2.073-.804,1.495-.777,4.191,1.173,4.869,1.116.387,2.351-.067,3.773-.597Z"/><path class="cls-1" d="m201.104,476.181c-1.029-.064-2.54.648-2.881,1.677-.27.815.113,2.085.723,2.662,1.347,1.274,3.262,1.166,4.578-.009.961-.858,1.642-2.788.427-3.777-.695-.566-1.694-.562-2.846-.553Z"/><path class="cls-1" d="m204.02,480.768c-.036-1.058-.912-2.533-1.998-2.78-.86-.196-2.12.32-2.65,1-1.17,1.502-.871,3.449.459,4.679.971.898,3.011,1.404,3.903.065.51-.766.408-1.787.286-2.964Z"/><path class="cls-1" d="m204.125,482.136c-.462-1.172-2.031-2.475-3.346-2.321-1.041.123-2.248,1.203-2.571,2.176-.713,2.149.397,4.212,2.377,5.061,1.446.62,3.934.375,4.4-1.481.267-1.062-.254-2.165-.859-3.435Z"/><path class="cls-1" d="m201.799,483.062c-1.209-.388-3.228.004-3.947,1.129-.569.891-.497,2.523.056,3.396,1.222,1.929,3.54,2.38,5.467,1.377,1.407-.733,2.805-2.83,1.654-4.379-.658-.886-1.851-1.184-3.229-1.523Z"/><path class="cls-1" d="m204.387,488.08c-.067-1.248-1.135-2.966-2.421-3.233-1.018-.211-2.493.427-3.102,1.241-1.345,1.799-.947,4.088.65,5.508,1.166,1.037,3.584,1.587,4.605-.014.584-.916.44-2.117.269-3.502Z"/><path class="cls-1" d="m203.384,489.015c-.727-.98-2.522-1.805-3.713-1.33-.943.376-1.801,1.69-1.858,2.682-.127,2.189,1.43,3.84,3.495,4.136,1.508.216,3.773-.638,3.743-2.491-.018-1.06-.782-1.961-1.667-2.997Z"/><path class="cls-1" d="m202.053,490.601c-1.156-.544-3.221-.416-4.085.613-.684.815-.824,2.452-.386,3.395.968,2.083,3.222,2.835,5.275,2.085,1.499-.548,3.166-2.458,2.22-4.153-.542-.97-1.693-1.422-3.024-1.939Z"/><path class="cls-1" d="m202.127,500.085c1.551-.153,3.633-1.578,3.894-3.195.207-1.281-.67-3.083-1.719-3.797-2.316-1.576-5.147-.954-6.827,1.115-1.227,1.511-1.779,4.554.273,5.737,1.173.677,2.662.431,4.379.14Z"/><path class="cls-1" d="m203.929,497.42c-.321-1.194-1.706-2.639-3.006-2.634-1.029.004-2.326.924-2.749,1.837-.933,2.017-.079,4.152,1.758,5.199,1.342.765,3.795.802,4.455-.957.378-1.006-.008-2.139-.458-3.446Z"/><path class="cls-1" d="m201.636,504.302c1.233-.053,2.941-1.09,3.218-2.357.219-1.004-.396-2.467-1.194-3.077-1.762-1.347-4.028-.978-5.446.584-1.036,1.141-1.605,3.523-.034,4.548.898.586,2.086.457,3.456.302Z"/><path class="cls-1" d="m202.153,506.822c1.281-.272,2.887-1.656,2.954-3.031.053-1.089-.847-2.512-1.789-3.01-2.08-1.1-4.386-.317-5.597,1.567-.884,1.376-1.061,3.968.762,4.765,1.043.456,2.263.112,3.669-.291Z"/><path class="cls-1" d="m200.849,502.129c-1.569-.243-3.986.634-4.655,2.164-.529,1.211-.122,3.212.731,4.183,1.885,2.144,4.836,2.249,7.02.635,1.595-1.179,2.912-4.042,1.189-5.73-.986-.966-2.517-1.102-4.285-1.251Z"/><path class="cls-1" d="m201.01,505.738c-1.122-.263-2.92.237-3.489,1.307-.45.847-.267,2.318.297,3.068,1.245,1.656,3.375,1.897,5.045.85,1.22-.764,2.332-2.763,1.179-4.081-.66-.754-1.761-.937-3.032-1.144Z"/><path class="cls-1" d="m200.549,507.67c-1.36-.156-3.412.683-3.935,2.023-.415,1.061.005,2.771.773,3.578,1.697,1.782,4.243,1.772,6.069.307,1.333-1.07,2.37-3.581.828-4.977-.882-.798-2.206-.863-3.734-.931Z"/><path class="cls-1" d="m204.209,513.015c-.022-1.423-1.161-3.425-2.612-3.785-1.15-.285-2.856.376-3.584,1.276-1.61,1.987-1.258,4.61.497,6.296,1.281,1.231,4.008,1.963,5.24.187.705-1.016.594-2.389.46-3.973Z"/><path class="cls-1" d="m201.44,519.623c1.399-.13,3.284-1.404,3.528-2.86.193-1.153-.588-2.783-1.529-3.432-2.079-1.433-4.635-.887-6.161.969-1.114,1.355-1.627,4.096.216,5.173,1.054.616,2.398.403,3.947.15Z"/><path class="cls-1" d="m201.768,515.456c-1.142-.711-3.318-.831-4.348.139-.815.768-1.163,2.463-.821,3.504.756,2.298,3.022,3.361,5.261,2.829,1.635-.389,3.614-2.182,2.832-4.071-.447-1.081-1.596-1.696-2.924-2.4Z"/><path class="cls-1" d="m201.506,517.983c-1.138-.643-3.255-.668-4.213.316-.759.779-1.026,2.439-.651,3.435.83,2.198,3.073,3.136,5.224,2.526,1.571-.445,3.416-2.268,2.578-4.069-.479-1.03-1.619-1.579-2.938-2.207Z"/><path class="cls-1" d="m200.447,520.339c-1.25-.281-3.243.294-3.864,1.489-.492.946-.273,2.579.362,3.406,1.4,1.828,3.77,2.072,5.615.892,1.347-.862,2.563-3.095,1.268-4.547-.741-.831-1.966-1.023-3.381-1.24Z"/><path class="cls-1" d="m203.422,527.108c.597-1.204.507-3.378-.556-4.308-.842-.737-2.56-.92-3.562-.479-2.211.973-3.05,3.327-2.306,5.501.544,1.588,2.516,3.382,4.319,2.424,1.031-.548,1.532-1.749,2.105-3.137Z"/><path class="cls-1" d="m202.476,525.924c-.871-1.116-2.977-2.021-4.344-1.435-1.083.464-2.04,2.012-2.078,3.164-.084,2.543,1.769,4.413,4.173,4.697,1.756.207,4.358-.848,4.269-2.997-.051-1.229-.963-2.252-2.02-3.428Z"/></g></svg>