<?xml version="1.0" encoding="UTF-8"?><svg id="_레이어_1" xmlns="http://www.w3.org/2000/svg" viewBox="0 0 400 560"><defs><style>.cls-1{fill:#506f26;}</style></defs><g id="_1"><g><path class="cls-1" d="m220.267,488.415s35.51,1.937,41.392-33.136c-35.51-1.937-41.392,33.136-41.392,33.136Z"/><g><path class="cls-1" d="m221.418,489.267c.676-.273,1.423-1.187,1.327-1.947-.076-.602-.706-1.296-1.271-1.478-1.247-.403-2.436.249-2.917,1.399-.352.84-.199,2.278.877,2.539.616.149,1.252-.157,1.984-.513Z"/><path class="cls-1" d="m222.341,487.01c.423-.532.608-1.617.181-2.189-.338-.453-1.169-.726-1.71-.614-1.196.247-1.86,1.322-1.723,2.476.101.843.886,1.939,1.879,1.656.568-.162.943-.703,1.373-1.328Z"/><path class="cls-1" d="m222.414,483.444c-.392-.54-1.37-1-2.024-.746-.518.201-.993.915-1.03,1.457-.081,1.197.762,2.107,1.89,2.28.824.126,2.067-.329,2.06-1.343-.004-.58-.417-1.077-.897-1.648Z"/><path class="cls-1" d="m223.286,484.929c.756-.468,1.466-1.721,1.194-2.615-.215-.708-1.117-1.412-1.834-1.514-1.582-.227-2.877.803-3.219,2.285-.25,1.082.231,2.78,1.579,2.872.771.052,1.472-.447,2.279-1.027Z"/><path class="cls-1" d="m223.914,482.872c.523-.525.856-1.678.463-2.35-.311-.533-1.178-.929-1.779-.874-1.326.122-2.177,1.206-2.169,2.473.006.925.724,2.209,1.835,2.023.635-.106,1.107-.647,1.65-1.272Z"/><path class="cls-1" d="m224.514,481.235c.45-.545.663-1.668.231-2.271-.343-.478-1.2-.777-1.766-.671-1.248.233-1.959,1.338-1.838,2.54.088.878.883,2.032,1.921,1.757.593-.157.993-.712,1.452-1.354Z"/><path class="cls-1" d="m225.015,478.046c-.228-.625-1.039-1.333-1.735-1.269-.551.051-1.203.605-1.386,1.115-.405,1.125.154,2.229,1.188,2.703.755.346,2.071.25,2.342-.724.155-.557-.106-1.146-.409-1.825Z"/><path class="cls-1" d="m225.082,479.366c.806-.253,1.753-1.239,1.713-2.126-.032-.702-.696-1.562-1.331-1.825-1.403-.58-2.836.062-3.499,1.346-.484.937-.441,2.613.778,3.014.697.229,1.46-.065,2.339-.409Z"/><path class="cls-1" d="m224.996,477.857c.727.016,1.771-.527,1.983-1.262.168-.582-.138-1.465-.583-1.855-.984-.86-2.33-.73-3.224.134-.653.631-1.079,2.009-.195,2.672.505.379,1.209.349,2.02.31Z"/><path class="cls-1" d="m226.948,472.851c-.648-.626-2.056-1.009-2.866-.519-.642.389-1.107,1.45-1.029,2.179.173,1.611,1.508,2.625,3.048,2.59,1.125-.025,2.672-.922,2.425-2.269-.141-.77-.807-1.334-1.578-1.982Z"/><path class="cls-1" d="m227.818,472.456c-.312-.56-1.192-1.11-1.844-.943-.517.132-1.052.759-1.149,1.271-.214,1.132.486,2.097,1.541,2.391.771.214,2.009-.077,2.118-1.045.062-.553-.275-1.074-.666-1.674Z"/><path class="cls-1" d="m228.825,470.49c-.574-.645-1.891-1.113-2.701-.703-.641.325-1.163,1.305-1.141,2.007.048,1.551,1.25,2.617,2.724,2.695,1.077.057,2.62-.687,2.481-1.992-.079-.746-.674-1.333-1.364-2.008Z"/><path class="cls-1" d="m228.94,472.634c.694-.127,1.58-.848,1.638-1.588.045-.586-.418-1.366-.918-1.649-1.104-.624-2.358-.238-3.039.759-.497.728-.632,2.121.338,2.578.555.261,1.217.095,1.981-.101Z"/><path class="cls-1" d="m230.851,470.669c.49-.561.748-1.74.309-2.388-.348-.514-1.243-.854-1.842-.759-1.323.21-2.104,1.354-2.012,2.625.068.928.872,2.168,1.974,1.908.63-.149,1.068-.722,1.571-1.386Z"/><path class="cls-1" d="m232.18,468.904c.326-.758.198-2.089-.485-2.624-.541-.424-1.601-.479-2.201-.175-1.324.67-1.76,2.142-1.231,3.451.386.956,1.656,1.991,2.73,1.342.614-.371.881-1.124,1.186-1.995Z"/><path class="cls-1" d="m232.14,465.81c-.437-.511-1.455-.896-2.092-.59-.504.243-.926.998-.919,1.545.014,1.208.932,2.057,2.079,2.141.837.062,2.05-.494,1.963-1.512-.05-.582-.504-1.048-1.031-1.584Z"/><path class="cls-1" d="m233.831,466.383c.289-.676.173-1.859-.436-2.334-.482-.376-1.426-.423-1.959-.152-1.177.599-1.562,1.91-1.089,3.074.346.85,1.478,1.768,2.432,1.19.546-.331.782-1.002,1.052-1.777Z"/><path class="cls-1" d="m235.645,465.045c.143-.908-.36-2.308-1.245-2.698-.7-.308-1.859-.076-2.423.416-1.244,1.087-1.31,2.796-.379,4.062.68.925,2.335,1.692,3.315.698.561-.569.642-1.455.731-2.478Z"/><path class="cls-1" d="m236.458,464.864c.381-.681.391-1.945-.199-2.515-.467-.451-1.459-.606-2.052-.38-1.31.501-1.864,1.843-1.495,3.125.27.937,1.363,2.034,2.436,1.529.614-.289.939-.971,1.31-1.76Z"/><path class="cls-1" d="m236.379,461.729c-.578-.297-1.629-.267-2.086.24-.362.402-.461,1.231-.255,1.718.455,1.075,1.588,1.496,2.644,1.151.771-.252,1.651-1.194,1.2-2.072-.258-.502-.835-.752-1.502-1.038Z"/><path class="cls-1" d="m239.418,463.511c.557-.805.721-2.381.053-3.163-.529-.62-1.748-.932-2.516-.721-1.696.468-2.549,2.076-2.242,3.721.224,1.202,1.457,2.703,2.857,2.202.801-.287,1.288-1.099,1.847-2.039Z"/><path class="cls-1" d="m238.694,459.817c-.658-.206-1.752.013-2.138.626-.306.485-.261,1.371.042,1.843.67,1.042,1.929,1.279,2.971.728.761-.402,1.512-1.545.882-2.382-.36-.479-1.009-.636-1.758-.815Z"/><path class="cls-1" d="m240.841,458.446c-.795-.569-2.367-.758-3.16-.103-.627.519-.959,1.732-.76,2.503.441,1.702,2.034,2.579,3.683,2.298,1.204-.205,2.723-1.413,2.245-2.82-.274-.805-1.078-1.305-2.008-1.878Z"/><path class="cls-1" d="m241.58,457.862c-.718-.339-2.001-.262-2.538.376-.426.505-.515,1.522-.244,2.109.599,1.295,1.999,1.765,3.275,1.301.932-.339,1.97-1.524,1.384-2.578-.335-.603-1.05-.886-1.876-1.208Z"/><path class="cls-1" d="m244.363,459.815c.467-.738.556-2.149-.068-2.823-.494-.533-1.593-.767-2.27-.55-1.495.479-2.197,1.945-1.862,3.401.244,1.063,1.398,2.356,2.628,1.858.704-.285,1.109-1.027,1.572-1.886Z"/><path class="cls-1" d="m246.098,458.222c.218-.956-.218-2.483-1.131-2.961-.723-.379-1.973-.215-2.608.269-1.402,1.068-1.595,2.881-.696,4.297.657,1.034,2.363,1.969,3.478.981.638-.565.788-1.503.957-2.585Z"/><path class="cls-1" d="m246.601,456.873c-.253-.632-1.104-1.332-1.814-1.245-.562.069-1.212.656-1.384,1.183-.379,1.163.226,2.275,1.298,2.728.783.331,2.127.192,2.373-.812.141-.575-.143-1.169-.474-1.854Z"/><path class="cls-1" d="m248.455,457.981c.284-.669.165-1.84-.439-2.308-.478-.371-1.412-.414-1.939-.144-1.163.596-1.54,1.894-1.068,3.045.345.84,1.467,1.746,2.41,1.17.539-.329.771-.994,1.036-1.762Z"/><path class="cls-1" d="m250.059,457.077c.029-.737-.504-1.804-1.245-2.031-.587-.18-1.488.114-1.89.56-.888.983-.78,2.35.08,3.271.628.673,2.018,1.128,2.706.244.393-.506.374-1.219.349-2.043Z"/><path class="cls-1" d="m251.864,458.307c.61-.747.893-2.283.297-3.103-.472-.65-1.645-1.051-2.416-.903-1.702.328-2.664,1.842-2.49,3.482.127,1.198,1.222,2.768,2.636,2.384.809-.22,1.351-.98,1.972-1.86Z"/><path class="cls-1" d="m252.962,458.162c.615-.571,1.043-1.862.628-2.64-.329-.617-1.293-1.104-1.975-1.068-1.507.079-2.518,1.269-2.564,2.704-.034,1.048.722,2.533,1.988,2.371.724-.092,1.282-.683,1.924-1.368Z"/><path class="cls-1" d="m254.355,457.808c.559-.523.945-1.701.563-2.409-.302-.561-1.182-1.002-1.804-.966-1.374.078-2.291,1.166-2.328,2.474-.027.956.667,2.307,1.82,2.155.66-.087,1.166-.627,1.749-1.254Z"/><path class="cls-1" d="m255.244,458.469c.862-.216,1.917-1.194,1.929-2.128.009-.74-.636-1.683-1.287-1.998-1.438-.695-2.983-.107-3.758,1.2-.566.955-.622,2.718.634,3.213.719.284,1.538.02,2.482-.287Z"/><path class="cls-1" d="m256.361,458.45c.918-.04,2.19-.811,2.396-1.754.163-.747-.294-1.836-.888-2.291-1.312-1.003-2.999-.729-4.055.434-.771.849-1.195,2.623-.026,3.386.669.437,1.553.34,2.573.225Z"/><path class="cls-1" d="m258.338,457.79c.78-.236,1.704-1.179,1.674-2.035-.024-.678-.657-1.514-1.267-1.774-1.348-.574-2.737.033-3.39,1.265-.476.9-.45,2.517.722,2.916.671.228,1.41-.049,2.261-.372Z"/><path class="cls-1" d="m261.006,455.799c.173-.782-.192-2.028-.941-2.413-.593-.305-1.614-.164-2.13.235-1.14.881-1.287,2.364-.544,3.515.543.841,1.942,1.596,2.848.782.518-.466.635-1.232.767-2.118Z"/><path class="cls-1" d="m262.391,456.861c.662-.641,1.103-2.067.629-2.912-.375-.669-1.444-1.182-2.192-1.127-1.652.122-2.735,1.451-2.752,3.027-.013,1.151.851,2.764,2.236,2.557.792-.118,1.392-.779,2.08-1.545Z"/><path class="cls-1" d="m263.317,456.132c.305-.662.222-1.838-.368-2.326-.468-.386-1.402-.458-1.937-.204-1.183.561-1.601,1.85-1.164,3.017.319.852,1.416,1.793,2.378,1.246.55-.313.803-.972,1.091-1.733Z"/><path class="cls-1" d="m262.585,458.339c.586-.549.991-1.784.591-2.526-.317-.588-1.24-1.05-1.892-1.013-1.44.081-2.403,1.223-2.441,2.595-.028,1.002.7,2.419,1.909,2.26.692-.091,1.223-.658,1.834-1.315Z"/><path class="cls-1" d="m262.058,459.191c.357-.6.397-1.73-.117-2.254-.407-.415-1.29-.578-1.827-.39-1.184.416-1.713,1.603-1.413,2.759.219.844,1.17,1.852,2.142,1.427.556-.243.863-.846,1.215-1.542Z"/><path class="cls-1" d="m260.517,457.882c-.769-.397-2.171-.361-2.781.314-.483.535-.618,1.64-.345,2.289.604,1.434,2.112,1.999,3.52,1.542,1.028-.334,2.204-1.586,1.605-2.757-.343-.67-1.111-1.005-1.999-1.388Z"/><path class="cls-1" d="m259.993,463.5c.841-.149,1.918-1.016,1.992-1.911.059-.708-.497-1.656-1.1-2.001-1.332-.763-2.852-.303-3.682.898-.606.877-.779,2.563.392,3.122.67.32,1.472.123,2.398-.109Z"/><path class="cls-1" d="m259.584,461.126c-.625-.45-1.863-.602-2.489-.087-.495.407-.759,1.362-.603,1.97.344,1.341,1.597,2.035,2.896,1.817.949-.159,2.148-1.108,1.773-2.217-.214-.634-.847-1.03-1.578-1.483Z"/><path class="cls-1" d="m259.942,464.717c.259-.67.104-1.823-.507-2.266-.484-.351-1.408-.364-1.919-.08-1.129.626-1.46,1.92-.957,3.041.367.818,1.505,1.677,2.418,1.078.522-.343.73-1.006.966-1.773Z"/><path class="cls-1" d="m259.75,466.33c.344-.803.208-2.211-.516-2.777-.573-.448-1.695-.505-2.329-.183-1.4.711-1.861,2.269-1.3,3.654.41,1.011,1.755,2.105,2.891,1.418.65-.393.932-1.191,1.254-2.112Z"/><path class="cls-1" d="m258.565,466.16c-.32-.666-1.293-1.361-2.055-1.215-.604.116-1.264.799-1.411,1.382-.326,1.287.411,2.446,1.605,2.858.872.301,2.316.052,2.509-1.053.111-.632-.24-1.255-.648-1.972Z"/><path class="cls-1" d="m258.044,470.475c.788-.501,1.515-1.826,1.218-2.761-.236-.741-1.192-1.467-1.945-1.565-1.664-.216-3.009.882-3.348,2.442-.247,1.139.281,2.915,1.697,2.993.81.044,1.54-.489,2.379-1.109Z"/><path class="cls-1" d="m255.718,468.296c-.724-.05-1.79.444-2.035,1.166-.194.572.069,1.467.496,1.876.941.903,2.289.836,3.22.016.68-.599,1.168-1.953.318-2.655-.486-.401-1.189-.404-1.999-.403Z"/><path class="cls-1" d="m256.305,472.911c.569-.294,1.149-1.155,1.003-1.812-.115-.521-.724-1.076-1.233-1.19-1.124-.251-2.111.417-2.44,1.462-.24.764.011,2.01.975,2.151.551.081,1.083-.239,1.695-.611Z"/><path class="cls-1" d="m255.387,474.969c.89-.234,1.971-1.259,1.972-2.226.001-.766-.678-1.735-1.356-2.053-1.497-.703-3.09-.076-3.876,1.287-.575.995-.612,2.821.694,3.319.747.285,1.592.003,2.566-.327Z"/><path class="cls-1" d="m254.473,475.188c.577-.372,1.107-1.35.884-2.037-.177-.544-.883-1.074-1.438-1.143-1.225-.152-2.21.662-2.453,1.812-.177.839.219,2.144,1.262,2.195.596.029,1.131-.367,1.745-.827Z"/><path class="cls-1" d="m254.484,474.461c-.042-.927-.823-2.211-1.777-2.418-.755-.164-1.855.301-2.313.902-1.011,1.327-.731,3.031.446,4.097.86.778,2.652,1.203,3.421.02.44-.676.341-1.57.223-2.6Z"/><path class="cls-1" d="m251.981,477.409c.598-.281,1.229-1.145,1.105-1.829-.099-.541-.704-1.138-1.224-1.275-1.149-.303-2.193.347-2.572,1.412-.277.778-.067,2.072.921,2.255.565.105,1.125-.204,1.771-.563Z"/><path class="cls-1" d="m251.875,476.836c.031-.781-.533-1.913-1.318-2.155-.622-.191-1.577.12-2.004.591-.943,1.041-.829,2.49.082,3.467.665.714,2.138,1.198,2.868.261.417-.536.398-1.292.372-2.165Z"/><path class="cls-1" d="m250.818,477.977c.065-.806-.47-2.001-1.271-2.284-.635-.224-1.636.057-2.097.526-1.019,1.037-.963,2.539-.062,3.589.658.766,2.16,1.329,2.954.391.454-.537.466-1.319.476-2.223Z"/><path class="cls-1" d="m248.067,477.296c-.71-.293-1.946-.155-2.434.488-.387.509-.423,1.496-.132,2.05.642,1.222,2.018,1.607,3.228,1.096.884-.373,1.828-1.569,1.21-2.559-.354-.566-1.058-.804-1.872-1.075Z"/><path class="cls-1" d="m248.752,480.498c.229-.86-.116-2.259-.929-2.723-.643-.367-1.783-.259-2.375.159-1.307.923-1.541,2.561-.771,3.874.562.959,2.079,1.863,3.122,1.003.597-.492.764-1.337.952-2.313Z"/><path class="cls-1" d="m245.913,483.321c.8-.091,1.864-.844,1.986-1.681.097-.663-.37-1.587-.918-1.947-1.208-.796-2.665-.452-3.517.63-.622.79-.882,2.366.186,2.96.611.34,1.378.201,2.262.038Z"/><path class="cls-1" d="m244.9,480.389c-.677-.416-1.962-.479-2.566.097-.479.456-.678,1.458-.473,2.071.454,1.354,1.796,1.974,3.116,1.652.964-.235,2.126-1.301,1.658-2.413-.268-.636-.948-.996-1.735-1.407Z"/><path class="cls-1" d="m243.678,484.595c.728-.271,1.551-1.223,1.471-2.036-.063-.644-.715-1.401-1.312-1.611-1.317-.465-2.602.195-3.149,1.406-.399.884-.278,2.422.862,2.731.652.177,1.338-.131,2.129-.49Z"/><path class="cls-1" d="m241.451,481.529c-.736-.197-1.933.096-2.331.791-.315.55-.224,1.525.133,2.032.788,1.119,2.19,1.322,3.314.665.821-.48,1.597-1.776.863-2.67-.42-.511-1.143-.655-1.978-.818Z"/><path class="cls-1" d="m241.586,482.515c-.487-.779-1.786-1.505-2.709-1.219-.731.227-1.452,1.162-1.554,1.903-.225,1.636.846,2.968,2.379,3.313,1.12.252,2.871-.255,2.958-1.648.05-.797-.47-1.519-1.074-2.349Z"/><path class="cls-1" d="m240.441,484.186c-.056-.824-.776-1.95-1.628-2.115-.675-.131-1.643.304-2.039.848-.873,1.2-.59,2.71.478,3.633.78.675,2.382,1.017,3.042-.05.378-.61.272-1.403.146-2.316Z"/><path class="cls-1" d="m238.313,486.881c.709-.425,1.386-1.58,1.145-2.415-.191-.661-1.02-1.327-1.684-1.432-1.468-.232-2.685.708-3.023,2.081-.247,1.003.178,2.587,1.43,2.69.716.059,1.375-.396,2.133-.924Z"/><path class="cls-1" d="m235.957,484.124c-.643-.281-1.776-.18-2.235.398-.363.458-.416,1.359-.161,1.871.563,1.13,1.813,1.509,2.929,1.066.815-.324,1.702-1.398,1.157-2.315-.312-.525-.951-.756-1.69-1.02Z"/><path class="cls-1" d="m236.095,487.525c.537-.712.744-2.142.164-2.878-.459-.583-1.558-.913-2.265-.748-1.561.364-2.397,1.797-2.177,3.307.16,1.102,1.228,2.514,2.521,2.109.74-.232,1.213-.954,1.756-1.789Z"/><path class="cls-1" d="m234.838,486.295c-.108-.903-.964-2.099-1.91-2.232-.749-.105-1.79.428-2.193,1.048-.891,1.369-.494,3.013.733,3.967.896.697,2.677.982,3.342-.228.38-.692.219-1.557.029-2.555Z"/><path class="cls-1" d="m231.742,485.636c-.557-.358-1.626-.432-2.14.037-.407.372-.59,1.203-.429,1.718.356,1.136,1.463,1.675,2.568,1.429.807-.18,1.793-1.048,1.422-1.982-.212-.535-.773-.845-1.421-1.201Z"/><path class="cls-1" d="m230.074,485.738c-.622-.317-1.752-.281-2.241.266-.387.433-.491,1.325-.268,1.848.493,1.154,1.712,1.602,2.845,1.227.828-.274,1.77-1.289,1.282-2.231-.279-.539-.901-.805-1.618-1.11Z"/><path class="cls-1" d="m229.403,489.39c.745-.436,1.464-1.635,1.221-2.51-.192-.693-1.051-1.397-1.744-1.514-1.53-.258-2.812.711-3.179,2.141-.268,1.044.158,2.704,1.465,2.825.747.069,1.44-.399,2.237-.942Z"/><path class="cls-1" d="m228.409,489.375c.678-.662,1.124-2.128.633-2.995-.388-.686-1.489-1.208-2.257-1.148-1.697.132-2.803,1.502-2.815,3.122-.008,1.183.886,2.835,2.308,2.617.814-.125,1.426-.807,2.13-1.596Z"/><path class="cls-1" d="m225.408,490.376c.875-.049,2.079-.8,2.264-1.703.147-.715-.303-1.748-.875-2.174-1.264-.941-2.869-.658-3.862.464-.725.82-1.108,2.516.017,3.23.643.408,1.485.306,2.457.183Z"/><path class="cls-1" d="m225.207,487.006c-.403-.79-1.591-1.597-2.502-1.399-.721.157-1.494.995-1.654,1.699-.354,1.554.564,2.924,2.009,3.385,1.055.336,2.782-.004,2.982-1.336.115-.762-.325-1.5-.835-2.349Z"/><path class="cls-1" d="m222.759,489.956c.666-.262,1.408-1.153,1.321-1.9-.069-.592-.682-1.279-1.235-1.463-1.221-.407-2.394.223-2.878,1.348-.353.821-.216,2.235.839,2.501.603.152,1.231-.143,1.953-.486Z"/><path class="cls-1" d="m221.396,490.258c.782-.319,1.644-1.382,1.53-2.263-.091-.697-.825-1.498-1.48-1.707-1.447-.461-2.822.3-3.375,1.635-.404.975-.22,2.641,1.029,2.939.714.17,1.45-.188,2.297-.604Z"/></g></g><g><path class="cls-1" d="m193.693,471.928s3.559-45.231-40.994-53.81c-3.559,45.231,40.994,53.81,40.994,53.81Z"/><g><path class="cls-1" d="m193.669,470.313c-.615-.113-1.576.207-1.856.802-.221.471-.083,1.263.243,1.655.719.864,1.88.937,2.757.325.64-.447,1.19-1.56.529-2.243-.378-.391-.979-.461-1.674-.539Z"/><path class="cls-1" d="m194.499,471.568c.174-.907-.287-2.33-1.162-2.751-.693-.333-1.865-.137-2.447.339-1.285,1.052-1.407,2.765-.513,4.068.653.951,2.29,1.776,3.307.809.582-.553.692-1.441.816-2.466Z"/><path class="cls-1" d="m191.83,468.864c-.786-.601-2.369-.843-3.192-.206-.651.504-1.026,1.72-.849,2.506.391,1.735,1.974,2.674,3.65,2.443,1.224-.169,2.799-1.341,2.361-2.779-.251-.823-1.048-1.354-1.97-1.964Z"/><path class="cls-1" d="m190.76,472.26c.71-.528,1.306-1.831.959-2.694-.274-.684-1.228-1.304-1.947-1.344-1.588-.089-2.783,1.042-2.995,2.54-.155,1.094.467,2.736,1.812,2.711.769-.014,1.421-.569,2.171-1.213Z"/><path class="cls-1" d="m189.039,471.346c.574-.436,1.048-1.501.76-2.201-.229-.554-1.01-1.052-1.596-1.079-1.293-.06-2.257.871-2.418,2.092-.117.892.402,2.224,1.496,2.193.626-.018,1.153-.475,1.758-1.005Z"/><path class="cls-1" d="m187.257,467.915c-.536-.478-1.668-.739-2.297-.323-.498.329-.835,1.189-.75,1.767.188,1.276,1.282,2.041,2.507,1.965.895-.056,2.098-.818,1.859-1.882-.137-.609-.684-1.036-1.318-1.527Z"/><path class="cls-1" d="m185.684,466.689c-.781-.461-2.248-.508-2.927.161-.537.53-.745,1.678-.498,2.373.545,1.536,2.088,2.217,3.588,1.824,1.095-.287,2.4-1.526,1.844-2.787-.318-.721-1.101-1.117-2.007-1.571Z"/><path class="cls-1" d="m184.305,466.609c-.571-.447-1.731-.636-2.338-.176-.481.365-.765,1.253-.642,1.831.273,1.275,1.426,1.975,2.657,1.819.899-.114,2.063-.962,1.752-2.019-.178-.605-.758-1.001-1.429-1.455Z"/><path class="cls-1" d="m183.656,466.847c-.193-.695-1.008-1.53-1.766-1.521-.6.008-1.352.55-1.594,1.085-.534,1.181-.025,2.421,1.051,3.023.786.439,2.217.448,2.593-.58.215-.589-.015-1.247-.284-2.007Z"/><path class="cls-1" d="m182.821,465.891c-.287-.946-1.432-2.065-2.471-2.027-.822.03-1.835.799-2.149,1.54-.694,1.636.045,3.32,1.54,4.109,1.092.576,3.054.542,3.535-.881.276-.814-.062-1.71-.455-2.742Z"/><path class="cls-1" d="m180.215,464.561c-.638-.537-1.962-.803-2.679-.299-.568.399-.931,1.408-.813,2.077.261,1.476,1.557,2.329,2.978,2.2,1.037-.094,2.41-1.02,2.097-2.248-.179-.703-.829-1.181-1.582-1.731Z"/><path class="cls-1" d="m178.831,467.649c.835-.287,1.798-1.346,1.73-2.272-.053-.733-.773-1.613-1.444-1.869-1.483-.567-2.964.147-3.62,1.508-.479.994-.386,2.744.9,3.129.736.22,1.525-.11,2.434-.495Z"/><path class="cls-1" d="m177.044,462.956c-.651-.317-1.821-.259-2.317.317-.393.456-.485,1.382-.244,1.92.533,1.187,1.804,1.629,2.971,1.219.853-.299,1.811-1.369,1.287-2.335-.3-.553-.948-.818-1.698-1.12Z"/><path class="cls-1" d="m177.675,463.968c.217-.919-.191-2.393-1.067-2.861-.694-.37-1.899-.222-2.514.239-1.359,1.018-1.558,2.764-.702,4.133.625,1,2.261,1.915,3.343.971.619-.54.77-1.442.941-2.483Z"/><path class="cls-1" d="m174.989,461.547c-.449-.459-1.445-.759-2.031-.426-.465.264-.817,1.011-.776,1.532.092,1.15,1.022,1.899,2.12,1.905.802.004,1.921-.604,1.772-1.568-.085-.551-.549-.966-1.085-1.442Z"/><path class="cls-1" d="m173.591,464.074c.875-.183,1.974-1.124,2.023-2.062.039-.743-.572-1.716-1.214-2.058-1.417-.756-2.993-.227-3.823,1.056-.606.937-.733,2.706.509,3.254.711.314,1.544.082,2.505-.19Z"/><path class="cls-1" d="m173.222,462.388c.638-.57,1.1-1.876.693-2.678-.323-.635-1.295-1.15-1.992-1.127-1.537.051-2.592,1.243-2.667,2.705-.055,1.067.686,2.596,1.978,2.456.74-.08,1.32-.671,1.988-1.356Z"/><path class="cls-1" d="m171.882,458.684c-.438-.71-1.612-1.376-2.451-1.121-.664.202-1.324,1.046-1.421,1.718-.214,1.483.751,2.698,2.14,3.02,1.014.235,2.607-.215,2.693-1.479.05-.723-.418-1.381-.961-2.138Z"/><path class="cls-1" d="m169.722,457.681c-.524-.362-1.55-.469-2.06-.033-.403.345-.606,1.139-.468,1.639.305,1.104,1.353,1.658,2.424,1.458.782-.147,1.759-.95,1.432-1.861-.187-.521-.716-.838-1.328-1.202Z"/><path class="cls-1" d="m167.875,455.911c-.886-.185-2.288.244-2.714,1.095-.337.674-.164,1.825.293,2.403,1.01,1.276,2.687,1.422,3.978.568.943-.624,1.777-2.215.845-3.227-.533-.579-1.401-.701-2.403-.838Z"/><path class="cls-1" d="m166.868,458.925c.651-.029,1.552-.577,1.697-1.246.115-.53-.21-1.302-.632-1.623-.931-.71-2.126-.513-2.874.312-.546.603-.844,1.86-.015,2.4.474.309,1.101.24,1.824.157Z"/><path class="cls-1" d="m166.348,457.864c.676-.273,1.423-1.187,1.327-1.947-.076-.602-.706-1.296-1.271-1.478-1.247-.403-2.436.249-2.917,1.399-.352.84-.199,2.278.877,2.539.616.149,1.252-.157,1.984-.513Z"/><path class="cls-1" d="m166.055,455.809c.423-.532.608-1.617.181-2.189-.338-.453-1.169-.726-1.71-.614-1.196.247-1.86,1.322-1.723,2.476.101.843.886,1.939,1.879,1.656.568-.162.943-.703,1.373-1.328Z"/><path class="cls-1" d="m164.895,452.44c-.392-.54-1.37-1-2.024-.746-.518.201-.993.915-1.03,1.457-.081,1.197.762,2.107,1.89,2.28.824.126,2.067-.329,2.06-1.343-.004-.58-.417-1.077-.897-1.648Z"/><path class="cls-1" d="m164.344,454.062c.756-.468,1.466-1.721,1.194-2.615-.215-.708-1.117-1.412-1.834-1.514-1.582-.227-2.877.803-3.219,2.285-.25,1.082.231,2.78,1.579,2.872.771.052,1.472-.447,2.279-1.027Z"/><path class="cls-1" d="m163.55,452.14c.523-.525.856-1.678.463-2.35-.311-.533-1.178-.929-1.779-.874-1.326.122-2.177,1.206-2.169,2.473.006.925.724,2.209,1.835,2.023.635-.106,1.107-.647,1.65-1.272Z"/><path class="cls-1" d="m162.727,450.639c.45-.545.663-1.668.231-2.271-.343-.478-1.2-.777-1.766-.671-1.248.233-1.959,1.338-1.838,2.54.088.878.883,2.032,1.921,1.757.593-.157.993-.712,1.452-1.354Z"/><path class="cls-1" d="m161.806,447.586c-.228-.625-1.039-1.333-1.735-1.269-.551.051-1.203.605-1.386,1.115-.405,1.125.154,2.229,1.188,2.703.755.346,2.071.25,2.342-.724.155-.557-.106-1.146-.409-1.825Z"/><path class="cls-1" d="m160.45,449.043c.806-.253,1.753-1.239,1.713-2.126-.032-.702-.696-1.562-1.331-1.825-1.403-.58-2.836.062-3.499,1.346-.484.937-.441,2.613.778,3.014.697.229,1.46-.065,2.339-.409Z"/><path class="cls-1" d="m158.897,447.645c.727.016,1.771-.527,1.983-1.262.168-.582-.138-1.465-.583-1.855-.984-.86-2.33-.73-3.224.134-.653.631-1.079,2.009-.195,2.672.505.379,1.209.349,2.02.31Z"/><path class="cls-1" d="m159.107,442.601c-.648-.626-2.056-1.009-2.866-.519-.642.389-1.107,1.45-1.029,2.179.173,1.611,1.508,2.625,3.048,2.59,1.125-.025,2.672-.922,2.425-2.269-.141-.77-.807-1.334-1.578-1.982Z"/><path class="cls-1" d="m158.236,442.168c-.312-.56-1.192-1.11-1.844-.943-.517.132-1.052.759-1.149,1.271-.214,1.132.486,2.097,1.541,2.391.771.214,2.009-.077,2.118-1.045.062-.553-.275-1.074-.666-1.674Z"/><path class="cls-1" d="m157.501,440.164c-.574-.645-1.891-1.113-2.701-.703-.641.325-1.163,1.305-1.141,2.007.048,1.551,1.25,2.617,2.724,2.695,1.077.057,2.62-.687,2.481-1.992-.079-.746-.674-1.333-1.364-2.008Z"/><path class="cls-1" d="m156.127,442.178c.694-.127,1.58-.848,1.638-1.588.045-.586-.418-1.366-.918-1.649-1.104-.624-2.358-.238-3.039.759-.497.728-.632,2.121.338,2.578.555.261,1.217.095,1.981-.101Z"/><path class="cls-1" d="m156.944,439.939c.49-.561.748-1.74.309-2.388-.348-.514-1.243-.854-1.842-.759-1.323.21-2.104,1.354-2.012,2.625.068.928.872,2.168,1.974,1.908.63-.149,1.068-.722,1.571-1.386Z"/><path class="cls-1" d="m157.18,437.901c.326-.758.198-2.089-.485-2.624-.541-.424-1.601-.479-2.201-.175-1.324.67-1.76,2.142-1.231,3.451.386.956,1.656,1.991,2.73,1.342.614-.371.881-1.124,1.186-1.995Z"/><path class="cls-1" d="m156.046,434.533c-.437-.511-1.455-.896-2.092-.59-.504.243-.926.998-.919,1.545.014,1.208.932,2.057,2.079,2.141.837.062,2.05-.494,1.963-1.512-.05-.582-.504-1.048-1.031-1.584Z"/><path class="cls-1" d="m156.566,434.753c.289-.676.173-1.859-.436-2.334-.482-.376-1.426-.423-1.959-.152-1.177.599-1.562,1.91-1.089,3.074.346.85,1.478,1.768,2.432,1.19.546-.331.782-1.002,1.052-1.777Z"/><path class="cls-1" d="m156.898,432.745c.143-.908-.36-2.308-1.245-2.698-.7-.308-1.859-.076-2.423.416-1.244,1.087-1.31,2.796-.379,4.062.68.925,2.335,1.692,3.315.698.561-.569.642-1.455.731-2.478Z"/><path class="cls-1" d="m156.228,431.894c.381-.681.391-1.945-.199-2.515-.467-.451-1.459-.606-2.052-.38-1.31.501-1.864,1.843-1.495,3.125.27.937,1.363,2.034,2.436,1.529.614-.289.939-.971,1.31-1.76Z"/><path class="cls-1" d="m154.667,428.089c-.578-.297-1.629-.267-2.086.24-.362.402-.461,1.231-.255,1.718.455,1.075,1.588,1.496,2.644,1.151.771-.252,1.651-1.194,1.2-2.072-.258-.502-.835-.752-1.502-1.038Z"/><path class="cls-1" d="m156.223,429.201c.557-.805.721-2.381.053-3.163-.529-.62-1.748-.932-2.516-.721-1.696.468-2.549,2.076-2.242,3.721.224,1.202,1.457,2.703,2.857,2.202.801-.287,1.288-1.099,1.847-2.039Z"/><path class="cls-1" d="m154.017,424.837c-.658-.206-1.752.013-2.138.626-.306.485-.261,1.371.042,1.843.67,1.042,1.929,1.279,2.971.728.761-.402,1.512-1.545.882-2.382-.36-.479-1.009-.636-1.758-.815Z"/><path class="cls-1" d="m154.682,422.796c-.795-.569-2.367-.758-3.16-.103-.627.519-.959,1.732-.76,2.503.441,1.702,2.034,2.579,3.683,2.298,1.204-.205,2.723-1.413,2.245-2.82-.274-.805-1.078-1.305-2.008-1.878Z"/><path class="cls-1" d="m153.939,421.542c-.718-.339-2.001-.262-2.538.376-.426.505-.515,1.522-.244,2.109.599,1.295,1.999,1.765,3.275,1.301.932-.339,1.97-1.524,1.384-2.578-.335-.603-1.05-.886-1.876-1.208Z"/><path class="cls-1" d="m155.239,422.825c.467-.738.556-2.149-.068-2.823-.494-.533-1.593-.767-2.27-.55-1.495.479-2.197,1.945-1.862,3.401.244,1.063,1.398,2.356,2.628,1.858.704-.285,1.109-1.027,1.572-1.886Z"/><path class="cls-1" d="m155.492,420.562c.218-.956-.218-2.483-1.131-2.961-.723-.379-1.973-.215-2.608.269-1.402,1.068-1.595,2.881-.696,4.297.657,1.034,2.363,1.969,3.478.981.638-.565.788-1.503.957-2.585Z"/><path class="cls-1" d="m154.285,417.963c-.253-.632-1.104-1.332-1.814-1.245-.562.069-1.212.656-1.384,1.183-.379,1.163.226,2.275,1.298,2.728.783.331,2.127.192,2.373-.812.141-.575-.143-1.169-.474-1.854Z"/><path class="cls-1" d="m155.251,418.868c.284-.669.165-1.84-.439-2.308-.478-.371-1.412-.414-1.939-.144-1.163.596-1.54,1.894-1.068,3.045.345.84,1.467,1.746,2.41,1.17.539-.329.771-.994,1.036-1.762Z"/><path class="cls-1" d="m156.753,418.794c.029-.737-.504-1.804-1.245-2.031-.587-.18-1.488.114-1.89.56-.888.983-.78,2.35.08,3.271.628.673,2.018,1.128,2.706.244.393-.506.374-1.219.349-2.043Z"/><path class="cls-1" d="m158.456,420.854c.61-.747.893-2.283.297-3.103-.472-.65-1.645-1.051-2.416-.903-1.702.328-2.664,1.842-2.49,3.482.127,1.198,1.222,2.768,2.636,2.384.809-.22,1.351-.98,1.972-1.86Z"/><path class="cls-1" d="m159.451,421.538c.615-.571,1.043-1.862.628-2.64-.329-.617-1.293-1.104-1.975-1.068-1.507.079-2.518,1.269-2.564,2.704-.034,1.048.722,2.533,1.988,2.371.724-.092,1.282-.683,1.924-1.368Z"/><path class="cls-1" d="m160.743,422.014c.559-.523.945-1.701.563-2.409-.302-.561-1.182-1.002-1.804-.966-1.374.078-2.291,1.166-2.328,2.474-.027.956.667,2.307,1.82,2.155.66-.087,1.166-.627,1.749-1.254Z"/><path class="cls-1" d="m161.53,423.503c.862-.216,1.917-1.194,1.929-2.128.009-.74-.636-1.683-1.287-1.998-1.438-.695-2.983-.107-3.758,1.2-.566.955-.622,2.718.634,3.213.719.284,1.538.02,2.482-.287Z"/><path class="cls-1" d="m162.545,424.315c.918-.04,2.19-.811,2.396-1.754.163-.747-.294-1.836-.888-2.291-1.312-1.003-2.999-.729-4.055.434-.771.849-1.195,2.623-.026,3.386.669.437,1.553.34,2.573.225Z"/><path class="cls-1" d="m164.42,424.484c.78-.236,1.704-1.179,1.674-2.035-.024-.678-.657-1.514-1.267-1.774-1.348-.574-2.737.033-3.39,1.265-.476.9-.45,2.517.722,2.916.671.228,1.41-.049,2.261-.372Z"/><path class="cls-1" d="m166.986,423.322c.173-.782-.192-2.028-.941-2.413-.593-.305-1.614-.164-2.13.235-1.14.881-1.287,2.364-.544,3.515.543.841,1.942,1.596,2.848.782.518-.466.635-1.232.767-2.118Z"/><path class="cls-1" d="m168.269,425.214c.662-.641,1.103-2.067.629-2.912-.375-.669-1.444-1.182-2.192-1.127-1.652.122-2.735,1.451-2.752,3.027-.013,1.151.851,2.764,2.236,2.557.792-.118,1.392-.779,2.08-1.545Z"/><path class="cls-1" d="m169.609,424.902c.305-.662.222-1.838-.368-2.326-.468-.386-1.402-.458-1.937-.204-1.183.561-1.601,1.85-1.164,3.017.319.852,1.416,1.793,2.378,1.246.55-.313.803-.972,1.091-1.733Z"/><path class="cls-1" d="m170.877,426.256c.586-.549.991-1.784.591-2.526-.317-.588-1.24-1.05-1.892-1.013-1.44.081-2.403,1.223-2.441,2.595-.028,1.002.7,2.419,1.909,2.26.692-.091,1.223-.658,1.834-1.315Z"/><path class="cls-1" d="m172.35,426.255c.357-.6.397-1.73-.117-2.254-.407-.415-1.29-.578-1.827-.39-1.184.416-1.713,1.603-1.413,2.759.219.844,1.17,1.852,2.142,1.427.556-.243.863-.846,1.215-1.542Z"/><path class="cls-1" d="m172.809,424.092c-.769-.397-2.171-.361-2.781.314-.483.535-.618,1.64-.345,2.289.604,1.434,2.112,1.999,3.52,1.542,1.028-.334,2.204-1.586,1.605-2.757-.343-.67-1.111-1.005-1.999-1.388Z"/><path class="cls-1" d="m174.285,428.857c.841-.149,1.918-1.016,1.992-1.911.059-.708-.497-1.656-1.1-2.001-1.332-.763-2.852-.303-3.682.898-.606.877-.779,2.563.392,3.122.67.32,1.472.123,2.398-.109Z"/><path class="cls-1" d="m175.618,425.992c-.625-.45-1.863-.602-2.489-.087-.495.407-.759,1.362-.603,1.97.344,1.341,1.597,2.035,2.896,1.817.949-.159,2.148-1.108,1.773-2.217-.214-.634-.847-1.03-1.578-1.483Z"/><path class="cls-1" d="m177.576,429.293c.259-.67.104-1.823-.507-2.266-.484-.351-1.408-.364-1.919-.08-1.129.626-1.46,1.92-.957,3.041.367.818,1.505,1.677,2.418,1.078.522-.343.73-1.006.966-1.773Z"/><path class="cls-1" d="m178.985,430.614c.344-.803.208-2.211-.516-2.777-.573-.448-1.695-.505-2.329-.183-1.4.711-1.861,2.269-1.3,3.654.41,1.011,1.755,2.105,2.891,1.418.65-.393.932-1.191,1.254-2.112Z"/><path class="cls-1" d="m179.401,430.154c-.32-.666-1.293-1.361-2.055-1.215-.604.116-1.264.799-1.411,1.382-.326,1.287.411,2.446,1.605,2.858.872.301,2.316.052,2.509-1.053.111-.632-.24-1.255-.648-1.972Z"/><path class="cls-1" d="m180.481,434.178c.788-.501,1.515-1.826,1.218-2.761-.236-.741-1.192-1.467-1.945-1.565-1.664-.216-3.009.882-3.348,2.442-.247,1.139.281,2.915,1.697,2.993.81.044,1.54-.489,2.379-1.109Z"/><path class="cls-1" d="m179.755,431.708c-.724-.05-1.79.444-2.035,1.166-.194.572.069,1.467.496,1.876.941.903,2.289.836,3.22.016.68-.599,1.168-1.953.318-2.655-.486-.401-1.189-.404-1.999-.403Z"/><path class="cls-1" d="m181.942,436.032c.569-.294,1.149-1.155,1.003-1.812-.115-.521-.724-1.076-1.233-1.19-1.124-.251-2.111.417-2.44,1.462-.24.764.011,2.01.975,2.151.551.081,1.083-.239,1.695-.611Z"/><path class="cls-1" d="m182.961,438.026c.89-.234,1.971-1.259,1.972-2.226.001-.766-.678-1.735-1.356-2.053-1.497-.703-3.09-.076-3.876,1.287-.575.995-.612,2.821.694,3.319.747.285,1.592.003,2.566-.327Z"/><path class="cls-1" d="m184.219,438.34c.577-.372,1.107-1.35.884-2.037-.177-.544-.883-1.074-1.438-1.143-1.225-.152-2.21.662-2.453,1.812-.177.839.219,2.144,1.262,2.195.596.029,1.131-.367,1.745-.827Z"/><path class="cls-1" d="m186.402,437.708c-.042-.927-.823-2.211-1.777-2.418-.755-.164-1.855.301-2.313.902-1.011,1.327-.731,3.031.446,4.097.86.778,2.652,1.203,3.421.02.44-.676.341-1.57.223-2.6Z"/><path class="cls-1" d="m186.071,440.751c.598-.281,1.229-1.145,1.105-1.829-.099-.541-.704-1.138-1.224-1.275-1.149-.303-2.193.347-2.572,1.412-.277.778-.067,2.072.921,2.255.565.105,1.125-.204,1.771-.563Z"/><path class="cls-1" d="m188.137,440.272c.031-.781-.533-1.913-1.318-2.155-.622-.191-1.577.12-2.004.591-.943,1.041-.829,2.49.082,3.467.665.714,2.138,1.198,2.868.261.417-.536.398-1.292.372-2.165Z"/><path class="cls-1" d="m188.881,441.736c.065-.806-.47-2.001-1.271-2.284-.635-.224-1.636.057-2.097.526-1.019,1.037-.963,2.539-.062,3.589.658.766,2.16,1.329,2.954.391.454-.537.466-1.319.476-2.223Z"/><path class="cls-1" d="m187.83,441.44c-.71-.293-1.946-.155-2.434.488-.387.509-.423,1.496-.132,2.05.642,1.222,2.018,1.607,3.228,1.096.884-.373,1.828-1.569,1.21-2.559-.354-.566-1.058-.804-1.872-1.075Z"/><path class="cls-1" d="m190.214,445.027c.229-.86-.116-2.259-.929-2.723-.643-.367-1.783-.259-2.375.159-1.307.923-1.541,2.561-.771,3.874.562.959,2.079,1.863,3.122,1.003.597-.492.764-1.337.952-2.313Z"/><path class="cls-1" d="m189.073,448.235c.8-.091,1.864-.844,1.986-1.681.097-.663-.37-1.587-.918-1.947-1.208-.796-2.665-.452-3.517.63-.622.79-.882,2.366.186,2.96.611.34,1.378.201,2.262.038Z"/><path class="cls-1" d="m189.848,445.824c-.677-.416-1.962-.479-2.566.097-.479.456-.678,1.458-.473,2.071.454,1.354,1.796,1.974,3.116,1.652.964-.235,2.126-1.301,1.658-2.413-.268-.636-.948-.996-1.735-1.407Z"/><path class="cls-1" d="m190.627,450.881c.728-.271,1.551-1.223,1.471-2.036-.063-.644-.715-1.401-1.312-1.611-1.317-.465-2.602.195-3.149,1.406-.399.884-.278,2.422.862,2.731.652.177,1.338-.131,2.129-.49Z"/><path class="cls-1" d="m190.4,448.667c-.736-.197-1.933.096-2.331.791-.315.55-.224,1.525.133,2.032.788,1.119,2.19,1.322,3.314.665.821-.48,1.597-1.776.863-2.67-.42-.511-1.143-.655-1.978-.818Z"/><path class="cls-1" d="m192.536,450.503c-.487-.779-1.786-1.505-2.709-1.219-.731.227-1.452,1.162-1.554,1.903-.225,1.636.846,2.968,2.379,3.313,1.12.252,2.871-.255,2.958-1.648.05-.797-.47-1.519-1.074-2.349Z"/><path class="cls-1" d="m193.392,453.026c-.056-.824-.776-1.95-1.628-2.115-.675-.131-1.643.304-2.039.848-.873,1.2-.59,2.71.478,3.633.78.675,2.382,1.017,3.042-.05.378-.61.272-1.403.146-2.316Z"/><path class="cls-1" d="m193.264,456.572c.709-.425,1.386-1.58,1.145-2.415-.191-.661-1.02-1.327-1.684-1.432-1.468-.232-2.685.708-3.023,2.081-.247,1.003.178,2.587,1.43,2.69.716.059,1.375-.396,2.133-.924Z"/><path class="cls-1" d="m192.679,454.726c-.643-.281-1.776-.18-2.235.398-.363.458-.416,1.359-.161,1.871.563,1.13,1.813,1.509,2.929,1.066.815-.324,1.702-1.398,1.157-2.315-.312-.525-.951-.756-1.69-1.02Z"/><path class="cls-1" d="m194.466,459.069c.537-.712.744-2.142.164-2.878-.459-.583-1.558-.913-2.265-.748-1.561.364-2.397,1.797-2.177,3.307.16,1.102,1.228,2.514,2.521,2.109.74-.232,1.213-.954,1.756-1.789Z"/><path class="cls-1" d="m194.893,458.904c-.108-.903-.964-2.099-1.91-2.232-.749-.105-1.79.428-2.193,1.048-.891,1.369-.494,3.013.733,3.967.896.697,2.677.982,3.342-.228.38-.692.219-1.557.029-2.555Z"/><path class="cls-1" d="m193.545,459.538c-.557-.358-1.626-.432-2.14.037-.407.372-.59,1.203-.429,1.718.356,1.136,1.463,1.675,2.568,1.429.807-.18,1.793-1.048,1.422-1.982-.212-.535-.773-.845-1.421-1.201Z"/><path class="cls-1" d="m193.626,460.932c-.622-.317-1.752-.281-2.241.266-.387.433-.491,1.325-.268,1.848.493,1.154,1.712,1.602,2.845,1.227.828-.274,1.77-1.289,1.282-2.231-.279-.539-.901-.805-1.618-1.11Z"/><path class="cls-1" d="m194.704,465.876c.745-.436,1.464-1.635,1.221-2.51-.192-.693-1.051-1.397-1.744-1.514-1.53-.258-2.812.711-3.179,2.141-.268,1.044.158,2.704,1.465,2.825.747.069,1.44-.399,2.237-.942Z"/><path class="cls-1" d="m195.458,467.154c.678-.662,1.124-2.128.633-2.995-.388-.686-1.489-1.208-2.257-1.148-1.697.132-2.803,1.502-2.815,3.122-.008,1.183.886,2.835,2.308,2.617.814-.125,1.426-.807,2.13-1.596Z"/><path class="cls-1" d="m194.192,469.448c.875-.049,2.079-.8,2.264-1.703.147-.715-.303-1.748-.875-2.174-1.264-.941-2.869-.658-3.862.464-.725.82-1.108,2.516.017,3.23.643.408,1.485.306,2.457.183Z"/><path class="cls-1" d="m195.53,467.471c-.403-.79-1.591-1.597-2.502-1.399-.721.157-1.494.995-1.654,1.699-.354,1.554.564,2.924,2.009,3.385,1.055.336,2.782-.004,2.982-1.336.115-.762-.325-1.5-.835-2.349Z"/><path class="cls-1" d="m194.634,471.945c.666-.262,1.408-1.153,1.321-1.9-.069-.592-.682-1.279-1.235-1.463-1.221-.407-2.394.223-2.878,1.348-.353.821-.216,2.235.839,2.501.603.152,1.231-.143,1.953-.486Z"/><path class="cls-1" d="m194.822,473.771c.782-.319,1.644-1.382,1.53-2.263-.091-.697-.825-1.498-1.48-1.707-1.447-.461-2.822.3-3.375,1.635-.404.975-.22,2.641,1.029,2.939.714.17,1.45-.188,2.297-.604Z"/></g></g><g><path class="cls-1" d="m201.147,526.799c-.934-.742-2.838-1.067-3.842-.316-.796.594-1.273,2.052-1.076,3.002.434,2.099,2.322,3.265,4.347,3.022,1.479-.177,3.402-1.557,2.904-3.299-.285-.997-1.234-1.654-2.333-2.408Z"/><path class="cls-1" d="m203.232,525.923c-.185-1.415-1.551-3.28-3.039-3.472-1.179-.152-2.803.703-3.426,1.684-1.376,2.166-.723,4.74,1.219,6.218,1.419,1.08,4.221,1.496,5.244-.417.585-1.094.317-2.45.001-4.013Z"/><path class="cls-1" d="m203.16,523.726c-.082-1.34-1.242-3.178-2.626-3.455-1.096-.219-2.675.478-3.323,1.358-1.431,1.943-.986,4.4.741,5.913,1.261,1.105,3.863,1.677,4.947-.051.62-.988.456-2.278.261-3.765Z"/><path class="cls-1" d="m200.278,525.099c1.222.045,2.991-.844,3.364-2.073.296-.974-.196-2.467-.936-3.132-1.634-1.469-3.9-1.284-5.424.147-1.113,1.045-1.863,3.352-.393,4.488.841.65,2.024.616,3.389.571Z"/><path class="cls-1" d="m201.488,515.807c-1.332-.822-3.862-.952-5.056.18-.945.897-1.342,2.87-.939,4.078.89,2.669,3.529,3.896,6.131,3.267,1.9-.459,4.193-2.553,3.276-4.747-.525-1.255-1.863-1.965-3.411-2.779Z"/><path class="cls-1" d="m202.789,518.757c.844-.952,1.301-2.961.56-4.074-.587-.882-2.111-1.475-3.135-1.321-2.261.341-3.612,2.284-3.471,4.455.103,1.586,1.461,3.714,3.346,3.285,1.078-.246,1.834-1.219,2.701-2.345Z"/><path class="cls-1" d="m202.703,516.94c1.093-.848,1.985-2.902,1.417-4.241-.45-1.06-1.96-2-3.085-2.041-2.485-.091-4.318,1.714-4.604,4.063-.209,1.715.814,4.262,2.915,4.183,1.201-.046,2.204-.934,3.357-1.963Z"/><path class="cls-1" d="m201.755,515.085c1.273-.413,2.759-1.99,2.682-3.395-.061-1.112-1.127-2.464-2.138-2.871-2.232-.898-4.493.143-5.524,2.186-.753,1.492-.658,4.147,1.28,4.763,1.109.353,2.313-.126,3.7-.684Z"/><path class="cls-1" d="m203.914,510.919c.656-1.073.751-3.106-.163-4.06-.724-.756-2.31-1.068-3.279-.74-2.141.724-3.117,2.848-2.603,4.936.375,1.524,2.066,3.359,3.825,2.615,1.006-.426,1.572-1.504,2.22-2.75Z"/><path class="cls-1" d="m203.082,504.909c-.902-.596-2.646-.74-3.495.016-.672.599-.988,1.953-.736,2.796.557,1.862,2.353,2.765,4.163,2.387,1.322-.276,2.95-1.673,2.363-3.208-.336-.878-1.244-1.397-2.296-1.991Z"/><path class="cls-1" d="m202.97,502.438c-1.048-.175-2.673.394-3.132,1.413-.363.807-.106,2.149.458,2.805,1.245,1.449,3.22,1.542,4.694.478,1.076-.777,1.98-2.683.839-3.826-.653-.654-1.676-.756-2.859-.87Z"/><path class="cls-1" d="m207.603,504.564c.878-1.294,1.116-3.813.037-5.053-.854-.981-2.806-1.462-4.029-1.112-2.701.773-4.039,3.354-3.523,5.977.377,1.915,2.368,4.294,4.596,3.472,1.275-.47,2.041-1.775,2.919-3.285Z"/><path class="cls-1" d="m207.05,502.9c1.015-.651,1.948-2.366,1.559-3.572-.308-.955-1.546-1.888-2.52-2.011-2.15-.271-3.882,1.154-4.311,3.17-.314,1.473.377,3.763,2.206,3.857,1.047.053,1.986-.64,3.066-1.444Z"/><path class="cls-1" d="m208.437,501.244c1.277-.756,2.5-2.824,2.075-4.325-.337-1.188-1.819-2.391-3.011-2.585-2.633-.428-4.826,1.248-5.443,3.71-.451,1.798.298,4.646,2.544,4.841,1.285.112,2.471-.7,3.835-1.641Z"/><path class="cls-1" d="m207.612,492.916c-1.417-.184-3.571.658-4.138,2.049-.449,1.101-.039,2.892.75,3.746,1.742,1.886,4.399,1.916,6.327.416,1.408-1.095,2.53-3.699.942-5.18-.908-.847-2.288-.935-3.881-1.031Z"/><path class="cls-1" d="m211.774,496.145c.636-.779.932-2.38.312-3.236-.492-.678-1.715-1.097-2.519-.943-1.775.341-2.779,1.919-2.599,3.63.132,1.249,1.273,2.887,2.748,2.487.844-.228,1.409-1.021,2.058-1.938Z"/><path class="cls-1" d="m211.997,497.146c1.581.005,3.828-1.219,4.258-2.824.34-1.271-.359-3.179-1.344-4.007-2.174-1.828-5.095-1.491-7.003.423-1.393,1.398-2.263,4.412-.315,5.816,1.114.803,2.642.708,4.404.592Z"/><path class="cls-1" d="m215.911,491.04c.016-1.083-.805-2.633-1.901-2.941-.868-.243-2.182.221-2.757.889-1.27,1.476-1.063,3.48.234,4.803.947.966,3.006,1.586,3.984.262.56-.757.507-1.805.441-3.013Z"/><path class="cls-1" d="m216.356,493.7c1.495-.223,3.442-1.704,3.617-3.283.138-1.25-.798-2.953-1.848-3.594-2.319-1.415-5.031-.675-6.558,1.41-1.115,1.522-1.503,4.496.541,5.543,1.169.599,2.599.289,4.248-.076Z"/><path class="cls-1" d="m220.104,489.343c.328-1.011.006-2.702-.934-3.307-.744-.479-2.11-.423-2.842.037-1.618,1.017-2.002,2.956-1.168,4.571.609,1.18,2.36,2.355,3.66,1.396.743-.549.996-1.546,1.284-2.698Z"/><path class="cls-1" d="m219.976,490.976c1.228.074,3.029-.777,3.434-2.005.321-.972-.138-2.486-.866-3.173-1.609-1.517-3.893-1.385-5.46.018-1.145,1.025-1.954,3.328-.502,4.506.83.674,2.021.668,3.396.655Z"/><path class="cls-1" d="m225.371,487.651c.513-1.274.249-3.483-.908-4.347-.916-.684-2.682-.734-3.668-.206-2.176,1.166-2.845,3.632-1.914,5.789.68,1.575,2.832,3.248,4.594,2.128,1.008-.641,1.423-1.904,1.896-3.364Z"/><path class="cls-1" d="m226.219,488.867c1.131-.556,2.304-2.227,2.043-3.526-.207-1.029-1.383-2.145-2.38-2.388-2.202-.537-4.17.739-4.855,2.783-.501,1.493-.055,3.955,1.835,4.268,1.081.18,2.139-.429,3.357-1.137Z"/></g><g><path class="cls-1" d="m183.089,464.592c1.145-.171,2.636-1.306,2.769-2.515.106-.958-.612-2.262-1.416-2.752-1.776-1.083-3.853-.516-5.022,1.081-.854,1.166-1.15,3.444.416,4.245.896.458,1.991.22,3.253-.059Z"/><path class="cls-1" d="m187.03,462.216c-.181-1.124-1.313-2.577-2.503-2.695-.943-.093-2.217.626-2.69,1.422-1.045,1.758-.465,3.794,1.118,4.926,1.156.827,3.398,1.093,4.169-.455.441-.885.195-1.959-.093-3.198Z"/><path class="cls-1" d="m189.826,463.134c-.308-1.427-1.856-3.212-3.389-3.283-1.214-.056-2.797.952-3.349,2.004-1.22,2.323-.338,4.891,1.766,6.234,1.537.981,4.427,1.169,5.309-.866.505-1.164.117-2.523-.337-4.09Z"/><path class="cls-1" d="m191.348,463.065c-.896-1.3-3.18-2.448-4.743-1.887-1.237.444-2.406,2.105-2.525,3.385-.263,2.826,1.677,5.032,4.335,5.508,1.941.348,4.91-.655,4.954-3.054.025-1.372-.923-2.572-2.022-3.952Z"/><path class="cls-1" d="m191.675,469.549c.969-.3,2.111-1.48,2.067-2.546-.035-.844-.83-1.879-1.591-2.197-1.682-.703-3.407.063-4.208,1.602-.585,1.123-.54,3.136.922,3.623.837.279,1.754-.072,2.811-.482Z"/><path class="cls-1" d="m194.116,471.108c.872-.741,1.533-2.472,1.015-3.558-.411-.86-1.694-1.581-2.625-1.573-2.057.017-3.506,1.577-3.655,3.528-.109,1.425.831,3.493,2.564,3.349.991-.082,1.787-.853,2.702-1.747Z"/><path class="cls-1" d="m195.501,469.479c-.606-1.114-2.333-2.222-3.627-1.906-1.025.251-2.098,1.478-2.3,2.49-.448,2.234.915,4.158,2.997,4.762,1.52.441,3.975-.109,4.212-2.02.136-1.093-.52-2.131-1.281-3.325Z"/><path class="cls-1" d="m195.188,476.403c1.109-.291,2.457-1.569,2.459-2.775.002-.955-.845-2.163-1.69-2.56-1.866-.877-3.851-.096-4.832,1.603-.716,1.24-.764,3.516.864,4.138.931.356,1.985.004,3.199-.406Z"/><path class="cls-1" d="m198.15,476.286c.314-1.177-.157-3.092-1.268-3.727-.88-.503-2.44-.357-3.25.214-1.789,1.261-2.112,3.503-1.06,5.301.768,1.313,2.843,2.552,4.272,1.377.818-.673,1.047-1.829,1.306-3.165Z"/><path class="cls-1" d="m198.964,478.576c.312-1.082-.087-2.861-1.102-3.469-.804-.482-2.248-.375-3.008.137-1.678,1.132-2.018,3.199-1.079,4.88.685,1.228,2.58,2.412,3.923,1.352.768-.606,1.002-1.671,1.266-2.901Z"/><path class="cls-1" d="m200.795,479.743c-.059-1.45-1.271-3.462-2.76-3.792-1.179-.261-2.901.457-3.621,1.393-1.59,2.067-1.164,4.732.668,6.405,1.338,1.222,4.136,1.898,5.346.056.692-1.054.544-2.451.366-4.062Z"/><path class="cls-1" d="m200.774,483.69c.494-1.143.306-3.15-.723-3.959-.815-.641-2.414-.727-3.319-.271-1.999,1.007-2.661,3.226-1.867,5.202.58,1.443,2.492,3.008,4.114,2.033.928-.557,1.333-1.693,1.795-3.005Z"/><path class="cls-1" d="m199.515,482.45c-1.037-.718-3.067-.929-4.075-.068-.798.682-1.201,2.252-.928,3.242.603,2.185,2.675,3.283,4.795,2.887,1.548-.289,3.482-1.877,2.836-3.681-.369-1.032-1.416-1.66-2.627-2.38Z"/><path class="cls-1" d="m199.728,490.168c.981-.296,2.143-1.482,2.105-2.558-.03-.853-.825-1.904-1.593-2.23-1.695-.722-3.442.041-4.263,1.59-.599,1.131-.567,3.165.907,3.667.843.287,1.772-.061,2.843-.468Z"/><path class="cls-1" d="m201.294,487.942c-.752-1.024-2.618-1.891-3.86-1.401-.984.388-1.883,1.752-1.947,2.784-.142,2.279,1.472,4.005,3.621,4.323,1.57.232,3.933-.647,3.909-2.577-.014-1.104-.805-2.046-1.723-3.129Z"/><path class="cls-1" d="m202.678,492.561c.144-1.249-.625-3.134-1.856-3.616-.975-.381-2.545.003-3.287.708-1.638,1.557-1.63,3.896-.285,5.574.982,1.225,3.288,2.179,4.571.763.734-.81.794-2.026.857-3.429Z"/><path class="cls-1" d="m201.679,497.89c1.164-.511,2.417-2.142,2.211-3.461-.163-1.045-1.299-2.22-2.292-2.509-2.193-.636-4.231.562-5.01,2.59-.569,1.481-.228,3.979,1.662,4.378,1.081.228,2.172-.339,3.43-.998Z"/><path class="cls-1" d="m202.665,500.57c1.292-.811,2.493-2.969,2.016-4.499-.378-1.212-1.933-2.408-3.163-2.575-2.716-.369-4.924,1.412-5.493,3.957-.415,1.859.43,4.765,2.744,4.906,1.323.08,2.52-.785,3.897-1.789Z"/><path class="cls-1" d="m202.056,497.179c-1.023-.9-3.175-1.38-4.364-.583-.942.632-1.57,2.266-1.401,3.362.374,2.419,2.46,3.857,4.783,3.697,1.697-.117,3.97-1.579,3.503-3.595-.267-1.153-1.312-1.958-2.521-2.881Z"/><path class="cls-1" d="m203.008,500.757c-.549-1.151-2.226-2.356-3.543-2.107-1.043.197-2.186,1.374-2.443,2.379-.568,2.221.699,4.226,2.758,4.943,1.504.524,3.999.101,4.338-1.807.194-1.091-.409-2.168-1.111-3.408Z"/><path class="cls-1" d="m201.208,501.75c-1.247-.503-3.408-.246-4.254.886-.67.896-.72,2.625-.204,3.589,1.14,2.131,3.553,2.786,5.665,1.877,1.542-.664,3.18-2.77,2.085-4.495-.627-.986-1.863-1.393-3.291-1.858Z"/><path class="cls-1" d="m202.834,508.998c.685-.783,1.047-2.427.436-3.334-.484-.718-1.734-1.194-2.57-1.063-1.847.291-2.94,1.886-2.813,3.661.093,1.296,1.214,3.028,2.753,2.667.88-.207,1.492-1.006,2.195-1.932Z"/><path class="cls-1" d="m201.771,507.398c-.957-.651-2.822-.831-3.741-.033-.728.631-1.086,2.076-.829,2.982.569,2.001,2.479,2.995,4.422,2.616,1.419-.277,3.182-1.748,2.577-3.4-.346-.945-1.312-1.513-2.429-2.165Z"/><path class="cls-1" d="m202.96,510.96c-.465-1.064-1.953-2.211-3.158-2.025-.955.148-2.03,1.183-2.295,2.09-.585,2.003.506,3.865,2.358,4.58,1.352.522,3.634.214,4.001-1.511.21-.987-.306-1.985-.906-3.134Z"/></g></g></svg>