<?xml version="1.0" encoding="UTF-8"?><svg id="_레이어_1" xmlns="http://www.w3.org/2000/svg" viewBox="0 0 400 560"><defs><style>.cls-1{fill:#506f26;}</style></defs><g id="_2"><g><path class="cls-1" d="m228.61,460.34s35.51,1.937,41.392-33.136c-35.51-1.937-41.392,33.136-41.392,33.136Z"/><g><path class="cls-1" d="m229.761,461.192c.676-.273,1.423-1.187,1.327-1.947-.076-.602-.706-1.296-1.271-1.478-1.247-.403-2.436.249-2.917,1.399-.352.84-.199,2.278.877,2.539.616.149,1.252-.157,1.984-.513Z"/><path class="cls-1" d="m230.683,458.935c.423-.532.608-1.617.181-2.189-.338-.453-1.169-.726-1.71-.614-1.196.247-1.86,1.322-1.723,2.476.101.843.886,1.939,1.879,1.656.568-.162.943-.703,1.373-1.328Z"/><path class="cls-1" d="m230.757,455.369c-.392-.54-1.37-1-2.024-.746-.518.201-.993.915-1.03,1.457-.081,1.197.762,2.107,1.89,2.28.824.126,2.067-.329,2.06-1.343-.004-.58-.417-1.077-.897-1.648Z"/><path class="cls-1" d="m231.629,456.854c.756-.468,1.466-1.721,1.194-2.615-.215-.708-1.117-1.412-1.834-1.514-1.582-.227-2.877.803-3.219,2.285-.25,1.082.231,2.78,1.579,2.872.771.052,1.472-.447,2.279-1.027Z"/><path class="cls-1" d="m232.257,454.797c.523-.525.856-1.678.463-2.35-.311-.533-1.178-.929-1.779-.874-1.326.122-2.177,1.206-2.169,2.473.006.925.724,2.209,1.835,2.023.635-.106,1.107-.647,1.65-1.272Z"/><path class="cls-1" d="m232.856,453.16c.45-.545.663-1.668.231-2.271-.343-.478-1.2-.777-1.766-.671-1.248.233-1.959,1.338-1.838,2.54.088.878.883,2.032,1.921,1.757.593-.157.993-.712,1.452-1.354Z"/><path class="cls-1" d="m233.358,449.971c-.228-.625-1.039-1.333-1.735-1.269-.551.051-1.203.605-1.386,1.115-.405,1.125.154,2.229,1.188,2.703.755.346,2.071.25,2.342-.724.155-.557-.106-1.146-.409-1.825Z"/><path class="cls-1" d="m233.425,451.291c.806-.253,1.753-1.239,1.713-2.126-.032-.702-.696-1.562-1.331-1.825-1.403-.58-2.836.062-3.499,1.346-.484.937-.441,2.613.778,3.014.697.229,1.46-.065,2.339-.409Z"/><path class="cls-1" d="m233.339,449.782c.727.016,1.771-.527,1.983-1.262.168-.582-.138-1.465-.583-1.855-.984-.86-2.33-.73-3.224.134-.653.631-1.079,2.009-.195,2.672.505.379,1.209.349,2.02.31Z"/><path class="cls-1" d="m235.291,444.776c-.648-.626-2.056-1.009-2.866-.519-.642.389-1.107,1.45-1.029,2.179.173,1.611,1.508,2.625,3.048,2.59,1.125-.025,2.672-.922,2.425-2.269-.141-.77-.807-1.334-1.578-1.982Z"/><path class="cls-1" d="m236.161,444.381c-.312-.56-1.192-1.11-1.844-.943-.517.132-1.052.759-1.149,1.271-.214,1.132.486,2.097,1.541,2.391.771.214,2.009-.077,2.118-1.045.062-.553-.275-1.074-.666-1.674Z"/><path class="cls-1" d="m237.168,442.415c-.574-.645-1.891-1.113-2.701-.703-.641.325-1.163,1.305-1.141,2.007.048,1.551,1.25,2.617,2.724,2.695,1.077.057,2.62-.687,2.481-1.992-.079-.746-.674-1.333-1.364-2.008Z"/><path class="cls-1" d="m237.282,444.559c.694-.127,1.58-.848,1.638-1.588.045-.586-.418-1.366-.918-1.649-1.104-.624-2.358-.238-3.039.759-.497.728-.632,2.121.338,2.578.555.261,1.217.095,1.981-.101Z"/><path class="cls-1" d="m239.193,442.594c.49-.561.748-1.74.309-2.388-.348-.514-1.243-.854-1.842-.759-1.323.21-2.104,1.354-2.012,2.625.068.928.872,2.168,1.974,1.908.63-.149,1.068-.722,1.571-1.386Z"/><path class="cls-1" d="m240.522,440.829c.326-.758.198-2.089-.485-2.624-.541-.424-1.601-.479-2.201-.175-1.324.67-1.76,2.142-1.231,3.451.386.956,1.656,1.991,2.73,1.342.614-.371.881-1.124,1.186-1.995Z"/><path class="cls-1" d="m240.482,437.735c-.437-.511-1.455-.896-2.092-.59-.504.243-.926.998-.919,1.545.014,1.208.932,2.057,2.079,2.141.837.062,2.05-.494,1.963-1.512-.05-.582-.504-1.048-1.031-1.584Z"/><path class="cls-1" d="m242.173,438.308c.289-.676.173-1.859-.436-2.334-.482-.376-1.426-.423-1.959-.152-1.177.599-1.562,1.91-1.089,3.074.346.85,1.478,1.768,2.432,1.19.546-.331.782-1.002,1.052-1.777Z"/><path class="cls-1" d="m243.988,436.97c.143-.908-.36-2.308-1.245-2.698-.7-.308-1.859-.076-2.423.416-1.244,1.087-1.31,2.796-.379,4.062.68.925,2.335,1.692,3.315.698.561-.569.642-1.455.731-2.478Z"/><path class="cls-1" d="m244.801,436.789c.381-.681.391-1.945-.199-2.515-.467-.451-1.459-.606-2.052-.38-1.31.501-1.864,1.843-1.495,3.125.27.937,1.363,2.034,2.436,1.529.614-.289.939-.971,1.31-1.76Z"/><path class="cls-1" d="m244.722,433.654c-.578-.297-1.629-.267-2.086.24-.362.402-.461,1.231-.255,1.718.455,1.075,1.588,1.496,2.644,1.151.771-.252,1.651-1.194,1.2-2.072-.258-.502-.835-.752-1.502-1.038Z"/><path class="cls-1" d="m247.761,435.436c.557-.805.721-2.381.053-3.163-.529-.62-1.748-.932-2.516-.721-1.696.468-2.549,2.076-2.242,3.721.224,1.202,1.457,2.703,2.857,2.202.801-.287,1.288-1.099,1.847-2.039Z"/><path class="cls-1" d="m247.036,431.742c-.658-.206-1.752.013-2.138.626-.306.485-.261,1.371.042,1.843.67,1.042,1.929,1.279,2.971.728.761-.402,1.512-1.545.882-2.382-.36-.479-1.009-.636-1.758-.815Z"/><path class="cls-1" d="m249.184,430.371c-.795-.569-2.367-.758-3.16-.103-.627.519-.959,1.732-.76,2.503.441,1.702,2.034,2.579,3.683,2.298,1.204-.205,2.723-1.413,2.245-2.82-.274-.805-1.078-1.305-2.008-1.878Z"/><path class="cls-1" d="m249.923,429.787c-.718-.339-2.001-.262-2.538.376-.426.505-.515,1.522-.244,2.109.599,1.295,1.999,1.765,3.275,1.301.932-.339,1.97-1.524,1.384-2.578-.335-.603-1.05-.886-1.876-1.208Z"/><path class="cls-1" d="m252.706,431.74c.467-.738.556-2.149-.068-2.823-.494-.533-1.593-.767-2.27-.55-1.495.479-2.197,1.945-1.862,3.401.244,1.063,1.398,2.356,2.628,1.858.704-.285,1.109-1.027,1.572-1.886Z"/><path class="cls-1" d="m254.441,430.147c.218-.956-.218-2.483-1.131-2.961-.723-.379-1.973-.215-2.608.269-1.402,1.068-1.595,2.881-.696,4.297.657,1.034,2.363,1.969,3.478.981.638-.565.788-1.503.957-2.585Z"/><path class="cls-1" d="m254.943,428.798c-.253-.632-1.104-1.332-1.814-1.245-.562.069-1.212.656-1.384,1.183-.379,1.163.226,2.275,1.298,2.728.783.331,2.127.192,2.373-.812.141-.575-.143-1.169-.474-1.854Z"/><path class="cls-1" d="m256.798,429.906c.284-.669.165-1.84-.439-2.308-.478-.371-1.412-.414-1.939-.144-1.163.596-1.54,1.894-1.068,3.045.345.84,1.467,1.746,2.41,1.17.539-.329.771-.994,1.036-1.762Z"/><path class="cls-1" d="m258.401,429.002c.029-.737-.504-1.804-1.245-2.031-.587-.18-1.488.114-1.89.56-.888.983-.78,2.35.08,3.271.628.673,2.018,1.128,2.706.244.393-.506.374-1.219.349-2.043Z"/><path class="cls-1" d="m260.207,430.233c.61-.747.893-2.283.297-3.103-.472-.65-1.645-1.051-2.416-.903-1.702.328-2.664,1.842-2.49,3.482.127,1.198,1.222,2.768,2.636,2.384.809-.22,1.351-.98,1.972-1.86Z"/><path class="cls-1" d="m261.304,430.088c.615-.571,1.043-1.862.628-2.64-.329-.617-1.293-1.104-1.975-1.068-1.507.079-2.518,1.269-2.564,2.704-.034,1.048.722,2.533,1.988,2.371.724-.092,1.282-.683,1.924-1.368Z"/><path class="cls-1" d="m262.698,429.733c.559-.523.945-1.701.563-2.409-.302-.561-1.182-1.002-1.804-.966-1.374.078-2.291,1.166-2.328,2.474-.027.956.667,2.307,1.82,2.155.66-.087,1.166-.627,1.749-1.254Z"/><path class="cls-1" d="m263.587,430.394c.862-.216,1.917-1.194,1.929-2.128.009-.74-.636-1.683-1.287-1.998-1.438-.695-2.983-.107-3.758,1.2-.566.955-.622,2.718.634,3.213.719.284,1.538.02,2.482-.287Z"/><path class="cls-1" d="m264.703,430.376c.918-.04,2.19-.811,2.396-1.754.163-.747-.294-1.836-.888-2.291-1.312-1.003-2.999-.729-4.055.434-.771.849-1.195,2.623-.026,3.386.669.437,1.553.34,2.573.225Z"/><path class="cls-1" d="m266.681,429.715c.78-.236,1.704-1.179,1.674-2.035-.024-.678-.657-1.514-1.267-1.774-1.348-.574-2.737.033-3.39,1.265-.476.9-.45,2.517.722,2.916.671.228,1.41-.049,2.261-.372Z"/><path class="cls-1" d="m269.349,427.724c.173-.782-.192-2.028-.941-2.413-.593-.305-1.614-.164-2.13.235-1.14.881-1.287,2.364-.544,3.515.543.841,1.942,1.596,2.848.782.518-.466.635-1.232.767-2.118Z"/><path class="cls-1" d="m270.733,428.786c.662-.641,1.103-2.067.629-2.912-.375-.669-1.444-1.182-2.192-1.127-1.652.122-2.735,1.451-2.752,3.027-.013,1.151.851,2.764,2.236,2.557.792-.118,1.392-.779,2.08-1.545Z"/><path class="cls-1" d="m271.66,428.057c.305-.662.222-1.838-.368-2.326-.468-.386-1.402-.458-1.937-.204-1.183.561-1.601,1.85-1.164,3.017.319.852,1.416,1.793,2.378,1.246.55-.313.803-.972,1.091-1.733Z"/><path class="cls-1" d="m270.928,430.264c.586-.549.991-1.784.591-2.526-.317-.588-1.24-1.05-1.892-1.013-1.44.081-2.403,1.223-2.441,2.595-.028,1.002.7,2.419,1.909,2.26.692-.091,1.223-.658,1.834-1.315Z"/><path class="cls-1" d="m270.4,431.116c.357-.6.397-1.73-.117-2.254-.407-.415-1.29-.578-1.827-.39-1.184.416-1.713,1.603-1.413,2.759.219.844,1.17,1.852,2.142,1.427.556-.243.863-.846,1.215-1.542Z"/><path class="cls-1" d="m268.86,429.807c-.769-.397-2.171-.361-2.781.314-.483.535-.618,1.64-.345,2.289.604,1.434,2.112,1.999,3.52,1.542,1.028-.334,2.204-1.586,1.605-2.757-.343-.67-1.111-1.005-1.999-1.388Z"/><path class="cls-1" d="m268.336,435.425c.841-.149,1.918-1.016,1.992-1.911.059-.708-.497-1.656-1.1-2.001-1.332-.763-2.852-.303-3.682.898-.606.877-.779,2.563.392,3.122.67.32,1.472.123,2.398-.109Z"/><path class="cls-1" d="m267.927,433.051c-.625-.45-1.863-.602-2.489-.087-.495.407-.759,1.362-.603,1.97.344,1.341,1.597,2.035,2.896,1.817.949-.159,2.148-1.108,1.773-2.217-.214-.634-.847-1.03-1.578-1.483Z"/><path class="cls-1" d="m268.284,436.642c.259-.67.104-1.823-.507-2.266-.484-.351-1.408-.364-1.919-.08-1.129.626-1.46,1.92-.957,3.041.367.818,1.505,1.677,2.418,1.078.522-.343.73-1.006.966-1.773Z"/><path class="cls-1" d="m268.092,438.255c.344-.803.208-2.211-.516-2.777-.573-.448-1.695-.505-2.329-.183-1.4.711-1.861,2.269-1.3,3.654.41,1.011,1.755,2.105,2.891,1.418.65-.393.932-1.191,1.254-2.112Z"/><path class="cls-1" d="m266.908,438.085c-.32-.666-1.293-1.361-2.055-1.215-.604.116-1.264.799-1.411,1.382-.326,1.287.411,2.446,1.605,2.858.872.301,2.316.052,2.509-1.053.111-.632-.24-1.255-.648-1.972Z"/><path class="cls-1" d="m266.387,442.4c.788-.501,1.515-1.826,1.218-2.761-.236-.741-1.192-1.467-1.945-1.565-1.664-.216-3.009.882-3.348,2.442-.247,1.139.281,2.915,1.697,2.993.81.044,1.54-.489,2.379-1.109Z"/><path class="cls-1" d="m264.061,440.221c-.724-.05-1.79.444-2.035,1.166-.194.572.069,1.467.496,1.876.941.903,2.289.836,3.22.016.68-.599,1.168-1.953.318-2.655-.486-.401-1.189-.404-1.999-.403Z"/><path class="cls-1" d="m264.648,444.836c.569-.294,1.149-1.155,1.003-1.812-.115-.521-.724-1.076-1.233-1.19-1.124-.251-2.111.417-2.44,1.462-.24.764.011,2.01.975,2.151.551.081,1.083-.239,1.695-.611Z"/><path class="cls-1" d="m263.73,446.894c.89-.234,1.971-1.259,1.972-2.226.001-.766-.678-1.735-1.356-2.053-1.497-.703-3.09-.076-3.876,1.287-.575.995-.612,2.821.694,3.319.747.285,1.592.003,2.566-.327Z"/><path class="cls-1" d="m262.815,447.113c.577-.372,1.107-1.35.884-2.037-.177-.544-.883-1.074-1.438-1.143-1.225-.152-2.21.662-2.453,1.812-.177.839.219,2.144,1.262,2.195.596.029,1.131-.367,1.745-.827Z"/><path class="cls-1" d="m262.827,446.387c-.042-.927-.823-2.211-1.777-2.418-.755-.164-1.855.301-2.313.902-1.011,1.327-.731,3.031.446,4.097.86.778,2.652,1.203,3.421.02.44-.676.341-1.57.223-2.6Z"/><path class="cls-1" d="m260.323,449.335c.598-.281,1.229-1.145,1.105-1.829-.099-.541-.704-1.138-1.224-1.275-1.149-.303-2.193.347-2.572,1.412-.277.778-.067,2.072.921,2.255.565.105,1.125-.204,1.771-.563Z"/><path class="cls-1" d="m260.217,448.761c.031-.781-.533-1.913-1.318-2.155-.622-.191-1.577.12-2.004.591-.943,1.041-.829,2.49.082,3.467.665.714,2.138,1.198,2.868.261.417-.536.398-1.292.372-2.165Z"/><path class="cls-1" d="m259.16,449.902c.065-.806-.47-2.001-1.271-2.284-.635-.224-1.636.057-2.097.526-1.019,1.037-.963,2.539-.062,3.589.658.766,2.16,1.329,2.954.391.454-.537.466-1.319.476-2.223Z"/><path class="cls-1" d="m256.41,449.221c-.71-.293-1.946-.155-2.434.488-.387.509-.423,1.496-.132,2.05.642,1.222,2.018,1.607,3.228,1.096.884-.373,1.828-1.569,1.21-2.559-.354-.566-1.058-.804-1.872-1.075Z"/><path class="cls-1" d="m257.095,452.423c.229-.86-.116-2.259-.929-2.723-.643-.367-1.783-.259-2.375.159-1.307.923-1.541,2.561-.771,3.874.562.959,2.079,1.863,3.122,1.003.597-.492.764-1.337.952-2.313Z"/><path class="cls-1" d="m254.255,455.246c.8-.091,1.864-.844,1.986-1.681.097-.663-.37-1.587-.918-1.947-1.208-.796-2.665-.452-3.517.63-.622.79-.882,2.366.186,2.96.611.34,1.378.201,2.262.038Z"/><path class="cls-1" d="m253.243,452.314c-.677-.416-1.962-.479-2.566.097-.479.456-.678,1.458-.473,2.071.454,1.354,1.796,1.974,3.116,1.652.964-.235,2.126-1.301,1.658-2.413-.268-.636-.948-.996-1.735-1.407Z"/><path class="cls-1" d="m252.021,456.52c.728-.271,1.551-1.223,1.471-2.036-.063-.644-.715-1.401-1.312-1.611-1.317-.465-2.602.195-3.149,1.406-.399.884-.278,2.422.862,2.731.652.177,1.338-.131,2.129-.49Z"/><path class="cls-1" d="m249.793,453.455c-.736-.197-1.933.096-2.331.791-.315.55-.224,1.525.133,2.032.788,1.119,2.19,1.322,3.314.665.821-.48,1.597-1.776.863-2.67-.42-.511-1.143-.655-1.978-.818Z"/><path class="cls-1" d="m249.929,454.44c-.487-.779-1.786-1.505-2.709-1.219-.731.227-1.452,1.162-1.554,1.903-.225,1.636.846,2.968,2.379,3.313,1.12.252,2.871-.255,2.958-1.648.05-.797-.47-1.519-1.074-2.349Z"/><path class="cls-1" d="m248.784,456.111c-.056-.824-.776-1.95-1.628-2.115-.675-.131-1.643.304-2.039.848-.873,1.2-.59,2.71.478,3.633.78.675,2.382,1.017,3.042-.05.378-.61.272-1.403.146-2.316Z"/><path class="cls-1" d="m246.655,458.806c.709-.425,1.386-1.58,1.145-2.415-.191-.661-1.02-1.327-1.684-1.432-1.468-.232-2.685.708-3.023,2.081-.247,1.003.178,2.587,1.43,2.69.716.059,1.375-.396,2.133-.924Z"/><path class="cls-1" d="m244.3,456.049c-.643-.281-1.776-.18-2.235.398-.363.458-.416,1.359-.161,1.871.563,1.13,1.813,1.509,2.929,1.066.815-.324,1.702-1.398,1.157-2.315-.312-.525-.951-.756-1.69-1.02Z"/><path class="cls-1" d="m244.438,459.45c.537-.712.744-2.142.164-2.878-.459-.583-1.558-.913-2.265-.748-1.561.364-2.397,1.797-2.177,3.307.16,1.102,1.228,2.514,2.521,2.109.74-.232,1.213-.954,1.756-1.789Z"/><path class="cls-1" d="m243.18,458.22c-.108-.903-.964-2.099-1.91-2.232-.749-.105-1.79.428-2.193,1.048-.891,1.369-.494,3.013.733,3.967.896.697,2.677.982,3.342-.228.38-.692.219-1.557.029-2.555Z"/><path class="cls-1" d="m240.085,457.561c-.557-.358-1.626-.432-2.14.037-.407.372-.59,1.203-.429,1.718.356,1.136,1.463,1.675,2.568,1.429.807-.18,1.793-1.048,1.422-1.982-.212-.535-.773-.845-1.421-1.201Z"/><path class="cls-1" d="m238.417,457.663c-.622-.317-1.752-.281-2.241.266-.387.433-.491,1.325-.268,1.848.493,1.154,1.712,1.602,2.845,1.227.828-.274,1.77-1.289,1.282-2.231-.279-.539-.901-.805-1.618-1.11Z"/><path class="cls-1" d="m237.746,461.315c.745-.436,1.464-1.635,1.221-2.51-.192-.693-1.051-1.397-1.744-1.514-1.53-.258-2.812.711-3.179,2.141-.268,1.044.158,2.704,1.465,2.825.747.069,1.44-.399,2.237-.942Z"/><path class="cls-1" d="m236.752,461.3c.678-.662,1.124-2.128.633-2.995-.388-.686-1.489-1.208-2.257-1.148-1.697.132-2.803,1.502-2.815,3.122-.008,1.183.886,2.835,2.308,2.617.814-.125,1.426-.807,2.13-1.596Z"/><path class="cls-1" d="m233.751,462.301c.875-.049,2.079-.8,2.264-1.703.147-.715-.303-1.748-.875-2.174-1.264-.941-2.869-.658-3.862.464-.725.82-1.108,2.516.017,3.23.643.408,1.485.306,2.457.183Z"/><path class="cls-1" d="m233.549,458.931c-.403-.79-1.591-1.597-2.502-1.399-.721.157-1.494.995-1.654,1.699-.354,1.554.564,2.924,2.009,3.385,1.055.336,2.782-.004,2.982-1.336.115-.762-.325-1.5-.835-2.349Z"/><path class="cls-1" d="m231.102,461.881c.666-.262,1.408-1.153,1.321-1.9-.069-.592-.682-1.279-1.235-1.463-1.221-.407-2.394.223-2.878,1.348-.353.821-.216,2.235.839,2.501.603.152,1.231-.143,1.953-.486Z"/><path class="cls-1" d="m229.739,462.183c.782-.319,1.644-1.382,1.53-2.263-.091-.697-.825-1.498-1.48-1.707-1.447-.461-2.822.3-3.375,1.635-.404.975-.22,2.641,1.029,2.939.714.17,1.45-.188,2.297-.604Z"/></g></g><g><path class="cls-1" d="m181.001,419.366s3.337-42.404-38.431-50.446c-3.337,42.404,38.431,50.446,38.431,50.446Z"/><g><path class="cls-1" d="m181.699,417.166c-.781-.461-2.248-.508-2.927.161-.537.53-.745,1.678-.498,2.373.545,1.536,2.088,2.217,3.588,1.824,1.095-.287,2.4-1.526,1.844-2.787-.318-.721-1.101-1.117-2.007-1.571Z"/><path class="cls-1" d="m180.248,417.291c-.571-.447-1.731-.636-2.338-.176-.481.365-.765,1.253-.642,1.831.273,1.275,1.426,1.975,2.657,1.819.899-.114,2.063-.962,1.752-2.019-.178-.605-.758-1.001-1.429-1.455Z"/><path class="cls-1" d="m179.527,417.735c-.193-.695-1.008-1.53-1.766-1.521-.6.008-1.352.55-1.594,1.085-.534,1.181-.025,2.421,1.051,3.023.786.439,2.217.448,2.593-.58.215-.589-.015-1.247-.284-2.007Z"/><path class="cls-1" d="m178.637,416.939c-.287-.946-1.432-2.065-2.471-2.027-.822.03-1.835.799-2.149,1.54-.694,1.636.045,3.32,1.54,4.109,1.092.576,3.054.542,3.535-.881.276-.814-.062-1.71-.455-2.742Z"/><path class="cls-1" d="m176.03,415.608c-.638-.537-1.962-.803-2.679-.299-.568.399-.931,1.408-.813,2.077.261,1.476,1.557,2.329,2.978,2.2,1.037-.094,2.41-1.02,2.097-2.248-.179-.703-.829-1.181-1.582-1.731Z"/><path class="cls-1" d="m174.577,418.817c.835-.287,1.798-1.346,1.73-2.272-.053-.733-.773-1.613-1.444-1.869-1.483-.567-2.964.147-3.62,1.508-.479.994-.386,2.744.9,3.129.736.22,1.525-.11,2.434-.495Z"/><path class="cls-1" d="m172.609,414.439c-.651-.317-1.821-.259-2.317.317-.393.456-.485,1.382-.244,1.92.533,1.187,1.804,1.629,2.971,1.219.853-.299,1.811-1.369,1.287-2.335-.3-.553-.948-.818-1.698-1.12Z"/><path class="cls-1" d="m173.058,415.766c.217-.919-.191-2.393-1.067-2.861-.694-.37-1.899-.222-2.514.239-1.359,1.018-1.558,2.764-.702,4.133.625,1,2.261,1.915,3.343.971.619-.54.77-1.442.941-2.483Z"/><path class="cls-1" d="m170.19,413.66c-.449-.459-1.445-.759-2.031-.426-.465.264-.817,1.011-.776,1.532.092,1.15,1.022,1.899,2.12,1.905.802.004,1.921-.604,1.772-1.568-.085-.551-.549-.966-1.085-1.442Z"/><path class="cls-1" d="m168.61,416.502c.875-.183,1.974-1.124,2.023-2.062.039-.743-.572-1.716-1.214-2.058-1.417-.756-2.993-.227-3.823,1.056-.606.937-.733,2.706.509,3.254.711.314,1.544.082,2.505-.19Z"/><path class="cls-1" d="m168.08,415.098c.638-.57,1.1-1.876.693-2.678-.323-.635-1.295-1.15-1.992-1.127-1.537.051-2.592,1.243-2.667,2.705-.055,1.067.686,2.596,1.978,2.456.74-.08,1.32-.671,1.988-1.356Z"/><path class="cls-1" d="m166.74,411.394c-.438-.71-1.612-1.376-2.451-1.121-.664.202-1.324,1.046-1.421,1.718-.214,1.483.751,2.698,2.14,3.02,1.014.235,2.607-.215,2.693-1.479.05-.723-.418-1.381-.961-2.138Z"/><path class="cls-1" d="m164.58,410.39c-.524-.362-1.55-.469-2.06-.033-.403.345-.606,1.139-.468,1.639.305,1.104,1.353,1.658,2.424,1.458.782-.147,1.759-.95,1.432-1.861-.187-.521-.716-.838-1.328-1.202Z"/><path class="cls-1" d="m162.733,408.62c-.886-.185-2.288.244-2.714,1.095-.337.674-.164,1.825.293,2.403,1.01,1.276,2.687,1.422,3.978.568.943-.624,1.777-2.215.845-3.227-.533-.579-1.401-.701-2.403-.838Z"/><path class="cls-1" d="m161.726,411.635c.651-.029,1.552-.577,1.697-1.246.115-.53-.21-1.302-.632-1.623-.931-.71-2.126-.513-2.874.312-.546.603-.844,1.86-.015,2.4.474.309,1.101.24,1.824.157Z"/><path class="cls-1" d="m161.103,410.669c.676-.273,1.423-1.187,1.327-1.947-.076-.602-.706-1.296-1.271-1.478-1.247-.403-2.436.249-2.917,1.399-.352.84-.199,2.278.877,2.539.616.149,1.252-.157,1.984-.513Z"/><path class="cls-1" d="m160.405,408.993c.423-.532.608-1.617.181-2.189-.338-.453-1.169-.726-1.71-.614-1.196.247-1.86,1.322-1.723,2.476.101.843.886,1.939,1.879,1.656.568-.162.943-.703,1.373-1.328Z"/><path class="cls-1" d="m158.84,406.003c-.392-.54-1.37-1-2.024-.746-.518.201-.993.915-1.03,1.457-.081,1.197.762,2.107,1.89,2.28.824.126,2.067-.329,2.06-1.343-.004-.58-.417-1.077-.897-1.648Z"/><path class="cls-1" d="m157.883,408.004c.756-.468,1.466-1.721,1.194-2.615-.215-.708-1.117-1.412-1.834-1.514-1.582-.227-2.877.803-3.219,2.285-.25,1.082.231,2.78,1.579,2.872.771.052,1.472-.447,2.279-1.027Z"/><path class="cls-1" d="m156.684,406.461c.523-.525.856-1.678.463-2.35-.311-.533-1.178-.929-1.779-.874-1.326.122-2.177,1.206-2.169,2.473.006.925.724,2.209,1.835,2.023.635-.106,1.107-.647,1.65-1.272Z"/><path class="cls-1" d="m155.702,405.107c.45-.545.663-1.668.231-2.271-.343-.478-1.2-.777-1.766-.671-1.248.233-1.959,1.338-1.838,2.54.088.878.883,2.032,1.921,1.757.593-.157.993-.712,1.452-1.354Z"/><path class="cls-1" d="m154.781,402.054c-.228-.625-1.039-1.333-1.735-1.269-.551.051-1.203.605-1.386,1.115-.405,1.125.154,2.229,1.188,2.703.755.346,2.071.25,2.342-.724.155-.557-.106-1.146-.409-1.825Z"/><path class="cls-1" d="m153.426,403.511c.806-.253,1.753-1.239,1.713-2.126-.032-.702-.696-1.562-1.331-1.825-1.403-.58-2.836.062-3.499,1.346-.484.937-.441,2.613.778,3.014.697.229,1.46-.065,2.339-.409Z"/><path class="cls-1" d="m151.873,402.114c.727.016,1.771-.527,1.983-1.262.168-.582-.138-1.465-.583-1.855-.984-.86-2.33-.73-3.224.134-.653.631-1.079,2.009-.195,2.672.505.379,1.209.349,2.02.31Z"/><path class="cls-1" d="m152.083,397.069c-.648-.626-2.056-1.009-2.866-.519-.642.389-1.107,1.45-1.029,2.179.173,1.611,1.508,2.625,3.048,2.59,1.125-.025,2.672-.922,2.425-2.269-.141-.77-.807-1.334-1.578-1.982Z"/><path class="cls-1" d="m151.211,396.636c-.312-.56-1.192-1.11-1.844-.943-.517.132-1.052.759-1.149,1.271-.214,1.132.486,2.097,1.541,2.391.771.214,2.009-.077,2.118-1.045.062-.553-.275-1.074-.666-1.674Z"/><path class="cls-1" d="m150.476,394.632c-.574-.645-1.891-1.113-2.701-.703-.641.325-1.163,1.305-1.141,2.007.048,1.551,1.25,2.617,2.724,2.695,1.077.057,2.62-.687,2.481-1.992-.079-.746-.674-1.333-1.364-2.008Z"/><path class="cls-1" d="m148.849,396.739c.694-.127,1.58-.848,1.638-1.588.045-.586-.418-1.366-.918-1.649-1.104-.624-2.358-.238-3.039.759-.497.728-.632,2.121.338,2.578.555.261,1.217.095,1.981-.101Z"/><path class="cls-1" d="m149.018,394.736c.49-.561.748-1.74.309-2.388-.348-.514-1.243-.854-1.842-.759-1.323.21-2.104,1.354-2.012,2.625.068.928.872,2.168,1.974,1.908.63-.149,1.068-.722,1.571-1.386Z"/><path class="cls-1" d="m148.605,392.933c.326-.758.198-2.089-.485-2.624-.541-.424-1.601-.479-2.201-.175-1.324.67-1.76,2.142-1.231,3.451.386.956,1.656,1.991,2.73,1.342.614-.371.881-1.124,1.186-1.995Z"/><path class="cls-1" d="m146.823,389.801c-.437-.511-1.455-.896-2.092-.59-.504.243-.926.998-.919,1.545.014,1.208.932,2.057,2.079,2.141.837.062,2.05-.494,1.963-1.512-.05-.582-.504-1.048-1.031-1.584Z"/><path class="cls-1" d="m147.014,390.14c.289-.676.173-1.859-.436-2.334-.482-.376-1.426-.423-1.959-.152-1.177.599-1.562,1.91-1.089,3.074.346.85,1.478,1.768,2.432,1.19.546-.331.782-1.002,1.052-1.777Z"/><path class="cls-1" d="m147.346,388.133c.143-.908-.36-2.308-1.245-2.698-.7-.308-1.859-.076-2.423.416-1.244,1.087-1.31,2.796-.379,4.062.68.925,2.335,1.692,3.315.698.561-.569.642-1.455.731-2.478Z"/><path class="cls-1" d="m146.677,387.282c.381-.681.391-1.945-.199-2.515-.467-.451-1.459-.606-2.052-.38-1.31.501-1.864,1.843-1.495,3.125.27.937,1.363,2.034,2.436,1.529.614-.289.939-.971,1.31-1.76Z"/><path class="cls-1" d="m145.116,383.477c-.578-.297-1.629-.267-2.086.24-.362.402-.461,1.231-.255,1.718.455,1.075,1.588,1.496,2.644,1.151.771-.252,1.651-1.194,1.2-2.072-.258-.502-.835-.752-1.502-1.038Z"/><path class="cls-1" d="m146.672,384.589c.557-.805.721-2.381.053-3.163-.529-.62-1.748-.932-2.516-.721-1.696.468-2.549,2.076-2.242,3.721.224,1.202,1.457,2.703,2.857,2.202.801-.287,1.288-1.099,1.847-2.039Z"/><path class="cls-1" d="m144.465,380.225c-.658-.206-1.752.013-2.138.626-.306.485-.261,1.371.042,1.843.67,1.042,1.929,1.279,2.971.728.761-.402,1.512-1.545.882-2.382-.36-.479-1.009-.636-1.758-.815Z"/><path class="cls-1" d="m145.13,378.184c-.795-.569-2.367-.758-3.16-.103-.627.519-.959,1.732-.76,2.503.441,1.702,2.034,2.579,3.683,2.298,1.204-.205,2.723-1.413,2.245-2.82-.274-.805-1.078-1.305-2.008-1.878Z"/><path class="cls-1" d="m144.387,376.93c-.718-.339-2.001-.262-2.538.376-.426.505-.515,1.522-.244,2.109.599,1.295,1.999,1.765,3.275,1.301.932-.339,1.97-1.524,1.384-2.578-.335-.603-1.05-.886-1.876-1.208Z"/><path class="cls-1" d="m145.687,378.213c.467-.738.556-2.149-.068-2.823-.494-.533-1.593-.767-2.27-.55-1.495.479-2.197,1.945-1.862,3.401.244,1.063,1.398,2.356,2.628,1.858.704-.285,1.109-1.027,1.572-1.886Z"/><path class="cls-1" d="m145.94,375.949c.218-.956-.218-2.483-1.131-2.961-.723-.379-1.973-.215-2.608.269-1.402,1.068-1.595,2.881-.696,4.297.657,1.034,2.363,1.969,3.478.981.638-.565.788-1.503.957-2.585Z"/><path class="cls-1" d="m144.733,373.351c-.253-.632-1.104-1.332-1.814-1.245-.562.069-1.212.656-1.384,1.183-.379,1.163.226,2.275,1.298,2.728.783.331,2.127.192,2.373-.812.141-.575-.143-1.169-.474-1.854Z"/><path class="cls-1" d="m144.854,373.146c.284-.669.165-1.84-.439-2.308-.478-.371-1.412-.414-1.939-.144-1.163.596-1.54,1.894-1.068,3.045.345.84,1.467,1.746,2.41,1.17.539-.329.771-.994,1.036-1.762Z"/><path class="cls-1" d="m144.724,370.93c.029-.737-.504-1.804-1.245-2.031-.587-.18-1.488.114-1.89.56-.888.983-.78,2.35.08,3.271.628.673,2.018,1.128,2.706.244.393-.506.374-1.219.349-2.043Z"/><path class="cls-1" d="m144.796,370.848c.61-.747.893-2.283.297-3.103-.472-.65-1.645-1.051-2.416-.903-1.702.328-2.664,1.842-2.49,3.482.127,1.198,1.222,2.768,2.636,2.384.809-.22,1.351-.98,1.972-1.86Z"/><path class="cls-1" d="m145.054,370.565c.615-.571,1.043-1.862.628-2.64-.329-.617-1.293-1.104-1.975-1.068-1.507.079-2.518,1.269-2.564,2.704-.034,1.048.722,2.533,1.988,2.371.724-.092,1.282-.683,1.924-1.368Z"/><path class="cls-1" d="m146.345,371.04c.559-.523.945-1.701.563-2.409-.302-.561-1.182-1.002-1.804-.966-1.374.078-2.291,1.166-2.328,2.474-.027.956.667,2.307,1.82,2.155.66-.087,1.166-.627,1.749-1.254Z"/><path class="cls-1" d="m147.132,372.53c.862-.216,1.917-1.194,1.929-2.128.009-.74-.636-1.683-1.287-1.998-1.438-.695-2.983-.107-3.758,1.2-.566.955-.622,2.718.634,3.213.719.284,1.538.02,2.482-.287Z"/><path class="cls-1" d="m148.147,373.342c.918-.04,2.19-.811,2.396-1.754.163-.747-.294-1.836-.888-2.291-1.312-1.003-2.999-.729-4.055.434-.771.849-1.195,2.623-.026,3.386.669.437,1.553.34,2.573.225Z"/><path class="cls-1" d="m150.022,373.511c.78-.236,1.704-1.179,1.674-2.035-.024-.678-.657-1.514-1.267-1.774-1.348-.574-2.737.033-3.39,1.265-.476.9-.45,2.517.722,2.916.671.228,1.41-.049,2.261-.372Z"/><path class="cls-1" d="m152.588,372.349c.173-.782-.192-2.028-.941-2.413-.593-.305-1.614-.164-2.13.235-1.14.881-1.287,2.364-.544,3.515.543.841,1.942,1.596,2.848.782.518-.466.635-1.232.767-2.118Z"/><path class="cls-1" d="m153.871,374.241c.662-.641,1.103-2.067.629-2.912-.375-.669-1.444-1.182-2.192-1.127-1.652.122-2.735,1.451-2.752,3.027-.013,1.151.851,2.764,2.236,2.557.792-.118,1.392-.779,2.08-1.545Z"/><path class="cls-1" d="m155.212,373.928c.305-.662.222-1.838-.368-2.326-.468-.386-1.402-.458-1.937-.204-1.183.561-1.601,1.85-1.164,3.017.319.852,1.416,1.793,2.378,1.246.55-.313.803-.972,1.091-1.733Z"/><path class="cls-1" d="m156.479,375.282c.586-.549.991-1.784.591-2.526-.317-.588-1.24-1.05-1.892-1.013-1.44.081-2.403,1.223-2.441,2.595-.028,1.002.7,2.419,1.909,2.26.692-.091,1.223-.658,1.834-1.315Z"/><path class="cls-1" d="m157.952,375.281c.357-.6.397-1.73-.117-2.254-.407-.415-1.29-.578-1.827-.39-1.184.416-1.713,1.603-1.413,2.759.219.844,1.17,1.852,2.142,1.427.556-.243.863-.846,1.215-1.542Z"/><path class="cls-1" d="m158.411,373.119c-.769-.397-2.171-.361-2.781.314-.483.535-.618,1.64-.345,2.289.604,1.434,2.112,1.999,3.52,1.542,1.028-.334,2.204-1.586,1.605-2.757-.343-.67-1.111-1.005-1.999-1.388Z"/><path class="cls-1" d="m159.887,377.883c.841-.149,1.918-1.016,1.992-1.911.059-.708-.497-1.656-1.1-2.001-1.332-.763-2.852-.303-3.682.898-.606.877-.779,2.563.392,3.122.67.32,1.472.123,2.398-.109Z"/><path class="cls-1" d="m161.478,374.656c-.625-.45-1.863-.602-2.489-.087-.495.407-.759,1.362-.603,1.97.344,1.341,1.597,2.035,2.896,1.817.949-.159,2.148-1.108,1.773-2.217-.214-.634-.847-1.03-1.578-1.483Z"/><path class="cls-1" d="m163.835,377.395c.259-.67.104-1.823-.507-2.266-.484-.351-1.408-.364-1.919-.08-1.129.626-1.46,1.92-.957,3.041.367.818,1.505,1.677,2.418,1.078.522-.343.73-1.006.966-1.773Z"/><path class="cls-1" d="m165.402,378.494c.344-.803.208-2.211-.516-2.777-.573-.448-1.695-.505-2.329-.183-1.4.711-1.861,2.269-1.3,3.654.41,1.011,1.755,2.105,2.891,1.418.65-.393.932-1.191,1.254-2.112Z"/><path class="cls-1" d="m165.818,378.033c-.32-.666-1.293-1.361-2.055-1.215-.604.116-1.264.799-1.411,1.382-.326,1.287.411,2.446,1.605,2.858.872.301,2.316.052,2.509-1.053.111-.632-.24-1.255-.648-1.972Z"/><path class="cls-1" d="m166.898,382.057c.788-.501,1.515-1.826,1.218-2.761-.236-.741-1.192-1.467-1.945-1.565-1.664-.216-3.009.882-3.348,2.442-.247,1.139.281,2.915,1.697,2.993.81.044,1.54-.489,2.379-1.109Z"/><path class="cls-1" d="m166.172,379.588c-.724-.05-1.79.444-2.035,1.166-.194.572.069,1.467.496,1.876.941.903,2.289.836,3.22.016.68-.599,1.168-1.953.318-2.655-.486-.401-1.189-.404-1.999-.403Z"/><path class="cls-1" d="m168.359,383.912c.569-.294,1.149-1.155,1.003-1.812-.115-.521-.724-1.076-1.233-1.19-1.124-.251-2.111.417-2.44,1.462-.24.764.011,2.01.975,2.151.551.081,1.083-.239,1.695-.611Z"/><path class="cls-1" d="m169.378,385.905c.89-.234,1.971-1.259,1.972-2.226.001-.766-.678-1.735-1.356-2.053-1.497-.703-3.09-.076-3.876,1.287-.575.995-.612,2.821.694,3.319.747.285,1.592.003,2.566-.327Z"/><path class="cls-1" d="m170.636,386.219c.577-.372,1.107-1.35.884-2.037-.177-.544-.883-1.074-1.438-1.143-1.225-.152-2.21.662-2.453,1.812-.177.839.219,2.144,1.262,2.195.596.029,1.131-.367,1.745-.827Z"/><path class="cls-1" d="m172.819,385.587c-.042-.927-.823-2.211-1.777-2.418-.755-.164-1.855.301-2.313.902-1.011,1.327-.731,3.031.446,4.097.86.778,2.652,1.203,3.421.02.44-.676.341-1.57.223-2.6Z"/><path class="cls-1" d="m172.488,388.63c.598-.281,1.229-1.145,1.105-1.829-.099-.541-.704-1.138-1.224-1.275-1.149-.303-2.193.347-2.572,1.412-.277.778-.067,2.072.921,2.255.565.105,1.125-.204,1.771-.563Z"/><path class="cls-1" d="m174.554,388.152c.031-.781-.533-1.913-1.318-2.155-.622-.191-1.577.12-2.004.591-.943,1.041-.829,2.49.082,3.467.665.714,2.138,1.198,2.868.261.417-.536.398-1.292.372-2.165Z"/><path class="cls-1" d="m175.669,389.387c.065-.806-.47-2.001-1.271-2.284-.635-.224-1.636.057-2.097.526-1.019,1.037-.963,2.539-.062,3.589.658.766,2.16,1.329,2.954.391.454-.537.466-1.319.476-2.223Z"/><path class="cls-1" d="m174.861,388.943c-.71-.293-1.946-.155-2.434.488-.387.509-.423,1.496-.132,2.05.642,1.222,2.018,1.607,3.228,1.096.884-.373,1.828-1.569,1.21-2.559-.354-.566-1.058-.804-1.872-1.075Z"/><path class="cls-1" d="m177.246,392.529c.229-.86-.116-2.259-.929-2.723-.643-.367-1.783-.259-2.375.159-1.307.923-1.541,2.561-.771,3.874.562.959,2.079,1.863,3.122,1.003.597-.492.764-1.337.952-2.313Z"/><path class="cls-1" d="m176.105,395.738c.8-.091,1.864-.844,1.986-1.681.097-.663-.37-1.587-.918-1.947-1.208-.796-2.665-.452-3.517.63-.622.79-.882,2.366.186,2.96.611.34,1.378.201,2.262.038Z"/><path class="cls-1" d="m176.88,393.326c-.677-.416-1.962-.479-2.566.097-.479.456-.678,1.458-.473,2.071.454,1.354,1.796,1.974,3.116,1.652.964-.235,2.126-1.301,1.658-2.413-.268-.636-.948-.996-1.735-1.407Z"/><path class="cls-1" d="m177.658,398.383c.728-.271,1.551-1.223,1.471-2.036-.063-.644-.715-1.401-1.312-1.611-1.317-.465-2.602.195-3.149,1.406-.399.884-.278,2.422.862,2.731.652.177,1.338-.131,2.129-.49Z"/><path class="cls-1" d="m177.432,396.169c-.736-.197-1.933.096-2.331.791-.315.55-.224,1.525.133,2.032.788,1.119,2.19,1.322,3.314.665.821-.48,1.597-1.776.863-2.67-.42-.511-1.143-.655-1.978-.818Z"/><path class="cls-1" d="m179.568,398.006c-.487-.779-1.786-1.505-2.709-1.219-.731.227-1.452,1.162-1.554,1.903-.225,1.636.846,2.968,2.379,3.313,1.12.252,2.871-.255,2.958-1.648.05-.797-.47-1.519-1.074-2.349Z"/><path class="cls-1" d="m180.424,400.528c-.056-.824-.776-1.95-1.628-2.115-.675-.131-1.643.304-2.039.848-.873,1.2-.59,2.71.478,3.633.78.675,2.382,1.017,3.042-.05.378-.61.272-1.403.146-2.316Z"/><path class="cls-1" d="m180.296,404.074c.709-.425,1.386-1.58,1.145-2.415-.191-.661-1.02-1.327-1.684-1.432-1.468-.232-2.685.708-3.023,2.081-.247,1.003.178,2.587,1.43,2.69.716.059,1.375-.396,2.133-.924Z"/><path class="cls-1" d="m179.941,402.168c-.643-.281-1.776-.18-2.235.398-.363.458-.416,1.359-.161,1.871.563,1.13,1.813,1.509,2.929,1.066.815-.324,1.702-1.398,1.157-2.315-.312-.525-.951-.756-1.69-1.02Z"/><path class="cls-1" d="m181.732,406.51c.537-.712.744-2.142.164-2.878-.459-.583-1.558-.913-2.265-.748-1.561.364-2.397,1.797-2.177,3.307.16,1.102,1.228,2.514,2.521,2.109.74-.232,1.213-.954,1.756-1.789Z"/><path class="cls-1" d="m182.159,406.346c-.108-.903-.964-2.099-1.91-2.232-.749-.105-1.79.428-2.193,1.048-.891,1.369-.494,3.013.733,3.967.896.697,2.677.982,3.342-.228.38-.692.219-1.557.029-2.555Z"/><path class="cls-1" d="m180.811,406.979c-.557-.358-1.626-.432-2.14.037-.407.372-.59,1.203-.429,1.718.356,1.136,1.463,1.675,2.568,1.429.807-.18,1.793-1.048,1.422-1.982-.212-.535-.773-.845-1.421-1.201Z"/><path class="cls-1" d="m180.893,408.373c-.622-.317-1.752-.281-2.241.266-.387.433-.491,1.325-.268,1.848.493,1.154,1.712,1.602,2.845,1.227.828-.274,1.77-1.289,1.282-2.231-.279-.539-.901-.805-1.618-1.11Z"/><path class="cls-1" d="m181.97,413.318c.745-.436,1.464-1.635,1.221-2.51-.192-.693-1.051-1.397-1.744-1.514-1.53-.258-2.812.711-3.179,2.141-.268,1.044.158,2.704,1.465,2.825.747.069,1.44-.399,2.237-.942Z"/><path class="cls-1" d="m182.725,414.595c.678-.662,1.124-2.128.633-2.995-.388-.686-1.489-1.208-2.257-1.148-1.697.132-2.803,1.502-2.815,3.122-.008,1.183.886,2.835,2.308,2.617.814-.125,1.426-.807,2.13-1.596Z"/><path class="cls-1" d="m181.472,416.888c.875-.049,2.079-.8,2.264-1.703.147-.715-.303-1.748-.875-2.174-1.264-.941-2.869-.658-3.862.464-.725.82-1.108,2.516.017,3.23.643.408,1.485.306,2.457.183Z"/><path class="cls-1" d="m182.837,414.91c-.403-.79-1.591-1.597-2.502-1.399-.721.157-1.494.995-1.654,1.699-.354,1.554.564,2.924,2.009,3.385,1.055.336,2.782-.004,2.982-1.336.115-.762-.325-1.5-.835-2.349Z"/><path class="cls-1" d="m181.942,419.384c.666-.262,1.408-1.153,1.321-1.9-.069-.592-.682-1.279-1.235-1.463-1.221-.407-2.394.223-2.878,1.348-.353.821-.216,2.235.839,2.501.603.152,1.231-.143,1.953-.486Z"/><path class="cls-1" d="m182.13,421.209c.782-.319,1.644-1.382,1.53-2.263-.091-.697-.825-1.498-1.48-1.707-1.447-.461-2.822.3-3.375,1.635-.404.975-.22,2.641,1.029,2.939.714.17,1.45-.188,2.297-.604Z"/></g></g><g><path class="cls-1" d="m174.858,443.916s-20.485,9.064-31.776-10.284c20.485-9.064,31.776,10.284,31.776,10.284Z"/><g><path class="cls-1" d="m176.018,442.701c.029-.737-.504-1.804-1.245-2.031-.587-.18-1.488.114-1.89.56-.888.983-.78,2.35.08,3.271.628.673,2.018,1.128,2.706.244.393-.506.374-1.219.349-2.043Z"/><path class="cls-1" d="m175.373,442.902c.61-.747.893-2.283.297-3.103-.472-.65-1.645-1.051-2.416-.903-1.702.328-2.664,1.842-2.49,3.482.127,1.198,1.222,2.768,2.636,2.384.809-.22,1.351-.98,1.972-1.86Z"/><path class="cls-1" d="m173.905,441.829c.615-.571,1.043-1.862.628-2.64-.329-.617-1.293-1.104-1.975-1.068-1.507.079-2.518,1.269-2.564,2.704-.034,1.048.722,2.533,1.988,2.371.724-.092,1.282-.683,1.924-1.368Z"/><path class="cls-1" d="m172.617,440.65c.559-.523.945-1.701.563-2.409-.302-.561-1.182-1.002-1.804-.966-1.374.078-2.291,1.166-2.328,2.474-.027.956.667,2.307,1.82,2.155.66-.087,1.166-.627,1.749-1.254Z"/><path class="cls-1" d="m170.824,440.486c.862-.216,1.917-1.194,1.929-2.128.009-.74-.636-1.683-1.287-1.998-1.438-.695-2.983-.107-3.758,1.2-.566.955-.622,2.718.634,3.213.719.284,1.538.02,2.482-.287Z"/><path class="cls-1" d="m169.259,439.643c.918-.04,2.19-.811,2.396-1.754.163-.747-.294-1.836-.888-2.291-1.312-1.003-2.999-.729-4.055.434-.771.849-1.195,2.623-.026,3.386.669.437,1.553.34,2.573.225Z"/><path class="cls-1" d="m168.555,438.158c.78-.236,1.704-1.179,1.674-2.035-.024-.678-.657-1.514-1.267-1.774-1.348-.574-2.737.033-3.39,1.265-.476.9-.45,2.517.722,2.916.671.228,1.41-.049,2.261-.372Z"/><path class="cls-1" d="m168.499,435.409c.173-.782-.192-2.028-.941-2.413-.593-.305-1.614-.164-2.13.235-1.14.881-1.287,2.364-.544,3.515.543.841,1.942,1.596,2.848.782.518-.466.635-1.232.767-2.118Z"/><path class="cls-1" d="m166.899,436.128c.662-.641,1.103-2.067.629-2.912-.375-.669-1.444-1.182-2.192-1.127-1.652.122-2.735,1.451-2.752,3.027-.013,1.151.851,2.764,2.236,2.557.792-.118,1.392-.779,2.08-1.545Z"/><path class="cls-1" d="m165.356,434.643c.305-.662.222-1.838-.368-2.326-.468-.386-1.402-.458-1.937-.204-1.183.561-1.601,1.85-1.164,3.017.319.852,1.416,1.793,2.378,1.246.55-.313.803-.972,1.091-1.733Z"/><path class="cls-1" d="m163.741,434.825c.586-.549.991-1.784.591-2.526-.317-.588-1.24-1.05-1.892-1.013-1.44.081-2.403,1.223-2.441,2.595-.028,1.002.7,2.419,1.909,2.26.692-.091,1.223-.658,1.834-1.315Z"/><path class="cls-1" d="m162.33,433.651c.357-.6.397-1.73-.117-2.254-.407-.415-1.29-.578-1.827-.39-1.184.416-1.713,1.603-1.413,2.759.219.844,1.17,1.852,2.142,1.427.556-.243.863-.846,1.215-1.542Z"/><path class="cls-1" d="m159.906,430.316c-.769-.397-2.171-.361-2.781.314-.483.535-.618,1.64-.345,2.289.604,1.434,2.112,1.999,3.52,1.542,1.028-.334,2.204-1.586,1.605-2.757-.343-.67-1.111-1.005-1.999-1.388Z"/><path class="cls-1" d="m158.499,433.908c.841-.149,1.918-1.016,1.992-1.911.059-.708-.497-1.656-1.1-2.001-1.332-.763-2.852-.303-3.682.898-.606.877-.779,2.563.392,3.122.67.32,1.472.123,2.398-.109Z"/><path class="cls-1" d="m157.185,429.713c-.625-.45-1.863-.602-2.489-.087-.495.407-.759,1.362-.603,1.97.344,1.341,1.597,2.035,2.896,1.817.949-.159,2.148-1.108,1.773-2.217-.214-.634-.847-1.03-1.578-1.483Z"/><path class="cls-1" d="m156.569,432.104c.259-.67.104-1.823-.507-2.266-.484-.351-1.408-.364-1.919-.08-1.129.626-1.46,1.92-.957,3.041.367.818,1.505,1.677,2.418,1.078.522-.343.73-1.006.966-1.773Z"/><path class="cls-1" d="m155.404,432.516c.344-.803.208-2.211-.516-2.777-.573-.448-1.695-.505-2.329-.183-1.4.711-1.861,2.269-1.3,3.654.41,1.011,1.755,2.105,2.891,1.418.65-.393.932-1.191,1.254-2.112Z"/><path class="cls-1" d="m153.247,431.146c-.32-.666-1.293-1.361-2.055-1.215-.604.116-1.264.799-1.411,1.382-.326,1.287.411,2.446,1.605,2.858.872.301,2.316.052,2.509-1.053.111-.632-.24-1.255-.648-1.972Z"/><path class="cls-1" d="m151.753,434.26c.788-.501,1.515-1.826,1.218-2.761-.236-.741-1.192-1.467-1.945-1.565-1.664-.216-3.009.882-3.348,2.442-.247,1.139.281,2.915,1.697,2.993.81.044,1.54-.489,2.379-1.109Z"/><path class="cls-1" d="m148.454,430.881c-.724-.05-1.79.444-2.035,1.166-.194.572.069,1.467.496,1.876.941.903,2.289.836,3.22.016.68-.599,1.168-1.953.318-2.655-.486-.401-1.189-.404-1.999-.403Z"/><path class="cls-1" d="m148.068,434.295c.569-.294,1.149-1.155,1.003-1.812-.115-.521-.724-1.076-1.233-1.19-1.124-.251-2.111.417-2.44,1.462-.24.764.011,2.01.975,2.151.551.081,1.083-.239,1.695-.611Z"/><path class="cls-1" d="m146.512,435.379c.89-.234,1.971-1.259,1.972-2.226.001-.766-.678-1.735-1.356-2.053-1.497-.703-3.09-.076-3.876,1.287-.575.995-.612,2.821.694,3.319.747.285,1.592.003,2.566-.327Z"/><path class="cls-1" d="m145.197,434.783c.577-.372,1.107-1.35.884-2.037-.177-.544-.883-1.074-1.438-1.143-1.225-.152-2.21.662-2.453,1.812-.177.839.219,2.144,1.262,2.195.596.029,1.131-.367,1.745-.827Z"/><path class="cls-1" d="m145.834,433.574c-.042-.927-.823-2.211-1.777-2.418-.755-.164-1.855.301-2.313.902-1.011,1.327-.731,3.031.446,4.097.86.778,2.652,1.203,3.421.02.44-.676.341-1.57.223-2.6Z"/><path class="cls-1" d="m145.563,436.56c.598-.281,1.229-1.145,1.105-1.829-.099-.541-.704-1.138-1.224-1.275-1.149-.303-2.193.347-2.572,1.412-.277.778-.067,2.072.921,2.255.565.105,1.125-.204,1.771-.563Z"/><path class="cls-1" d="m147.69,436.024c.031-.781-.533-1.913-1.318-2.155-.622-.191-1.577.12-2.004.591-.943,1.041-.829,2.49.082,3.467.665.714,2.138,1.198,2.868.261.417-.536.398-1.292.372-2.165Z"/><path class="cls-1" d="m148.866,437.203c.065-.806-.47-2.001-1.271-2.284-.635-.224-1.636.057-2.097.526-1.019,1.037-.963,2.539-.062,3.589.658.766,2.16,1.329,2.954.391.454-.537.466-1.319.476-2.223Z"/><path class="cls-1" d="m148.348,436.56c-.71-.293-1.946-.155-2.434.488-.387.509-.423,1.496-.132,2.05.642,1.222,2.018,1.607,3.228,1.096.884-.373,1.828-1.569,1.21-2.559-.354-.566-1.058-.804-1.872-1.075Z"/><path class="cls-1" d="m151.266,439.799c.229-.86-.116-2.259-.929-2.723-.643-.367-1.783-.259-2.375.159-1.307.923-1.541,2.561-.771,3.874.562.959,2.079,1.863,3.122,1.003.597-.492.764-1.337.952-2.313Z"/><path class="cls-1" d="m150.659,442.66c.8-.091,1.864-.844,1.986-1.681.097-.663-.37-1.587-.918-1.947-1.208-.796-2.665-.452-3.517.63-.622.79-.882,2.366.186,2.96.611.34,1.378.201,2.262.038Z"/><path class="cls-1" d="m151.968,439.901c-.677-.416-1.962-.479-2.566.097-.479.456-.678,1.458-.473,2.071.454,1.354,1.796,1.974,3.116,1.652.964-.235,2.126-1.301,1.658-2.413-.268-.636-.948-.996-1.735-1.407Z"/><path class="cls-1" d="m153.28,444.61c.728-.271,1.551-1.223,1.471-2.036-.063-.644-.715-1.401-1.312-1.611-1.317-.465-2.602.195-3.149,1.406-.399.884-.278,2.422.862,2.731.652.177,1.338-.131,2.129-.49Z"/><path class="cls-1" d="m153.805,441.666c-.736-.197-1.933.096-2.331.791-.315.55-.224,1.525.133,2.032.788,1.119,2.19,1.322,3.314.665.821-.48,1.597-1.776.863-2.67-.42-.511-1.143-.655-1.978-.818Z"/><path class="cls-1" d="m156.885,442.433c-.487-.779-1.786-1.505-2.709-1.219-.731.227-1.452,1.162-1.554,1.903-.225,1.636.846,2.968,2.379,3.313,1.12.252,2.871-.255,2.958-1.648.05-.797-.47-1.519-1.074-2.349Z"/><path class="cls-1" d="m158.685,443.887c-.056-.824-.776-1.95-1.628-2.115-.675-.131-1.643.304-2.039.848-.873,1.2-.59,2.71.478,3.633.78.675,2.382,1.017,3.042-.05.378-.61.272-1.403.146-2.316Z"/><path class="cls-1" d="m159.502,446.364c.709-.425,1.386-1.58,1.145-2.415-.191-.661-1.02-1.327-1.684-1.432-1.468-.232-2.685.708-3.023,2.081-.247,1.003.178,2.587,1.43,2.69.716.059,1.375-.396,2.133-.924Z"/><path class="cls-1" d="m160.091,443.39c-.643-.281-1.776-.18-2.235.398-.363.458-.416,1.359-.161,1.871.563,1.13,1.813,1.509,2.929,1.066.815-.324,1.702-1.398,1.157-2.315-.312-.525-.951-.756-1.69-1.02Z"/><path class="cls-1" d="m163.175,446.572c.537-.712.744-2.142.164-2.878-.459-.583-1.558-.913-2.265-.748-1.561.364-2.397,1.797-2.177,3.307.16,1.102,1.228,2.514,2.521,2.109.74-.232,1.213-.954,1.756-1.789Z"/><path class="cls-1" d="m164.898,445.248c-.108-.903-.964-2.099-1.91-2.232-.749-.105-1.79.428-2.193,1.048-.891,1.369-.494,3.013.733,3.967.896.697,2.677.982,3.342-.228.38-.692.219-1.557.029-2.555Z"/><path class="cls-1" d="m164.87,444.356c-.557-.358-1.626-.432-2.14.037-.407.372-.59,1.203-.429,1.718.356,1.136,1.463,1.675,2.568,1.429.807-.18,1.793-1.048,1.422-1.982-.212-.535-.773-.845-1.421-1.201Z"/><path class="cls-1" d="m166.284,444.022c-.622-.317-1.752-.281-2.241.266-.387.433-.491,1.325-.268,1.848.493,1.154,1.712,1.602,2.845,1.227.828-.274,1.77-1.289,1.282-2.231-.279-.539-.901-.805-1.618-1.11Z"/><path class="cls-1" d="m168.694,447.238c.745-.436,1.464-1.635,1.221-2.51-.192-.693-1.051-1.397-1.744-1.514-1.53-.258-2.812.711-3.179,2.141-.268,1.044.158,2.704,1.465,2.825.747.069,1.44-.399,2.237-.942Z"/><path class="cls-1" d="m170.781,446.787c.678-.662,1.124-2.128.633-2.995-.388-.686-1.489-1.208-2.257-1.148-1.697.132-2.803,1.502-2.815,3.122-.008,1.183.886,2.835,2.308,2.617.814-.125,1.426-.807,2.13-1.596Z"/><path class="cls-1" d="m170.861,447.352c.875-.049,2.079-.8,2.264-1.703.147-.715-.303-1.748-.875-2.174-1.264-.941-2.869-.658-3.862.464-.725.82-1.108,2.516.017,3.23.643.408,1.485.306,2.457.183Z"/><path class="cls-1" d="m173.729,443.547c-.403-.79-1.591-1.597-2.502-1.399-.721.157-1.494.995-1.654,1.699-.354,1.554.564,2.924,2.009,3.385,1.055.336,2.782-.004,2.982-1.336.115-.762-.325-1.5-.835-2.349Z"/><path class="cls-1" d="m174.316,445.977c.666-.262,1.408-1.153,1.321-1.9-.069-.592-.682-1.279-1.235-1.463-1.221-.407-2.394.223-2.878,1.348-.353.821-.216,2.235.839,2.501.603.152,1.231-.143,1.953-.486Z"/><path class="cls-1" d="m175.987,445.759c.782-.319,1.644-1.382,1.53-2.263-.091-.697-.825-1.498-1.48-1.707-1.447-.461-2.822.3-3.375,1.635-.404.975-.22,2.641,1.029,2.939.714.17,1.45-.188,2.297-.604Z"/></g></g><g><path class="cls-1" d="m200.964,531.938c1.002-.31,2.182-1.53,2.136-2.631-.036-.872-.857-1.942-1.644-2.271-1.739-.727-3.521.065-4.35,1.655-.605,1.161-.559,3.241.953,3.745.865.288,1.813-.075,2.905-.498Z"/><path class="cls-1" d="m203.535,527.78c.503-1.324.186-3.594-1.025-4.461-.958-.686-2.779-.702-3.784-.137-2.219,1.247-2.858,3.802-1.855,6.006.733,1.609,2.986,3.289,4.778,2.099,1.025-.681,1.427-1.992,1.885-3.506Z"/><path class="cls-1" d="m203.228,524.755c.26-1.155-.272-2.998-1.376-3.572-.875-.455-2.384-.252-3.149.334-1.69,1.295-1.916,3.485-.825,5.191.797,1.246,2.861,2.37,4.204,1.172.768-.685.946-1.818,1.146-3.125Z"/><path class="cls-1" d="m201.856,525.462c1.389-.341,3.095-1.907,3.121-3.411.021-1.19-1.011-2.713-2.056-3.225-2.309-1.13-4.8-.196-6.057,1.903-.918,1.532-1.022,4.369.995,5.176,1.154.462,2.475.045,3.996-.443Z"/><path class="cls-1" d="m202.489,517.213c-.81-.865-2.634-1.461-3.73-.87-.868.468-1.55,1.831-1.495,2.794.121,2.126,1.807,3.546,3.833,3.602,1.479.041,3.57-1.035,3.334-2.82-.135-1.021-.972-1.805-1.942-2.706Z"/><path class="cls-1" d="m203.292,519.765c1.168-.773,2.224-2.781,1.752-4.176-.374-1.105-1.828-2.168-2.961-2.295-2.503-.279-4.491,1.405-4.957,3.755-.34,1.716.5,4.366,2.627,4.444,1.217.045,2.297-.776,3.539-1.728Z"/><path class="cls-1" d="m204.668,513.907c-.062-1.433-1.266-3.419-2.739-3.741-1.166-.255-2.867.459-3.576,1.387-1.566,2.048-1.138,4.682.678,6.331,1.326,1.204,4.095,1.866,5.286.04.682-1.044.531-2.425.351-4.017Z"/><path class="cls-1" d="m203.197,514.903c1.173-.562,2.4-2.274,2.144-3.617-.203-1.064-1.405-2.227-2.431-2.488-2.266-.576-4.309.719-5.037,2.821-.532,1.535-.097,4.079,1.849,4.422,1.113.196,2.211-.421,3.475-1.138Z"/><path class="cls-1" d="m204.11,511.709c.941-.875,1.596-2.851.959-4.043-.504-.944-1.98-1.689-3.025-1.633-2.307.123-3.854,1.945-3.924,4.143-.051,1.605,1.108,3.877,3.045,3.629,1.108-.142,1.962-1.047,2.944-2.096Z"/><path class="cls-1" d="m203.969,504.96c-.742-.974-2.554-1.779-3.743-1.287-.942.39-1.786,1.719-1.83,2.715-.099,2.199,1.485,3.835,3.561,4.106,1.516.198,3.779-.688,3.724-2.548-.031-1.064-.81-1.958-1.712-2.986Z"/><path class="cls-1" d="m205.779,505.665c.463-1.101.262-3.025-.733-3.791-.788-.607-2.322-.673-3.186-.227-1.907.986-2.521,3.121-1.74,5.008.57,1.378,2.42,2.861,3.966,1.91.884-.544,1.262-1.637,1.692-2.9Z"/><path class="cls-1" d="m207.172,504.027c.737-1.215.836-3.512-.2-4.587-.821-.851-2.614-1.198-3.708-.823-2.416.827-3.51,3.231-2.921,5.588.43,1.721,2.348,3.788,4.332,2.939,1.135-.485,1.77-1.705,2.497-3.116Z"/><path class="cls-1" d="m206.206,497.837c-.894-.705-2.712-1.009-3.669-.29-.758.569-1.209,1.962-1.018,2.869.421,2.003,2.226,3.109,4.159,2.871,1.411-.174,3.243-1.496,2.762-3.158-.275-.951-1.183-1.575-2.234-2.292Z"/><path class="cls-1" d="m208.697,500.256c1.015-.987,1.686-3.177.956-4.473-.578-1.026-2.221-1.81-3.369-1.723-2.536.192-4.194,2.236-4.217,4.656-.016,1.767,1.315,4.24,3.441,3.919,1.216-.184,2.134-1.201,3.189-2.379Z"/><path class="cls-1" d="m208.094,493.203c-.926-.671-2.764-.903-3.695-.142-.737.603-1.134,2.019-.905,2.922.504,1.994,2.362,3.031,4.292,2.713,1.41-.232,3.195-1.634,2.645-3.283-.315-.943-1.252-1.533-2.336-2.21Z"/><path class="cls-1" d="m209.593,495.355c.817-.587,1.52-2.056,1.143-3.044-.299-.782-1.371-1.506-2.188-1.566-1.803-.132-3.184,1.131-3.454,2.83-.197,1.241.478,3.119,2.007,3.117.874-.001,1.627-.62,2.492-1.337Z"/><path class="cls-1" d="m210.787,487.847c-1.186-.994-3.643-1.482-4.972-.544-1.052.743-1.722,2.617-1.5,3.857.49,2.738,2.898,4.315,5.533,4.07,1.924-.179,4.467-1.901,3.881-4.178-.335-1.303-1.543-2.188-2.942-3.205Z"/><path class="cls-1" d="m211.501,492.536c1.487-.447,3.249-2.239,3.195-3.87-.043-1.291-1.246-2.885-2.407-3.382-2.566-1.097-5.214.054-6.46,2.398-.91,1.712-.866,4.792,1.366,5.556,1.277.437,2.685-.089,4.307-.702Z"/><path class="cls-1" d="m213.763,484.828c-.526-1.278-2.269-2.682-3.709-2.491-1.141.152-2.447,1.357-2.785,2.43-.747,2.37.505,4.615,2.691,5.514,1.597.656,4.322.347,4.803-1.697.275-1.17-.314-2.371-1-3.755Z"/><path class="cls-1" d="m214.524,485.124c.382-.935.196-2.561-.652-3.201-.671-.507-1.97-.55-2.697-.165-1.605.85-2.106,2.661-1.43,4.251.494,1.161,2.071,2.399,3.371,1.582.743-.468,1.054-1.395,1.407-2.467Z"/><path class="cls-1" d="m213.366,478.808c-1.428-.21-3.619.605-4.216,2-.473,1.105-.088,2.921.694,3.797,1.728,1.935,4.412,2.01,6.386.527,1.441-1.083,2.619-3.694,1.04-5.217-.903-.871-2.296-.984-3.904-1.107Z"/><path class="cls-1" d="m217.69,483.328c1.288-.916,2.402-3.22,1.817-4.774-.463-1.231-2.143-2.375-3.425-2.475-2.832-.22-5.01,1.754-5.446,4.421-.319,1.948.729,4.903,3.131,4.911,1.374.004,2.56-.962,3.924-2.083Z"/><path class="cls-1" d="m218.623,475.886c-.825-1.068-2.829-1.942-4.136-1.39-1.035.437-1.955,1.909-1.997,3.007-.093,2.424,1.666,4.217,3.956,4.499,1.673.206,4.16-.787,4.086-2.837-.043-1.172-.907-2.152-1.91-3.279Z"/><path class="cls-1" d="m220.496,477.063c.447-1.04.271-2.863-.666-3.597-.742-.581-2.195-.655-3.016-.239-1.814.919-2.411,2.938-1.686,4.731.53,1.31,2.271,2.728,3.743,1.839.842-.509,1.208-1.541,1.625-2.735Z"/><path class="cls-1" d="m221.505,476.146c.856-.81,1.44-2.626.847-3.713-.47-.861-1.828-1.532-2.785-1.473-2.114.131-3.517,1.814-3.563,3.828-.034,1.471,1.046,3.545,2.82,3.302,1.015-.139,1.79-.975,2.681-1.944Z"/><path class="cls-1" d="m223.625,470.231c-.593-1.324-2.466-2.741-3.971-2.493-1.191.196-2.523,1.502-2.843,2.638-.707,2.51.679,4.824,3.001,5.696,1.696.637,4.545.225,4.983-1.935.251-1.236-.406-2.477-1.17-3.906Z"/><path class="cls-1" d="m222.638,467.668c-.945-.428-2.619-.299-3.308.547-.545.67-.639,2-.272,2.76.811,1.679,2.65,2.262,4.306,1.628,1.21-.463,2.54-2.034,1.751-3.398-.451-.78-1.391-1.134-2.478-1.537Z"/><path class="cls-1" d="m225.387,466.109c-.673-.909-2.338-1.676-3.443-1.236-.875.349-1.671,1.567-1.725,2.486-.119,2.031,1.324,3.563,3.24,3.839,1.399.202,3.501-.589,3.473-2.308-.016-.983-.724-1.82-1.545-2.781Z"/><path class="cls-1" d="m224.778,463.767c-1-.068-2.473.614-2.811,1.612-.268.79.097,2.027.686,2.592,1.301,1.247,3.164,1.154,4.45.02.94-.828,1.614-2.7.438-3.669-.672-.554-1.643-.557-2.763-.556Z"/><path class="cls-1" d="m226.394,461.23c-1.266-.094-3.136.758-3.572,2.019-.345.999.106,2.568.848,3.287,1.638,1.589,3.997,1.485,5.634.061,1.196-1.041,2.064-3.405.584-4.642-.847-.707-2.076-.718-3.494-.725Z"/><path class="cls-1" d="m232.049,461.937c-.025-1.474-1.209-3.546-2.714-3.916-1.192-.293-2.958.395-3.711,1.329-1.663,2.062-1.294,4.779.527,6.522,1.33,1.273,4.157,2.026,5.429.183.728-1.054.61-2.477.468-4.117Z"/><path class="cls-1" d="m231.555,462.982c.958-.46,1.961-1.859,1.751-2.956-.166-.869-1.148-1.82-1.987-2.033-1.852-.47-3.521.589-4.116,2.307-.434,1.254-.078,3.333,1.513,3.613.91.16,1.807-.345,2.839-.931Z"/><path class="cls-1" d="m231.818,455.795c-1.187-.257-3.072.303-3.651,1.441-.459.901-.239,2.447.369,3.226,1.342,1.722,3.59,1.936,5.33.803,1.271-.828,2.406-2.953,1.167-4.32-.709-.782-1.872-.955-3.214-1.149Z"/><path class="cls-1" d="m234.952,454.563c-.853-.786-2.676-1.237-3.704-.581-.814.519-1.381,1.899-1.259,2.835.271,2.067,2.019,3.332,4.001,3.241,1.447-.066,3.411-1.267,3.053-2.993-.205-.987-1.079-1.693-2.091-2.503Z"/><path class="cls-1" d="m236.501,452.452c-.99-.736-2.969-1.008-3.983-.199-.803.641-1.248,2.163-1.013,3.14.519,2.156,2.509,3.298,4.595,2.979,1.523-.233,3.466-1.723,2.893-3.508-.328-1.021-1.331-1.669-2.492-2.412Z"/><path class="cls-1" d="m239.61,456.439c1.296-.882,2.448-3.143,1.9-4.696-.434-1.23-2.076-2.4-3.345-2.525-2.804-.277-5.004,1.635-5.492,4.271-.356,1.925.622,4.877,3.002,4.934,1.362.033,2.558-.901,3.934-1.984Z"/><path class="cls-1" d="m241.19,450.708c-.264-1.051-1.457-2.337-2.596-2.351-.902-.011-2.052.776-2.435,1.57-.847,1.754-.13,3.637,1.465,4.581,1.164.689,3.313.757,3.917-.774.345-.876.024-1.875-.351-3.026Z"/></g><g><path class="cls-1" d="m180.038,412.507c-.56-.953-2.098-1.868-3.216-1.555-.886.248-1.785,1.349-1.932,2.237-.325,1.96.919,3.597,2.751,4.062,1.338.34,3.461-.211,3.611-1.884.086-.957-.515-1.842-1.214-2.86Z"/><path class="cls-1" d="m181.256,418.477c.939-.631,1.781-2.258,1.391-3.382-.308-.89-1.488-1.741-2.404-1.837-2.023-.212-3.619,1.16-3.982,3.06-.265,1.388.428,3.523,2.147,3.575.983.029,1.85-.64,2.848-1.416Z"/><path class="cls-1" d="m181.303,421.922c1.391-.017,3.351-1.125,3.707-2.543.282-1.123-.36-2.792-1.237-3.507-1.938-1.579-4.503-1.242-6.155.468-1.207,1.249-1.93,3.913-.197,5.121.991.692,2.334.587,3.882.46Z"/><path class="cls-1" d="m185.503,419.929c.006-1.348-1.036-3.267-2.404-3.635-1.084-.292-2.712.303-3.42,1.142-1.562,1.853-1.278,4.344.353,5.974,1.191,1.19,3.761,1.935,4.961.275.687-.95.607-2.253.51-3.756Z"/><path class="cls-1" d="m186.351,422.682c.241-1.087-.263-2.817-1.303-3.354-.823-.425-2.242-.231-2.96.322-1.585,1.221-1.792,3.282-.762,4.883.753,1.169,2.696,2.22,3.955,1.091.72-.646.885-1.711,1.069-2.941Z"/><path class="cls-1" d="m187.869,425.408c.508-1.086.383-3.022-.584-3.83-.766-.64-2.302-.767-3.185-.354-1.952.912-2.652,3.029-1.943,4.952.517,1.405,2.313,2.964,3.901,2.072.908-.51,1.33-1.591,1.812-2.84Z"/><path class="cls-1" d="m189.509,426.724c.238-1.223-.377-3.144-1.556-3.715-.934-.452-2.515-.193-3.302.447-1.737,1.413-1.909,3.724-.709,5.485.876,1.286,3.081,2.405,4.457,1.105.787-.744.94-1.94,1.11-3.322Z"/><path class="cls-1" d="m190.153,427.73c-.297-1.269-1.707-2.839-3.076-2.879-1.085-.031-2.483.893-2.96,1.841-1.053,2.093-.227,4.372,1.672,5.538,1.387.852,3.971.976,4.727-.855.433-1.047.066-2.254-.363-3.646Z"/><path class="cls-1" d="m188.897,434.292c1.192-.232,2.704-1.489,2.788-2.763.067-1.009-.745-2.343-1.61-2.82-1.912-1.054-4.063-.365-5.215,1.363-.842,1.262-1.048,3.663.63,4.431.96.439,2.097.14,3.407-.21Z"/><path class="cls-1" d="m189.034,429.962c-1.434-.418-3.794.104-4.605,1.448-.642,1.065-.507,2.98.17,3.99,1.495,2.229,4.235,2.688,6.468,1.45,1.631-.904,3.209-3.412,1.809-5.198-.801-1.021-2.213-1.335-3.843-1.69Z"/><path class="cls-1" d="m191.686,433.062c-1.034-1.107-3.363-1.874-4.766-1.121-1.111.596-1.985,2.337-1.917,3.568.15,2.718,2.301,4.537,4.89,4.614,1.891.056,4.566-1.314,4.269-3.596-.17-1.306-1.238-2.31-2.476-3.464Z"/><path class="cls-1" d="m190.226,435.597c-1.111-.245-2.879.273-3.426,1.336-.434.842-.233,2.291.333,3.024,1.25,1.618,3.356,1.828,4.99.772,1.194-.771,2.266-2.758,1.11-4.043-.661-.735-1.75-.902-3.007-1.089Z"/><path class="cls-1" d="m192.826,438.91c-.632-.9-2.231-1.686-3.316-1.285-.859.317-1.663,1.482-1.738,2.374-.165,1.971,1.2,3.495,3.055,3.81,1.355.23,3.417-.487,3.432-2.159.009-.956-.659-1.786-1.433-2.741Z"/><path class="cls-1" d="m194.277,444.136c.512-.991.467-2.798-.403-3.584-.689-.623-2.113-.798-2.95-.446-1.849.777-2.578,2.721-1.989,4.536.43,1.326,2.043,2.842,3.553,2.071.864-.441,1.296-1.432,1.79-2.576Z"/><path class="cls-1" d="m195.707,444.187c-.342-1.401-1.918-3.123-3.434-3.152-1.2-.023-2.737,1.015-3.255,2.068-1.143,2.326-.205,4.839,1.909,6.109,1.543.928,4.403,1.037,5.22-.995.467-1.163.049-2.495-.441-4.03Z"/><path class="cls-1" d="m194.944,445.677c-.785-.958-2.646-1.706-3.83-1.165-.938.428-1.743,1.803-1.752,2.811-.021,2.226,1.639,3.823,3.748,4.022,1.54.145,3.795-.833,3.673-2.711-.07-1.074-.889-1.95-1.839-2.957Z"/><path class="cls-1" d="m194,454.204c1.472-.039,3.531-1.24,3.888-2.746.282-1.193-.422-2.951-1.361-3.695-2.075-1.643-4.785-1.249-6.51.586-1.259,1.34-1.986,4.17-.134,5.425,1.06.718,2.479.587,4.117.43Z"/><path class="cls-1" d="m197.577,453.411c.418-1.451-.118-3.838-1.481-4.653-1.079-.645-3.016-.502-4.035.186-2.25,1.52-2.704,4.293-1.444,6.548.92,1.647,3.463,3.235,5.264,1.812,1.03-.814,1.343-2.243,1.697-3.893Z"/><path class="cls-1" d="m195.09,458.223c1.145-.171,2.636-1.306,2.769-2.515.106-.958-.612-2.262-1.416-2.752-1.776-1.083-3.853-.516-5.022,1.081-.854,1.166-1.15,3.444.416,4.245.896.458,1.991.22,3.253-.059Z"/><path class="cls-1" d="m197.392,456.934c-.181-1.124-1.313-2.577-2.503-2.695-.943-.093-2.217.626-2.69,1.422-1.045,1.758-.465,3.794,1.118,4.926,1.156.827,3.398,1.093,4.169-.455.441-.885.195-1.959-.093-3.198Z"/><path class="cls-1" d="m198.551,458.938c-.308-1.427-1.856-3.212-3.389-3.283-1.214-.056-2.797.952-3.349,2.004-1.22,2.323-.338,4.891,1.766,6.234,1.537.981,4.427,1.169,5.309-.866.505-1.164.117-2.523-.337-4.09Z"/><path class="cls-1" d="m198.434,459.955c-.896-1.3-3.18-2.448-4.743-1.887-1.237.444-2.406,2.105-2.525,3.385-.263,2.826,1.677,5.032,4.335,5.508,1.941.348,4.91-.655,4.954-3.054.025-1.372-.923-2.572-2.022-3.952Z"/><path class="cls-1" d="m197.123,467.526c.969-.3,2.111-1.48,2.067-2.546-.035-.844-.83-1.879-1.591-2.197-1.682-.703-3.407.063-4.208,1.602-.585,1.123-.54,3.136.922,3.623.837.279,1.754-.072,2.811-.482Z"/><path class="cls-1" d="m198.642,469.55c.872-.741,1.533-2.472,1.015-3.558-.411-.86-1.694-1.581-2.625-1.573-2.057.017-3.506,1.577-3.655,3.528-.109,1.425.831,3.493,2.564,3.349.991-.082,1.787-.853,2.702-1.747Z"/><path class="cls-1" d="m199.341,468.126c-.606-1.114-2.333-2.222-3.627-1.906-1.025.251-2.098,1.478-2.3,2.49-.448,2.234.915,4.158,2.997,4.762,1.52.441,3.975-.109,4.212-2.02.136-1.093-.52-2.131-1.281-3.325Z"/><path class="cls-1" d="m198.252,475.269c1.109-.291,2.457-1.569,2.459-2.775.002-.955-.845-2.163-1.69-2.56-1.866-.877-3.851-.096-4.832,1.603-.716,1.24-.764,3.516.864,4.138.931.356,1.985.004,3.199-.406Z"/><path class="cls-1" d="m200.439,475.371c.314-1.177-.157-3.092-1.268-3.727-.88-.503-2.44-.357-3.25.214-1.789,1.261-2.112,3.503-1.06,5.301.768,1.313,2.843,2.552,4.272,1.377.818-.673,1.047-1.829,1.306-3.165Z"/><path class="cls-1" d="m200.479,477.879c.312-1.082-.087-2.861-1.102-3.469-.804-.482-2.248-.375-3.008.137-1.678,1.132-2.018,3.199-1.079,4.88.685,1.228,2.58,2.412,3.923,1.352.768-.606,1.002-1.671,1.266-2.901Z"/><path class="cls-1" d="m201.535,479.265c-.059-1.45-1.271-3.462-2.76-3.792-1.179-.261-2.901.457-3.621,1.393-1.59,2.067-1.164,4.732.668,6.405,1.338,1.222,4.136,1.898,5.346.056.692-1.054.544-2.451.366-4.062Z"/><path class="cls-1" d="m201.268,483.262c.494-1.143.306-3.15-.723-3.959-.815-.641-2.414-.727-3.319-.271-1.999,1.007-2.661,3.226-1.867,5.202.58,1.443,2.492,3.008,4.114,2.033.928-.557,1.333-1.693,1.795-3.005Z"/><path class="cls-1" d="m199.843,482.047c-1.037-.718-3.067-.929-4.075-.068-.798.682-1.201,2.252-.928,3.242.603,2.185,2.675,3.283,4.795,2.887,1.548-.289,3.482-1.877,2.836-3.681-.369-1.032-1.416-1.66-2.627-2.38Z"/><path class="cls-1" d="m199.892,489.789c.981-.296,2.143-1.482,2.105-2.558-.03-.853-.825-1.904-1.593-2.23-1.695-.722-3.442.041-4.263,1.59-.599,1.131-.567,3.165.907,3.667.843.287,1.772-.061,2.843-.468Z"/><path class="cls-1" d="m201.293,487.587c-.752-1.024-2.618-1.891-3.86-1.401-.984.388-1.883,1.752-1.947,2.784-.142,2.279,1.472,4.005,3.621,4.323,1.57.232,3.933-.647,3.909-2.577-.014-1.104-.805-2.046-1.723-3.129Z"/><path class="cls-1" d="m202.424,492.238c.144-1.249-.625-3.134-1.856-3.616-.975-.381-2.545.003-3.287.708-1.638,1.557-1.63,3.896-.285,5.574.982,1.225,3.288,2.179,4.571.763.734-.81.794-2.026.857-3.429Z"/><path class="cls-1" d="m201.159,497.601c1.164-.511,2.417-2.142,2.211-3.461-.163-1.045-1.299-2.22-2.292-2.509-2.193-.636-4.231.562-5.01,2.59-.569,1.481-.228,3.979,1.662,4.378,1.081.228,2.172-.339,3.43-.998Z"/><path class="cls-1" d="m202.148,500.284c1.292-.811,2.493-2.969,2.016-4.499-.378-1.212-1.933-2.408-3.163-2.575-2.716-.369-4.924,1.412-5.493,3.957-.415,1.859.43,4.765,2.744,4.906,1.323.08,2.52-.785,3.897-1.789Z"/><path class="cls-1" d="m201.595,496.889c-1.023-.9-3.175-1.38-4.364-.583-.942.632-1.57,2.266-1.401,3.362.374,2.419,2.46,3.857,4.783,3.697,1.697-.117,3.97-1.579,3.503-3.595-.267-1.153-1.312-1.958-2.521-2.881Z"/><path class="cls-1" d="m202.602,500.463c-.549-1.151-2.226-2.356-3.543-2.107-1.043.197-2.186,1.374-2.443,2.379-.568,2.221.699,4.226,2.758,4.943,1.504.524,3.999.101,4.338-1.807.194-1.091-.409-2.168-1.111-3.408Z"/><path class="cls-1" d="m200.857,501.454c-1.247-.503-3.408-.246-4.254.886-.67.896-.72,2.625-.204,3.589,1.14,2.131,3.553,2.786,5.665,1.877,1.542-.664,3.18-2.77,2.085-4.495-.627-.986-1.863-1.393-3.291-1.858Z"/><path class="cls-1" d="m202.508,508.7c.685-.783,1.047-2.427.436-3.334-.484-.718-1.734-1.194-2.57-1.063-1.847.291-2.94,1.886-2.813,3.661.093,1.296,1.214,3.028,2.753,2.667.88-.207,1.492-1.006,2.195-1.932Z"/><path class="cls-1" d="m201.613,507.098c-.957-.651-2.822-.831-3.741-.033-.728.631-1.086,2.076-.829,2.982.569,2.001,2.479,2.995,4.422,2.616,1.419-.277,3.182-1.748,2.577-3.4-.346-.945-1.312-1.513-2.429-2.165Z"/><path class="cls-1" d="m202.97,510.658c-.465-1.064-1.953-2.211-3.158-2.025-.955.148-2.03,1.183-2.295,2.09-.585,2.003.506,3.865,2.358,4.58,1.352.522,3.634.214,4.001-1.511.21-.987-.306-1.985-.906-3.134Z"/></g><g><path class="cls-1" d="m196.255,452.526c.451-.737.516-2.135-.112-2.791-.498-.52-1.588-.734-2.254-.509-1.472.498-2.143,1.958-1.789,3.393.258,1.048,1.42,2.31,2.629,1.798.692-.293,1.081-1.034,1.526-1.89Z"/><path class="cls-1" d="m193.291,449.721c-.62-.41-1.819-.509-2.402.011-.462.412-.679,1.343-.506,1.922.383,1.28,1.618,1.901,2.862,1.641.909-.19,2.028-1.15,1.625-2.205-.231-.603-.856-.96-1.578-1.369Z"/><path class="cls-1" d="m190.822,449.35c-.721-.12-1.837.271-2.153.971-.25.555-.073,1.477.315,1.929.856.996,2.214,1.06,3.227.329.74-.534,1.361-1.845.577-2.63-.449-.45-1.153-.52-1.965-.598Z"/><path class="cls-1" d="m191.615,452.139c.603-.889.767-2.622.025-3.474-.587-.675-1.929-1.005-2.77-.765-1.857.531-2.777,2.306-2.422,4.109.259,1.317,1.628,2.952,3.16,2.387.876-.323,1.403-1.22,2.007-2.258Z"/><path class="cls-1" d="m188.844,452.322c.698-.448,1.339-1.626,1.072-2.456-.212-.657-1.063-1.298-1.733-1.383-1.478-.186-2.669.793-2.964,2.18-.216,1.012.259,2.587,1.517,2.651.72.037,1.365-.44,2.108-.993Z"/><path class="cls-1" d="m187.497,452.243c.878-.52,1.719-1.942,1.426-2.974-.232-.817-1.251-1.644-2.07-1.777-1.81-.294-3.318.858-3.742,2.551-.31,1.236.205,3.194,1.749,3.328.883.077,1.699-.481,2.637-1.128Z"/><path class="cls-1" d="m184.26,446.871c-.974-.126-2.455.453-2.845,1.409-.309.757-.027,1.988.516,2.575,1.198,1.297,3.024,1.317,4.35.286.968-.753,1.739-2.543.648-3.561-.624-.582-1.573-.643-2.668-.708Z"/><path class="cls-1" d="m184.394,449.406c.437-.535.641-1.636.214-2.225-.338-.466-1.179-.754-1.732-.648-1.22.235-1.911,1.32-1.786,2.495.091.859.875,1.985,1.889,1.71.58-.157.969-.702,1.415-1.333Z"/><path class="cls-1" d="m181.821,450.407c1.087.003,2.632-.838,2.927-1.941.234-.874-.247-2.186-.924-2.755-1.495-1.257-3.503-1.025-4.814.291-.958.961-1.556,3.033-.216,3.999.766.552,1.816.487,3.027.407Z"/><path class="cls-1" d="m181.786,446.524c.011-.745-.553-1.81-1.307-2.022-.597-.167-1.5.152-1.896.611-.873,1.015-.731,2.392.161,3.302.651.664,2.066,1.09,2.739.18.385-.521.348-1.241.303-2.072Z"/><path class="cls-1" d="m179.232,448.474c1.028-.153,2.367-1.172,2.487-2.257.095-.86-.549-2.03-1.27-2.471-1.594-.973-3.459-.464-4.509.969-.767,1.047-1.033,3.091.372,3.811.804.412,1.787.199,2.92-.052Z"/><path class="cls-1" d="m178.805,445.341c.225-.695.004-1.858-.642-2.273-.511-.329-1.451-.291-1.954.026-1.112.699-1.376,2.032-.803,3.143.419.811,1.623,1.619,2.516.96.511-.377.685-1.063.883-1.855Z"/><path class="cls-1" d="m175.8,446.193c.844.051,2.082-.534,2.361-1.379.221-.669-.095-1.709-.596-2.182-1.106-1.043-2.676-.952-3.754.012-.787.704-1.343,2.288-.345,3.098.571.463,1.39.459,2.334.45Z"/><path class="cls-1" d="m176.561,443.553c.353-.876.171-2.394-.624-2.988-.63-.47-1.844-.505-2.522-.142-1.496.802-1.956,2.497-1.316,3.98.467,1.083,1.947,2.233,3.158,1.463.693-.44.978-1.309,1.304-2.313Z"/><path class="cls-1" d="m174.113,443.812c.778-.382,1.584-1.531,1.405-2.424-.142-.707-.951-1.475-1.636-1.642-1.514-.369-2.867.508-3.338,1.913-.344,1.026-.038,2.719,1.262,2.935.743.123,1.471-.295,2.308-.781Z"/></g></g></svg>